<?xml version="1.0" encoding="UTF-8" standalone="no"?>
<!-- Created with Inkscape (http://www.inkscape.org/) -->

<svg
   width="408.42249mm"
   height="387.31332mm"
   viewBox="0 0 408.42249 387.31332"
   version="1.1"
   id="svg5"
   xml:space="preserve"
   inkscape:version="1.2.2 (b0a84865, 2022-12-01)"
   sodipodi:docname="Faduino - 3mm.svg"
   xmlns:inkscape="http://www.inkscape.org/namespaces/inkscape"
   xmlns:sodipodi="http://sodipodi.sourceforge.net/DTD/sodipodi-0.dtd"
   xmlns="http://www.w3.org/2000/svg"
   xmlns:svg="http://www.w3.org/2000/svg"><sodipodi:namedview
     id="namedview7"
     pagecolor="#505050"
     bordercolor="#eeeeee"
     borderopacity="1"
     inkscape:showpageshadow="0"
     inkscape:pageopacity="0"
     inkscape:pagecheckerboard="0"
     inkscape:deskcolor="#505050"
     inkscape:document-units="mm"
     showgrid="false"
     inkscape:zoom="0.25"
     inkscape:cx="490"
     inkscape:cy="998"
     inkscape:window-width="2560"
     inkscape:window-height="1027"
     inkscape:window-x="0"
     inkscape:window-y="25"
     inkscape:window-maximized="1"
     inkscape:current-layer="layer1" /><defs
     id="defs2" /><g
     inkscape:label="Layer 1"
     inkscape:groupmode="layer"
     id="layer1"
     transform="translate(-129.29438,143.78271)"><g
       id="g14534"
       transform="matrix(0.26458333,0,0,0.26458333,334.99456,-143.66042)"
       style="stroke-width:1;stroke-dasharray:none"><!-- Entire Sketch --><path
         fill="none"
         style="stroke:#000000;stroke-width:1;stroke-dasharray:none"
         transform="matrix(1,0,0,-1,382.86614,363.96851)"
         d="m 371.48976,-363.93071 a 11.33858,11.33858 0 0 1 11.33859,11.33858 v 705.18426 a 11.33858,11.33858 0 0 1 -11.33859,11.33858 h -742.97952 a 11.33858,11.33858 0 0 1 -11.33859,-11.33858 v -705.18426 a 11.33858,11.33858 0 0 1 11.33859,-11.33858 z"
         id="path14504" /><path
         fill="none"
         style="stroke:#000000;stroke-width:1;stroke-dasharray:none"
         transform="matrix(1,0,0,-1,382.86614,363.96851)"
         d="M 269.29134,349.6063 V 335.24409 H 99.2126 v 14.36221 z"
         id="path14506" /><path
         fill="none"
         style="stroke:#000000;stroke-width:1;stroke-dasharray:none"
         transform="matrix(1,0,0,-1,382.86614,363.96851)"
         d="M -85.03937,349.6063 H 85.03937 V 335.24409 H -85.03937 Z"
         id="path14508" /><circle
         fill="none"
         style="stroke:#000000;stroke-width:1;stroke-dasharray:none"
         transform="matrix(1,0,0,-1,382.86614,363.96851)"
         cx="-362.64566"
         cy="343.74802"
         r="5.8582702"
         id="circle14510" /><circle
         fill="none"
         style="stroke:#000000;stroke-width:1;stroke-dasharray:none"
         transform="matrix(1,0,0,-1,382.86614,363.96851)"
         cx="-362.64566"
         cy="-343.74802"
         r="5.8582702"
         id="circle14512" /><circle
         fill="none"
         style="stroke:#000000;stroke-width:1;stroke-dasharray:none"
         transform="matrix(1,0,0,-1,382.86614,363.96851)"
         cx="362.64566"
         cy="-343.74802"
         r="5.8582702"
         id="circle14514" /><circle
         fill="none"
         style="stroke:#000000;stroke-width:1;stroke-dasharray:none"
         transform="matrix(1,0,0,-1,382.86614,363.96851)"
         cx="362.64566"
         cy="343.74802"
         r="5.8582702"
         id="circle14516" /><path
         fill="none"
         style="stroke:#000000;stroke-width:1;stroke-dasharray:none"
         transform="matrix(1,0,0,-1,382.86614,363.96851)"
         d="M -85.03937,-335.24409 H 85.03937 V -349.6063 H -85.03937 Z"
         id="path14518" /><path
         fill="none"
         style="stroke:#000000;stroke-width:1;stroke-dasharray:none"
         transform="matrix(1,0,0,-1,382.86614,363.96851)"
         d="m -368.50394,29.13386 v 174.80315 h 14.36221 V 29.13386 Z"
         id="path14520" /><path
         fill="none"
         style="stroke:#000000;stroke-width:1;stroke-dasharray:none"
         transform="matrix(1,0,0,-1,382.86614,363.96851)"
         d="M 368.50394,203.93701 V 29.13386 h -14.36221 v 174.80315 z"
         id="path14522" /><path
         fill="none"
         style="stroke:#000000;stroke-width:1;stroke-dasharray:none"
         transform="matrix(1,0,0,-1,382.86614,363.96851)"
         d="M 99.2126,-335.24409 H 269.29134 V -349.6063 H 99.2126 Z"
         id="path14524" /><path
         fill="none"
         style="stroke:#000000;stroke-width:1;stroke-dasharray:none"
         transform="matrix(1,0,0,-1,382.86614,363.96851)"
         d="m 354.14173,-203.93701 v 174.80315 h 14.36221 v -174.80315 z"
         id="path14526" /><path
         fill="none"
         style="stroke:#000000;stroke-width:1;stroke-dasharray:none"
         transform="matrix(1,0,0,-1,382.86614,363.96851)"
         d="M -269.29134,335.24409 V 349.6063 H -99.2126 v -14.36221 z"
         id="path14528" /><path
         fill="none"
         style="stroke:#000000;stroke-width:1;stroke-dasharray:none"
         transform="matrix(1,0,0,-1,382.86614,363.96851)"
         d="M -269.29134,-335.24409 H -99.2126 v -14.36221 h -170.07874 z"
         id="path14530" /><path
         fill="none"
         style="stroke:#000000;stroke-width:1;stroke-dasharray:none"
         transform="matrix(1,0,0,-1,382.86614,363.96851)"
         d="m -354.14173,-203.93701 h -14.36221 v 174.80315 h 14.36221 z"
         id="path14532" /></g><g
       id="g15289"
       transform="matrix(0.26458333,0,0,0.26458333,342.94,146.22667)"
       style="stroke-width:1;stroke-dasharray:none"><!-- Entire Sketch --><path
         fill="none"
         style="stroke:#000000;stroke-width:1;stroke-dasharray:none"
         transform="matrix(1,0,0,-1,311.84882,141.69449)"
         d="M -236.56063,71.05512 V 49.88976 a 7.55906,7.55906 0 0 0 -7.55906,-7.55905 h -36.28346 a 7.55906,7.55906 0 0 0 -7.55905,7.55905 v 21.16536 a 7.55906,7.55906 0 0 0 7.55905,7.55905 h 36.28346 a 7.55906,7.55906 0 0 0 7.55906,-7.55905"
         id="path15283" /><circle
         fill="none"
         style="stroke:#000000;stroke-width:1;stroke-dasharray:none"
         transform="matrix(1,0,0,-1,311.84882,141.69449)"
         cx="-123.93071"
         cy="75.590553"
         r="24.566931"
         id="circle15285" /><path
         fill="none"
         style="stroke:#000000;stroke-width:1;stroke-dasharray:none"
         transform="matrix(1,0,0,-1,311.84882,141.69449)"
         d="m -203.93701,-11.33858 a 5.66929,5.66929 0 0 1 5.66929,-5.66929 h 163.46457 a 5.66929,5.66929 0 0 1 5.66929,5.66929 V 0 h 58.26772 v -11.33858 a 5.66929,5.66929 0 0 1 5.66929,-5.66929 h 163.46457 a 5.66929,5.66929 0 0 1 5.66929,5.66929 V 0 h 107.87401 v 0 l -2.54059,7.08661 -2.244,7.08662 -1.00847,3.54331 -0.93093,3.5433 -0.8517,3.54331 -0.77056,3.54331 -0.68732,3.5433 -0.60193,3.54331 -0.51431,3.54331 -0.42455,3.54331 -0.33275,3.5433 -0.23916,3.54331 -0.14415,3.54331 -0.0482,3.5433 0.0482,3.54331 0.14415,3.54331 0.23916,3.5433 0.33275,3.54331 0.42455,3.54331 0.51431,3.54331 0.60193,3.5433 0.68732,3.54331 0.77056,3.54331 0.8517,3.5433 0.93093,3.54331 1.00847,3.54331 2.244,7.08661 2.54059,7.08662 H 203.93701 v 22.67716 a 5.66929,5.66929 0 0 1 -5.66929,5.66929 H 34.80315 a 5.66929,5.66929 0 0 1 -5.66929,-5.66929 v -22.67716 h -58.26772 v 22.67716 a 5.66929,5.66929 0 0 1 -5.66929,5.66929 h -163.46457 a 5.66929,5.66929 0 0 1 -5.66929,-5.66929 v -22.67716 h -107.87401 v 0 l 2.54059,-7.08662 2.244,-7.08661 1.00847,-3.54331 0.93093,-3.54331 0.8517,-3.5433 0.77056,-3.54331 0.68732,-3.54331 0.60193,-3.5433 0.51431,-3.54331 0.42455,-3.54331 0.33275,-3.54331 0.23916,-3.5433 0.14415,-3.54331 0.0482,-3.54331 -0.0482,-3.5433 -0.14415,-3.54331 -0.23916,-3.54331 -0.33275,-3.5433 -0.42455,-3.54331 -0.51431,-3.54331 -0.60193,-3.54331 -0.68732,-3.5433 -0.77056,-3.54331 -0.8517,-3.54331 -0.93093,-3.5433 -1.00847,-3.54331 -2.244,-7.08662 L -311.81102,0 h 107.87401 z"
         id="path15287" /></g><path
       fill="none"
       style="stroke:#000000;stroke-width:0.264583;stroke-dasharray:none"
       d="m 446.45,94.025001 a 1.4999996,1.4999996 0 0 0 1.5,-1.5 v -3 h 3.75 v 3 a 1.4999996,1.4999996 0 0 0 1.5,1.5 h 41.99999 a 1.4999996,1.4999996 0 0 0 1.5,-1.5 v -3 h 16.25 v 0 l -0.6722,-1.875 -0.59372,-1.875 -0.26683,-0.9375 -0.24631,-0.9375 -0.22534,-0.9375 -0.20388,-0.9375 -0.18185,-0.9375 -0.15926,-0.9375 -0.13608,-0.9375 -0.11233,-0.9375 -0.088,-0.9375 -0.0633,-0.9375 -0.0381,-0.9375 -0.0128,-0.9375 0.0128,-0.9375 0.0381,-0.9375 0.0633,-0.9375 0.088,-0.9375 0.11233,-0.9375 0.13608,-0.9375 0.15926,-0.9375 0.18185,-0.9375 0.20388,-0.9375 0.22534,-0.9375 0.24631,-0.9375 0.26683,-0.9375 0.59372,-1.875 0.6722,-1.875 h -16.25 v -6 a 1.4999996,1.4999996 0 0 0 -1.5,-1.5 H 453.2 a 1.4999996,1.4999996 0 0 0 -1.5,1.5 v 6 h -3.75 v -6 a 1.4999996,1.4999996 0 0 0 -1.5,-1.5 h -42 a 1.4999996,1.4999996 0 0 0 -1.5,1.5 v 6 h -3.75 v -6 a 1.4999996,1.4999996 0 0 0 -1.5,-1.5 h -42 a 1.4999996,1.4999996 0 0 0 -1.5,1.5 v 6 h -16.25 v 0 l 0.6722,1.875 0.59372,1.875 0.26682,0.9375 0.24632,0.9375 0.22534,0.9375 0.20388,0.9375 0.18185,0.9375 0.15926,0.9375 0.13608,0.9375 0.11233,0.9375 0.088,0.9375 0.0633,0.9375 0.0381,0.9375 0.0128,0.9375 -0.0128,0.9375 -0.0381,0.9375 -0.0633,0.9375 -0.088,0.9375 -0.11233,0.9375 -0.13608,0.9375 -0.15926,0.9375 -0.18185,0.9375 -0.20388,0.9375 -0.22534,0.9375 -0.24632,0.9375 -0.26682,0.9375 -0.59372,1.875 -0.6722,1.875 h 16.25 v 3 a 1.4999996,1.4999996 0 0 0 1.5,1.5 h 42 a 1.4999996,1.4999996 0 0 0 1.5,-1.5 v -3 h 3.75 v 3 a 1.4999996,1.4999996 0 0 0 1.5,1.5 z"
       id="path16026" /><g
       id="g16857"
       transform="matrix(0.26458333,0,0,0.26458333,129.41667,50.808333)"
       style="stroke-width:1;stroke-dasharray:none"><!-- Entire Sketch --><path
         fill="none"
         style="stroke:#000000;stroke-width:1;stroke-dasharray:none"
         transform="matrix(1,0,0,-1,382.86614,363.96851)"
         d="m 382.82835,352.59213 a 11.33858,11.33858 0 0 1 -11.33859,11.33858 h -742.97952 a 11.33858,11.33858 0 0 1 -11.33859,-11.33858 v -705.18426 a 11.33858,11.33858 0 0 1 11.33859,-11.33858 h 742.97952 a 11.33858,11.33858 0 0 1 11.33859,11.33858 z"
         id="path16763" /><path
         fill="none"
         style="stroke:#000000;stroke-width:1;stroke-dasharray:none"
         transform="matrix(1,0,0,-1,382.86614,363.96851)"
         d="m 248.49561,-15.87981 v 0 l -1.14119,0.11396 -1.09746,0.334 -1.0029,0.54884 -0.87525,0.7367 -0.72332,0.8894 -0.54711,1.00693 -0.34663,1.08933 -0.12187,1.13658 v 44.99303 0 l 0.11396,1.14119 0.33399,1.09746 0.54885,1.0029 0.7367,0.87524 0.88939,0.72332 1.00694,0.54712 1.08933,0.34663 1.13657,0.12187 h 44.99303 v 0 l 1.14119,-0.11396 1.09747,-0.33399 1.00289,-0.54885 0.87525,-0.7367 0.72332,-0.88939 0.54711,-1.00694 0.34663,-1.08933 0.12188,-1.13657 v -44.99303 0 l -0.11396,-1.1412 -0.334,-1.09746 -0.54885,-1.00289 -0.73669,-0.87525 -0.8894,-0.72332 -1.00694,-0.54712 -1.08933,-0.34663 -1.13657,-0.12187 z"
         id="path16765" /><circle
         fill="none"
         style="stroke:#000000;stroke-width:1;stroke-dasharray:none"
         transform="matrix(1,0,0,-1,382.86614,363.96851)"
         cx="0.75590998"
         cy="-310.67719"
         r="6.0472398"
         id="circle16767" /><path
         fill="none"
         style="stroke:#000000;stroke-width:1;stroke-dasharray:none"
         transform="matrix(1,0,0,-1,382.86614,363.96851)"
         d="m 154.00742,-204.85619 v 0 l -1.14119,0.11396 -1.09746,0.334 -1.0029,0.54885 -0.87525,0.73669 -0.72332,0.8894 -0.54711,1.00694 -0.34663,1.08933 -0.12187,1.13657 v 44.99303 0 l 0.11396,1.14119 0.33399,1.09746 0.54885,1.0029 0.7367,0.87525 0.88939,0.72332 1.00694,0.54711 1.08933,0.34663 1.13657,0.12187 h 44.99303 v 0 l 1.14119,-0.11396 1.09747,-0.33399 1.00289,-0.54885 0.87525,-0.7367 0.72332,-0.88939 0.54711,-1.00694 0.34664,-1.08933 0.12187,-1.13657 v -44.99303 0 l -0.11396,-1.14119 -0.334,-1.09747 -0.54885,-1.00289 -0.73669,-0.87525 -0.8894,-0.72332 -1.00694,-0.54711 -1.08933,-0.34664 -1.13657,-0.12187 z"
         id="path16769" /><path
         fill="none"
         style="stroke:#000000;stroke-width:1;stroke-dasharray:none"
         transform="matrix(1,0,0,-1,382.86614,363.96851)"
         d="m -40.82469,34.96908 v 0 l 0.11396,1.14119 0.33399,1.09746 0.54885,1.0029 0.7367,0.87525 0.88939,0.72332 1.00694,0.54711 1.08933,0.34663 1.13657,0.12187 h 44.99303 v 0 l 1.1412,-0.11396 1.09746,-0.33399 1.00289,-0.54885 0.87525,-0.7367 0.72332,-0.88939 0.54712,-1.00694 0.34663,-1.08933 0.12187,-1.13657 v -44.99303 0 l -0.11396,-1.14119 -0.334,-1.09746 -0.54884,-1.0029 -0.7367,-0.87525 -0.8894,-0.72332 -1.00693,-0.54711 -1.08933,-0.34663 -1.13658,-0.12188 h -44.99303 v 0 l -1.14119,0.11396 -1.09746,0.334 -1.0029,0.54885 -0.87524,0.73669 -0.72332,0.8894 -0.54712,1.00694 -0.34663,1.08933 -0.12187,1.13657 z"
         id="path16771" /><path
         fill="none"
         style="stroke:#000000;stroke-width:1;stroke-dasharray:none"
         transform="matrix(1,0,0,-1,382.86614,363.96851)"
         d="m 354.14173,-203.93701 v 174.80315 h 14.36221 v -174.80315 z"
         id="path16773" /><path
         fill="none"
         style="stroke:#000000;stroke-width:1;stroke-dasharray:none"
         transform="matrix(1,0,0,-1,382.86614,363.96851)"
         d="m 154.00742,-110.368 v 0 l -1.14119,0.11396 -1.09746,0.334 -1.0029,0.54884 -0.87525,0.7367 -0.72332,0.8894 -0.54711,1.00693 -0.34663,1.08934 -0.12187,1.13657 v 44.99303 0 l 0.11396,1.14119 0.33399,1.09746 0.54885,1.0029 0.7367,0.87524 0.88939,0.72332 1.00694,0.54712 1.08933,0.34663 1.13657,0.12187 h 44.99303 v 0 l 1.14119,-0.11396 1.09747,-0.33399 1.00289,-0.54885 0.87525,-0.7367 0.72332,-0.88939 0.54711,-1.00694 0.34664,-1.08933 0.12187,-1.13657 v -44.99303 0 l -0.11396,-1.1412 -0.334,-1.09746 -0.54885,-1.00289 -0.73669,-0.87525 -0.8894,-0.72332 -1.00694,-0.54711 -1.08933,-0.34664 -1.13657,-0.12187 z"
         id="path16775" /><path
         fill="none"
         style="stroke:#000000;stroke-width:1;stroke-dasharray:none"
         transform="matrix(1,0,0,-1,382.86614,363.96851)"
         d="m -135.31288,129.45727 v 0 l 0.11396,1.14119 0.33399,1.09746 0.54885,1.0029 0.7367,0.87525 0.88939,0.72332 1.00694,0.54711 1.08933,0.34663 1.13658,0.12187 h 44.99302 v 0 l 1.1412,-0.11396 1.09746,-0.33399 1.0029,-0.54885 0.87524,-0.7367 0.72332,-0.88939 0.54712,-1.00694 0.34663,-1.08933 0.12187,-1.13657 v -44.99303 0 l -0.11396,-1.14119 -0.33399,-1.09747 -0.54885,-1.00289 -0.7367,-0.87525 -0.88939,-0.72332 -1.00694,-0.54711 -1.08933,-0.34664 -1.13658,-0.12187 h -44.99302 v 0 l -1.1412,0.11396 -1.09746,0.334 -1.0029,0.54885 -0.87524,0.73669 -0.72332,0.8894 -0.54712,1.00694 -0.34663,1.08933 -0.12187,1.13657 z"
         id="path16777" /><path
         fill="none"
         style="stroke:#000000;stroke-width:1;stroke-dasharray:none"
         transform="matrix(1,0,0,-1,382.86614,363.96851)"
         d="m -135.31288,-154.0073 v 0 l 0.11396,1.14119 0.33399,1.09747 0.54885,1.00289 0.7367,0.87525 0.88939,0.72332 1.00694,0.54711 1.08933,0.34663 1.13658,0.12188 h 44.99302 v 0 l 1.1412,-0.11396 1.09746,-0.334 1.0029,-0.54885 0.87524,-0.73669 0.72332,-0.8894 0.54712,-1.00694 0.34663,-1.08933 0.12187,-1.13657 v -44.99303 0 l -0.11396,-1.14119 -0.33399,-1.09746 -0.54885,-1.0029 -0.7367,-0.87525 -0.88939,-0.72332 -1.00694,-0.54711 -1.08933,-0.34663 -1.13658,-0.12187 h -44.99302 v 0 l -1.1412,0.11396 -1.09746,0.33399 -1.0029,0.54885 -0.87524,0.7367 -0.72332,0.88939 -0.54712,1.00694 -0.34663,1.08933 -0.12187,1.13657 z"
         id="path16779" /><path
         fill="none"
         style="stroke:#000000;stroke-width:1;stroke-dasharray:none"
         transform="matrix(1,0,0,-1,382.86614,363.96851)"
         d="m -324.28926,34.96908 v 0 l 0.11396,1.14119 0.334,1.09746 0.54885,1.0029 0.73669,0.87525 0.8894,0.72332 1.00693,0.54711 1.08934,0.34663 1.13657,0.12187 h 44.99303 v 0 l 1.14119,-0.11396 1.09746,-0.33399 1.0029,-0.54885 0.87524,-0.7367 0.72332,-0.88939 0.54712,-1.00694 0.34663,-1.08933 0.12187,-1.13657 v -44.99303 0 l -0.11396,-1.14119 -0.33399,-1.09746 -0.54885,-1.0029 -0.7367,-0.87525 -0.88939,-0.72332 -1.00694,-0.54711 -1.08933,-0.34663 -1.13657,-0.12188 h -44.99303 v 0 l -1.1412,0.11396 -1.09746,0.334 -1.00289,0.54885 -0.87525,0.73669 -0.72332,0.8894 -0.54711,1.00694 -0.34664,1.08933 -0.12187,1.13657 z"
         id="path16781" /><path
         fill="none"
         style="stroke:#000000;stroke-width:1;stroke-dasharray:none"
         transform="matrix(1,0,0,-1,382.86614,363.96851)"
         d="m 368.50394,29.13386 h -14.36221 v 174.80315 h 14.36221 z"
         id="path16783" /><path
         fill="none"
         style="stroke:#000000;stroke-width:1;stroke-dasharray:none"
         transform="matrix(1,0,0,-1,382.86614,363.96851)"
         d="m 248.49561,78.60838 v 0 l -1.14119,0.11396 -1.09746,0.33399 -1.0029,0.54885 -0.87525,0.7367 -0.72332,0.88939 -0.54711,1.00694 -0.34663,1.08933 -0.12187,1.13658 v 44.99302 0 l 0.11396,1.1412 0.33399,1.09746 0.54885,1.0029 0.7367,0.87524 0.88939,0.72332 1.00694,0.54712 1.08933,0.34663 1.13657,0.12187 h 44.99303 v 0 l 1.14119,-0.11396 1.09747,-0.33399 1.00289,-0.54885 0.87525,-0.7367 0.72332,-0.88939 0.54711,-1.00694 0.34663,-1.08933 0.12188,-1.13658 v -44.99302 0 l -0.11396,-1.1412 -0.334,-1.09746 -0.54885,-1.0029 -0.73669,-0.87524 -0.8894,-0.72332 -1.00694,-0.54712 -1.08933,-0.34663 -1.13657,-0.12187 z"
         id="path16785" /><path
         fill="none"
         style="stroke:#000000;stroke-width:1;stroke-dasharray:none"
         transform="matrix(1,0,0,-1,382.86614,363.96851)"
         d="m -324.28926,-154.0073 v 0 l 0.11396,1.14119 0.334,1.09747 0.54885,1.00289 0.73669,0.87525 0.8894,0.72332 1.00693,0.54711 1.08934,0.34663 1.13657,0.12188 h 44.99303 v 0 l 1.14119,-0.11396 1.09746,-0.334 1.0029,-0.54885 0.87524,-0.73669 0.72332,-0.8894 0.54712,-1.00694 0.34663,-1.08933 0.12187,-1.13657 v -44.99303 0 l -0.11396,-1.14119 -0.33399,-1.09746 -0.54885,-1.0029 -0.7367,-0.87525 -0.88939,-0.72332 -1.00694,-0.54711 -1.08933,-0.34663 -1.13657,-0.12187 h -44.99303 v 0 l -1.1412,0.11396 -1.09746,0.33399 -1.00289,0.54885 -0.87525,0.7367 -0.72332,0.88939 -0.54711,1.00694 -0.34664,1.08933 -0.12187,1.13657 z"
         id="path16787" /><path
         fill="none"
         style="stroke:#000000;stroke-width:1;stroke-dasharray:none"
         transform="matrix(1,0,0,-1,382.86614,363.96851)"
         d="m -40.82469,129.45727 v 0 l 0.11396,1.14119 0.33399,1.09746 0.54885,1.0029 0.7367,0.87525 0.88939,0.72332 1.00694,0.54711 1.08933,0.34663 1.13657,0.12187 h 44.99303 v 0 l 1.1412,-0.11396 1.09746,-0.33399 1.00289,-0.54885 0.87525,-0.7367 0.72332,-0.88939 0.54712,-1.00694 0.34663,-1.08933 0.12187,-1.13657 v -44.99303 0 l -0.11396,-1.14119 -0.334,-1.09747 -0.54884,-1.00289 -0.7367,-0.87525 -0.8894,-0.72332 -1.00693,-0.54711 -1.08933,-0.34664 -1.13658,-0.12187 h -44.99303 v 0 l -1.14119,0.11396 -1.09746,0.334 -1.0029,0.54885 -0.87524,0.73669 -0.72332,0.8894 -0.54712,1.00694 -0.34663,1.08933 -0.12187,1.13657 z"
         id="path16789" /><path
         fill="none"
         style="stroke:#000000;stroke-width:1;stroke-dasharray:none"
         transform="matrix(1,0,0,-1,382.86614,363.96851)"
         d="M 269.29134,-335.24409 V -349.6063 H 99.2126 v 14.36221 z"
         id="path16791" /><path
         fill="none"
         style="stroke:#000000;stroke-width:1;stroke-dasharray:none"
         transform="matrix(1,0,0,-1,382.86614,363.96851)"
         d="m 154.00742,-15.87981 v 0 l -1.14119,0.11396 -1.09746,0.334 -1.0029,0.54884 -0.87525,0.7367 -0.72332,0.8894 -0.54711,1.00693 -0.34663,1.08933 -0.12187,1.13658 v 44.99303 0 l 0.11396,1.14119 0.33399,1.09746 0.54885,1.0029 0.7367,0.87524 0.88939,0.72332 1.00694,0.54712 1.08933,0.34663 1.13657,0.12187 h 44.99303 v 0 l 1.14119,-0.11396 1.09747,-0.33399 1.00289,-0.54885 0.87525,-0.7367 0.72332,-0.88939 0.54711,-1.00694 0.34664,-1.08933 0.12187,-1.13657 v -44.99303 0 l -0.11396,-1.1412 -0.334,-1.09746 -0.54885,-1.00289 -0.73669,-0.87525 -0.8894,-0.72332 -1.00694,-0.54712 -1.08933,-0.34663 -1.13657,-0.12187 z"
         id="path16793" /><path
         fill="none"
         style="stroke:#000000;stroke-width:1;stroke-dasharray:none"
         transform="matrix(1,0,0,-1,382.86614,363.96851)"
         d="m -368.50394,203.93701 h 14.36221 V 29.13386 h -14.36221 z"
         id="path16795" /><path
         fill="none"
         style="stroke:#000000;stroke-width:1;stroke-dasharray:none"
         transform="matrix(1,0,0,-1,382.86614,363.96851)"
         d="M 269.29134,335.24409 H 99.2126 v 14.36221 h 170.07874 z"
         id="path16797" /><path
         fill="none"
         style="stroke:#000000;stroke-width:1;stroke-dasharray:none"
         transform="matrix(1,0,0,-1,382.86614,363.96851)"
         d="m -229.80107,34.96908 v 0 l 0.11396,1.14119 0.334,1.09746 0.54884,1.0029 0.7367,0.87525 0.8894,0.72332 1.00693,0.54711 1.08933,0.34663 1.13658,0.12187 h 44.99303 v 0 l 1.14119,-0.11396 1.09746,-0.33399 1.0029,-0.54885 0.87524,-0.7367 0.72332,-0.88939 0.54712,-1.00694 0.34663,-1.08933 0.12187,-1.13657 v -44.99303 0 l -0.11396,-1.14119 -0.33399,-1.09746 -0.54885,-1.0029 -0.7367,-0.87525 -0.88939,-0.72332 -1.00694,-0.54711 -1.08933,-0.34663 -1.13657,-0.12188 h -44.99303 v 0 l -1.1412,0.11396 -1.09746,0.334 -1.00289,0.54885 -0.87525,0.73669 -0.72332,0.8894 -0.54712,1.00694 -0.34663,1.08933 -0.12187,1.13657 z"
         id="path16799" /><path
         fill="none"
         style="stroke:#000000;stroke-width:1;stroke-dasharray:none"
         transform="matrix(1,0,0,-1,382.86614,363.96851)"
         d="m -354.14173,-203.93701 h -14.36221 v 174.80315 h 14.36221 z"
         id="path16801" /><path
         fill="none"
         style="stroke:#000000;stroke-width:1;stroke-dasharray:none"
         transform="matrix(1,0,0,-1,382.86614,363.96851)"
         d="m -135.31288,-59.51911 v 0 l 0.11396,1.14119 0.33399,1.09746 0.54885,1.0029 0.7367,0.87525 0.88939,0.72332 1.00694,0.54711 1.08933,0.34663 1.13658,0.12188 h 44.99302 v 0 l 1.1412,-0.11396 1.09746,-0.334 1.0029,-0.54885 0.87524,-0.7367 0.72332,-0.88939 0.54712,-1.00694 0.34663,-1.08933 0.12187,-1.13657 v -44.99303 0 l -0.11396,-1.14119 -0.33399,-1.09746 -0.54885,-1.0029 -0.7367,-0.87525 -0.88939,-0.72332 -1.00694,-0.54711 -1.08933,-0.34663 -1.13658,-0.12188 h -44.99302 v 0 l -1.1412,0.11396 -1.09746,0.334 -1.0029,0.54885 -0.87524,0.7367 -0.72332,0.88939 -0.54712,1.00694 -0.34663,1.08933 -0.12187,1.13657 z"
         id="path16803" /><path
         fill="none"
         style="stroke:#000000;stroke-width:1;stroke-dasharray:none"
         transform="matrix(1,0,0,-1,382.86614,363.96851)"
         d="m -229.80107,-59.51911 v 0 l 0.11396,1.14119 0.334,1.09746 0.54884,1.0029 0.7367,0.87525 0.8894,0.72332 1.00693,0.54711 1.08933,0.34663 1.13658,0.12188 h 44.99303 v 0 l 1.14119,-0.11396 1.09746,-0.334 1.0029,-0.54885 0.87524,-0.7367 0.72332,-0.88939 0.54712,-1.00694 0.34663,-1.08933 0.12187,-1.13657 v -44.99303 0 l -0.11396,-1.14119 -0.33399,-1.09746 -0.54885,-1.0029 -0.7367,-0.87525 -0.88939,-0.72332 -1.00694,-0.54711 -1.08933,-0.34663 -1.13657,-0.12188 h -44.99303 v 0 l -1.1412,0.11396 -1.09746,0.334 -1.00289,0.54885 -0.87525,0.7367 -0.72332,0.88939 -0.54712,1.00694 -0.34663,1.08933 -0.12187,1.13657 z"
         id="path16805" /><path
         fill="none"
         style="stroke:#000000;stroke-width:1;stroke-dasharray:none"
         transform="matrix(1,0,0,-1,382.86614,363.96851)"
         d="m -99.2126,-335.24409 v -14.36221 h -170.07874 v 14.36221 z"
         id="path16807" /><circle
         fill="none"
         style="stroke:#000000;stroke-width:1;stroke-dasharray:none"
         transform="matrix(1,0,0,-1,382.86614,363.96851)"
         cx="-331.84253"
         cy="171.2126"
         r="6.0472398"
         id="circle16809" /><path
         fill="none"
         style="stroke:#000000;stroke-width:1;stroke-dasharray:none"
         transform="matrix(1,0,0,-1,382.86614,363.96851)"
         d="m -324.28926,129.45727 v 0 l 0.11396,1.14119 0.334,1.09746 0.54885,1.0029 0.73669,0.87525 0.8894,0.72332 1.00693,0.54711 1.08934,0.34663 1.13657,0.12187 h 44.99303 v 0 l 1.14119,-0.11396 1.09746,-0.33399 1.0029,-0.54885 0.87524,-0.7367 0.72332,-0.88939 0.54712,-1.00694 0.34663,-1.08933 0.12187,-1.13657 v -44.99303 0 l -0.11396,-1.14119 -0.33399,-1.09747 -0.54885,-1.00289 -0.7367,-0.87525 -0.88939,-0.72332 -1.00694,-0.54711 -1.08933,-0.34664 -1.13657,-0.12187 h -44.99303 v 0 l -1.1412,0.11396 -1.09746,0.334 -1.00289,0.54885 -0.87525,0.73669 -0.72332,0.8894 -0.54711,1.00694 -0.34664,1.08933 -0.12187,1.13657 z"
         id="path16811" /><circle
         fill="none"
         style="stroke:#000000;stroke-width:1;stroke-dasharray:none"
         transform="matrix(1,0,0,-1,382.86614,363.96851)"
         cx="-331.84253"
         cy="-310.67719"
         r="6.0472398"
         id="circle16813" /><path
         fill="none"
         style="stroke:#000000;stroke-width:1;stroke-dasharray:none"
         transform="matrix(1,0,0,-1,382.86614,363.96851)"
         d="m 248.49561,-204.85619 v 0 l -1.14119,0.11396 -1.09746,0.334 -1.0029,0.54885 -0.87525,0.73669 -0.72332,0.8894 -0.54711,1.00694 -0.34663,1.08933 -0.12187,1.13657 v 44.99303 0 l 0.11396,1.14119 0.33399,1.09746 0.54885,1.0029 0.7367,0.87525 0.88939,0.72332 1.00694,0.54711 1.08933,0.34663 1.13657,0.12187 h 44.99303 v 0 l 1.14119,-0.11396 1.09747,-0.33399 1.00289,-0.54885 0.87525,-0.7367 0.72332,-0.88939 0.54711,-1.00694 0.34663,-1.08933 0.12188,-1.13657 v -44.99303 0 l -0.11396,-1.14119 -0.334,-1.09747 -0.54885,-1.00289 -0.73669,-0.87525 -0.8894,-0.72332 -1.00694,-0.54711 -1.08933,-0.34664 -1.13657,-0.12187 z"
         id="path16815" /><circle
         fill="none"
         style="stroke:#000000;stroke-width:1;stroke-dasharray:none"
         transform="matrix(1,0,0,-1,382.86614,363.96851)"
         cx="333.35434"
         cy="-310.67719"
         r="6.0472398"
         id="circle16817" /><circle
         fill="none"
         style="stroke:#000000;stroke-width:1;stroke-dasharray:none"
         transform="matrix(1,0,0,-1,382.86614,363.96851)"
         cx="362.64566"
         cy="343.74802"
         r="5.8582702"
         id="circle16819" /><path
         fill="none"
         style="stroke:#000000;stroke-width:1;stroke-dasharray:none"
         transform="matrix(1,0,0,-1,382.86614,363.96851)"
         d="m -40.82469,-154.0073 v 0 l 0.11396,1.14119 0.33399,1.09747 0.54885,1.00289 0.7367,0.87525 0.88939,0.72332 1.00694,0.54711 1.08933,0.34663 1.13657,0.12188 h 44.99303 v 0 l 1.1412,-0.11396 1.09746,-0.334 1.00289,-0.54885 0.87525,-0.73669 0.72332,-0.8894 0.54712,-1.00694 0.34663,-1.08933 0.12187,-1.13657 v -44.99303 0 l -0.11396,-1.14119 -0.334,-1.09746 -0.54884,-1.0029 -0.7367,-0.87525 -0.8894,-0.72332 -1.00693,-0.54711 -1.08933,-0.34663 -1.13658,-0.12187 h -44.99303 v 0 l -1.14119,0.11396 -1.09746,0.33399 -1.0029,0.54885 -0.87524,0.7367 -0.72332,0.88939 -0.54712,1.00694 -0.34663,1.08933 -0.12187,1.13657 z"
         id="path16821" /><path
         fill="none"
         style="stroke:#000000;stroke-width:1;stroke-dasharray:none"
         transform="matrix(1,0,0,-1,382.86614,363.96851)"
         d="m -229.80107,-154.0073 v 0 l 0.11396,1.14119 0.334,1.09747 0.54884,1.00289 0.7367,0.87525 0.8894,0.72332 1.00693,0.54711 1.08933,0.34663 1.13658,0.12188 h 44.99303 v 0 l 1.14119,-0.11396 1.09746,-0.334 1.0029,-0.54885 0.87524,-0.73669 0.72332,-0.8894 0.54712,-1.00694 0.34663,-1.08933 0.12187,-1.13657 v -44.99303 0 l -0.11396,-1.14119 -0.33399,-1.09746 -0.54885,-1.0029 -0.7367,-0.87525 -0.88939,-0.72332 -1.00694,-0.54711 -1.08933,-0.34663 -1.13657,-0.12187 h -44.99303 v 0 l -1.1412,0.11396 -1.09746,0.33399 -1.00289,0.54885 -0.87525,0.7367 -0.72332,0.88939 -0.54712,1.00694 -0.34663,1.08933 -0.12187,1.13657 z"
         id="path16823" /><path
         fill="none"
         style="stroke:#000000;stroke-width:1;stroke-dasharray:none"
         transform="matrix(1,0,0,-1,382.86614,363.96851)"
         d="m -324.28926,-59.51911 v 0 l 0.11396,1.14119 0.334,1.09746 0.54885,1.0029 0.73669,0.87525 0.8894,0.72332 1.00693,0.54711 1.08934,0.34663 1.13657,0.12188 h 44.99303 v 0 l 1.14119,-0.11396 1.09746,-0.334 1.0029,-0.54885 0.87524,-0.7367 0.72332,-0.88939 0.54712,-1.00694 0.34663,-1.08933 0.12187,-1.13657 v -44.99303 0 l -0.11396,-1.14119 -0.33399,-1.09746 -0.54885,-1.0029 -0.7367,-0.87525 -0.88939,-0.72332 -1.00694,-0.54711 -1.08933,-0.34663 -1.13657,-0.12188 h -44.99303 v 0 l -1.1412,0.11396 -1.09746,0.334 -1.00289,0.54885 -0.87525,0.7367 -0.72332,0.88939 -0.54711,1.00694 -0.34664,1.08933 -0.12187,1.13657 z"
         id="path16825" /><path
         fill="none"
         style="stroke:#000000;stroke-width:1;stroke-dasharray:none"
         transform="matrix(1,0,0,-1,382.86614,363.96851)"
         d="m -229.80107,129.45727 v 0 l 0.11396,1.14119 0.334,1.09746 0.54884,1.0029 0.7367,0.87525 0.8894,0.72332 1.00693,0.54711 1.08933,0.34663 1.13658,0.12187 h 44.99303 v 0 l 1.14119,-0.11396 1.09746,-0.33399 1.0029,-0.54885 0.87524,-0.7367 0.72332,-0.88939 0.54712,-1.00694 0.34663,-1.08933 0.12187,-1.13657 v -44.99303 0 l -0.11396,-1.14119 -0.33399,-1.09747 -0.54885,-1.00289 -0.7367,-0.87525 -0.88939,-0.72332 -1.00694,-0.54711 -1.08933,-0.34664 -1.13657,-0.12187 h -44.99303 v 0 l -1.1412,0.11396 -1.09746,0.334 -1.00289,0.54885 -0.87525,0.73669 -0.72332,0.8894 -0.54712,1.00694 -0.34663,1.08933 -0.12187,1.13657 z"
         id="path16827" /><path
         fill="none"
         style="stroke:#000000;stroke-width:1;stroke-dasharray:none"
         transform="matrix(1,0,0,-1,382.86614,363.96851)"
         d="M -269.29134,349.6063 H -99.2126 v -14.36221 h -170.07874 z"
         id="path16829" /><path
         fill="none"
         style="stroke:#000000;stroke-width:1;stroke-dasharray:none"
         transform="matrix(1,0,0,-1,382.86614,363.96851)"
         d="m 248.49561,-110.368 v 0 l -1.14119,0.11396 -1.09746,0.334 -1.0029,0.54885 -0.87525,0.73669 -0.72332,0.8894 -0.54711,1.00693 -0.34663,1.08934 -0.12187,1.13657 v 44.99303 0 l 0.11396,1.14119 0.33399,1.09746 0.54885,1.0029 0.7367,0.87524 0.88939,0.72332 1.00694,0.54712 1.08933,0.34663 1.13657,0.12187 h 44.99303 v 0 l 1.14119,-0.11396 1.09747,-0.33399 1.00289,-0.54885 0.87525,-0.7367 0.72332,-0.88939 0.54711,-1.00694 0.34663,-1.08933 0.12188,-1.13657 v -44.99303 0 l -0.11396,-1.1412 -0.334,-1.09746 -0.54885,-1.00289 -0.73669,-0.87525 -0.8894,-0.72332 -1.00694,-0.54711 -1.08933,-0.34664 -1.13657,-0.12187 z"
         id="path16831" /><circle
         fill="none"
         style="stroke:#000000;stroke-width:1;stroke-dasharray:none"
         transform="matrix(1,0,0,-1,382.86614,363.96851)"
         cx="-362.64566"
         cy="-343.74802"
         r="5.8582702"
         id="circle16833" /><path
         fill="none"
         style="stroke:#000000;stroke-width:1;stroke-dasharray:none"
         transform="matrix(1,0,0,-1,382.86614,363.96851)"
         d="m 154.00742,78.60838 v 0 l -1.14119,0.11396 -1.09746,0.33399 -1.0029,0.54885 -0.87525,0.7367 -0.72332,0.88939 -0.54711,1.00694 -0.34663,1.08933 -0.12187,1.13658 v 44.99302 0 l 0.11396,1.1412 0.33399,1.09746 0.54885,1.0029 0.7367,0.87524 0.88939,0.72332 1.00694,0.54712 1.08933,0.34663 1.13657,0.12187 h 44.99303 v 0 l 1.14119,-0.11396 1.09747,-0.33399 1.00289,-0.54885 0.87525,-0.7367 0.72332,-0.88939 0.54711,-1.00694 0.34664,-1.08933 0.12187,-1.13658 v -44.99302 0 l -0.11396,-1.1412 -0.334,-1.09746 -0.54885,-1.0029 -0.73669,-0.87524 -0.8894,-0.72332 -1.00694,-0.54712 -1.08933,-0.34663 -1.13657,-0.12187 z"
         id="path16835" /><circle
         fill="none"
         style="stroke:#000000;stroke-width:1;stroke-dasharray:none"
         transform="matrix(1,0,0,-1,382.86614,363.96851)"
         cx="0.75590998"
         cy="171.2126"
         r="6.0472398"
         id="circle16837" /><path
         fill="none"
         style="stroke:#000000;stroke-width:1;stroke-dasharray:none"
         transform="matrix(1,0,0,-1,382.86614,363.96851)"
         d="m 238.11024,221.85827 h -476.22048 a 3.77953,3.77953 0 0 0 -3.77952,3.77953 v 52.91338 a 3.77953,3.77953 0 0 0 3.77952,3.77953 h 476.22048 a 3.77953,3.77953 0 0 0 3.77952,-3.77953 V 225.6378 a 3.77953,3.77953 0 0 0 -3.77952,-3.77953"
         id="path16839" /><circle
         fill="none"
         style="stroke:#000000;stroke-width:1;stroke-dasharray:none"
         transform="matrix(1,0,0,-1,382.86614,363.96851)"
         cx="362.64566"
         cy="-343.74802"
         r="5.8582702"
         id="circle16841" /><path
         fill="none"
         style="stroke:#000000;stroke-width:1;stroke-dasharray:none"
         transform="matrix(1,0,0,-1,382.86614,363.96851)"
         d="M 85.03937,349.6063 V 335.24409 H -85.03937 v 14.36221 z"
         id="path16843" /><circle
         fill="none"
         style="stroke:#000000;stroke-width:1;stroke-dasharray:none"
         transform="matrix(1,0,0,-1,382.86614,363.96851)"
         cx="-362.64566"
         cy="343.74802"
         r="5.8582702"
         id="circle16845" /><path
         fill="none"
         style="stroke:#000000;stroke-width:1;stroke-dasharray:none"
         transform="matrix(1,0,0,-1,382.86614,363.96851)"
         d="m -135.31288,34.96908 v 0 l 0.11396,1.14119 0.33399,1.09746 0.54885,1.0029 0.7367,0.87525 0.88939,0.72332 1.00694,0.54711 1.08933,0.34663 1.13658,0.12187 h 44.99302 v 0 l 1.1412,-0.11396 1.09746,-0.33399 1.0029,-0.54885 0.87524,-0.7367 0.72332,-0.88939 0.54712,-1.00694 0.34663,-1.08933 0.12187,-1.13657 v -44.99303 0 l -0.11396,-1.14119 -0.33399,-1.09746 -0.54885,-1.0029 -0.7367,-0.87525 -0.88939,-0.72332 -1.00694,-0.54711 -1.08933,-0.34663 -1.13658,-0.12188 h -44.99302 v 0 l -1.1412,0.11396 -1.09746,0.334 -1.0029,0.54885 -0.87524,0.73669 -0.72332,0.8894 -0.54712,1.00694 -0.34663,1.08933 -0.12187,1.13657 z"
         id="path16847" /><path
         fill="none"
         style="stroke:#000000;stroke-width:1;stroke-dasharray:none"
         transform="matrix(1,0,0,-1,382.86614,363.96851)"
         d="M 85.03937,-335.24409 V -349.6063 H -85.03937 v 14.36221 z"
         id="path16849" /><circle
         fill="none"
         style="stroke:#000000;stroke-width:1;stroke-dasharray:none"
         transform="matrix(1,0,0,-1,382.86614,363.96851)"
         cx="333.35434"
         cy="171.2126"
         r="6.0472398"
         id="circle16851" /><path
         fill="none"
         style="stroke:#000000;stroke-width:1;stroke-dasharray:none"
         transform="matrix(1,0,0,-1,382.86614,363.96851)"
         d="m -40.82469,-59.51911 v 0 l 0.11396,1.14119 0.33399,1.09746 0.54885,1.0029 0.7367,0.87525 0.88939,0.72332 1.00694,0.54711 1.08933,0.34663 1.13657,0.12188 h 44.99303 v 0 l 1.1412,-0.11396 1.09746,-0.334 1.00289,-0.54885 0.87525,-0.7367 0.72332,-0.88939 0.54712,-1.00694 0.34663,-1.08933 0.12187,-1.13657 v -44.99303 0 l -0.11396,-1.14119 -0.334,-1.09746 -0.54884,-1.0029 -0.7367,-0.87525 -0.8894,-0.72332 -1.00693,-0.54711 -1.08933,-0.34663 -1.13658,-0.12188 h -44.99303 v 0 l -1.14119,0.11396 -1.09746,0.334 -1.0029,0.54885 -0.87524,0.7367 -0.72332,0.88939 -0.54712,1.00694 -0.34663,1.08933 -0.12187,1.13657 z"
         id="path16853" /><circle
         fill="none"
         style="stroke:#000000;stroke-width:1;stroke-dasharray:none"
         transform="matrix(1,0,0,-1,382.86614,363.96851)"
         cx="81.902359"
         cy="-34.960629"
         r="15.11811"
         id="circle16855" /></g><g
       id="g17736"
       transform="matrix(0.26458333,0,0,0.26458333,129.41667,-143.66042)"
       style="stroke-width:1;stroke-dasharray:none"><!-- Entire Sketch --><circle
         fill="none"
         style="stroke:#000000;stroke-width:1;stroke-dasharray:none"
         transform="matrix(1,0,0,-1,382.86614,363.96851)"
         cx="-226.77165"
         cy="252.09448"
         r="6.0472398"
         id="circle17638" /><circle
         fill="none"
         style="stroke:#000000;stroke-width:1;stroke-dasharray:none"
         transform="matrix(1,0,0,-1,382.86614,363.96851)"
         cx="226.77165"
         cy="252.09448"
         r="6.0472398"
         id="circle17640" /><path
         fill="none"
         style="stroke:#000000;stroke-width:1;stroke-dasharray:none"
         transform="matrix(1,0,0,-1,382.86614,363.96851)"
         d="m -324.28926,-199.00033 v 44.99303 0 l 0.11396,1.14119 0.334,1.09747 0.54885,1.00289 0.73669,0.87525 0.8894,0.72332 1.00693,0.54711 1.08934,0.34663 1.13657,0.12188 h 44.99303 v 0 l 1.14119,-0.11396 1.09746,-0.334 1.0029,-0.54885 0.87524,-0.73669 0.72332,-0.8894 0.54712,-1.00694 0.34663,-1.08933 0.12187,-1.13657 v -44.99303 0 l -0.11396,-1.14119 -0.33399,-1.09746 -0.54885,-1.0029 -0.7367,-0.87525 -0.88939,-0.72332 -1.00694,-0.54711 -1.08933,-0.34663 -1.13657,-0.12187 h -44.99303 v 0 l -1.1412,0.11396 -1.09746,0.33399 -1.00289,0.54885 -0.87525,0.7367 -0.72332,0.88939 -0.54711,1.00694 -0.34664,1.08933 z"
         id="path17642" /><path
         fill="none"
         style="stroke:#000000;stroke-width:1;stroke-dasharray:none"
         transform="matrix(1,0,0,-1,382.86614,363.96851)"
         d="m -324.28926,-104.51214 v 44.99303 0 l 0.11396,1.14119 0.334,1.09746 0.54885,1.0029 0.73669,0.87525 0.8894,0.72332 1.00693,0.54711 1.08934,0.34663 1.13657,0.12188 h 44.99303 v 0 l 1.14119,-0.11396 1.09746,-0.334 1.0029,-0.54885 0.87524,-0.7367 0.72332,-0.88939 0.54712,-1.00694 0.34663,-1.08933 0.12187,-1.13657 v -44.99303 0 l -0.11396,-1.14119 -0.33399,-1.09746 -0.54885,-1.0029 -0.7367,-0.87525 -0.88939,-0.72332 -1.00694,-0.54711 -1.08933,-0.34663 -1.13657,-0.12188 h -44.99303 v 0 l -1.1412,0.11396 -1.09746,0.334 -1.00289,0.54885 -0.87525,0.7367 -0.72332,0.88939 -0.54711,1.00694 -0.34664,1.08933 z"
         id="path17644" /><path
         fill="none"
         style="stroke:#000000;stroke-width:1;stroke-dasharray:none"
         transform="matrix(1,0,0,-1,382.86614,363.96851)"
         d="m -324.28926,-10.02395 v 44.99303 0 l 0.11396,1.14119 0.334,1.09746 0.54885,1.0029 0.73669,0.87525 0.8894,0.72332 1.00693,0.54711 1.08934,0.34663 1.13657,0.12187 h 44.99303 v 0 l 1.14119,-0.11396 1.09746,-0.33399 1.0029,-0.54885 0.87524,-0.7367 0.72332,-0.88939 0.54712,-1.00694 0.34663,-1.08933 0.12187,-1.13657 v -44.99303 0 l -0.11396,-1.14119 -0.33399,-1.09746 -0.54885,-1.0029 -0.7367,-0.87525 -0.88939,-0.72332 -1.00694,-0.54711 -1.08933,-0.34663 -1.13657,-0.12188 h -44.99303 v 0 l -1.1412,0.11396 -1.09746,0.334 -1.00289,0.54885 -0.87525,0.73669 -0.72332,0.8894 -0.54711,1.00694 -0.34664,1.08933 z"
         id="path17646" /><path
         fill="none"
         style="stroke:#000000;stroke-width:1;stroke-dasharray:none"
         transform="matrix(1,0,0,-1,382.86614,363.96851)"
         d="m -324.28926,84.46424 v 44.99303 0 l 0.11396,1.14119 0.334,1.09746 0.54885,1.0029 0.73669,0.87525 0.8894,0.72332 1.00693,0.54711 1.08934,0.34663 1.13657,0.12187 h 44.99303 v 0 l 1.14119,-0.11396 1.09746,-0.33399 1.0029,-0.54885 0.87524,-0.7367 0.72332,-0.88939 0.54712,-1.00694 0.34663,-1.08933 0.12187,-1.13657 v -44.99303 0 l -0.11396,-1.14119 -0.33399,-1.09747 -0.54885,-1.00289 -0.7367,-0.87525 -0.88939,-0.72332 -1.00694,-0.54711 -1.08933,-0.34664 -1.13657,-0.12187 h -44.99303 v 0 l -1.1412,0.11396 -1.09746,0.334 -1.00289,0.54885 -0.87525,0.73669 -0.72332,0.8894 -0.54711,1.00694 -0.34664,1.08933 z"
         id="path17648" /><path
         fill="none"
         style="stroke:#000000;stroke-width:1;stroke-dasharray:none"
         transform="matrix(1,0,0,-1,382.86614,363.96851)"
         d="m -229.80107,-199.00033 v 44.99303 0 l 0.11396,1.14119 0.334,1.09747 0.54884,1.00289 0.7367,0.87525 0.8894,0.72332 1.00693,0.54711 1.08933,0.34663 1.13658,0.12188 h 44.99303 v 0 l 1.14119,-0.11396 1.09746,-0.334 1.0029,-0.54885 0.87524,-0.73669 0.72332,-0.8894 0.54712,-1.00694 0.34663,-1.08933 0.12187,-1.13657 v -44.99303 0 l -0.11396,-1.14119 -0.33399,-1.09746 -0.54885,-1.0029 -0.7367,-0.87525 -0.88939,-0.72332 -1.00694,-0.54711 -1.08933,-0.34663 -1.13657,-0.12187 h -44.99303 v 0 l -1.1412,0.11396 -1.09746,0.33399 -1.00289,0.54885 -0.87525,0.7367 -0.72332,0.88939 -0.54712,1.00694 -0.34663,1.08933 z"
         id="path17650" /><path
         fill="none"
         style="stroke:#000000;stroke-width:1;stroke-dasharray:none"
         transform="matrix(1,0,0,-1,382.86614,363.96851)"
         d="m -229.80107,-104.51214 v 44.99303 0 l 0.11396,1.14119 0.334,1.09746 0.54884,1.0029 0.7367,0.87525 0.8894,0.72332 1.00693,0.54711 1.08933,0.34663 1.13658,0.12188 h 44.99303 v 0 l 1.14119,-0.11396 1.09746,-0.334 1.0029,-0.54885 0.87524,-0.7367 0.72332,-0.88939 0.54712,-1.00694 0.34663,-1.08933 0.12187,-1.13657 v -44.99303 0 l -0.11396,-1.14119 -0.33399,-1.09746 -0.54885,-1.0029 -0.7367,-0.87525 -0.88939,-0.72332 -1.00694,-0.54711 -1.08933,-0.34663 -1.13657,-0.12188 h -44.99303 v 0 l -1.1412,0.11396 -1.09746,0.334 -1.00289,0.54885 -0.87525,0.7367 -0.72332,0.88939 -0.54712,1.00694 -0.34663,1.08933 z"
         id="path17652" /><path
         fill="none"
         style="stroke:#000000;stroke-width:1;stroke-dasharray:none"
         transform="matrix(1,0,0,-1,382.86614,363.96851)"
         d="m -229.80107,-10.02395 v 44.99303 0 l 0.11396,1.14119 0.334,1.09746 0.54884,1.0029 0.7367,0.87525 0.8894,0.72332 1.00693,0.54711 1.08933,0.34663 1.13658,0.12187 h 44.99303 v 0 l 1.14119,-0.11396 1.09746,-0.33399 1.0029,-0.54885 0.87524,-0.7367 0.72332,-0.88939 0.54712,-1.00694 0.34663,-1.08933 0.12187,-1.13657 v -44.99303 0 l -0.11396,-1.14119 -0.33399,-1.09746 -0.54885,-1.0029 -0.7367,-0.87525 -0.88939,-0.72332 -1.00694,-0.54711 -1.08933,-0.34663 -1.13657,-0.12188 h -44.99303 v 0 l -1.1412,0.11396 -1.09746,0.334 -1.00289,0.54885 -0.87525,0.73669 -0.72332,0.8894 -0.54712,1.00694 -0.34663,1.08933 z"
         id="path17654" /><path
         fill="none"
         style="stroke:#000000;stroke-width:1;stroke-dasharray:none"
         transform="matrix(1,0,0,-1,382.86614,363.96851)"
         d="m -229.80107,84.46424 v 44.99303 0 l 0.11396,1.14119 0.334,1.09746 0.54884,1.0029 0.7367,0.87525 0.8894,0.72332 1.00693,0.54711 1.08933,0.34663 1.13658,0.12187 h 44.99303 v 0 l 1.14119,-0.11396 1.09746,-0.33399 1.0029,-0.54885 0.87524,-0.7367 0.72332,-0.88939 0.54712,-1.00694 0.34663,-1.08933 0.12187,-1.13657 v -44.99303 0 l -0.11396,-1.14119 -0.33399,-1.09747 -0.54885,-1.00289 -0.7367,-0.87525 -0.88939,-0.72332 -1.00694,-0.54711 -1.08933,-0.34664 -1.13657,-0.12187 h -44.99303 v 0 l -1.1412,0.11396 -1.09746,0.334 -1.00289,0.54885 -0.87525,0.73669 -0.72332,0.8894 -0.54712,1.00694 -0.34663,1.08933 z"
         id="path17656" /><path
         fill="none"
         style="stroke:#000000;stroke-width:1;stroke-dasharray:none"
         transform="matrix(1,0,0,-1,382.86614,363.96851)"
         d="m -135.31288,-199.00033 v 44.99303 0 l 0.11396,1.14119 0.33399,1.09747 0.54885,1.00289 0.7367,0.87525 0.88939,0.72332 1.00694,0.54711 1.08933,0.34663 1.13658,0.12188 h 44.99302 v 0 l 1.1412,-0.11396 1.09746,-0.334 1.0029,-0.54885 0.87524,-0.73669 0.72332,-0.8894 0.54712,-1.00694 0.34663,-1.08933 0.12187,-1.13657 v -44.99303 0 l -0.11396,-1.14119 -0.33399,-1.09746 -0.54885,-1.0029 -0.7367,-0.87525 -0.88939,-0.72332 -1.00694,-0.54711 -1.08933,-0.34663 -1.13658,-0.12187 h -44.99302 v 0 l -1.1412,0.11396 -1.09746,0.33399 -1.0029,0.54885 -0.87524,0.7367 -0.72332,0.88939 -0.54712,1.00694 -0.34663,1.08933 z"
         id="path17658" /><path
         fill="none"
         style="stroke:#000000;stroke-width:1;stroke-dasharray:none"
         transform="matrix(1,0,0,-1,382.86614,363.96851)"
         d="m -135.31288,-104.51214 v 44.99303 0 l 0.11396,1.14119 0.33399,1.09746 0.54885,1.0029 0.7367,0.87525 0.88939,0.72332 1.00694,0.54711 1.08933,0.34663 1.13658,0.12188 h 44.99302 v 0 l 1.1412,-0.11396 1.09746,-0.334 1.0029,-0.54885 0.87524,-0.7367 0.72332,-0.88939 0.54712,-1.00694 0.34663,-1.08933 0.12187,-1.13657 v -44.99303 0 l -0.11396,-1.14119 -0.33399,-1.09746 -0.54885,-1.0029 -0.7367,-0.87525 -0.88939,-0.72332 -1.00694,-0.54711 -1.08933,-0.34663 -1.13658,-0.12188 h -44.99302 v 0 l -1.1412,0.11396 -1.09746,0.334 -1.0029,0.54885 -0.87524,0.7367 -0.72332,0.88939 -0.54712,1.00694 -0.34663,1.08933 z"
         id="path17660" /><path
         fill="none"
         style="stroke:#000000;stroke-width:1;stroke-dasharray:none"
         transform="matrix(1,0,0,-1,382.86614,363.96851)"
         d="m -135.31288,-10.02395 v 44.99303 0 l 0.11396,1.14119 0.33399,1.09746 0.54885,1.0029 0.7367,0.87525 0.88939,0.72332 1.00694,0.54711 1.08933,0.34663 1.13658,0.12187 h 44.99302 v 0 l 1.1412,-0.11396 1.09746,-0.33399 1.0029,-0.54885 0.87524,-0.7367 0.72332,-0.88939 0.54712,-1.00694 0.34663,-1.08933 0.12187,-1.13657 v -44.99303 0 l -0.11396,-1.14119 -0.33399,-1.09746 -0.54885,-1.0029 -0.7367,-0.87525 -0.88939,-0.72332 -1.00694,-0.54711 -1.08933,-0.34663 -1.13658,-0.12188 h -44.99302 v 0 l -1.1412,0.11396 -1.09746,0.334 -1.0029,0.54885 -0.87524,0.73669 -0.72332,0.8894 -0.54712,1.00694 -0.34663,1.08933 z"
         id="path17662" /><path
         fill="none"
         style="stroke:#000000;stroke-width:1;stroke-dasharray:none"
         transform="matrix(1,0,0,-1,382.86614,363.96851)"
         d="m -135.31288,84.46424 v 44.99303 0 l 0.11396,1.14119 0.33399,1.09746 0.54885,1.0029 0.7367,0.87525 0.88939,0.72332 1.00694,0.54711 1.08933,0.34663 1.13658,0.12187 h 44.99302 v 0 l 1.1412,-0.11396 1.09746,-0.33399 1.0029,-0.54885 0.87524,-0.7367 0.72332,-0.88939 0.54712,-1.00694 0.34663,-1.08933 0.12187,-1.13657 v -44.99303 0 l -0.11396,-1.14119 -0.33399,-1.09747 -0.54885,-1.00289 -0.7367,-0.87525 -0.88939,-0.72332 -1.00694,-0.54711 -1.08933,-0.34664 -1.13658,-0.12187 h -44.99302 v 0 l -1.1412,0.11396 -1.09746,0.334 -1.0029,0.54885 -0.87524,0.73669 -0.72332,0.8894 -0.54712,1.00694 -0.34663,1.08933 z"
         id="path17664" /><path
         fill="none"
         style="stroke:#000000;stroke-width:1;stroke-dasharray:none"
         transform="matrix(1,0,0,-1,382.86614,363.96851)"
         d="m -40.82469,-199.00033 v 44.99303 0 l 0.11396,1.14119 0.33399,1.09747 0.54885,1.00289 0.7367,0.87525 0.88939,0.72332 1.00694,0.54711 1.08933,0.34663 1.13657,0.12188 h 44.99303 v 0 l 1.1412,-0.11396 1.09746,-0.334 1.00289,-0.54885 0.87525,-0.73669 0.72332,-0.8894 0.54712,-1.00694 0.34663,-1.08933 0.12187,-1.13657 v -44.99303 0 l -0.11396,-1.14119 -0.334,-1.09746 -0.54884,-1.0029 -0.7367,-0.87525 -0.8894,-0.72332 -1.00693,-0.54711 -1.08933,-0.34663 -1.13658,-0.12187 h -44.99303 v 0 l -1.14119,0.11396 -1.09746,0.33399 -1.0029,0.54885 -0.87524,0.7367 -0.72332,0.88939 -0.54712,1.00694 -0.34663,1.08933 z"
         id="path17666" /><path
         fill="none"
         style="stroke:#000000;stroke-width:1;stroke-dasharray:none"
         transform="matrix(1,0,0,-1,382.86614,363.96851)"
         d="m -40.82469,-104.51214 v 44.99303 0 l 0.11396,1.14119 0.33399,1.09746 0.54885,1.0029 0.7367,0.87525 0.88939,0.72332 1.00694,0.54711 1.08933,0.34663 1.13657,0.12188 h 44.99303 v 0 l 1.1412,-0.11396 1.09746,-0.334 1.00289,-0.54885 0.87525,-0.7367 0.72332,-0.88939 0.54712,-1.00694 0.34663,-1.08933 0.12187,-1.13657 v -44.99303 0 l -0.11396,-1.14119 -0.334,-1.09746 -0.54884,-1.0029 -0.7367,-0.87525 -0.8894,-0.72332 -1.00693,-0.54711 -1.08933,-0.34663 -1.13658,-0.12188 h -44.99303 v 0 l -1.14119,0.11396 -1.09746,0.334 -1.0029,0.54885 -0.87524,0.7367 -0.72332,0.88939 -0.54712,1.00694 -0.34663,1.08933 z"
         id="path17668" /><path
         fill="none"
         style="stroke:#000000;stroke-width:1;stroke-dasharray:none"
         transform="matrix(1,0,0,-1,382.86614,363.96851)"
         d="m -40.82469,-10.02395 v 44.99303 0 l 0.11396,1.14119 0.33399,1.09746 0.54885,1.0029 0.7367,0.87525 0.88939,0.72332 1.00694,0.54711 1.08933,0.34663 1.13657,0.12187 h 44.99303 v 0 l 1.1412,-0.11396 1.09746,-0.33399 1.00289,-0.54885 0.87525,-0.7367 0.72332,-0.88939 0.54712,-1.00694 0.34663,-1.08933 0.12187,-1.13657 v -44.99303 0 l -0.11396,-1.14119 -0.334,-1.09746 -0.54884,-1.0029 -0.7367,-0.87525 -0.8894,-0.72332 -1.00693,-0.54711 -1.08933,-0.34663 -1.13658,-0.12188 h -44.99303 v 0 l -1.14119,0.11396 -1.09746,0.334 -1.0029,0.54885 -0.87524,0.73669 -0.72332,0.8894 -0.54712,1.00694 -0.34663,1.08933 z"
         id="path17670" /><path
         fill="none"
         style="stroke:#000000;stroke-width:1;stroke-dasharray:none"
         transform="matrix(1,0,0,-1,382.86614,363.96851)"
         d="m 199.00045,-204.85619 h -44.99303 v 0 l -1.14119,0.11396 -1.09746,0.334 -1.0029,0.54885 -0.87525,0.73669 -0.72332,0.8894 -0.54711,1.00694 -0.34663,1.08933 -0.12187,1.13657 v 44.99303 0 l 0.11396,1.14119 0.33399,1.09746 0.54885,1.0029 0.7367,0.87525 0.88939,0.72332 1.00694,0.54711 1.08933,0.34663 1.13657,0.12187 h 44.99303 v 0 l 1.14119,-0.11396 1.09747,-0.33399 1.00289,-0.54885 0.87525,-0.7367 0.72332,-0.88939 0.54711,-1.00694 0.34664,-1.08933 0.12187,-1.13657 v -44.99303 0 l -0.11396,-1.14119 -0.334,-1.09747 -0.54885,-1.00289 -0.73669,-0.87525 -0.8894,-0.72332 -1.00694,-0.54711 -1.08933,-0.34664 z"
         id="path17672" /><path
         fill="none"
         style="stroke:#000000;stroke-width:1;stroke-dasharray:none"
         transform="matrix(1,0,0,-1,382.86614,363.96851)"
         d="m 199.00045,-110.368 h -44.99303 v 0 l -1.14119,0.11396 -1.09746,0.334 -1.0029,0.54884 -0.87525,0.7367 -0.72332,0.8894 -0.54711,1.00693 -0.34663,1.08934 -0.12187,1.13657 v 44.99303 0 l 0.11396,1.14119 0.33399,1.09746 0.54885,1.0029 0.7367,0.87524 0.88939,0.72332 1.00694,0.54712 1.08933,0.34663 1.13657,0.12187 h 44.99303 v 0 l 1.14119,-0.11396 1.09747,-0.33399 1.00289,-0.54885 0.87525,-0.7367 0.72332,-0.88939 0.54711,-1.00694 0.34664,-1.08933 0.12187,-1.13657 v -44.99303 0 l -0.11396,-1.1412 -0.334,-1.09746 -0.54885,-1.00289 -0.73669,-0.87525 -0.8894,-0.72332 -1.00694,-0.54711 -1.08933,-0.34664 z"
         id="path17674" /><path
         fill="none"
         style="stroke:#000000;stroke-width:1;stroke-dasharray:none"
         transform="matrix(1,0,0,-1,382.86614,363.96851)"
         d="m 199.00045,-15.87981 h -44.99303 v 0 l -1.14119,0.11396 -1.09746,0.334 -1.0029,0.54884 -0.87525,0.7367 -0.72332,0.8894 -0.54711,1.00693 -0.34663,1.08933 -0.12187,1.13658 v 44.99303 0 l 0.11396,1.14119 0.33399,1.09746 0.54885,1.0029 0.7367,0.87524 0.88939,0.72332 1.00694,0.54712 1.08933,0.34663 1.13657,0.12187 h 44.99303 v 0 l 1.14119,-0.11396 1.09747,-0.33399 1.00289,-0.54885 0.87525,-0.7367 0.72332,-0.88939 0.54711,-1.00694 0.34664,-1.08933 0.12187,-1.13657 v -44.99303 0 l -0.11396,-1.1412 -0.334,-1.09746 -0.54885,-1.00289 -0.73669,-0.87525 -0.8894,-0.72332 -1.00694,-0.54712 -1.08933,-0.34663 z"
         id="path17676" /><path
         fill="none"
         style="stroke:#000000;stroke-width:1;stroke-dasharray:none"
         transform="matrix(1,0,0,-1,382.86614,363.96851)"
         d="m 199.00045,78.60838 h -44.99303 v 0 l -1.14119,0.11396 -1.09746,0.33399 -1.0029,0.54885 -0.87525,0.7367 -0.72332,0.88939 -0.54711,1.00694 -0.34663,1.08933 -0.12187,1.13658 v 44.99302 0 l 0.11396,1.1412 0.33399,1.09746 0.54885,1.0029 0.7367,0.87524 0.88939,0.72332 1.00694,0.54712 1.08933,0.34663 1.13657,0.12187 h 44.99303 v 0 l 1.14119,-0.11396 1.09747,-0.33399 1.00289,-0.54885 0.87525,-0.7367 0.72332,-0.88939 0.54711,-1.00694 0.34664,-1.08933 0.12187,-1.13658 v -44.99302 0 l -0.11396,-1.1412 -0.334,-1.09746 -0.54885,-1.0029 -0.73669,-0.87524 -0.8894,-0.72332 -1.00694,-0.54712 -1.08933,-0.34663 z"
         id="path17678" /><path
         fill="none"
         style="stroke:#000000;stroke-width:1;stroke-dasharray:none"
         transform="matrix(1,0,0,-1,382.86614,363.96851)"
         d="m 293.48864,-204.85619 h -44.99303 v 0 l -1.14119,0.11396 -1.09746,0.334 -1.0029,0.54885 -0.87525,0.73669 -0.72332,0.8894 -0.54711,1.00694 -0.34663,1.08933 -0.12187,1.13657 v 44.99303 0 l 0.11396,1.14119 0.33399,1.09746 0.54885,1.0029 0.7367,0.87525 0.88939,0.72332 1.00694,0.54711 1.08933,0.34663 1.13657,0.12187 h 44.99303 v 0 l 1.14119,-0.11396 1.09747,-0.33399 1.00289,-0.54885 0.87525,-0.7367 0.72332,-0.88939 0.54711,-1.00694 0.34663,-1.08933 0.12188,-1.13657 v -44.99303 0 l -0.11396,-1.14119 -0.334,-1.09747 -0.54885,-1.00289 -0.73669,-0.87525 -0.8894,-0.72332 -1.00694,-0.54711 -1.08933,-0.34664 z"
         id="path17680" /><path
         fill="none"
         style="stroke:#000000;stroke-width:1;stroke-dasharray:none"
         transform="matrix(1,0,0,-1,382.86614,363.96851)"
         d="m 293.48864,-110.368 h -44.99303 v 0 l -1.14119,0.11396 -1.09746,0.334 -1.0029,0.54885 -0.87525,0.73669 -0.72332,0.8894 -0.54711,1.00693 -0.34663,1.08934 -0.12187,1.13657 v 44.99303 0 l 0.11396,1.14119 0.33399,1.09746 0.54885,1.0029 0.7367,0.87524 0.88939,0.72332 1.00694,0.54712 1.08933,0.34663 1.13657,0.12187 h 44.99303 v 0 l 1.14119,-0.11396 1.09747,-0.33399 1.00289,-0.54885 0.87525,-0.7367 0.72332,-0.88939 0.54711,-1.00694 0.34663,-1.08933 0.12188,-1.13657 v -44.99303 0 l -0.11396,-1.1412 -0.334,-1.09746 -0.54885,-1.00289 -0.73669,-0.87525 -0.8894,-0.72332 -1.00694,-0.54711 -1.08933,-0.34664 z"
         id="path17682" /><path
         fill="none"
         style="stroke:#000000;stroke-width:1;stroke-dasharray:none"
         transform="matrix(1,0,0,-1,382.86614,363.96851)"
         d="m 293.48864,-15.87981 h -44.99303 v 0 l -1.14119,0.11396 -1.09746,0.334 -1.0029,0.54884 -0.87525,0.7367 -0.72332,0.8894 -0.54711,1.00693 -0.34663,1.08933 -0.12187,1.13658 v 44.99303 0 l 0.11396,1.14119 0.33399,1.09746 0.54885,1.0029 0.7367,0.87524 0.88939,0.72332 1.00694,0.54712 1.08933,0.34663 1.13657,0.12187 h 44.99303 v 0 l 1.14119,-0.11396 1.09747,-0.33399 1.00289,-0.54885 0.87525,-0.7367 0.72332,-0.88939 0.54711,-1.00694 0.34663,-1.08933 0.12188,-1.13657 v -44.99303 0 l -0.11396,-1.1412 -0.334,-1.09746 -0.54885,-1.00289 -0.73669,-0.87525 -0.8894,-0.72332 -1.00694,-0.54712 -1.08933,-0.34663 z"
         id="path17684" /><path
         fill="none"
         style="stroke:#000000;stroke-width:1;stroke-dasharray:none"
         transform="matrix(1,0,0,-1,382.86614,363.96851)"
         d="m 293.48864,78.60838 h -44.99303 v 0 l -1.14119,0.11396 -1.09746,0.33399 -1.0029,0.54885 -0.87525,0.7367 -0.72332,0.88939 -0.54711,1.00694 -0.34663,1.08933 -0.12187,1.13658 v 44.99302 0 l 0.11396,1.1412 0.33399,1.09746 0.54885,1.0029 0.7367,0.87524 0.88939,0.72332 1.00694,0.54712 1.08933,0.34663 1.13657,0.12187 h 44.99303 v 0 l 1.14119,-0.11396 1.09747,-0.33399 1.00289,-0.54885 0.87525,-0.7367 0.72332,-0.88939 0.54711,-1.00694 0.34663,-1.08933 0.12188,-1.13658 v -44.99302 0 l -0.11396,-1.1412 -0.334,-1.09746 -0.54885,-1.0029 -0.73669,-0.87524 -0.8894,-0.72332 -1.00694,-0.54712 -1.08933,-0.34663 z"
         id="path17686" /><path
         fill="none"
         style="stroke:#000000;stroke-width:1;stroke-dasharray:none"
         transform="matrix(1,0,0,-1,382.86614,363.96851)"
         d="m -40.82469,84.46424 v 44.99303 0 l 0.11396,1.14119 0.33399,1.09746 0.54885,1.0029 0.7367,0.87525 0.88939,0.72332 1.00694,0.54711 1.08933,0.34663 1.13657,0.12187 h 44.99303 v 0 l 1.1412,-0.11396 1.09746,-0.33399 1.00289,-0.54885 0.87525,-0.7367 0.72332,-0.88939 0.54712,-1.00694 0.34663,-1.08933 0.12187,-1.13657 v -44.99303 0 l -0.11396,-1.14119 -0.334,-1.09747 -0.54884,-1.00289 -0.7367,-0.87525 -0.8894,-0.72332 -1.00693,-0.54711 -1.08933,-0.34664 -1.13658,-0.12187 h -44.99303 v 0 l -1.14119,0.11396 -1.09746,0.334 -1.0029,0.54885 -0.87524,0.73669 -0.72332,0.8894 -0.54712,1.00694 -0.34663,1.08933 z"
         id="path17688" /><circle
         fill="none"
         style="stroke:#000000;stroke-width:1;stroke-dasharray:none"
         transform="matrix(1,0,0,-1,382.86614,363.96851)"
         cx="0.75590998"
         cy="171.2126"
         r="6.0472398"
         id="circle17690" /><path
         fill="none"
         style="stroke:#000000;stroke-width:1;stroke-dasharray:none"
         transform="matrix(1,0,0,-1,382.86614,363.96851)"
         d="m 106.28031,-61.79528 h -48.7559 a 3.77953,3.77953 0 0 0 -3.77953,3.77953 v 46.11024 a 3.77953,3.77953 0 0 0 3.77953,3.77953 h 48.7559 a 3.77953,3.77953 0 0 0 3.77953,-3.77953 v -46.11024 a 3.77953,3.77953 0 0 0 -3.77953,-3.77953"
         id="path17692" /><circle
         fill="none"
         style="stroke:#000000;stroke-width:1;stroke-dasharray:none"
         transform="matrix(1,0,0,-1,382.86614,363.96851)"
         cx="0.75590998"
         cy="-310.67719"
         r="6.0472398"
         id="circle17694" /><circle
         fill="none"
         style="stroke:#000000;stroke-width:1;stroke-dasharray:none"
         transform="matrix(1,0,0,-1,382.86614,363.96851)"
         cx="333.35434"
         cy="171.2126"
         r="6.0472398"
         id="circle17696" /><circle
         fill="none"
         style="stroke:#000000;stroke-width:1;stroke-dasharray:none"
         transform="matrix(1,0,0,-1,382.86614,363.96851)"
         cx="-331.84253"
         cy="171.2126"
         r="6.0472398"
         id="circle17698" /><circle
         fill="none"
         style="stroke:#000000;stroke-width:1;stroke-dasharray:none"
         transform="matrix(1,0,0,-1,382.86614,363.96851)"
         cx="-331.84253"
         cy="-310.67719"
         r="6.0472398"
         id="circle17700" /><circle
         fill="none"
         style="stroke:#000000;stroke-width:1;stroke-dasharray:none"
         transform="matrix(1,0,0,-1,382.86614,363.96851)"
         cx="333.35434"
         cy="-310.67719"
         r="6.0472398"
         id="circle17702" /><path
         fill="none"
         style="stroke:#000000;stroke-width:1;stroke-dasharray:none"
         transform="matrix(1,0,0,-1,382.86614,363.96851)"
         d="m 207.87402,244.53543 h -415.74804 a 3.77953,3.77953 0 0 0 -3.77952,3.77953 v 7.55906 a 3.77953,3.77953 0 0 0 3.77952,3.77952 h 415.74804 a 3.77953,3.77953 0 0 0 3.77952,-3.77952 v -7.55906 a 3.77953,3.77953 0 0 0 -3.77952,-3.77953"
         id="path17704" /><path
         fill="none"
         style="stroke:#000000;stroke-width:1;stroke-dasharray:none"
         transform="matrix(1,0,0,-1,382.86614,363.96851)"
         d="m -382.82835,-352.59213 a 11.33858,11.33858 0 0 1 11.33859,-11.33858 h 742.97952 a 11.33858,11.33858 0 0 1 11.33859,11.33858 v 705.18426 a 11.33858,11.33858 0 0 1 -11.33859,11.33858 h -742.97952 a 11.33858,11.33858 0 0 1 -11.33859,-11.33858 z"
         id="path17706" /><path
         fill="none"
         style="stroke:#000000;stroke-width:1;stroke-dasharray:none"
         transform="matrix(1,0,0,-1,382.86614,363.96851)"
         d="M -269.29134,335.24409 V 349.6063 H -99.2126 v -14.36221 z"
         id="path17708" /><path
         fill="none"
         style="stroke:#000000;stroke-width:1;stroke-dasharray:none"
         transform="matrix(1,0,0,-1,382.86614,363.96851)"
         d="M -85.03937,349.6063 H 85.03937 V 335.24409 H -85.03937 Z"
         id="path17710" /><circle
         fill="none"
         style="stroke:#000000;stroke-width:1;stroke-dasharray:none"
         transform="matrix(1,0,0,-1,382.86614,363.96851)"
         cx="362.64566"
         cy="343.74802"
         r="5.8582702"
         id="circle17712" /><circle
         fill="none"
         style="stroke:#000000;stroke-width:1;stroke-dasharray:none"
         transform="matrix(1,0,0,-1,382.86614,363.96851)"
         cx="362.64566"
         cy="-343.74802"
         r="5.8582702"
         id="circle17714" /><circle
         fill="none"
         style="stroke:#000000;stroke-width:1;stroke-dasharray:none"
         transform="matrix(1,0,0,-1,382.86614,363.96851)"
         cx="-362.64566"
         cy="-343.74802"
         r="5.8582702"
         id="circle17716" /><circle
         fill="none"
         style="stroke:#000000;stroke-width:1;stroke-dasharray:none"
         transform="matrix(1,0,0,-1,382.86614,363.96851)"
         cx="-362.64566"
         cy="343.74802"
         r="5.8582702"
         id="circle17718" /><path
         fill="none"
         style="stroke:#000000;stroke-width:1;stroke-dasharray:none"
         transform="matrix(1,0,0,-1,382.86614,363.96851)"
         d="M -85.03937,-335.24409 H 85.03937 V -349.6063 H -85.03937 Z"
         id="path17720" /><path
         fill="none"
         style="stroke:#000000;stroke-width:1;stroke-dasharray:none"
         transform="matrix(1,0,0,-1,382.86614,363.96851)"
         d="M 368.50394,203.93701 V 29.13386 h -14.36221 v 174.80315 z"
         id="path17722" /><path
         fill="none"
         style="stroke:#000000;stroke-width:1;stroke-dasharray:none"
         transform="matrix(1,0,0,-1,382.86614,363.96851)"
         d="m -368.50394,29.13386 v 174.80315 h 14.36221 V 29.13386 Z"
         id="path17724" /><path
         fill="none"
         style="stroke:#000000;stroke-width:1;stroke-dasharray:none"
         transform="matrix(1,0,0,-1,382.86614,363.96851)"
         d="M -269.29134,-335.24409 H -99.2126 v -14.36221 h -170.07874 z"
         id="path17726" /><path
         fill="none"
         style="stroke:#000000;stroke-width:1;stroke-dasharray:none"
         transform="matrix(1,0,0,-1,382.86614,363.96851)"
         d="m -354.14173,-29.13386 v -174.80315 h -14.36221 v 174.80315 z"
         id="path17728" /><path
         fill="none"
         style="stroke:#000000;stroke-width:1;stroke-dasharray:none"
         transform="matrix(1,0,0,-1,382.86614,363.96851)"
         d="M 269.29134,349.6063 V 335.24409 H 99.2126 v 14.36221 z"
         id="path17730" /><path
         fill="none"
         style="stroke:#000000;stroke-width:1;stroke-dasharray:none"
         transform="matrix(1,0,0,-1,382.86614,363.96851)"
         d="M 99.2126,-335.24409 H 269.29134 V -349.6063 H 99.2126 Z"
         id="path17732" /><path
         fill="none"
         style="stroke:#000000;stroke-width:1;stroke-dasharray:none"
         transform="matrix(1,0,0,-1,382.86614,363.96851)"
         d="m 368.50394,-203.93701 h -14.36221 v 174.80315 h 14.36221 z"
         id="path17734" /></g><path
       fill="none"
       style="stroke:#000000;stroke-width:0.264583;stroke-dasharray:none"
       d="m 446.45,142.70833 a 1.4999996,1.4999996 0 0 0 1.5,-1.5 v -3 h 3.75 v 3 a 1.4999996,1.4999996 0 0 0 1.5,1.5 h 41.99999 a 1.4999996,1.4999996 0 0 0 1.5,-1.5 v -3 h 16.25 v 0 l -0.6722,-1.875 -0.59372,-1.875 -0.26683,-0.9375 -0.24631,-0.9375 -0.22534,-0.9375 -0.20388,-0.9375 -0.18185,-0.9375 -0.15926,-0.9375 -0.13608,-0.9375 -0.11233,-0.9375 -0.088,-0.9375 -0.0633,-0.9375 -0.0381,-0.9375 -0.0128,-0.9375 0.0128,-0.9375 0.0381,-0.9375 0.0633,-0.9375 0.088,-0.9375 0.11233,-0.9375 0.13608,-0.9375 0.15926,-0.9375 0.18185,-0.9375 0.20388,-0.9375 0.22534,-0.9375 0.24631,-0.9375 0.26683,-0.9375 0.59372,-1.875 0.6722,-1.875 h -16.25 v -6 a 1.4999996,1.4999996 0 0 0 -1.5,-1.5 H 453.2 a 1.4999996,1.4999996 0 0 0 -1.5,1.5 v 6 h -3.75 v -6 a 1.4999996,1.4999996 0 0 0 -1.5,-1.5 h -42 a 1.4999996,1.4999996 0 0 0 -1.5,1.5 v 6 h -3.75 v -6 a 1.4999996,1.4999996 0 0 0 -1.5,-1.5 h -42 a 1.4999996,1.4999996 0 0 0 -1.5,1.5 v 6 h -16.25 v 0 l 0.6722,1.875 0.59372,1.875 0.26682,0.9375 0.24632,0.9375 0.22534,0.9375 0.20388,0.9375 0.18185,0.9375 0.15926,0.9375 0.13608,0.9375 0.11233,0.9375 0.088,0.9375 0.0633,0.9375 0.0381,0.9375 0.0128,0.9375 -0.0128,0.9375 -0.0381,0.9375 -0.0633,0.9375 -0.088,0.9375 -0.11233,0.9375 -0.13608,0.9375 -0.15926,0.9375 -0.18185,0.9375 -0.20388,0.9375 -0.22534,0.9375 -0.24632,0.9375 -0.26682,0.9375 -0.59372,1.875 -0.6722,1.875 h 16.25 v 3 a 1.4999996,1.4999996 0 0 0 1.5,1.5 h 42 a 1.4999996,1.4999996 0 0 0 1.5,-1.5 v -3 h 3.75 v 3 a 1.4999996,1.4999996 0 0 0 1.5,1.5 z"
       id="path18156" /><path
       fill="none"
       style="stroke:#000000;stroke-width:0.264583;stroke-dasharray:none"
       d="m 371.49167,237.51667 a 1.4999996,1.4999996 0 0 0 1.5,1.5 h 43.25 a 1.4999996,1.4999996 0 0 0 1.5,-1.5 v -3 h 15.41666 v 3 a 1.4999996,1.4999996 0 0 0 1.5,1.5 h 43.25 a 1.4999996,1.4999996 0 0 0 1.5,-1.5 v -3 H 507.95 v 0 l -0.6722,-1.875 -0.59372,-1.875 -0.26683,-0.9375 -0.24631,-0.9375 -0.22534,-0.9375 -0.20388,-0.9375 -0.18185,-0.9375 -0.15926,-0.9375 -0.13608,-0.9375 -0.11233,-0.9375 -0.088,-0.9375 -0.0633,-0.9375 -0.0381,-0.9375 -0.0127,-0.9375 0.0127,-0.9375 0.0381,-0.9375 0.0633,-0.9375 0.088,-0.9375 0.11233,-0.9375 0.13608,-0.9375 0.15926,-0.9375 0.18185,-0.9375 0.20388,-0.9375 0.22534,-0.9375 0.24631,-0.9375 0.26683,-0.9375 0.59372,-1.875 0.6722,-1.875 h -28.54167 v -6 a 1.4999996,1.4999996 0 0 0 -1.5,-1.5 h -43.25 a 1.4999996,1.4999996 0 0 0 -1.5,1.5 v 6 h -15.41666 v -6 a 1.4999996,1.4999996 0 0 0 -1.5,-1.5 h -43.25 a 1.4999996,1.4999996 0 0 0 -1.5,1.5 v 6 H 342.95 v 0 l 0.6722,1.875 0.59372,1.875 0.26683,0.9375 0.24631,0.9375 0.22534,0.9375 0.20388,0.9375 0.18185,0.9375 0.15926,0.9375 0.13608,0.9375 0.11233,0.9375 0.088,0.9375 0.0633,0.9375 0.0381,0.9375 0.0128,0.9375 -0.0128,0.9375 -0.0381,0.9375 -0.0633,0.9375 -0.088,0.9375 -0.11233,0.9375 -0.13608,0.9375 -0.15926,0.9375 -0.18185,0.9375 -0.20388,0.9375 -0.22534,0.9375 -0.24631,0.9375 -0.26683,0.9375 -0.59372,1.875 -0.6722,1.875 h 28.54167 z"
       id="path18162" /><g
       id="g6047"
       transform="matrix(0,0.35277777,0.35277777,0,120.83482,30.030653)"
       style="stroke-width:0.283465;stroke-dasharray:none"><g
         id="g4694"
         transform="translate(111.9761,169.741)"
         style="stroke-width:0.283465;stroke-dasharray:none"><path
           d="M 0,0 H -5.67"
           style="fill:none;stroke:#ff0000;stroke-width:0.283465;stroke-linecap:butt;stroke-linejoin:miter;stroke-miterlimit:11.339;stroke-dasharray:none;stroke-opacity:1"
           id="path4696" /></g><g
         id="g4698"
         transform="translate(111.9761,174.991)"
         style="stroke-width:0.283465;stroke-dasharray:none"><path
           d="M 0,0 H -5.67"
           style="fill:none;stroke:#ff0000;stroke-width:0.283465;stroke-linecap:butt;stroke-linejoin:miter;stroke-miterlimit:11.339;stroke-dasharray:none;stroke-opacity:1"
           id="path4700" /></g><g
         id="g4702"
         transform="translate(111.9761,180.241)"
         style="stroke-width:0.283465;stroke-dasharray:none"><path
           d="M 0,0 H -5.67"
           style="fill:none;stroke:#ff0000;stroke-width:0.283465;stroke-linecap:butt;stroke-linejoin:miter;stroke-miterlimit:11.339;stroke-dasharray:none;stroke-opacity:1"
           id="path4704" /></g><g
         id="g4706"
         transform="translate(111.9761,185.491)"
         style="stroke-width:0.283465;stroke-dasharray:none"><path
           d="M 0,0 H -5.67"
           style="fill:none;stroke:#ff0000;stroke-width:0.283465;stroke-linecap:butt;stroke-linejoin:miter;stroke-miterlimit:11.339;stroke-dasharray:none;stroke-opacity:1"
           id="path4708" /></g><g
         id="g4710"
         transform="translate(111.9761,190.741)"
         style="stroke-width:0.283465;stroke-dasharray:none"><path
           d="M 0,0 H -5.67"
           style="fill:none;stroke:#ff0000;stroke-width:0.283465;stroke-linecap:butt;stroke-linejoin:miter;stroke-miterlimit:11.339;stroke-dasharray:none;stroke-opacity:1"
           id="path4712" /></g><g
         id="g4714"
         transform="translate(111.9761,195.991)"
         style="stroke-width:0.283465;stroke-dasharray:none"><path
           d="M 0,0 H -5.67"
           style="fill:none;stroke:#ff0000;stroke-width:0.283465;stroke-linecap:butt;stroke-linejoin:miter;stroke-miterlimit:11.339;stroke-dasharray:none;stroke-opacity:1"
           id="path4716" /></g><g
         id="g4718"
         transform="translate(111.9761,201.241)"
         style="stroke-width:0.283465;stroke-dasharray:none"><path
           d="M 0,0 H -6.93"
           style="fill:none;stroke:#ff0000;stroke-width:0.283465;stroke-linecap:butt;stroke-linejoin:miter;stroke-miterlimit:11.339;stroke-dasharray:none;stroke-opacity:1"
           id="path4720" /></g><g
         id="g4722"
         transform="translate(111.9761,206.491)"
         style="stroke-width:0.283465;stroke-dasharray:none"><path
           d="M 0,0 H -5.67"
           style="fill:none;stroke:#ff0000;stroke-width:0.283465;stroke-linecap:butt;stroke-linejoin:miter;stroke-miterlimit:11.339;stroke-dasharray:none;stroke-opacity:1"
           id="path4724" /></g><g
         id="g4726"
         transform="translate(111.9761,211.741)"
         style="stroke-width:0.283465;stroke-dasharray:none"><path
           d="M 0,0 H -5.67"
           style="fill:none;stroke:#ff0000;stroke-width:0.283465;stroke-linecap:butt;stroke-linejoin:miter;stroke-miterlimit:11.339;stroke-dasharray:none;stroke-opacity:1"
           id="path4728" /></g><g
         id="g4730"
         transform="translate(111.9761,216.991)"
         style="stroke-width:0.283465;stroke-dasharray:none"><path
           d="M 0,0 H -5.67"
           style="fill:none;stroke:#ff0000;stroke-width:0.283465;stroke-linecap:butt;stroke-linejoin:miter;stroke-miterlimit:11.339;stroke-dasharray:none;stroke-opacity:1"
           id="path4732" /></g><g
         id="g4734"
         transform="translate(111.9761,222.241)"
         style="stroke-width:0.283465;stroke-dasharray:none"><path
           d="M 0,0 H -5.67"
           style="fill:none;stroke:#ff0000;stroke-width:0.283465;stroke-linecap:butt;stroke-linejoin:miter;stroke-miterlimit:11.339;stroke-dasharray:none;stroke-opacity:1"
           id="path4736" /></g><g
         id="g4738"
         transform="translate(111.9761,227.4812)"
         style="stroke-width:0.283465;stroke-dasharray:none"><path
           d="M 0,0 H -5.67"
           style="fill:none;stroke:#ff0000;stroke-width:0.283465;stroke-linecap:butt;stroke-linejoin:miter;stroke-miterlimit:11.339;stroke-dasharray:none;stroke-opacity:1"
           id="path4740" /></g><g
         id="g4742"
         transform="translate(111.9761,232.7312)"
         style="stroke-width:0.283465;stroke-dasharray:none"><path
           d="M 0,0 H -8.19"
           style="fill:none;stroke:#ff0000;stroke-width:0.283465;stroke-linecap:butt;stroke-linejoin:miter;stroke-miterlimit:11.339;stroke-dasharray:none;stroke-opacity:1"
           id="path4744" /></g><g
         id="g4746"
         transform="translate(111.9761,237.9812)"
         style="stroke-width:0.283465;stroke-dasharray:none"><path
           d="M 0,0 H -5.67"
           style="fill:none;stroke:#ff0000;stroke-width:0.283465;stroke-linecap:butt;stroke-linejoin:miter;stroke-miterlimit:11.339;stroke-dasharray:none;stroke-opacity:1"
           id="path4748" /></g><g
         id="g4750"
         transform="translate(111.9761,243.2312)"
         style="stroke-width:0.283465;stroke-dasharray:none"><path
           d="M 0,0 H -5.67"
           style="fill:none;stroke:#ff0000;stroke-width:0.283465;stroke-linecap:butt;stroke-linejoin:miter;stroke-miterlimit:11.339;stroke-dasharray:none;stroke-opacity:1"
           id="path4752" /></g><g
         id="g4754"
         transform="translate(111.9761,248.4812)"
         style="stroke-width:0.283465;stroke-dasharray:none"><path
           d="M 0,0 H -5.67"
           style="fill:none;stroke:#ff0000;stroke-width:0.283465;stroke-linecap:butt;stroke-linejoin:miter;stroke-miterlimit:11.339;stroke-dasharray:none;stroke-opacity:1"
           id="path4756" /></g><g
         id="g4758"
         transform="translate(111.9761,253.7312)"
         style="stroke-width:0.283465;stroke-dasharray:none"><path
           d="M 0,0 H -5.67"
           style="fill:none;stroke:#ff0000;stroke-width:0.283465;stroke-linecap:butt;stroke-linejoin:miter;stroke-miterlimit:11.339;stroke-dasharray:none;stroke-opacity:1"
           id="path4760" /></g><g
         id="g4762"
         transform="translate(111.9761,258.9812)"
         style="stroke-width:0.283465;stroke-dasharray:none"><path
           d="M 0,0 H -5.67"
           style="fill:none;stroke:#ff0000;stroke-width:0.283465;stroke-linecap:butt;stroke-linejoin:miter;stroke-miterlimit:11.339;stroke-dasharray:none;stroke-opacity:1"
           id="path4764" /></g><g
         id="g4766"
         transform="translate(111.9761,264.2312)"
         style="stroke-width:0.283465;stroke-dasharray:none"><path
           d="M 0,0 H -9.45"
           style="fill:none;stroke:#ff0000;stroke-width:0.283465;stroke-linecap:butt;stroke-linejoin:miter;stroke-miterlimit:11.339;stroke-dasharray:none;stroke-opacity:1"
           id="path4768" /></g><g
         id="g4770"
         transform="translate(111.9761,269.4812)"
         style="stroke-width:0.283465;stroke-dasharray:none"><path
           d="M 0,0 H -5.67"
           style="fill:none;stroke:#ff0000;stroke-width:0.283465;stroke-linecap:butt;stroke-linejoin:miter;stroke-miterlimit:11.339;stroke-dasharray:none;stroke-opacity:1"
           id="path4772" /></g><g
         id="g4774"
         transform="translate(111.9761,274.7312)"
         style="stroke-width:0.283465;stroke-dasharray:none"><path
           d="M 0,0 H -5.67"
           style="fill:none;stroke:#ff0000;stroke-width:0.283465;stroke-linecap:butt;stroke-linejoin:miter;stroke-miterlimit:11.339;stroke-dasharray:none;stroke-opacity:1"
           id="path4776" /></g><g
         id="g4778"
         transform="translate(111.9761,279.9812)"
         style="stroke-width:0.283465;stroke-dasharray:none"><path
           d="M 0,0 H -5.67"
           style="fill:none;stroke:#ff0000;stroke-width:0.283465;stroke-linecap:butt;stroke-linejoin:miter;stroke-miterlimit:11.339;stroke-dasharray:none;stroke-opacity:1"
           id="path4780" /></g><g
         id="g4782"
         transform="translate(111.9761,285.2312)"
         style="stroke-width:0.283465;stroke-dasharray:none"><path
           d="M 0,0 H -5.67"
           style="fill:none;stroke:#ff0000;stroke-width:0.283465;stroke-linecap:butt;stroke-linejoin:miter;stroke-miterlimit:11.339;stroke-dasharray:none;stroke-opacity:1"
           id="path4784" /></g><g
         id="g4786"
         transform="translate(111.9761,290.4812)"
         style="stroke-width:0.283465;stroke-dasharray:none"><path
           d="M 0,0 H -5.67"
           style="fill:none;stroke:#ff0000;stroke-width:0.283465;stroke-linecap:butt;stroke-linejoin:miter;stroke-miterlimit:11.339;stroke-dasharray:none;stroke-opacity:1"
           id="path4788" /></g><g
         id="g4790"
         transform="translate(111.9761,295.7215)"
         style="stroke-width:0.283465;stroke-dasharray:none"><path
           d="M 0,0 H -10.71"
           style="fill:none;stroke:#ff0000;stroke-width:0.283465;stroke-linecap:butt;stroke-linejoin:miter;stroke-miterlimit:11.339;stroke-dasharray:none;stroke-opacity:1"
           id="path4792" /></g><g
         id="g4794"
         transform="translate(111.9761,300.9812)"
         style="stroke-width:0.283465;stroke-dasharray:none"><path
           d="M 0,0 H -5.67"
           style="fill:none;stroke:#ff0000;stroke-width:0.283465;stroke-linecap:butt;stroke-linejoin:miter;stroke-miterlimit:11.339;stroke-dasharray:none;stroke-opacity:1"
           id="path4796" /></g><g
         id="g4798"
         transform="translate(111.9761,306.2215)"
         style="stroke-width:0.283465;stroke-dasharray:none"><path
           d="M 0,0 H -5.67"
           style="fill:none;stroke:#ff0000;stroke-width:0.283465;stroke-linecap:butt;stroke-linejoin:miter;stroke-miterlimit:11.339;stroke-dasharray:none;stroke-opacity:1"
           id="path4800" /></g><g
         id="g4802"
         transform="translate(111.9761,311.4715)"
         style="stroke-width:0.283465;stroke-dasharray:none"><path
           d="M 0,0 H -5.67"
           style="fill:none;stroke:#ff0000;stroke-width:0.283465;stroke-linecap:butt;stroke-linejoin:miter;stroke-miterlimit:11.339;stroke-dasharray:none;stroke-opacity:1"
           id="path4804" /></g><g
         id="g4806"
         transform="translate(111.9761,316.7215)"
         style="stroke-width:0.283465;stroke-dasharray:none"><path
           d="M 0,0 H -5.67"
           style="fill:none;stroke:#ff0000;stroke-width:0.283465;stroke-linecap:butt;stroke-linejoin:miter;stroke-miterlimit:11.339;stroke-dasharray:none;stroke-opacity:1"
           id="path4808" /></g><g
         id="g4810"
         transform="translate(111.9761,321.9715)"
         style="stroke-width:0.283465;stroke-dasharray:none"><path
           d="M 0,0 H -5.67"
           style="fill:none;stroke:#ff0000;stroke-width:0.283465;stroke-linecap:butt;stroke-linejoin:miter;stroke-miterlimit:11.339;stroke-dasharray:none;stroke-opacity:1"
           id="path4812" /></g><g
         id="g4814"
         transform="translate(111.9761,327.2215)"
         style="stroke-width:0.283465;stroke-dasharray:none"><path
           d="M 0,0 H -11.97"
           style="fill:none;stroke:#ff0000;stroke-width:0.283465;stroke-linecap:butt;stroke-linejoin:miter;stroke-miterlimit:11.339;stroke-dasharray:none;stroke-opacity:1"
           id="path4816" /></g><g
         id="g4818"
         transform="translate(111.9761,332.4715)"
         style="stroke-width:0.283465;stroke-dasharray:none"><path
           d="M 0,0 H -5.67"
           style="fill:none;stroke:#ff0000;stroke-width:0.283465;stroke-linecap:butt;stroke-linejoin:miter;stroke-miterlimit:11.339;stroke-dasharray:none;stroke-opacity:1"
           id="path4820" /></g><g
         id="g4822"
         transform="translate(111.9761,337.7215)"
         style="stroke-width:0.283465;stroke-dasharray:none"><path
           d="M 0,0 H -5.67"
           style="fill:none;stroke:#ff0000;stroke-width:0.283465;stroke-linecap:butt;stroke-linejoin:miter;stroke-miterlimit:11.339;stroke-dasharray:none;stroke-opacity:1"
           id="path4824" /></g><g
         id="g4826"
         transform="translate(111.9761,342.9715)"
         style="stroke-width:0.283465;stroke-dasharray:none"><path
           d="M 0,0 H -5.67"
           style="fill:none;stroke:#ff0000;stroke-width:0.283465;stroke-linecap:butt;stroke-linejoin:miter;stroke-miterlimit:11.339;stroke-dasharray:none;stroke-opacity:1"
           id="path4828" /></g><g
         id="g4830"
         transform="translate(111.9761,348.2215)"
         style="stroke-width:0.283465;stroke-dasharray:none"><path
           d="M 0,0 H -5.67"
           style="fill:none;stroke:#ff0000;stroke-width:0.283465;stroke-linecap:butt;stroke-linejoin:miter;stroke-miterlimit:11.339;stroke-dasharray:none;stroke-opacity:1"
           id="path4832" /></g><g
         id="g4834"
         transform="translate(111.9761,353.4715)"
         style="stroke-width:0.283465;stroke-dasharray:none"><path
           d="M 0,0 H -5.67"
           style="fill:none;stroke:#ff0000;stroke-width:0.283465;stroke-linecap:butt;stroke-linejoin:miter;stroke-miterlimit:11.339;stroke-dasharray:none;stroke-opacity:1"
           id="path4836" /></g><g
         id="g4838"
         transform="translate(111.9761,358.7215)"
         style="stroke-width:0.283465;stroke-dasharray:none"><path
           d="M 0,0 H -13.23"
           style="fill:none;stroke:#ff0000;stroke-width:0.283465;stroke-linecap:butt;stroke-linejoin:miter;stroke-miterlimit:11.339;stroke-dasharray:none;stroke-opacity:1"
           id="path4840" /></g><g
         id="g4842"
         transform="translate(111.9761,363.9715)"
         style="stroke-width:0.283465;stroke-dasharray:none"><path
           d="M 0,0 H -5.67"
           style="fill:none;stroke:#ff0000;stroke-width:0.283465;stroke-linecap:butt;stroke-linejoin:miter;stroke-miterlimit:11.339;stroke-dasharray:none;stroke-opacity:1"
           id="path4844" /></g><g
         id="g4846"
         transform="translate(111.9761,369.2215)"
         style="stroke-width:0.283465;stroke-dasharray:none"><path
           d="M 0,0 H -5.67"
           style="fill:none;stroke:#ff0000;stroke-width:0.283465;stroke-linecap:butt;stroke-linejoin:miter;stroke-miterlimit:11.339;stroke-dasharray:none;stroke-opacity:1"
           id="path4848" /></g><g
         id="g4850"
         transform="translate(111.9761,374.4715)"
         style="stroke-width:0.283465;stroke-dasharray:none"><path
           d="M 0,0 H -5.67"
           style="fill:none;stroke:#ff0000;stroke-width:0.283465;stroke-linecap:butt;stroke-linejoin:miter;stroke-miterlimit:11.339;stroke-dasharray:none;stroke-opacity:1"
           id="path4852" /></g><g
         id="g4854"
         transform="translate(111.9761,379.7215)"
         style="stroke-width:0.283465;stroke-dasharray:none"><path
           d="M 0,0 H -5.67"
           style="fill:none;stroke:#ff0000;stroke-width:0.283465;stroke-linecap:butt;stroke-linejoin:miter;stroke-miterlimit:11.339;stroke-dasharray:none;stroke-opacity:1"
           id="path4856" /></g><g
         id="g4858"
         transform="translate(111.9761,384.9612)"
         style="stroke-width:0.283465;stroke-dasharray:none"><path
           d="M 0,0 H -5.67"
           style="fill:none;stroke:#ff0000;stroke-width:0.283465;stroke-linecap:butt;stroke-linejoin:miter;stroke-miterlimit:11.339;stroke-dasharray:none;stroke-opacity:1"
           id="path4860" /></g><g
         id="g4862"
         transform="translate(111.9761,390.2112)"
         style="stroke-width:0.283465;stroke-dasharray:none"><path
           d="M 0,0 H -14.49"
           style="fill:none;stroke:#ff0000;stroke-width:0.283465;stroke-linecap:butt;stroke-linejoin:miter;stroke-miterlimit:11.339;stroke-dasharray:none;stroke-opacity:1"
           id="path4864" /></g><g
         id="g4866"
         transform="translate(111.9761,395.4612)"
         style="stroke-width:0.283465;stroke-dasharray:none"><path
           d="M 0,0 H -5.67"
           style="fill:none;stroke:#ff0000;stroke-width:0.283465;stroke-linecap:butt;stroke-linejoin:miter;stroke-miterlimit:11.339;stroke-dasharray:none;stroke-opacity:1"
           id="path4868" /></g><g
         id="g4870"
         transform="translate(111.9761,400.7112)"
         style="stroke-width:0.283465;stroke-dasharray:none"><path
           d="M 0,0 H -5.67"
           style="fill:none;stroke:#ff0000;stroke-width:0.283465;stroke-linecap:butt;stroke-linejoin:miter;stroke-miterlimit:11.339;stroke-dasharray:none;stroke-opacity:1"
           id="path4872" /></g><g
         id="g4874"
         transform="translate(111.9761,405.9612)"
         style="stroke-width:0.283465;stroke-dasharray:none"><path
           d="M 0,0 H -5.67"
           style="fill:none;stroke:#ff0000;stroke-width:0.283465;stroke-linecap:butt;stroke-linejoin:miter;stroke-miterlimit:11.339;stroke-dasharray:none;stroke-opacity:1"
           id="path4876" /></g><g
         id="g4878"
         transform="translate(111.9761,411.2112)"
         style="stroke-width:0.283465;stroke-dasharray:none"><path
           d="M 0,0 H -5.67"
           style="fill:none;stroke:#ff0000;stroke-width:0.283465;stroke-linecap:butt;stroke-linejoin:miter;stroke-miterlimit:11.339;stroke-dasharray:none;stroke-opacity:1"
           id="path4880" /></g><g
         id="g4882"
         transform="translate(111.9761,416.4612)"
         style="stroke-width:0.283465;stroke-dasharray:none"><path
           d="M 0,0 H -5.67"
           style="fill:none;stroke:#ff0000;stroke-width:0.283465;stroke-linecap:butt;stroke-linejoin:miter;stroke-miterlimit:11.339;stroke-dasharray:none;stroke-opacity:1"
           id="path4884" /></g><g
         id="g4886"
         transform="translate(111.9761,421.7112)"
         style="stroke-width:0.283465;stroke-dasharray:none"><path
           d="M 0,0 H -15.75"
           style="fill:none;stroke:#ff0000;stroke-width:0.283465;stroke-linecap:butt;stroke-linejoin:miter;stroke-miterlimit:11.339;stroke-dasharray:none;stroke-opacity:1"
           id="path4888" /></g><g
         id="g4890"
         transform="translate(111.9761,426.9612)"
         style="stroke-width:0.283465;stroke-dasharray:none"><path
           d="M 0,0 H -5.67"
           style="fill:none;stroke:#ff0000;stroke-width:0.283465;stroke-linecap:butt;stroke-linejoin:miter;stroke-miterlimit:11.339;stroke-dasharray:none;stroke-opacity:1"
           id="path4892" /></g><g
         id="g4894"
         transform="translate(111.9761,432.2112)"
         style="stroke-width:0.283465;stroke-dasharray:none"><path
           d="M 0,0 H -5.67"
           style="fill:none;stroke:#ff0000;stroke-width:0.283465;stroke-linecap:butt;stroke-linejoin:miter;stroke-miterlimit:11.339;stroke-dasharray:none;stroke-opacity:1"
           id="path4896" /></g><g
         id="g4898"
         transform="translate(111.9761,437.4612)"
         style="stroke-width:0.283465;stroke-dasharray:none"><path
           d="M 0,0 H -5.67"
           style="fill:none;stroke:#ff0000;stroke-width:0.283465;stroke-linecap:butt;stroke-linejoin:miter;stroke-miterlimit:11.339;stroke-dasharray:none;stroke-opacity:1"
           id="path4900" /></g><g
         id="g4902"
         transform="translate(111.9761,442.7112)"
         style="stroke-width:0.283465;stroke-dasharray:none"><path
           d="M 0,0 H -5.67"
           style="fill:none;stroke:#ff0000;stroke-width:0.283465;stroke-linecap:butt;stroke-linejoin:miter;stroke-miterlimit:11.339;stroke-dasharray:none;stroke-opacity:1"
           id="path4904" /></g><g
         id="g4906"
         transform="translate(111.9761,447.9612)"
         style="stroke-width:0.283465;stroke-dasharray:none"><path
           d="M 0,0 H -5.67"
           style="fill:none;stroke:#ff0000;stroke-width:0.283465;stroke-linecap:butt;stroke-linejoin:miter;stroke-miterlimit:11.339;stroke-dasharray:none;stroke-opacity:1"
           id="path4908" /></g><g
         id="g4910"
         transform="translate(111.9761,453.2112)"
         style="stroke-width:0.283465;stroke-dasharray:none"><path
           d="M 0,0 H -17.01"
           style="fill:none;stroke:#ff0000;stroke-width:0.283465;stroke-linecap:butt;stroke-linejoin:miter;stroke-miterlimit:11.339;stroke-dasharray:none;stroke-opacity:1"
           id="path4912" /></g></g><text
       xml:space="preserve"
       transform="scale(-1)"
       style="font-variant:normal;font-weight:normal;font-stretch:normal;font-size:9.60727px;font-family:OCRB;-inkscape-font-specification:OCRBL;writing-mode:lr-tb;fill:#ff0000;fill-opacity:1;fill-rule:nonzero;stroke:none;stroke-width:0.1;stroke-dasharray:none"
       id="text4916"
       x="-207.54918"
       y="-216.49214"><tspan
         x="-207.54918 -200.60312 -193.65709 -186.71104 -179.76498 -172.81892 -165.87286"
         y="-216.49214"
         sodipodi:role="line"
         id="tspan4914"
         style="stroke-width:0.1;stroke-dasharray:none">Faduino</tspan></text></g></svg>
