999
"DXF R12 Output" (www.mydxf.blogspot.com)
 0 
SECTION
 2 
HEADER
 9 
$ACADVER
 1 
AC1009
 9 
$EXTMIN
 10 
 0 
 20 
 0 
 9 
$EXTMAX
 10 
 8.5 
 20 
 11 
 0 
ENDSEC
 0 
SECTION
 2 
ENTITIES
0
LINE
8
Layer 1
10
405.290000
20
194.601000
11
406.438050
21
194.829361
0
LINE
8
Layer 1
10
406.438050
20
194.829361
11
407.411320
21
195.479680
0
LINE
8
Layer 1
10
407.411320
20
195.479680
11
408.061639
21
196.452950
0
LINE
8
Layer 1
10
408.061639
20
196.452950
11
408.290000
21
197.601000
0
LINE
8
Layer 1
10
408.290000
20
197.601000
11
408.290000
21
384.181000
0
LINE
8
Layer 1
10
408.290000
20
384.181000
11
408.061639
21
385.329050
0
LINE
8
Layer 1
10
408.061639
20
385.329050
11
407.411320
21
386.302320
0
LINE
8
Layer 1
10
407.411320
20
386.302320
11
406.438050
21
386.952639
0
LINE
8
Layer 1
10
406.438050
20
386.952639
11
405.290000
21
387.181000
0
LINE
8
Layer 1
10
405.290000
20
387.181000
11
208.710000
21
387.181000
0
LINE
8
Layer 1
10
208.710000
20
387.181000
11
207.561950
21
386.952639
0
LINE
8
Layer 1
10
207.561950
20
386.952639
11
206.588680
21
386.302320
0
LINE
8
Layer 1
10
206.588680
20
386.302320
11
205.938361
21
385.329050
0
LINE
8
Layer 1
10
205.938361
20
385.329050
11
205.710000
21
384.181000
0
LINE
8
Layer 1
10
205.710000
20
384.181000
11
205.710000
21
197.601000
0
LINE
8
Layer 1
10
205.710000
20
197.601000
11
205.938361
21
196.452950
0
LINE
8
Layer 1
10
205.938361
20
196.452950
11
206.588680
21
195.479680
0
LINE
8
Layer 1
10
206.588680
20
195.479680
11
207.561950
21
194.829361
0
LINE
8
Layer 1
10
207.561950
20
194.829361
11
208.710000
21
194.601000
0
LINE
8
Layer 1
10
208.710000
20
194.601000
11
405.290000
21
194.601000
0
LINE
8
Layer 1
10
378.251000
20
383.390000
11
378.251000
21
379.590000
0
LINE
8
Layer 1
10
378.251000
20
379.590000
11
333.251000
21
379.590000
0
LINE
8
Layer 1
10
333.251000
20
379.590000
11
333.251000
21
383.390000
0
LINE
8
Layer 1
10
333.251000
20
383.390000
11
378.251000
21
383.390000
0
LINE
8
Layer 1
10
284.501000
20
383.390000
11
329.501000
21
383.390000
0
LINE
8
Layer 1
10
329.501000
20
383.390000
11
329.501000
21
379.590000
0
LINE
8
Layer 1
10
329.501000
20
379.590000
11
284.501000
21
379.590000
0
LINE
8
Layer 1
10
284.501000
20
379.590000
11
284.501000
21
383.390000
0
LINE
8
Layer 1
10
284.501000
20
202.190000
11
329.501000
21
202.190000
0
LINE
8
Layer 1
10
329.501000
20
202.190000
11
329.501000
21
198.390000
0
LINE
8
Layer 1
10
329.501000
20
198.390000
11
284.501000
21
198.390000
0
LINE
8
Layer 1
10
284.501000
20
198.390000
11
284.501000
21
202.190000
0
LINE
8
Layer 1
10
209.501000
20
298.598000
11
209.501000
21
344.848000
0
LINE
8
Layer 1
10
209.501000
20
344.848000
11
213.301000
21
344.848000
0
LINE
8
Layer 1
10
213.301000
20
344.848000
11
213.301000
21
298.598000
0
LINE
8
Layer 1
10
213.301000
20
298.598000
11
209.501000
21
298.598000
0
LINE
8
Layer 1
10
404.501000
20
344.848000
11
404.501000
21
298.598000
0
LINE
8
Layer 1
10
404.501000
20
298.598000
11
400.701000
21
298.598000
0
LINE
8
Layer 1
10
400.701000
20
298.598000
11
400.701000
21
344.848000
0
LINE
8
Layer 1
10
400.701000
20
344.848000
11
404.501000
21
344.848000
0
LINE
8
Layer 1
10
333.251000
20
202.190000
11
378.251000
21
202.190000
0
LINE
8
Layer 1
10
378.251000
20
202.190000
11
378.251000
21
198.390000
0
LINE
8
Layer 1
10
378.251000
20
198.390000
11
333.251000
21
198.390000
0
LINE
8
Layer 1
10
333.251000
20
198.390000
11
333.251000
21
202.190000
0
LINE
8
Layer 1
10
400.701000
20
236.932000
11
400.701000
21
283.182000
0
LINE
8
Layer 1
10
400.701000
20
283.182000
11
404.501000
21
283.182000
0
LINE
8
Layer 1
10
404.501000
20
283.182000
11
404.501000
21
236.932000
0
LINE
8
Layer 1
10
404.501000
20
236.932000
11
400.701000
21
236.932000
0
LINE
8
Layer 1
10
235.751000
20
379.590000
11
235.751000
21
383.390000
0
LINE
8
Layer 1
10
235.751000
20
383.390000
11
280.751000
21
383.390000
0
LINE
8
Layer 1
10
280.751000
20
383.390000
11
280.751000
21
379.590000
0
LINE
8
Layer 1
10
280.751000
20
379.590000
11
235.751000
21
379.590000
0
LINE
8
Layer 1
10
235.751000
20
202.190000
11
280.751000
21
202.190000
0
LINE
8
Layer 1
10
280.751000
20
202.190000
11
280.751000
21
198.390000
0
LINE
8
Layer 1
10
280.751000
20
198.390000
11
235.751000
21
198.390000
0
LINE
8
Layer 1
10
235.751000
20
198.390000
11
235.751000
21
202.190000
0
LINE
8
Layer 1
10
213.301000
20
236.932000
11
209.501000
21
236.932000
0
LINE
8
Layer 1
10
209.501000
20
236.932000
11
209.501000
21
283.182000
0
LINE
8
Layer 1
10
209.501000
20
283.182000
11
213.301000
21
283.182000
0
LINE
8
Layer 1
10
213.301000
20
283.182000
11
213.301000
21
236.932000
0
LINE
8
Layer 1
10
233.566000
20
78.613300
11
233.566000
21
73.013300
0
LINE
8
Layer 1
10
233.566000
20
73.013300
11
233.413759
21
72.247933
0
LINE
8
Layer 1
10
233.413759
20
72.247933
11
232.980214
21
71.599086
0
LINE
8
Layer 1
10
232.980214
20
71.599086
11
232.331367
21
71.165541
0
LINE
8
Layer 1
10
232.331367
20
71.165541
11
231.566000
21
71.013300
0
LINE
8
Layer 1
10
231.566000
20
71.013300
11
221.966000
21
71.013300
0
LINE
8
Layer 1
10
221.966000
20
71.013300
11
221.200633
21
71.165541
0
LINE
8
Layer 1
10
221.200633
20
71.165541
11
220.551786
21
71.599086
0
LINE
8
Layer 1
10
220.551786
20
71.599086
11
220.118241
21
72.247933
0
LINE
8
Layer 1
10
220.118241
20
72.247933
11
219.966000
21
73.013300
0
LINE
8
Layer 1
10
219.966000
20
73.013300
11
219.966000
21
78.613300
0
LINE
8
Layer 1
10
219.966000
20
78.613300
11
220.118241
21
79.378667
0
LINE
8
Layer 1
10
220.118241
20
79.378667
11
220.551786
21
80.027514
0
LINE
8
Layer 1
10
220.551786
20
80.027514
11
221.200633
21
80.461059
0
LINE
8
Layer 1
10
221.200633
20
80.461059
11
221.966000
21
80.613300
0
LINE
8
Layer 1
10
221.966000
20
80.613300
11
231.566000
21
80.613300
0
LINE
8
Layer 1
10
231.566000
20
80.613300
11
232.331367
21
80.461059
0
LINE
8
Layer 1
10
232.331367
20
80.461059
11
232.980214
21
80.027514
0
LINE
8
Layer 1
10
232.980214
20
80.027514
11
233.413759
21
79.378667
0
LINE
8
Layer 1
10
233.413759
20
79.378667
11
233.566000
21
78.613300
0
LINE
8
Layer 1
10
242.198000
20
56.813300
11
242.312181
21
56.239275
0
LINE
8
Layer 1
10
242.312181
20
56.239275
11
242.637340
21
55.752640
0
LINE
8
Layer 1
10
242.637340
20
55.752640
11
243.123975
21
55.427481
0
LINE
8
Layer 1
10
243.123975
20
55.427481
11
243.698000
21
55.313300
0
LINE
8
Layer 1
10
243.698000
20
55.313300
11
286.948000
21
55.313300
0
LINE
8
Layer 1
10
286.948000
20
55.313300
11
287.522025
21
55.427481
0
LINE
8
Layer 1
10
287.522025
20
55.427481
11
288.008660
21
55.752640
0
LINE
8
Layer 1
10
288.008660
20
55.752640
11
288.333819
21
56.239275
0
LINE
8
Layer 1
10
288.333819
20
56.239275
11
288.448000
21
56.813300
0
LINE
8
Layer 1
10
288.448000
20
56.813300
11
288.448000
21
59.813300
0
LINE
8
Layer 1
10
288.448000
20
59.813300
11
303.864000
21
59.813300
0
LINE
8
Layer 1
10
303.864000
20
59.813300
11
303.864000
21
56.813300
0
LINE
8
Layer 1
10
303.864000
20
56.813300
11
303.978181
21
56.239275
0
LINE
8
Layer 1
10
303.978181
20
56.239275
11
304.303340
21
55.752640
0
LINE
8
Layer 1
10
304.303340
20
55.752640
11
304.789975
21
55.427481
0
LINE
8
Layer 1
10
304.789975
20
55.427481
11
305.364000
21
55.313300
0
LINE
8
Layer 1
10
305.364000
20
55.313300
11
348.614000
21
55.313300
0
LINE
8
Layer 1
10
348.614000
20
55.313300
11
349.188025
21
55.427481
0
LINE
8
Layer 1
10
349.188025
20
55.427481
11
349.674660
21
55.752640
0
LINE
8
Layer 1
10
349.674660
20
55.752640
11
349.999819
21
56.239275
0
LINE
8
Layer 1
10
349.999819
20
56.239275
11
350.114000
21
56.813300
0
LINE
8
Layer 1
10
350.114000
20
56.813300
11
350.114000
21
59.813300
0
LINE
8
Layer 1
10
350.114000
20
59.813300
11
378.656000
21
59.813300
0
LINE
8
Layer 1
10
378.656000
20
59.813300
11
378.656000
21
59.813300
0
LINE
8
Layer 1
10
378.656000
20
59.813300
11
377.983803
21
61.688300
0
LINE
8
Layer 1
10
377.983803
20
61.688300
11
377.390079
21
63.563300
0
LINE
8
Layer 1
10
377.390079
20
63.563300
11
377.123255
21
64.500800
0
LINE
8
Layer 1
10
377.123255
20
64.500800
11
376.876947
21
65.438297
0
LINE
8
Layer 1
10
376.876947
20
65.438297
11
376.651602
21
66.375797
0
LINE
8
Layer 1
10
376.651602
20
66.375797
11
376.447725
21
67.313297
0
LINE
8
Layer 1
10
376.447725
20
67.313297
11
376.265872
21
68.250794
0
LINE
8
Layer 1
10
376.265872
20
68.250794
11
376.106612
21
69.188294
0
LINE
8
Layer 1
10
376.106612
20
69.188294
11
375.970534
21
70.125794
0
LINE
8
Layer 1
10
375.970534
20
70.125794
11
375.858205
21
71.063294
0
LINE
8
Layer 1
10
375.858205
20
71.063294
11
375.770165
21
72.000791
0
LINE
8
Layer 1
10
375.770165
20
72.000791
11
375.706887
21
72.938291
0
LINE
8
Layer 1
10
375.706887
20
72.938291
11
375.668748
21
73.875791
0
LINE
8
Layer 1
10
375.668748
20
73.875791
11
375.655995
21
74.813288
0
LINE
8
Layer 1
10
375.655995
20
74.813288
11
375.668748
21
75.750788
0
LINE
8
Layer 1
10
375.668748
20
75.750788
11
375.706887
21
76.688288
0
LINE
8
Layer 1
10
375.706887
20
76.688288
11
375.770165
21
77.625785
0
LINE
8
Layer 1
10
375.770165
20
77.625785
11
375.858205
21
78.563285
0
LINE
8
Layer 1
10
375.858205
20
78.563285
11
375.970534
21
79.500785
0
LINE
8
Layer 1
10
375.970534
20
79.500785
11
376.106612
21
80.438285
0
LINE
8
Layer 1
10
376.106612
20
80.438285
11
376.265872
21
81.375782
0
LINE
8
Layer 1
10
376.265872
20
81.375782
11
376.447725
21
82.313282
0
LINE
8
Layer 1
10
376.447725
20
82.313282
11
376.651602
21
83.250782
0
LINE
8
Layer 1
10
376.651602
20
83.250782
11
376.876947
21
84.188279
0
LINE
8
Layer 1
10
376.876947
20
84.188279
11
377.123255
21
85.125779
0
LINE
8
Layer 1
10
377.123255
20
85.125779
11
377.390079
21
86.063279
0
LINE
8
Layer 1
10
377.390079
20
86.063279
11
377.983803
21
87.938279
0
LINE
8
Layer 1
10
377.983803
20
87.938279
11
378.656000
21
89.813279
0
LINE
8
Layer 1
10
378.656000
20
89.813279
11
350.114000
21
89.813300
0
LINE
8
Layer 1
10
350.114000
20
89.813300
11
350.114000
21
95.813300
0
LINE
8
Layer 1
10
350.114000
20
95.813300
11
349.999819
21
96.387325
0
LINE
8
Layer 1
10
349.999819
20
96.387325
11
349.674660
21
96.873960
0
LINE
8
Layer 1
10
349.674660
20
96.873960
11
349.188025
21
97.199119
0
LINE
8
Layer 1
10
349.188025
20
97.199119
11
348.614000
21
97.313300
0
LINE
8
Layer 1
10
348.614000
20
97.313300
11
305.364000
21
97.313300
0
LINE
8
Layer 1
10
305.364000
20
97.313300
11
304.789975
21
97.199119
0
LINE
8
Layer 1
10
304.789975
20
97.199119
11
304.303340
21
96.873960
0
LINE
8
Layer 1
10
304.303340
20
96.873960
11
303.978181
21
96.387325
0
LINE
8
Layer 1
10
303.978181
20
96.387325
11
303.864000
21
95.813300
0
LINE
8
Layer 1
10
303.864000
20
95.813300
11
303.864000
21
89.813300
0
LINE
8
Layer 1
10
303.864000
20
89.813300
11
288.448000
21
89.813300
0
LINE
8
Layer 1
10
288.448000
20
89.813300
11
288.448000
21
95.813300
0
LINE
8
Layer 1
10
288.448000
20
95.813300
11
288.333819
21
96.387325
0
LINE
8
Layer 1
10
288.333819
20
96.387325
11
288.008660
21
96.873960
0
LINE
8
Layer 1
10
288.008660
20
96.873960
11
287.522025
21
97.199119
0
LINE
8
Layer 1
10
287.522025
20
97.199119
11
286.948000
21
97.313300
0
LINE
8
Layer 1
10
286.948000
20
97.313300
11
243.698000
21
97.313300
0
LINE
8
Layer 1
10
243.698000
20
97.313300
11
243.123975
21
97.199119
0
LINE
8
Layer 1
10
243.123975
20
97.199119
11
242.637340
21
96.873960
0
LINE
8
Layer 1
10
242.637340
20
96.873960
11
242.312181
21
96.387325
0
LINE
8
Layer 1
10
242.312181
20
96.387325
11
242.198000
21
95.813300
0
LINE
8
Layer 1
10
242.198000
20
95.813300
11
242.198000
21
89.813300
0
LINE
8
Layer 1
10
242.198000
20
89.813300
11
213.656000
21
89.813300
0
LINE
8
Layer 1
10
213.656000
20
89.813300
11
213.656000
21
89.813300
0
LINE
8
Layer 1
10
213.656000
20
89.813300
11
214.328197
21
87.938300
0
LINE
8
Layer 1
10
214.328197
20
87.938300
11
214.921921
21
86.063300
0
LINE
8
Layer 1
10
214.921921
20
86.063300
11
215.188745
21
85.125800
0
LINE
8
Layer 1
10
215.188745
20
85.125800
11
215.435053
21
84.188300
0
LINE
8
Layer 1
10
215.435053
20
84.188300
11
215.660398
21
83.250803
0
LINE
8
Layer 1
10
215.660398
20
83.250803
11
215.864275
21
82.313303
0
LINE
8
Layer 1
10
215.864275
20
82.313303
11
216.046128
21
81.375803
0
LINE
8
Layer 1
10
216.046128
20
81.375803
11
216.205388
21
80.438306
0
LINE
8
Layer 1
10
216.205388
20
80.438306
11
216.341466
21
79.500806
0
LINE
8
Layer 1
10
216.341466
20
79.500806
11
216.453795
21
78.563306
0
LINE
8
Layer 1
10
216.453795
20
78.563306
11
216.541835
21
77.625806
0
LINE
8
Layer 1
10
216.541835
20
77.625806
11
216.605113
21
76.688309
0
LINE
8
Layer 1
10
216.605113
20
76.688309
11
216.643252
21
75.750809
0
LINE
8
Layer 1
10
216.643252
20
75.750809
11
216.656005
21
74.813309
0
LINE
8
Layer 1
10
216.656005
20
74.813309
11
216.643252
21
73.875812
0
LINE
8
Layer 1
10
216.643252
20
73.875812
11
216.605113
21
72.938312
0
LINE
8
Layer 1
10
216.605113
20
72.938312
11
216.541835
21
72.000812
0
LINE
8
Layer 1
10
216.541835
20
72.000812
11
216.453795
21
71.063315
0
LINE
8
Layer 1
10
216.453795
20
71.063315
11
216.341466
21
70.125815
0
LINE
8
Layer 1
10
216.341466
20
70.125815
11
216.205388
21
69.188315
0
LINE
8
Layer 1
10
216.205388
20
69.188315
11
216.046128
21
68.250815
0
LINE
8
Layer 1
10
216.046128
20
68.250815
11
215.864275
21
67.313318
0
LINE
8
Layer 1
10
215.864275
20
67.313318
11
215.660398
21
66.375818
0
LINE
8
Layer 1
10
215.660398
20
66.375818
11
215.435053
21
65.438318
0
LINE
8
Layer 1
10
215.435053
20
65.438318
11
215.188745
21
64.500821
0
LINE
8
Layer 1
10
215.188745
20
64.500821
11
214.921921
21
63.563321
0
LINE
8
Layer 1
10
214.921921
20
63.563321
11
214.328197
21
61.688321
0
LINE
8
Layer 1
10
214.328197
20
61.688321
11
213.656000
21
59.813300
0
LINE
8
Layer 1
10
213.656000
20
59.813300
11
242.198000
21
59.813300
0
LINE
8
Layer 1
10
242.198000
20
59.813300
11
242.198000
21
56.813300
0
LINE
8
Layer 1
10
317.156000
20
149.505000
11
317.730025
21
149.619181
0
LINE
8
Layer 1
10
317.730025
20
149.619181
11
318.216660
21
149.944340
0
LINE
8
Layer 1
10
318.216660
20
149.944340
11
318.541819
21
150.430975
0
LINE
8
Layer 1
10
318.541819
20
150.430975
11
318.656000
21
151.005000
0
LINE
8
Layer 1
10
318.656000
20
151.005000
11
318.656000
21
154.005000
0
LINE
8
Layer 1
10
318.656000
20
154.005000
11
322.406000
21
154.005000
0
LINE
8
Layer 1
10
322.406000
20
154.005000
11
322.406000
21
151.005000
0
LINE
8
Layer 1
10
322.406000
20
151.005000
11
322.520181
21
150.430975
0
LINE
8
Layer 1
10
322.520181
20
150.430975
11
322.845340
21
149.944340
0
LINE
8
Layer 1
10
322.845340
20
149.944340
11
323.331975
21
149.619181
0
LINE
8
Layer 1
10
323.331975
20
149.619181
11
323.906000
21
149.505000
0
LINE
8
Layer 1
10
323.906000
20
149.505000
11
365.906000
21
149.505000
0
LINE
8
Layer 1
10
365.906000
20
149.505000
11
366.480025
21
149.619181
0
LINE
8
Layer 1
10
366.480025
20
149.619181
11
366.966660
21
149.944340
0
LINE
8
Layer 1
10
366.966660
20
149.944340
11
367.291819
21
150.430975
0
LINE
8
Layer 1
10
367.291819
20
150.430975
11
367.406000
21
151.005000
0
LINE
8
Layer 1
10
367.406000
20
151.005000
11
367.406000
21
154.005000
0
LINE
8
Layer 1
10
367.406000
20
154.005000
11
383.656000
21
154.005000
0
LINE
8
Layer 1
10
383.656000
20
154.005000
11
383.656000
21
154.005000
0
LINE
8
Layer 1
10
383.656000
20
154.005000
11
382.983800
21
155.880000
0
LINE
8
Layer 1
10
382.983800
20
155.880000
11
382.390080
21
157.755000
0
LINE
8
Layer 1
10
382.390080
20
157.755000
11
382.123250
21
158.692500
0
LINE
8
Layer 1
10
382.123250
20
158.692500
11
381.876940
21
159.630000
0
LINE
8
Layer 1
10
381.876940
20
159.630000
11
381.651600
21
160.567500
0
LINE
8
Layer 1
10
381.651600
20
160.567500
11
381.447720
21
161.505000
0
LINE
8
Layer 1
10
381.447720
20
161.505000
11
381.265870
21
162.442500
0
LINE
8
Layer 1
10
381.265870
20
162.442500
11
381.106610
21
163.380000
0
LINE
8
Layer 1
10
381.106610
20
163.380000
11
380.970530
21
164.317500
0
LINE
8
Layer 1
10
380.970530
20
164.317500
11
380.858200
21
165.255000
0
LINE
8
Layer 1
10
380.858200
20
165.255000
11
380.770200
21
166.192500
0
LINE
8
Layer 1
10
380.770200
20
166.192500
11
380.706900
21
167.130000
0
LINE
8
Layer 1
10
380.706900
20
167.130000
11
380.668800
21
168.067500
0
LINE
8
Layer 1
10
380.668800
20
168.067500
11
380.656000
21
169.005000
0
LINE
8
Layer 1
10
380.656000
20
169.005000
11
380.668800
21
169.942500
0
LINE
8
Layer 1
10
380.668800
20
169.942500
11
380.706900
21
170.880000
0
LINE
8
Layer 1
10
380.706900
20
170.880000
11
380.770200
21
171.817500
0
LINE
8
Layer 1
10
380.770200
20
171.817500
11
380.858200
21
172.755000
0
LINE
8
Layer 1
10
380.858200
20
172.755000
11
380.970530
21
173.692500
0
LINE
8
Layer 1
10
380.970530
20
173.692500
11
381.106610
21
174.630000
0
LINE
8
Layer 1
10
381.106610
20
174.630000
11
381.265870
21
175.567500
0
LINE
8
Layer 1
10
381.265870
20
175.567500
11
381.447720
21
176.505000
0
LINE
8
Layer 1
10
381.447720
20
176.505000
11
381.651600
21
177.442500
0
LINE
8
Layer 1
10
381.651600
20
177.442500
11
381.876940
21
178.380000
0
LINE
8
Layer 1
10
381.876940
20
178.380000
11
382.123250
21
179.317500
0
LINE
8
Layer 1
10
382.123250
20
179.317500
11
382.390080
21
180.255000
0
LINE
8
Layer 1
10
382.390080
20
180.255000
11
382.983800
21
182.130000
0
LINE
8
Layer 1
10
382.983800
20
182.130000
11
383.656000
21
184.005000
0
LINE
8
Layer 1
10
383.656000
20
184.005000
11
367.406000
21
184.005000
0
LINE
8
Layer 1
10
367.406000
20
184.005000
11
367.406000
21
190.005000
0
LINE
8
Layer 1
10
367.406000
20
190.005000
11
367.291819
21
190.579025
0
LINE
8
Layer 1
10
367.291819
20
190.579025
11
366.966660
21
191.065660
0
LINE
8
Layer 1
10
366.966660
20
191.065660
11
366.480025
21
191.390819
0
LINE
8
Layer 1
10
366.480025
20
191.390819
11
365.906000
21
191.505000
0
LINE
8
Layer 1
10
365.906000
20
191.505000
11
323.906000
21
191.505000
0
LINE
8
Layer 1
10
323.906000
20
191.505000
11
323.331975
21
191.390819
0
LINE
8
Layer 1
10
323.331975
20
191.390819
11
322.845340
21
191.065660
0
LINE
8
Layer 1
10
322.845340
20
191.065660
11
322.520181
21
190.579025
0
LINE
8
Layer 1
10
322.520181
20
190.579025
11
322.406000
21
190.005000
0
LINE
8
Layer 1
10
322.406000
20
190.005000
11
322.406000
21
184.005000
0
LINE
8
Layer 1
10
322.406000
20
184.005000
11
318.656000
21
184.005000
0
LINE
8
Layer 1
10
318.656000
20
184.005000
11
318.656000
21
190.005000
0
LINE
8
Layer 1
10
318.656000
20
190.005000
11
318.541819
21
190.579025
0
LINE
8
Layer 1
10
318.541819
20
190.579025
11
318.216660
21
191.065660
0
LINE
8
Layer 1
10
318.216660
20
191.065660
11
317.730025
21
191.390819
0
LINE
8
Layer 1
10
317.730025
20
191.390819
11
317.156000
21
191.505000
0
LINE
8
Layer 1
10
317.156000
20
191.505000
11
275.156000
21
191.505000
0
LINE
8
Layer 1
10
275.156000
20
191.505000
11
274.581975
21
191.390819
0
LINE
8
Layer 1
10
274.581975
20
191.390819
11
274.095340
21
191.065660
0
LINE
8
Layer 1
10
274.095340
20
191.065660
11
273.770181
21
190.579025
0
LINE
8
Layer 1
10
273.770181
20
190.579025
11
273.656000
21
190.005000
0
LINE
8
Layer 1
10
273.656000
20
190.005000
11
273.656000
21
184.005000
0
LINE
8
Layer 1
10
273.656000
20
184.005000
11
269.906000
21
184.005000
0
LINE
8
Layer 1
10
269.906000
20
184.005000
11
269.906000
21
190.005000
0
LINE
8
Layer 1
10
269.906000
20
190.005000
11
269.791819
21
190.579025
0
LINE
8
Layer 1
10
269.791819
20
190.579025
11
269.466660
21
191.065660
0
LINE
8
Layer 1
10
269.466660
20
191.065660
11
268.980025
21
191.390819
0
LINE
8
Layer 1
10
268.980025
20
191.390819
11
268.406000
21
191.505000
0
LINE
8
Layer 1
10
268.406000
20
191.505000
11
226.406000
21
191.505000
0
LINE
8
Layer 1
10
226.406000
20
191.505000
11
225.831975
21
191.390819
0
LINE
8
Layer 1
10
225.831975
20
191.390819
11
225.345340
21
191.065660
0
LINE
8
Layer 1
10
225.345340
20
191.065660
11
225.020181
21
190.579025
0
LINE
8
Layer 1
10
225.020181
20
190.579025
11
224.906000
21
190.005000
0
LINE
8
Layer 1
10
224.906000
20
190.005000
11
224.906000
21
184.005000
0
LINE
8
Layer 1
10
224.906000
20
184.005000
11
208.656000
21
184.005000
0
LINE
8
Layer 1
10
208.656000
20
184.005000
11
208.656000
21
184.005000
0
LINE
8
Layer 1
10
208.656000
20
184.005000
11
209.328200
21
182.130000
0
LINE
8
Layer 1
10
209.328200
20
182.130000
11
209.921920
21
180.255000
0
LINE
8
Layer 1
10
209.921920
20
180.255000
11
210.188740
21
179.317500
0
LINE
8
Layer 1
10
210.188740
20
179.317500
11
210.435060
21
178.380000
0
LINE
8
Layer 1
10
210.435060
20
178.380000
11
210.660400
21
177.442500
0
LINE
8
Layer 1
10
210.660400
20
177.442500
11
210.864280
21
176.505000
0
LINE
8
Layer 1
10
210.864280
20
176.505000
11
211.046130
21
175.567500
0
LINE
8
Layer 1
10
211.046130
20
175.567500
11
211.205390
21
174.630000
0
LINE
8
Layer 1
10
211.205390
20
174.630000
11
211.341470
21
173.692500
0
LINE
8
Layer 1
10
211.341470
20
173.692500
11
211.453800
21
172.755000
0
LINE
8
Layer 1
10
211.453800
20
172.755000
11
211.541800
21
171.817500
0
LINE
8
Layer 1
10
211.541800
20
171.817500
11
211.605100
21
170.880000
0
LINE
8
Layer 1
10
211.605100
20
170.880000
11
211.643200
21
169.942500
0
LINE
8
Layer 1
10
211.643200
20
169.942500
11
211.656000
21
169.005000
0
LINE
8
Layer 1
10
211.656000
20
169.005000
11
211.643200
21
168.067500
0
LINE
8
Layer 1
10
211.643200
20
168.067500
11
211.605100
21
167.130000
0
LINE
8
Layer 1
10
211.605100
20
167.130000
11
211.541800
21
166.192500
0
LINE
8
Layer 1
10
211.541800
20
166.192500
11
211.453800
21
165.255000
0
LINE
8
Layer 1
10
211.453800
20
165.255000
11
211.341470
21
164.317500
0
LINE
8
Layer 1
10
211.341470
20
164.317500
11
211.205390
21
163.380000
0
LINE
8
Layer 1
10
211.205390
20
163.380000
11
211.046130
21
162.442500
0
LINE
8
Layer 1
10
211.046130
20
162.442500
11
210.864280
21
161.505000
0
LINE
8
Layer 1
10
210.864280
20
161.505000
11
210.660400
21
160.567500
0
LINE
8
Layer 1
10
210.660400
20
160.567500
11
210.435060
21
159.630000
0
LINE
8
Layer 1
10
210.435060
20
159.630000
11
210.188740
21
158.692500
0
LINE
8
Layer 1
10
210.188740
20
158.692500
11
209.921920
21
157.755000
0
LINE
8
Layer 1
10
209.921920
20
157.755000
11
209.328200
21
155.880000
0
LINE
8
Layer 1
10
209.328200
20
155.880000
11
208.656000
21
154.005000
0
LINE
8
Layer 1
10
208.656000
20
154.005000
11
224.906000
21
154.005000
0
LINE
8
Layer 1
10
224.906000
20
154.005000
11
224.906000
21
151.005000
0
LINE
8
Layer 1
10
224.906000
20
151.005000
11
225.020181
21
150.430975
0
LINE
8
Layer 1
10
225.020181
20
150.430975
11
225.345340
21
149.944340
0
LINE
8
Layer 1
10
225.345340
20
149.944340
11
225.831975
21
149.619181
0
LINE
8
Layer 1
10
225.831975
20
149.619181
11
226.406000
21
149.505000
0
LINE
8
Layer 1
10
226.406000
20
149.505000
11
268.406000
21
149.505000
0
LINE
8
Layer 1
10
268.406000
20
149.505000
11
268.980025
21
149.619181
0
LINE
8
Layer 1
10
268.980025
20
149.619181
11
269.466660
21
149.944340
0
LINE
8
Layer 1
10
269.466660
20
149.944340
11
269.791819
21
150.430975
0
LINE
8
Layer 1
10
269.791819
20
150.430975
11
269.906000
21
151.005000
0
LINE
8
Layer 1
10
269.906000
20
151.005000
11
269.906000
21
154.005000
0
LINE
8
Layer 1
10
269.906000
20
154.005000
11
273.656000
21
154.005000
0
LINE
8
Layer 1
10
273.656000
20
154.005000
11
273.656000
21
151.005000
0
LINE
8
Layer 1
10
273.656000
20
151.005000
11
273.770181
21
150.430975
0
LINE
8
Layer 1
10
273.770181
20
150.430975
11
274.095340
21
149.944340
0
LINE
8
Layer 1
10
274.095340
20
149.944340
11
274.581975
21
149.619181
0
LINE
8
Layer 1
10
274.581975
20
149.619181
11
275.156000
21
149.505000
0
LINE
8
Layer 1
10
275.156000
20
149.505000
11
317.156000
21
149.505000
0
LINE
8
Layer 1
10
202.713000
20
189.712000
11
202.484639
21
190.860050
0
LINE
8
Layer 1
10
202.484639
20
190.860050
11
201.834320
21
191.833320
0
LINE
8
Layer 1
10
201.834320
20
191.833320
11
200.861050
21
192.483639
0
LINE
8
Layer 1
10
200.861050
20
192.483639
11
199.713000
21
192.712000
0
LINE
8
Layer 1
10
199.713000
20
192.712000
11
3.133120
21
192.712000
0
LINE
8
Layer 1
10
3.133120
20
192.712000
11
1.965385
21
192.476245
0
LINE
8
Layer 1
10
1.965385
20
192.476245
11
1.011800
21
191.833320
0
LINE
8
Layer 1
10
1.011800
20
191.833320
11
0.368875
21
190.879735
0
LINE
8
Layer 1
10
0.368875
20
190.879735
11
0.133120
21
189.712000
0
LINE
8
Layer 1
10
0.133120
20
189.712000
11
0.133127
21
3.132420
0
LINE
8
Layer 1
10
0.133127
20
3.132420
11
0.361488
21
1.984370
0
LINE
8
Layer 1
10
0.361488
20
1.984370
11
1.011807
21
1.011100
0
LINE
8
Layer 1
10
1.011807
20
1.011100
11
1.985077
21
0.360781
0
LINE
8
Layer 1
10
1.985077
20
0.360781
11
3.133127
21
0.132420
0
LINE
8
Layer 1
10
3.133127
20
0.132420
11
199.713000
21
0.132421
0
LINE
8
Layer 1
10
199.713000
20
0.132421
11
200.861050
21
0.360782
0
LINE
8
Layer 1
10
200.861050
20
0.360782
11
201.834320
21
1.011101
0
LINE
8
Layer 1
10
201.834320
20
1.011101
11
202.484639
21
1.984371
0
LINE
8
Layer 1
10
202.484639
20
1.984371
11
202.713000
21
3.132421
0
LINE
8
Layer 1
10
202.713000
20
3.132421
11
202.713000
21
189.712000
0
LINE
8
Layer 1
10
167.171000
20
92.220800
11
167.171000
21
92.220800
0
LINE
8
Layer 1
10
167.171000
20
92.220800
11
166.869061
21
92.250952
0
LINE
8
Layer 1
10
166.869061
20
92.250952
11
166.578692
21
92.339323
0
LINE
8
Layer 1
10
166.578692
20
92.339323
11
166.313342
21
92.484537
0
LINE
8
Layer 1
10
166.313342
20
92.484537
11
166.081766
21
92.679455
0
LINE
8
Layer 1
10
166.081766
20
92.679455
11
165.890388
21
92.914775
0
LINE
8
Layer 1
10
165.890388
20
92.914775
11
165.745632
21
93.181192
0
LINE
8
Layer 1
10
165.745632
20
93.181192
11
165.653920
21
93.469410
0
LINE
8
Layer 1
10
165.653920
20
93.469410
11
165.621675
21
93.770130
0
LINE
8
Layer 1
10
165.621675
20
93.770130
11
165.621000
21
105.674000
0
LINE
8
Layer 1
10
165.621000
20
105.674000
11
165.621000
21
105.674000
0
LINE
8
Layer 1
10
165.621000
20
105.674000
11
165.651152
21
105.975939
0
LINE
8
Layer 1
10
165.651152
20
105.975939
11
165.739520
21
106.266308
0
LINE
8
Layer 1
10
165.739520
20
106.266308
11
165.884736
21
106.531658
0
LINE
8
Layer 1
10
165.884736
20
106.531658
11
166.079654
21
106.763232
0
LINE
8
Layer 1
10
166.079654
20
106.763232
11
166.314971
21
106.954610
0
LINE
8
Layer 1
10
166.314971
20
106.954610
11
166.581390
21
107.099369
0
LINE
8
Layer 1
10
166.581390
20
107.099369
11
166.869608
21
107.191081
0
LINE
8
Layer 1
10
166.869608
20
107.191081
11
167.170325
21
107.223326
0
LINE
8
Layer 1
10
167.170325
20
107.223326
11
179.075000
21
107.224000
0
LINE
8
Layer 1
10
179.075000
20
107.224000
11
179.075000
21
107.224000
0
LINE
8
Layer 1
10
179.075000
20
107.224000
11
179.376939
21
107.193848
0
LINE
8
Layer 1
10
179.376939
20
107.193848
11
179.667311
21
107.105480
0
LINE
8
Layer 1
10
179.667311
20
107.105480
11
179.932659
21
106.960264
0
LINE
8
Layer 1
10
179.932659
20
106.960264
11
180.164235
21
106.765346
0
LINE
8
Layer 1
10
180.164235
20
106.765346
11
180.355613
21
106.530029
0
LINE
8
Layer 1
10
180.355613
20
106.530029
11
180.500369
21
106.263610
0
LINE
8
Layer 1
10
180.500369
20
106.263610
11
180.592081
21
105.975392
0
LINE
8
Layer 1
10
180.592081
20
105.975392
11
180.624329
21
105.674675
0
LINE
8
Layer 1
10
180.624329
20
105.674675
11
180.624000
21
93.770100
0
LINE
8
Layer 1
10
180.624000
20
93.770100
11
180.624000
21
93.770100
0
LINE
8
Layer 1
10
180.624000
20
93.770100
11
180.593848
21
93.468158
0
LINE
8
Layer 1
10
180.593848
20
93.468158
11
180.505477
21
93.177789
0
LINE
8
Layer 1
10
180.505477
20
93.177789
11
180.360261
21
92.912441
0
LINE
8
Layer 1
10
180.360261
20
92.912441
11
180.165345
21
92.680865
0
LINE
8
Layer 1
10
180.165345
20
92.680865
11
179.930025
21
92.489487
0
LINE
8
Layer 1
10
179.930025
20
92.489487
11
179.663606
21
92.344728
0
LINE
8
Layer 1
10
179.663606
20
92.344728
11
179.375388
21
92.253016
0
LINE
8
Layer 1
10
179.375388
20
92.253016
11
179.074671
21
92.220771
0
LINE
8
Layer 1
10
179.074671
20
92.220771
11
167.171000
21
92.220800
0
LINE
8
Layer 1
10
142.171000
20
42.220800
11
142.171000
21
42.220800
0
LINE
8
Layer 1
10
142.171000
20
42.220800
11
141.869061
21
42.250952
0
LINE
8
Layer 1
10
141.869061
20
42.250952
11
141.578692
21
42.339323
0
LINE
8
Layer 1
10
141.578692
20
42.339323
11
141.313342
21
42.484539
0
LINE
8
Layer 1
10
141.313342
20
42.484539
11
141.081766
21
42.679455
0
LINE
8
Layer 1
10
141.081766
20
42.679455
11
140.890388
21
42.914775
0
LINE
8
Layer 1
10
140.890388
20
42.914775
11
140.745632
21
43.181194
0
LINE
8
Layer 1
10
140.745632
20
43.181194
11
140.653920
21
43.469412
0
LINE
8
Layer 1
10
140.653920
20
43.469412
11
140.621675
21
43.770129
0
LINE
8
Layer 1
10
140.621675
20
43.770129
11
140.621000
21
55.674600
0
LINE
8
Layer 1
10
140.621000
20
55.674600
11
140.621000
21
55.674600
0
LINE
8
Layer 1
10
140.621000
20
55.674600
11
140.651152
21
55.976539
0
LINE
8
Layer 1
10
140.651152
20
55.976539
11
140.739520
21
56.266908
0
LINE
8
Layer 1
10
140.739520
20
56.266908
11
140.884736
21
56.532258
0
LINE
8
Layer 1
10
140.884736
20
56.532258
11
141.079654
21
56.763834
0
LINE
8
Layer 1
10
141.079654
20
56.763834
11
141.314971
21
56.955212
0
LINE
8
Layer 1
10
141.314971
20
56.955212
11
141.581390
21
57.099968
0
LINE
8
Layer 1
10
141.581390
20
57.099968
11
141.869608
21
57.191680
0
LINE
8
Layer 1
10
141.869608
20
57.191680
11
142.170325
21
57.223925
0
LINE
8
Layer 1
10
142.170325
20
57.223925
11
154.075000
21
57.223900
0
LINE
8
Layer 1
10
154.075000
20
57.223900
11
154.075000
21
57.223900
0
LINE
8
Layer 1
10
154.075000
20
57.223900
11
154.376939
21
57.193748
0
LINE
8
Layer 1
10
154.376939
20
57.193748
11
154.667311
21
57.105380
0
LINE
8
Layer 1
10
154.667311
20
57.105380
11
154.932659
21
56.960164
0
LINE
8
Layer 1
10
154.932659
20
56.960164
11
155.164235
21
56.765246
0
LINE
8
Layer 1
10
155.164235
20
56.765246
11
155.355613
21
56.529929
0
LINE
8
Layer 1
10
155.355613
20
56.529929
11
155.500369
21
56.263510
0
LINE
8
Layer 1
10
155.500369
20
56.263510
11
155.592084
21
55.975292
0
LINE
8
Layer 1
10
155.592084
20
55.975292
11
155.624329
21
55.674575
0
LINE
8
Layer 1
10
155.624329
20
55.674575
11
155.624000
21
43.770200
0
LINE
8
Layer 1
10
155.624000
20
43.770200
11
155.624000
21
43.770200
0
LINE
8
Layer 1
10
155.624000
20
43.770200
11
155.593848
21
43.468261
0
LINE
8
Layer 1
10
155.593848
20
43.468261
11
155.505477
21
43.177889
0
LINE
8
Layer 1
10
155.505477
20
43.177889
11
155.360261
21
42.912541
0
LINE
8
Layer 1
10
155.360261
20
42.912541
11
155.165345
21
42.680965
0
LINE
8
Layer 1
10
155.165345
20
42.680965
11
154.930025
21
42.489587
0
LINE
8
Layer 1
10
154.930025
20
42.489587
11
154.663606
21
42.344831
0
LINE
8
Layer 1
10
154.663606
20
42.344831
11
154.375388
21
42.253116
0
LINE
8
Layer 1
10
154.375388
20
42.253116
11
154.074671
21
42.220871
0
LINE
8
Layer 1
10
154.074671
20
42.220871
11
142.171000
21
42.220800
0
LINE
8
Layer 1
10
90.621500
20
105.675000
11
90.621500
21
105.675000
0
LINE
8
Layer 1
10
90.621500
20
105.675000
11
90.651652
21
105.976939
0
LINE
8
Layer 1
10
90.651652
20
105.976939
11
90.740020
21
106.267308
0
LINE
8
Layer 1
10
90.740020
20
106.267308
11
90.885236
21
106.532658
0
LINE
8
Layer 1
10
90.885236
20
106.532658
11
91.080154
21
106.764234
0
LINE
8
Layer 1
10
91.080154
20
106.764234
11
91.315471
21
106.955612
0
LINE
8
Layer 1
10
91.315471
20
106.955612
11
91.581890
21
107.100368
0
LINE
8
Layer 1
10
91.581890
20
107.100368
11
91.870108
21
107.192080
0
LINE
8
Layer 1
10
91.870108
20
107.192080
11
92.170825
21
107.224325
0
LINE
8
Layer 1
10
92.170825
20
107.224325
11
104.075000
21
107.224000
0
LINE
8
Layer 1
10
104.075000
20
107.224000
11
104.075000
21
107.224000
0
LINE
8
Layer 1
10
104.075000
20
107.224000
11
104.376942
21
107.193848
0
LINE
8
Layer 1
10
104.376942
20
107.193848
11
104.667311
21
107.105480
0
LINE
8
Layer 1
10
104.667311
20
107.105480
11
104.932659
21
106.960264
0
LINE
8
Layer 1
10
104.932659
20
106.960264
11
105.164235
21
106.765346
0
LINE
8
Layer 1
10
105.164235
20
106.765346
11
105.355613
21
106.530029
0
LINE
8
Layer 1
10
105.355613
20
106.530029
11
105.500372
21
106.263610
0
LINE
8
Layer 1
10
105.500372
20
106.263610
11
105.592084
21
105.975392
0
LINE
8
Layer 1
10
105.592084
20
105.975392
11
105.624329
21
105.674675
0
LINE
8
Layer 1
10
105.624329
20
105.674675
11
105.625000
21
93.770100
0
LINE
8
Layer 1
10
105.625000
20
93.770100
11
105.625000
21
93.770100
0
LINE
8
Layer 1
10
105.625000
20
93.770100
11
105.594848
21
93.468161
0
LINE
8
Layer 1
10
105.594848
20
93.468161
11
105.506477
21
93.177792
0
LINE
8
Layer 1
10
105.506477
20
93.177792
11
105.361263
21
92.912442
0
LINE
8
Layer 1
10
105.361263
20
92.912442
11
105.166345
21
92.680866
0
LINE
8
Layer 1
10
105.166345
20
92.680866
11
104.931025
21
92.489488
0
LINE
8
Layer 1
10
104.931025
20
92.489488
11
104.664608
21
92.344732
0
LINE
8
Layer 1
10
104.664608
20
92.344732
11
104.376390
21
92.253020
0
LINE
8
Layer 1
10
104.376390
20
92.253020
11
104.075670
21
92.220772
0
LINE
8
Layer 1
10
104.075670
20
92.220772
11
92.170800
21
92.220800
0
LINE
8
Layer 1
10
92.170800
20
92.220800
11
92.170800
21
92.220800
0
LINE
8
Layer 1
10
92.170800
20
92.220800
11
91.868861
21
92.250952
0
LINE
8
Layer 1
10
91.868861
20
92.250952
11
91.578492
21
92.339323
0
LINE
8
Layer 1
10
91.578492
20
92.339323
11
91.313142
21
92.484539
0
LINE
8
Layer 1
10
91.313142
20
92.484539
11
91.081568
21
92.679455
0
LINE
8
Layer 1
10
91.081568
20
92.679455
11
90.890190
21
92.914775
0
LINE
8
Layer 1
10
90.890190
20
92.914775
11
90.745431
21
93.181194
0
LINE
8
Layer 1
10
90.745431
20
93.181194
11
90.653719
21
93.469412
0
LINE
8
Layer 1
10
90.653719
20
93.469412
11
90.621474
21
93.770129
0
LINE
8
Layer 1
10
90.621474
20
93.770129
11
90.621500
21
105.675000
0
LINE
8
Layer 1
10
195.123000
20
42.464000
11
195.123000
21
88.714000
0
LINE
8
Layer 1
10
195.123000
20
88.714000
11
198.923000
21
88.714000
0
LINE
8
Layer 1
10
198.923000
20
88.714000
11
198.923000
21
42.464000
0
LINE
8
Layer 1
10
198.923000
20
42.464000
11
195.123000
21
42.464000
0
LINE
8
Layer 1
10
142.171000
20
67.220800
11
142.171000
21
67.220800
0
LINE
8
Layer 1
10
142.171000
20
67.220800
11
141.869061
21
67.250952
0
LINE
8
Layer 1
10
141.869061
20
67.250952
11
141.578692
21
67.339323
0
LINE
8
Layer 1
10
141.578692
20
67.339323
11
141.313342
21
67.484537
0
LINE
8
Layer 1
10
141.313342
20
67.484537
11
141.081766
21
67.679455
0
LINE
8
Layer 1
10
141.081766
20
67.679455
11
140.890388
21
67.914775
0
LINE
8
Layer 1
10
140.890388
20
67.914775
11
140.745632
21
68.181192
0
LINE
8
Layer 1
10
140.745632
20
68.181192
11
140.653920
21
68.469413
0
LINE
8
Layer 1
10
140.653920
20
68.469413
11
140.621675
21
68.770130
0
LINE
8
Layer 1
10
140.621675
20
68.770130
11
140.621000
21
80.674500
0
LINE
8
Layer 1
10
140.621000
20
80.674500
11
140.621000
21
80.674500
0
LINE
8
Layer 1
10
140.621000
20
80.674500
11
140.651152
21
80.976439
0
LINE
8
Layer 1
10
140.651152
20
80.976439
11
140.739520
21
81.266808
0
LINE
8
Layer 1
10
140.739520
20
81.266808
11
140.884736
21
81.532158
0
LINE
8
Layer 1
10
140.884736
20
81.532158
11
141.079654
21
81.763732
0
LINE
8
Layer 1
10
141.079654
20
81.763732
11
141.314971
21
81.955110
0
LINE
8
Layer 1
10
141.314971
20
81.955110
11
141.581390
21
82.099869
0
LINE
8
Layer 1
10
141.581390
20
82.099869
11
141.869608
21
82.191581
0
LINE
8
Layer 1
10
141.869608
20
82.191581
11
142.170325
21
82.223826
0
LINE
8
Layer 1
10
142.170325
20
82.223826
11
154.075000
21
82.223900
0
LINE
8
Layer 1
10
154.075000
20
82.223900
11
154.075000
21
82.223900
0
LINE
8
Layer 1
10
154.075000
20
82.223900
11
154.376939
21
82.193748
0
LINE
8
Layer 1
10
154.376939
20
82.193748
11
154.667311
21
82.105380
0
LINE
8
Layer 1
10
154.667311
20
82.105380
11
154.932659
21
81.960164
0
LINE
8
Layer 1
10
154.932659
20
81.960164
11
155.164235
21
81.765246
0
LINE
8
Layer 1
10
155.164235
20
81.765246
11
155.355613
21
81.529929
0
LINE
8
Layer 1
10
155.355613
20
81.529929
11
155.500369
21
81.263510
0
LINE
8
Layer 1
10
155.500369
20
81.263510
11
155.592084
21
80.975292
0
LINE
8
Layer 1
10
155.592084
20
80.975292
11
155.624329
21
80.674575
0
LINE
8
Layer 1
10
155.624329
20
80.674575
11
155.624000
21
68.770100
0
LINE
8
Layer 1
10
155.624000
20
68.770100
11
155.624000
21
68.770100
0
LINE
8
Layer 1
10
155.624000
20
68.770100
11
155.593848
21
68.468158
0
LINE
8
Layer 1
10
155.593848
20
68.468158
11
155.505477
21
68.177789
0
LINE
8
Layer 1
10
155.505477
20
68.177789
11
155.360261
21
67.912441
0
LINE
8
Layer 1
10
155.360261
20
67.912441
11
155.165345
21
67.680865
0
LINE
8
Layer 1
10
155.165345
20
67.680865
11
154.930025
21
67.489487
0
LINE
8
Layer 1
10
154.930025
20
67.489487
11
154.663606
21
67.344731
0
LINE
8
Layer 1
10
154.663606
20
67.344731
11
154.375388
21
67.253016
0
LINE
8
Layer 1
10
154.375388
20
67.253016
11
154.074671
21
67.220771
0
LINE
8
Layer 1
10
154.074671
20
67.220771
11
142.171000
21
67.220800
0
LINE
8
Layer 1
10
65.621500
20
130.674000
11
65.621500
21
130.674000
0
LINE
8
Layer 1
10
65.621500
20
130.674000
11
65.651652
21
130.975939
0
LINE
8
Layer 1
10
65.651652
20
130.975939
11
65.740020
21
131.266308
0
LINE
8
Layer 1
10
65.740020
20
131.266308
11
65.885236
21
131.531658
0
LINE
8
Layer 1
10
65.885236
20
131.531658
11
66.080154
21
131.763234
0
LINE
8
Layer 1
10
66.080154
20
131.763234
11
66.315471
21
131.954612
0
LINE
8
Layer 1
10
66.315471
20
131.954612
11
66.581890
21
132.099368
0
LINE
8
Layer 1
10
66.581890
20
132.099368
11
66.870108
21
132.191080
0
LINE
8
Layer 1
10
66.870108
20
132.191080
11
67.170828
21
132.223325
0
LINE
8
Layer 1
10
67.170828
20
132.223325
11
79.075200
21
132.224000
0
LINE
8
Layer 1
10
79.075200
20
132.224000
11
79.075200
21
132.224000
0
LINE
8
Layer 1
10
79.075200
20
132.224000
11
79.377142
21
132.193848
0
LINE
8
Layer 1
10
79.377142
20
132.193848
11
79.667511
21
132.105480
0
LINE
8
Layer 1
10
79.667511
20
132.105480
11
79.932861
21
131.960264
0
LINE
8
Layer 1
10
79.932861
20
131.960264
11
80.164435
21
131.765346
0
LINE
8
Layer 1
10
80.164435
20
131.765346
11
80.355813
21
131.530029
0
LINE
8
Layer 1
10
80.355813
20
131.530029
11
80.500572
21
131.263610
0
LINE
8
Layer 1
10
80.500572
20
131.263610
11
80.592284
21
130.975392
0
LINE
8
Layer 1
10
80.592284
20
130.975392
11
80.624529
21
130.674675
0
LINE
8
Layer 1
10
80.624529
20
130.674675
11
80.624600
21
118.770000
0
LINE
8
Layer 1
10
80.624600
20
118.770000
11
80.624600
21
118.770000
0
LINE
8
Layer 1
10
80.624600
20
118.770000
11
80.594448
21
118.468061
0
LINE
8
Layer 1
10
80.594448
20
118.468061
11
80.506080
21
118.177689
0
LINE
8
Layer 1
10
80.506080
20
118.177689
11
80.360864
21
117.912341
0
LINE
8
Layer 1
10
80.360864
20
117.912341
11
80.165946
21
117.680765
0
LINE
8
Layer 1
10
80.165946
20
117.680765
11
79.930629
21
117.489387
0
LINE
8
Layer 1
10
79.930629
20
117.489387
11
79.664210
21
117.344631
0
LINE
8
Layer 1
10
79.664210
20
117.344631
11
79.375992
21
117.252916
0
LINE
8
Layer 1
10
79.375992
20
117.252916
11
79.075272
21
117.220671
0
LINE
8
Layer 1
10
79.075272
20
117.220671
11
67.170800
21
117.221000
0
LINE
8
Layer 1
10
67.170800
20
117.221000
11
67.170800
21
117.221000
0
LINE
8
Layer 1
10
67.170800
20
117.221000
11
66.868858
21
117.251152
0
LINE
8
Layer 1
10
66.868858
20
117.251152
11
66.578489
21
117.339523
0
LINE
8
Layer 1
10
66.578489
20
117.339523
11
66.313139
21
117.484739
0
LINE
8
Layer 1
10
66.313139
20
117.484739
11
66.081565
21
117.679655
0
LINE
8
Layer 1
10
66.081565
20
117.679655
11
65.890187
21
117.914975
0
LINE
8
Layer 1
10
65.890187
20
117.914975
11
65.745428
21
118.181394
0
LINE
8
Layer 1
10
65.745428
20
118.181394
11
65.653716
21
118.469612
0
LINE
8
Layer 1
10
65.653716
20
118.469612
11
65.621471
21
118.770329
0
LINE
8
Layer 1
10
65.621471
20
118.770329
11
65.621500
21
130.674000
0
LINE
8
Layer 1
10
65.621500
20
55.674600
11
65.621500
21
55.674600
0
LINE
8
Layer 1
10
65.621500
20
55.674600
11
65.651652
21
55.976539
0
LINE
8
Layer 1
10
65.651652
20
55.976539
11
65.740020
21
56.266911
0
LINE
8
Layer 1
10
65.740020
20
56.266911
11
65.885236
21
56.532259
0
LINE
8
Layer 1
10
65.885236
20
56.532259
11
66.080154
21
56.763835
0
LINE
8
Layer 1
10
66.080154
20
56.763835
11
66.315471
21
56.955213
0
LINE
8
Layer 1
10
66.315471
20
56.955213
11
66.581890
21
57.099969
0
LINE
8
Layer 1
10
66.581890
20
57.099969
11
66.870108
21
57.191681
0
LINE
8
Layer 1
10
66.870108
20
57.191681
11
67.170828
21
57.223929
0
LINE
8
Layer 1
10
67.170828
20
57.223929
11
79.075200
21
57.223900
0
LINE
8
Layer 1
10
79.075200
20
57.223900
11
79.075200
21
57.223900
0
LINE
8
Layer 1
10
79.075200
20
57.223900
11
79.377142
21
57.193748
0
LINE
8
Layer 1
10
79.377142
20
57.193748
11
79.667511
21
57.105377
0
LINE
8
Layer 1
10
79.667511
20
57.105377
11
79.932861
21
56.960161
0
LINE
8
Layer 1
10
79.932861
20
56.960161
11
80.164435
21
56.765245
0
LINE
8
Layer 1
10
80.164435
20
56.765245
11
80.355813
21
56.529925
0
LINE
8
Layer 1
10
80.355813
20
56.529925
11
80.500572
21
56.263506
0
LINE
8
Layer 1
10
80.500572
20
56.263506
11
80.592284
21
55.975288
0
LINE
8
Layer 1
10
80.592284
20
55.975288
11
80.624529
21
55.674571
0
LINE
8
Layer 1
10
80.624529
20
55.674571
11
80.624600
21
43.770200
0
LINE
8
Layer 1
10
80.624600
20
43.770200
11
80.624600
21
43.770200
0
LINE
8
Layer 1
10
80.624600
20
43.770200
11
80.594448
21
43.468261
0
LINE
8
Layer 1
10
80.594448
20
43.468261
11
80.506080
21
43.177892
0
LINE
8
Layer 1
10
80.506080
20
43.177892
11
80.360864
21
42.912542
0
LINE
8
Layer 1
10
80.360864
20
42.912542
11
80.165946
21
42.680966
0
LINE
8
Layer 1
10
80.165946
20
42.680966
11
79.930629
21
42.489588
0
LINE
8
Layer 1
10
79.930629
20
42.489588
11
79.664210
21
42.344832
0
LINE
8
Layer 1
10
79.664210
20
42.344832
11
79.375992
21
42.253120
0
LINE
8
Layer 1
10
79.375992
20
42.253120
11
79.075272
21
42.220875
0
LINE
8
Layer 1
10
79.075272
20
42.220875
11
67.170800
21
42.220900
0
LINE
8
Layer 1
10
67.170800
20
42.220900
11
67.170800
21
42.220900
0
LINE
8
Layer 1
10
67.170800
20
42.220900
11
66.868858
21
42.251052
0
LINE
8
Layer 1
10
66.868858
20
42.251052
11
66.578489
21
42.339420
0
LINE
8
Layer 1
10
66.578489
20
42.339420
11
66.313139
21
42.484636
0
LINE
8
Layer 1
10
66.313139
20
42.484636
11
66.081565
21
42.679554
0
LINE
8
Layer 1
10
66.081565
20
42.679554
11
65.890187
21
42.914871
0
LINE
8
Layer 1
10
65.890187
20
42.914871
11
65.745428
21
43.181290
0
LINE
8
Layer 1
10
65.745428
20
43.181290
11
65.653716
21
43.469508
0
LINE
8
Layer 1
10
65.653716
20
43.469508
11
65.621471
21
43.770225
0
LINE
8
Layer 1
10
65.621471
20
43.770225
11
65.621500
21
55.674600
0
LINE
8
Layer 1
10
15.621600
20
105.675000
11
15.621600
21
105.675000
0
LINE
8
Layer 1
10
15.621600
20
105.675000
11
15.651752
21
105.976939
0
LINE
8
Layer 1
10
15.651752
20
105.976939
11
15.740123
21
106.267308
0
LINE
8
Layer 1
10
15.740123
20
106.267308
11
15.885339
21
106.532658
0
LINE
8
Layer 1
10
15.885339
20
106.532658
11
16.080255
21
106.764234
0
LINE
8
Layer 1
10
16.080255
20
106.764234
11
16.315575
21
106.955612
0
LINE
8
Layer 1
10
16.315575
20
106.955612
11
16.581992
21
107.100368
0
LINE
8
Layer 1
10
16.581992
20
107.100368
11
16.870213
21
107.192080
0
LINE
8
Layer 1
10
16.870213
20
107.192080
11
17.170930
21
107.224325
0
LINE
8
Layer 1
10
17.170930
20
107.224325
11
29.075300
21
107.224000
0
LINE
8
Layer 1
10
29.075300
20
107.224000
11
29.075300
21
107.224000
0
LINE
8
Layer 1
10
29.075300
20
107.224000
11
29.377239
21
107.193848
0
LINE
8
Layer 1
10
29.377239
20
107.193848
11
29.667608
21
107.105480
0
LINE
8
Layer 1
10
29.667608
20
107.105480
11
29.932958
21
106.960264
0
LINE
8
Layer 1
10
29.932958
20
106.960264
11
30.164532
21
106.765346
0
LINE
8
Layer 1
10
30.164532
20
106.765346
11
30.355910
21
106.530029
0
LINE
8
Layer 1
10
30.355910
20
106.530029
11
30.500669
21
106.263610
0
LINE
8
Layer 1
10
30.500669
20
106.263610
11
30.592381
21
105.975392
0
LINE
8
Layer 1
10
30.592381
20
105.975392
11
30.624626
21
105.674675
0
LINE
8
Layer 1
10
30.624626
20
105.674675
11
30.624600
21
93.770100
0
LINE
8
Layer 1
10
30.624600
20
93.770100
11
30.624600
21
93.770100
0
LINE
8
Layer 1
10
30.624600
20
93.770100
11
30.594448
21
93.468161
0
LINE
8
Layer 1
10
30.594448
20
93.468161
11
30.506080
21
93.177792
0
LINE
8
Layer 1
10
30.506080
20
93.177792
11
30.360864
21
92.912442
0
LINE
8
Layer 1
10
30.360864
20
92.912442
11
30.165946
21
92.680866
0
LINE
8
Layer 1
10
30.165946
20
92.680866
11
29.930629
21
92.489488
0
LINE
8
Layer 1
10
29.930629
20
92.489488
11
29.664210
21
92.344732
0
LINE
8
Layer 1
10
29.664210
20
92.344732
11
29.375992
21
92.253020
0
LINE
8
Layer 1
10
29.375992
20
92.253020
11
29.075275
21
92.220772
0
LINE
8
Layer 1
10
29.075275
20
92.220772
11
17.170900
21
92.220800
0
LINE
8
Layer 1
10
17.170900
20
92.220800
11
17.170900
21
92.220800
0
LINE
8
Layer 1
10
17.170900
20
92.220800
11
16.868958
21
92.250952
0
LINE
8
Layer 1
10
16.868958
20
92.250952
11
16.578589
21
92.339323
0
LINE
8
Layer 1
10
16.578589
20
92.339323
11
16.313241
21
92.484539
0
LINE
8
Layer 1
10
16.313241
20
92.484539
11
16.081665
21
92.679455
0
LINE
8
Layer 1
10
16.081665
20
92.679455
11
15.890287
21
92.914775
0
LINE
8
Layer 1
10
15.890287
20
92.914775
11
15.745531
21
93.181194
0
LINE
8
Layer 1
10
15.745531
20
93.181194
11
15.653816
21
93.469412
0
LINE
8
Layer 1
10
15.653816
20
93.469412
11
15.621571
21
93.770129
0
LINE
8
Layer 1
10
15.621571
20
93.770129
11
15.621600
21
105.675000
0
LINE
8
Layer 1
10
198.923000
20
104.131000
11
195.123000
21
104.131000
0
LINE
8
Layer 1
10
195.123000
20
104.131000
11
195.123000
21
150.381000
0
LINE
8
Layer 1
10
195.123000
20
150.381000
11
198.923000
21
150.381000
0
LINE
8
Layer 1
10
198.923000
20
150.381000
11
198.923000
21
104.131000
0
LINE
8
Layer 1
10
167.171000
20
117.221000
11
167.171000
21
117.221000
0
LINE
8
Layer 1
10
167.171000
20
117.221000
11
166.869061
21
117.251152
0
LINE
8
Layer 1
10
166.869061
20
117.251152
11
166.578692
21
117.339520
0
LINE
8
Layer 1
10
166.578692
20
117.339520
11
166.313342
21
117.484736
0
LINE
8
Layer 1
10
166.313342
20
117.484736
11
166.081766
21
117.679654
0
LINE
8
Layer 1
10
166.081766
20
117.679654
11
165.890388
21
117.914971
0
LINE
8
Layer 1
10
165.890388
20
117.914971
11
165.745632
21
118.181390
0
LINE
8
Layer 1
10
165.745632
20
118.181390
11
165.653920
21
118.469608
0
LINE
8
Layer 1
10
165.653920
20
118.469608
11
165.621675
21
118.770328
0
LINE
8
Layer 1
10
165.621675
20
118.770328
11
165.621000
21
130.674000
0
LINE
8
Layer 1
10
165.621000
20
130.674000
11
165.621000
21
130.674000
0
LINE
8
Layer 1
10
165.621000
20
130.674000
11
165.651152
21
130.975942
0
LINE
8
Layer 1
10
165.651152
20
130.975942
11
165.739520
21
131.266311
0
LINE
8
Layer 1
10
165.739520
20
131.266311
11
165.884736
21
131.531661
0
LINE
8
Layer 1
10
165.884736
20
131.531661
11
166.079654
21
131.763235
0
LINE
8
Layer 1
10
166.079654
20
131.763235
11
166.314971
21
131.954613
0
LINE
8
Layer 1
10
166.314971
20
131.954613
11
166.581390
21
132.099372
0
LINE
8
Layer 1
10
166.581390
20
132.099372
11
166.869608
21
132.191084
0
LINE
8
Layer 1
10
166.869608
20
132.191084
11
167.170325
21
132.223329
0
LINE
8
Layer 1
10
167.170325
20
132.223329
11
179.075000
21
132.224000
0
LINE
8
Layer 1
10
179.075000
20
132.224000
11
179.075000
21
132.224000
0
LINE
8
Layer 1
10
179.075000
20
132.224000
11
179.376939
21
132.193848
0
LINE
8
Layer 1
10
179.376939
20
132.193848
11
179.667311
21
132.105480
0
LINE
8
Layer 1
10
179.667311
20
132.105480
11
179.932659
21
131.960264
0
LINE
8
Layer 1
10
179.932659
20
131.960264
11
180.164235
21
131.765346
0
LINE
8
Layer 1
10
180.164235
20
131.765346
11
180.355613
21
131.530029
0
LINE
8
Layer 1
10
180.355613
20
131.530029
11
180.500369
21
131.263610
0
LINE
8
Layer 1
10
180.500369
20
131.263610
11
180.592081
21
130.975392
0
LINE
8
Layer 1
10
180.592081
20
130.975392
11
180.624329
21
130.674672
0
LINE
8
Layer 1
10
180.624329
20
130.674672
11
180.624000
21
118.770000
0
LINE
8
Layer 1
10
180.624000
20
118.770000
11
180.624000
21
118.770000
0
LINE
8
Layer 1
10
180.624000
20
118.770000
11
180.593848
21
118.468058
0
LINE
8
Layer 1
10
180.593848
20
118.468058
11
180.505477
21
118.177689
0
LINE
8
Layer 1
10
180.505477
20
118.177689
11
180.360261
21
117.912339
0
LINE
8
Layer 1
10
180.360261
20
117.912339
11
180.165345
21
117.680765
0
LINE
8
Layer 1
10
180.165345
20
117.680765
11
179.930025
21
117.489387
0
LINE
8
Layer 1
10
179.930025
20
117.489387
11
179.663606
21
117.344628
0
LINE
8
Layer 1
10
179.663606
20
117.344628
11
179.375388
21
117.252916
0
LINE
8
Layer 1
10
179.375388
20
117.252916
11
179.074671
21
117.220671
0
LINE
8
Layer 1
10
179.074671
20
117.220671
11
167.171000
21
117.221000
0
LINE
8
Layer 1
10
15.621600
20
55.674600
11
15.621600
21
55.674600
0
LINE
8
Layer 1
10
15.621600
20
55.674600
11
15.651752
21
55.976539
0
LINE
8
Layer 1
10
15.651752
20
55.976539
11
15.740123
21
56.266911
0
LINE
8
Layer 1
10
15.740123
20
56.266911
11
15.885339
21
56.532259
0
LINE
8
Layer 1
10
15.885339
20
56.532259
11
16.080255
21
56.763835
0
LINE
8
Layer 1
10
16.080255
20
56.763835
11
16.315575
21
56.955213
0
LINE
8
Layer 1
10
16.315575
20
56.955213
11
16.581992
21
57.099969
0
LINE
8
Layer 1
10
16.581992
20
57.099969
11
16.870213
21
57.191681
0
LINE
8
Layer 1
10
16.870213
20
57.191681
11
17.170930
21
57.223929
0
LINE
8
Layer 1
10
17.170930
20
57.223929
11
29.075300
21
57.223900
0
LINE
8
Layer 1
10
29.075300
20
57.223900
11
29.075300
21
57.223900
0
LINE
8
Layer 1
10
29.075300
20
57.223900
11
29.377239
21
57.193748
0
LINE
8
Layer 1
10
29.377239
20
57.193748
11
29.667608
21
57.105377
0
LINE
8
Layer 1
10
29.667608
20
57.105377
11
29.932958
21
56.960161
0
LINE
8
Layer 1
10
29.932958
20
56.960161
11
30.164532
21
56.765245
0
LINE
8
Layer 1
10
30.164532
20
56.765245
11
30.355910
21
56.529925
0
LINE
8
Layer 1
10
30.355910
20
56.529925
11
30.500669
21
56.263506
0
LINE
8
Layer 1
10
30.500669
20
56.263506
11
30.592381
21
55.975288
0
LINE
8
Layer 1
10
30.592381
20
55.975288
11
30.624626
21
55.674571
0
LINE
8
Layer 1
10
30.624626
20
55.674571
11
30.624600
21
43.770200
0
LINE
8
Layer 1
10
30.624600
20
43.770200
11
30.624600
21
43.770200
0
LINE
8
Layer 1
10
30.624600
20
43.770200
11
30.594448
21
43.468261
0
LINE
8
Layer 1
10
30.594448
20
43.468261
11
30.506080
21
43.177892
0
LINE
8
Layer 1
10
30.506080
20
43.177892
11
30.360864
21
42.912542
0
LINE
8
Layer 1
10
30.360864
20
42.912542
11
30.165946
21
42.680966
0
LINE
8
Layer 1
10
30.165946
20
42.680966
11
29.930629
21
42.489588
0
LINE
8
Layer 1
10
29.930629
20
42.489588
11
29.664210
21
42.344832
0
LINE
8
Layer 1
10
29.664210
20
42.344832
11
29.375992
21
42.253120
0
LINE
8
Layer 1
10
29.375992
20
42.253120
11
29.075275
21
42.220875
0
LINE
8
Layer 1
10
29.075275
20
42.220875
11
17.170900
21
42.220900
0
LINE
8
Layer 1
10
17.170900
20
42.220900
11
17.170900
21
42.220900
0
LINE
8
Layer 1
10
17.170900
20
42.220900
11
16.868958
21
42.251052
0
LINE
8
Layer 1
10
16.868958
20
42.251052
11
16.578589
21
42.339420
0
LINE
8
Layer 1
10
16.578589
20
42.339420
11
16.313241
21
42.484636
0
LINE
8
Layer 1
10
16.313241
20
42.484636
11
16.081665
21
42.679554
0
LINE
8
Layer 1
10
16.081665
20
42.679554
11
15.890287
21
42.914871
0
LINE
8
Layer 1
10
15.890287
20
42.914871
11
15.745531
21
43.181290
0
LINE
8
Layer 1
10
15.745531
20
43.181290
11
15.653816
21
43.469508
0
LINE
8
Layer 1
10
15.653816
20
43.469508
11
15.621571
21
43.770225
0
LINE
8
Layer 1
10
15.621571
20
43.770225
11
15.621600
21
55.674600
0
LINE
8
Layer 1
10
90.621500
20
130.674000
11
90.621500
21
130.674000
0
LINE
8
Layer 1
10
90.621500
20
130.674000
11
90.651652
21
130.975939
0
LINE
8
Layer 1
10
90.651652
20
130.975939
11
90.740020
21
131.266308
0
LINE
8
Layer 1
10
90.740020
20
131.266308
11
90.885236
21
131.531658
0
LINE
8
Layer 1
10
90.885236
20
131.531658
11
91.080154
21
131.763234
0
LINE
8
Layer 1
10
91.080154
20
131.763234
11
91.315471
21
131.954612
0
LINE
8
Layer 1
10
91.315471
20
131.954612
11
91.581890
21
132.099368
0
LINE
8
Layer 1
10
91.581890
20
132.099368
11
91.870108
21
132.191080
0
LINE
8
Layer 1
10
91.870108
20
132.191080
11
92.170825
21
132.223325
0
LINE
8
Layer 1
10
92.170825
20
132.223325
11
104.075000
21
132.224000
0
LINE
8
Layer 1
10
104.075000
20
132.224000
11
104.075000
21
132.224000
0
LINE
8
Layer 1
10
104.075000
20
132.224000
11
104.376942
21
132.193848
0
LINE
8
Layer 1
10
104.376942
20
132.193848
11
104.667311
21
132.105480
0
LINE
8
Layer 1
10
104.667311
20
132.105480
11
104.932659
21
131.960264
0
LINE
8
Layer 1
10
104.932659
20
131.960264
11
105.164235
21
131.765346
0
LINE
8
Layer 1
10
105.164235
20
131.765346
11
105.355613
21
131.530029
0
LINE
8
Layer 1
10
105.355613
20
131.530029
11
105.500372
21
131.263610
0
LINE
8
Layer 1
10
105.500372
20
131.263610
11
105.592084
21
130.975392
0
LINE
8
Layer 1
10
105.592084
20
130.975392
11
105.624329
21
130.674675
0
LINE
8
Layer 1
10
105.624329
20
130.674675
11
105.625000
21
118.770000
0
LINE
8
Layer 1
10
105.625000
20
118.770000
11
105.625000
21
118.770000
0
LINE
8
Layer 1
10
105.625000
20
118.770000
11
105.594848
21
118.468061
0
LINE
8
Layer 1
10
105.594848
20
118.468061
11
105.506477
21
118.177689
0
LINE
8
Layer 1
10
105.506477
20
118.177689
11
105.361263
21
117.912341
0
LINE
8
Layer 1
10
105.361263
20
117.912341
11
105.166345
21
117.680765
0
LINE
8
Layer 1
10
105.166345
20
117.680765
11
104.931025
21
117.489387
0
LINE
8
Layer 1
10
104.931025
20
117.489387
11
104.664608
21
117.344631
0
LINE
8
Layer 1
10
104.664608
20
117.344631
11
104.376390
21
117.252916
0
LINE
8
Layer 1
10
104.376390
20
117.252916
11
104.075670
21
117.220671
0
LINE
8
Layer 1
10
104.075670
20
117.220671
11
92.170800
21
117.221000
0
LINE
8
Layer 1
10
92.170800
20
117.221000
11
92.170800
21
117.221000
0
LINE
8
Layer 1
10
92.170800
20
117.221000
11
91.868861
21
117.251152
0
LINE
8
Layer 1
10
91.868861
20
117.251152
11
91.578492
21
117.339523
0
LINE
8
Layer 1
10
91.578492
20
117.339523
11
91.313142
21
117.484739
0
LINE
8
Layer 1
10
91.313142
20
117.484739
11
91.081568
21
117.679655
0
LINE
8
Layer 1
10
91.081568
20
117.679655
11
90.890190
21
117.914975
0
LINE
8
Layer 1
10
90.890190
20
117.914975
11
90.745431
21
118.181394
0
LINE
8
Layer 1
10
90.745431
20
118.181394
11
90.653719
21
118.469612
0
LINE
8
Layer 1
10
90.653719
20
118.469612
11
90.621474
21
118.770329
0
LINE
8
Layer 1
10
90.621474
20
118.770329
11
90.621500
21
130.674000
0
LINE
8
Layer 1
10
172.673000
20
7.722410
11
172.673000
21
3.922420
0
LINE
8
Layer 1
10
172.673000
20
3.922420
11
127.673000
21
3.922420
0
LINE
8
Layer 1
10
127.673000
20
3.922420
11
127.673000
21
7.722410
0
LINE
8
Layer 1
10
127.673000
20
7.722410
11
172.673000
21
7.722410
0
LINE
8
Layer 1
10
142.171000
20
92.220800
11
142.171000
21
92.220800
0
LINE
8
Layer 1
10
142.171000
20
92.220800
11
141.869061
21
92.250952
0
LINE
8
Layer 1
10
141.869061
20
92.250952
11
141.578692
21
92.339323
0
LINE
8
Layer 1
10
141.578692
20
92.339323
11
141.313342
21
92.484537
0
LINE
8
Layer 1
10
141.313342
20
92.484537
11
141.081766
21
92.679455
0
LINE
8
Layer 1
10
141.081766
20
92.679455
11
140.890388
21
92.914775
0
LINE
8
Layer 1
10
140.890388
20
92.914775
11
140.745632
21
93.181192
0
LINE
8
Layer 1
10
140.745632
20
93.181192
11
140.653920
21
93.469410
0
LINE
8
Layer 1
10
140.653920
20
93.469410
11
140.621675
21
93.770130
0
LINE
8
Layer 1
10
140.621675
20
93.770130
11
140.621000
21
105.674000
0
LINE
8
Layer 1
10
140.621000
20
105.674000
11
140.621000
21
105.674000
0
LINE
8
Layer 1
10
140.621000
20
105.674000
11
140.651152
21
105.975939
0
LINE
8
Layer 1
10
140.651152
20
105.975939
11
140.739520
21
106.266308
0
LINE
8
Layer 1
10
140.739520
20
106.266308
11
140.884736
21
106.531658
0
LINE
8
Layer 1
10
140.884736
20
106.531658
11
141.079654
21
106.763232
0
LINE
8
Layer 1
10
141.079654
20
106.763232
11
141.314971
21
106.954610
0
LINE
8
Layer 1
10
141.314971
20
106.954610
11
141.581390
21
107.099369
0
LINE
8
Layer 1
10
141.581390
20
107.099369
11
141.869608
21
107.191081
0
LINE
8
Layer 1
10
141.869608
20
107.191081
11
142.170325
21
107.223326
0
LINE
8
Layer 1
10
142.170325
20
107.223326
11
154.075000
21
107.224000
0
LINE
8
Layer 1
10
154.075000
20
107.224000
11
154.075000
21
107.224000
0
LINE
8
Layer 1
10
154.075000
20
107.224000
11
154.376939
21
107.193848
0
LINE
8
Layer 1
10
154.376939
20
107.193848
11
154.667311
21
107.105480
0
LINE
8
Layer 1
10
154.667311
20
107.105480
11
154.932659
21
106.960264
0
LINE
8
Layer 1
10
154.932659
20
106.960264
11
155.164235
21
106.765346
0
LINE
8
Layer 1
10
155.164235
20
106.765346
11
155.355613
21
106.530029
0
LINE
8
Layer 1
10
155.355613
20
106.530029
11
155.500369
21
106.263610
0
LINE
8
Layer 1
10
155.500369
20
106.263610
11
155.592084
21
105.975392
0
LINE
8
Layer 1
10
155.592084
20
105.975392
11
155.624329
21
105.674675
0
LINE
8
Layer 1
10
155.624329
20
105.674675
11
155.624000
21
93.770100
0
LINE
8
Layer 1
10
155.624000
20
93.770100
11
155.624000
21
93.770100
0
LINE
8
Layer 1
10
155.624000
20
93.770100
11
155.593848
21
93.468158
0
LINE
8
Layer 1
10
155.593848
20
93.468158
11
155.505477
21
93.177789
0
LINE
8
Layer 1
10
155.505477
20
93.177789
11
155.360261
21
92.912441
0
LINE
8
Layer 1
10
155.360261
20
92.912441
11
155.165345
21
92.680865
0
LINE
8
Layer 1
10
155.165345
20
92.680865
11
154.930025
21
92.489487
0
LINE
8
Layer 1
10
154.930025
20
92.489487
11
154.663606
21
92.344728
0
LINE
8
Layer 1
10
154.663606
20
92.344728
11
154.375388
21
92.253016
0
LINE
8
Layer 1
10
154.375388
20
92.253016
11
154.074671
21
92.220771
0
LINE
8
Layer 1
10
154.074671
20
92.220771
11
142.171000
21
92.220800
0
LINE
8
Layer 1
10
3.923120
20
150.381000
11
7.723120
21
150.381000
0
LINE
8
Layer 1
10
7.723120
20
150.381000
11
7.723120
21
104.131000
0
LINE
8
Layer 1
10
7.723120
20
104.131000
11
3.923120
21
104.131000
0
LINE
8
Layer 1
10
3.923120
20
104.131000
11
3.923120
21
150.381000
0
LINE
8
Layer 1
10
172.673000
20
185.122000
11
127.673000
21
185.122000
0
LINE
8
Layer 1
10
127.673000
20
185.122000
11
127.673000
21
188.922000
0
LINE
8
Layer 1
10
127.673000
20
188.922000
11
172.673000
21
188.922000
0
LINE
8
Layer 1
10
172.673000
20
188.922000
11
172.673000
21
185.122000
0
LINE
8
Layer 1
10
40.621500
20
105.675000
11
40.621500
21
105.675000
0
LINE
8
Layer 1
10
40.621500
20
105.675000
11
40.651652
21
105.976939
0
LINE
8
Layer 1
10
40.651652
20
105.976939
11
40.740023
21
106.267308
0
LINE
8
Layer 1
10
40.740023
20
106.267308
11
40.885237
21
106.532658
0
LINE
8
Layer 1
10
40.885237
20
106.532658
11
41.080155
21
106.764234
0
LINE
8
Layer 1
10
41.080155
20
106.764234
11
41.315475
21
106.955612
0
LINE
8
Layer 1
10
41.315475
20
106.955612
11
41.581892
21
107.100368
0
LINE
8
Layer 1
10
41.581892
20
107.100368
11
41.870110
21
107.192080
0
LINE
8
Layer 1
10
41.870110
20
107.192080
11
42.170830
21
107.224325
0
LINE
8
Layer 1
10
42.170830
20
107.224325
11
54.075300
21
107.224000
0
LINE
8
Layer 1
10
54.075300
20
107.224000
11
54.075300
21
107.224000
0
LINE
8
Layer 1
10
54.075300
20
107.224000
11
54.377239
21
107.193848
0
LINE
8
Layer 1
10
54.377239
20
107.193848
11
54.667608
21
107.105480
0
LINE
8
Layer 1
10
54.667608
20
107.105480
11
54.932958
21
106.960264
0
LINE
8
Layer 1
10
54.932958
20
106.960264
11
55.164532
21
106.765346
0
LINE
8
Layer 1
10
55.164532
20
106.765346
11
55.355910
21
106.530029
0
LINE
8
Layer 1
10
55.355910
20
106.530029
11
55.500669
21
106.263610
0
LINE
8
Layer 1
10
55.500669
20
106.263610
11
55.592381
21
105.975392
0
LINE
8
Layer 1
10
55.592381
20
105.975392
11
55.624626
21
105.674675
0
LINE
8
Layer 1
10
55.624626
20
105.674675
11
55.624600
21
93.770100
0
LINE
8
Layer 1
10
55.624600
20
93.770100
11
55.624600
21
93.770100
0
LINE
8
Layer 1
10
55.624600
20
93.770100
11
55.594448
21
93.468161
0
LINE
8
Layer 1
10
55.594448
20
93.468161
11
55.506080
21
93.177792
0
LINE
8
Layer 1
10
55.506080
20
93.177792
11
55.360864
21
92.912442
0
LINE
8
Layer 1
10
55.360864
20
92.912442
11
55.165946
21
92.680866
0
LINE
8
Layer 1
10
55.165946
20
92.680866
11
54.930629
21
92.489488
0
LINE
8
Layer 1
10
54.930629
20
92.489488
11
54.664210
21
92.344732
0
LINE
8
Layer 1
10
54.664210
20
92.344732
11
54.375992
21
92.253020
0
LINE
8
Layer 1
10
54.375992
20
92.253020
11
54.075275
21
92.220772
0
LINE
8
Layer 1
10
54.075275
20
92.220772
11
42.170900
21
92.220800
0
LINE
8
Layer 1
10
42.170900
20
92.220800
11
42.170900
21
92.220800
0
LINE
8
Layer 1
10
42.170900
20
92.220800
11
41.868958
21
92.250952
0
LINE
8
Layer 1
10
41.868958
20
92.250952
11
41.578589
21
92.339323
0
LINE
8
Layer 1
10
41.578589
20
92.339323
11
41.313241
21
92.484539
0
LINE
8
Layer 1
10
41.313241
20
92.484539
11
41.081665
21
92.679455
0
LINE
8
Layer 1
10
41.081665
20
92.679455
11
40.890287
21
92.914775
0
LINE
8
Layer 1
10
40.890287
20
92.914775
11
40.745528
21
93.181194
0
LINE
8
Layer 1
10
40.745528
20
93.181194
11
40.653816
21
93.469412
0
LINE
8
Layer 1
10
40.653816
20
93.469412
11
40.621571
21
93.770129
0
LINE
8
Layer 1
10
40.621571
20
93.770129
11
40.621500
21
105.675000
0
LINE
8
Layer 1
10
7.723120
20
42.464000
11
3.923120
21
42.464000
0
LINE
8
Layer 1
10
3.923120
20
42.464000
11
3.923120
21
88.714000
0
LINE
8
Layer 1
10
3.923120
20
88.714000
11
7.723120
21
88.714000
0
LINE
8
Layer 1
10
7.723120
20
88.714000
11
7.723120
21
42.464000
0
LINE
8
Layer 1
10
65.621500
20
80.674600
11
65.621500
21
80.674600
0
LINE
8
Layer 1
10
65.621500
20
80.674600
11
65.651652
21
80.976539
0
LINE
8
Layer 1
10
65.651652
20
80.976539
11
65.740020
21
81.266908
0
LINE
8
Layer 1
10
65.740020
20
81.266908
11
65.885236
21
81.532258
0
LINE
8
Layer 1
10
65.885236
20
81.532258
11
66.080154
21
81.763834
0
LINE
8
Layer 1
10
66.080154
20
81.763834
11
66.315471
21
81.955212
0
LINE
8
Layer 1
10
66.315471
20
81.955212
11
66.581890
21
82.099968
0
LINE
8
Layer 1
10
66.581890
20
82.099968
11
66.870108
21
82.191680
0
LINE
8
Layer 1
10
66.870108
20
82.191680
11
67.170828
21
82.223928
0
LINE
8
Layer 1
10
67.170828
20
82.223928
11
79.075200
21
82.223900
0
LINE
8
Layer 1
10
79.075200
20
82.223900
11
79.075200
21
82.223900
0
LINE
8
Layer 1
10
79.075200
20
82.223900
11
79.377142
21
82.193748
0
LINE
8
Layer 1
10
79.377142
20
82.193748
11
79.667511
21
82.105377
0
LINE
8
Layer 1
10
79.667511
20
82.105377
11
79.932861
21
81.960161
0
LINE
8
Layer 1
10
79.932861
20
81.960161
11
80.164435
21
81.765243
0
LINE
8
Layer 1
10
80.164435
20
81.765243
11
80.355813
21
81.529926
0
LINE
8
Layer 1
10
80.355813
20
81.529926
11
80.500572
21
81.263507
0
LINE
8
Layer 1
10
80.500572
20
81.263507
11
80.592284
21
80.975289
0
LINE
8
Layer 1
10
80.592284
20
80.975289
11
80.624529
21
80.674572
0
LINE
8
Layer 1
10
80.624529
20
80.674572
11
80.624600
21
68.770200
0
LINE
8
Layer 1
10
80.624600
20
68.770200
11
80.624600
21
68.770200
0
LINE
8
Layer 1
10
80.624600
20
68.770200
11
80.594448
21
68.468261
0
LINE
8
Layer 1
10
80.594448
20
68.468261
11
80.506080
21
68.177892
0
LINE
8
Layer 1
10
80.506080
20
68.177892
11
80.360864
21
67.912542
0
LINE
8
Layer 1
10
80.360864
20
67.912542
11
80.165946
21
67.680966
0
LINE
8
Layer 1
10
80.165946
20
67.680966
11
79.930629
21
67.489588
0
LINE
8
Layer 1
10
79.930629
20
67.489588
11
79.664210
21
67.344832
0
LINE
8
Layer 1
10
79.664210
20
67.344832
11
79.375992
21
67.253120
0
LINE
8
Layer 1
10
79.375992
20
67.253120
11
79.075272
21
67.220872
0
LINE
8
Layer 1
10
79.075272
20
67.220872
11
67.170800
21
67.220800
0
LINE
8
Layer 1
10
67.170800
20
67.220800
11
67.170800
21
67.220800
0
LINE
8
Layer 1
10
67.170800
20
67.220800
11
66.868858
21
67.250952
0
LINE
8
Layer 1
10
66.868858
20
67.250952
11
66.578489
21
67.339323
0
LINE
8
Layer 1
10
66.578489
20
67.339323
11
66.313139
21
67.484539
0
LINE
8
Layer 1
10
66.313139
20
67.484539
11
66.081565
21
67.679457
0
LINE
8
Layer 1
10
66.081565
20
67.679457
11
65.890187
21
67.914774
0
LINE
8
Layer 1
10
65.890187
20
67.914774
11
65.745428
21
68.181193
0
LINE
8
Layer 1
10
65.745428
20
68.181193
11
65.653716
21
68.469411
0
LINE
8
Layer 1
10
65.653716
20
68.469411
11
65.621471
21
68.770128
0
LINE
8
Layer 1
10
65.621471
20
68.770128
11
65.621500
21
80.674600
0
LINE
8
Layer 1
10
40.621500
20
80.674600
11
40.621500
21
80.674600
0
LINE
8
Layer 1
10
40.621500
20
80.674600
11
40.651652
21
80.976539
0
LINE
8
Layer 1
10
40.651652
20
80.976539
11
40.740023
21
81.266908
0
LINE
8
Layer 1
10
40.740023
20
81.266908
11
40.885237
21
81.532258
0
LINE
8
Layer 1
10
40.885237
20
81.532258
11
41.080155
21
81.763834
0
LINE
8
Layer 1
10
41.080155
20
81.763834
11
41.315475
21
81.955212
0
LINE
8
Layer 1
10
41.315475
20
81.955212
11
41.581892
21
82.099968
0
LINE
8
Layer 1
10
41.581892
20
82.099968
11
41.870110
21
82.191680
0
LINE
8
Layer 1
10
41.870110
20
82.191680
11
42.170830
21
82.223928
0
LINE
8
Layer 1
10
42.170830
20
82.223928
11
54.075300
21
82.223900
0
LINE
8
Layer 1
10
54.075300
20
82.223900
11
54.075300
21
82.223900
0
LINE
8
Layer 1
10
54.075300
20
82.223900
11
54.377239
21
82.193748
0
LINE
8
Layer 1
10
54.377239
20
82.193748
11
54.667608
21
82.105377
0
LINE
8
Layer 1
10
54.667608
20
82.105377
11
54.932958
21
81.960161
0
LINE
8
Layer 1
10
54.932958
20
81.960161
11
55.164532
21
81.765243
0
LINE
8
Layer 1
10
55.164532
20
81.765243
11
55.355910
21
81.529926
0
LINE
8
Layer 1
10
55.355910
20
81.529926
11
55.500669
21
81.263507
0
LINE
8
Layer 1
10
55.500669
20
81.263507
11
55.592381
21
80.975289
0
LINE
8
Layer 1
10
55.592381
20
80.975289
11
55.624626
21
80.674572
0
LINE
8
Layer 1
10
55.624626
20
80.674572
11
55.624600
21
68.770200
0
LINE
8
Layer 1
10
55.624600
20
68.770200
11
55.624600
21
68.770200
0
LINE
8
Layer 1
10
55.624600
20
68.770200
11
55.594448
21
68.468261
0
LINE
8
Layer 1
10
55.594448
20
68.468261
11
55.506080
21
68.177892
0
LINE
8
Layer 1
10
55.506080
20
68.177892
11
55.360864
21
67.912542
0
LINE
8
Layer 1
10
55.360864
20
67.912542
11
55.165946
21
67.680966
0
LINE
8
Layer 1
10
55.165946
20
67.680966
11
54.930629
21
67.489588
0
LINE
8
Layer 1
10
54.930629
20
67.489588
11
54.664210
21
67.344832
0
LINE
8
Layer 1
10
54.664210
20
67.344832
11
54.375992
21
67.253120
0
LINE
8
Layer 1
10
54.375992
20
67.253120
11
54.075275
21
67.220872
0
LINE
8
Layer 1
10
54.075275
20
67.220872
11
42.170900
21
67.220800
0
LINE
8
Layer 1
10
42.170900
20
67.220800
11
42.170900
21
67.220800
0
LINE
8
Layer 1
10
42.170900
20
67.220800
11
41.868958
21
67.250952
0
LINE
8
Layer 1
10
41.868958
20
67.250952
11
41.578589
21
67.339323
0
LINE
8
Layer 1
10
41.578589
20
67.339323
11
41.313241
21
67.484539
0
LINE
8
Layer 1
10
41.313241
20
67.484539
11
41.081665
21
67.679457
0
LINE
8
Layer 1
10
41.081665
20
67.679457
11
40.890287
21
67.914774
0
LINE
8
Layer 1
10
40.890287
20
67.914774
11
40.745528
21
68.181193
0
LINE
8
Layer 1
10
40.745528
20
68.181193
11
40.653816
21
68.469411
0
LINE
8
Layer 1
10
40.653816
20
68.469411
11
40.621571
21
68.770128
0
LINE
8
Layer 1
10
40.621571
20
68.770128
11
40.621500
21
80.674600
0
LINE
8
Layer 1
10
75.173000
20
7.722410
11
75.173000
21
3.922420
0
LINE
8
Layer 1
10
75.173000
20
3.922420
11
30.173100
21
3.922420
0
LINE
8
Layer 1
10
30.173100
20
3.922420
11
30.173100
21
7.722410
0
LINE
8
Layer 1
10
30.173100
20
7.722410
11
75.173000
21
7.722410
0
LINE
8
Layer 1
10
15.621600
20
130.674000
11
15.621600
21
130.674000
0
LINE
8
Layer 1
10
15.621600
20
130.674000
11
15.651752
21
130.975939
0
LINE
8
Layer 1
10
15.651752
20
130.975939
11
15.740123
21
131.266308
0
LINE
8
Layer 1
10
15.740123
20
131.266308
11
15.885339
21
131.531658
0
LINE
8
Layer 1
10
15.885339
20
131.531658
11
16.080255
21
131.763234
0
LINE
8
Layer 1
10
16.080255
20
131.763234
11
16.315575
21
131.954612
0
LINE
8
Layer 1
10
16.315575
20
131.954612
11
16.581992
21
132.099368
0
LINE
8
Layer 1
10
16.581992
20
132.099368
11
16.870213
21
132.191080
0
LINE
8
Layer 1
10
16.870213
20
132.191080
11
17.170930
21
132.223325
0
LINE
8
Layer 1
10
17.170930
20
132.223325
11
29.075300
21
132.224000
0
LINE
8
Layer 1
10
29.075300
20
132.224000
11
29.075300
21
132.224000
0
LINE
8
Layer 1
10
29.075300
20
132.224000
11
29.377239
21
132.193848
0
LINE
8
Layer 1
10
29.377239
20
132.193848
11
29.667608
21
132.105480
0
LINE
8
Layer 1
10
29.667608
20
132.105480
11
29.932958
21
131.960264
0
LINE
8
Layer 1
10
29.932958
20
131.960264
11
30.164532
21
131.765346
0
LINE
8
Layer 1
10
30.164532
20
131.765346
11
30.355910
21
131.530029
0
LINE
8
Layer 1
10
30.355910
20
131.530029
11
30.500669
21
131.263610
0
LINE
8
Layer 1
10
30.500669
20
131.263610
11
30.592381
21
130.975392
0
LINE
8
Layer 1
10
30.592381
20
130.975392
11
30.624626
21
130.674675
0
LINE
8
Layer 1
10
30.624626
20
130.674675
11
30.624600
21
118.770000
0
LINE
8
Layer 1
10
30.624600
20
118.770000
11
30.624600
21
118.770000
0
LINE
8
Layer 1
10
30.624600
20
118.770000
11
30.594448
21
118.468061
0
LINE
8
Layer 1
10
30.594448
20
118.468061
11
30.506080
21
118.177689
0
LINE
8
Layer 1
10
30.506080
20
118.177689
11
30.360864
21
117.912341
0
LINE
8
Layer 1
10
30.360864
20
117.912341
11
30.165946
21
117.680765
0
LINE
8
Layer 1
10
30.165946
20
117.680765
11
29.930629
21
117.489387
0
LINE
8
Layer 1
10
29.930629
20
117.489387
11
29.664210
21
117.344631
0
LINE
8
Layer 1
10
29.664210
20
117.344631
11
29.375992
21
117.252916
0
LINE
8
Layer 1
10
29.375992
20
117.252916
11
29.075275
21
117.220671
0
LINE
8
Layer 1
10
29.075275
20
117.220671
11
17.170900
21
117.221000
0
LINE
8
Layer 1
10
17.170900
20
117.221000
11
17.170900
21
117.221000
0
LINE
8
Layer 1
10
17.170900
20
117.221000
11
16.868958
21
117.251152
0
LINE
8
Layer 1
10
16.868958
20
117.251152
11
16.578589
21
117.339523
0
LINE
8
Layer 1
10
16.578589
20
117.339523
11
16.313241
21
117.484739
0
LINE
8
Layer 1
10
16.313241
20
117.484739
11
16.081665
21
117.679655
0
LINE
8
Layer 1
10
16.081665
20
117.679655
11
15.890287
21
117.914975
0
LINE
8
Layer 1
10
15.890287
20
117.914975
11
15.745531
21
118.181394
0
LINE
8
Layer 1
10
15.745531
20
118.181394
11
15.653816
21
118.469612
0
LINE
8
Layer 1
10
15.653816
20
118.469612
11
15.621571
21
118.770329
0
LINE
8
Layer 1
10
15.621571
20
118.770329
11
15.621600
21
130.674000
0
LINE
8
Layer 1
10
167.171000
20
42.220800
11
167.171000
21
42.220800
0
LINE
8
Layer 1
10
167.171000
20
42.220800
11
166.869061
21
42.250952
0
LINE
8
Layer 1
10
166.869061
20
42.250952
11
166.578692
21
42.339323
0
LINE
8
Layer 1
10
166.578692
20
42.339323
11
166.313342
21
42.484539
0
LINE
8
Layer 1
10
166.313342
20
42.484539
11
166.081766
21
42.679455
0
LINE
8
Layer 1
10
166.081766
20
42.679455
11
165.890388
21
42.914775
0
LINE
8
Layer 1
10
165.890388
20
42.914775
11
165.745632
21
43.181194
0
LINE
8
Layer 1
10
165.745632
20
43.181194
11
165.653920
21
43.469412
0
LINE
8
Layer 1
10
165.653920
20
43.469412
11
165.621675
21
43.770129
0
LINE
8
Layer 1
10
165.621675
20
43.770129
11
165.621000
21
55.674600
0
LINE
8
Layer 1
10
165.621000
20
55.674600
11
165.621000
21
55.674600
0
LINE
8
Layer 1
10
165.621000
20
55.674600
11
165.651152
21
55.976539
0
LINE
8
Layer 1
10
165.651152
20
55.976539
11
165.739520
21
56.266908
0
LINE
8
Layer 1
10
165.739520
20
56.266908
11
165.884736
21
56.532258
0
LINE
8
Layer 1
10
165.884736
20
56.532258
11
166.079654
21
56.763834
0
LINE
8
Layer 1
10
166.079654
20
56.763834
11
166.314971
21
56.955212
0
LINE
8
Layer 1
10
166.314971
20
56.955212
11
166.581390
21
57.099968
0
LINE
8
Layer 1
10
166.581390
20
57.099968
11
166.869608
21
57.191680
0
LINE
8
Layer 1
10
166.869608
20
57.191680
11
167.170325
21
57.223925
0
LINE
8
Layer 1
10
167.170325
20
57.223925
11
179.075000
21
57.223900
0
LINE
8
Layer 1
10
179.075000
20
57.223900
11
179.075000
21
57.223900
0
LINE
8
Layer 1
10
179.075000
20
57.223900
11
179.376939
21
57.193748
0
LINE
8
Layer 1
10
179.376939
20
57.193748
11
179.667311
21
57.105380
0
LINE
8
Layer 1
10
179.667311
20
57.105380
11
179.932659
21
56.960164
0
LINE
8
Layer 1
10
179.932659
20
56.960164
11
180.164235
21
56.765246
0
LINE
8
Layer 1
10
180.164235
20
56.765246
11
180.355613
21
56.529929
0
LINE
8
Layer 1
10
180.355613
20
56.529929
11
180.500369
21
56.263510
0
LINE
8
Layer 1
10
180.500369
20
56.263510
11
180.592081
21
55.975292
0
LINE
8
Layer 1
10
180.592081
20
55.975292
11
180.624329
21
55.674575
0
LINE
8
Layer 1
10
180.624329
20
55.674575
11
180.624000
21
43.770200
0
LINE
8
Layer 1
10
180.624000
20
43.770200
11
180.624000
21
43.770200
0
LINE
8
Layer 1
10
180.624000
20
43.770200
11
180.593848
21
43.468261
0
LINE
8
Layer 1
10
180.593848
20
43.468261
11
180.505477
21
43.177889
0
LINE
8
Layer 1
10
180.505477
20
43.177889
11
180.360261
21
42.912541
0
LINE
8
Layer 1
10
180.360261
20
42.912541
11
180.165345
21
42.680965
0
LINE
8
Layer 1
10
180.165345
20
42.680965
11
179.930025
21
42.489587
0
LINE
8
Layer 1
10
179.930025
20
42.489587
11
179.663606
21
42.344831
0
LINE
8
Layer 1
10
179.663606
20
42.344831
11
179.375388
21
42.253116
0
LINE
8
Layer 1
10
179.375388
20
42.253116
11
179.074671
21
42.220871
0
LINE
8
Layer 1
10
179.074671
20
42.220871
11
167.171000
21
42.220800
0
LINE
8
Layer 1
10
90.621500
20
55.674600
11
90.621500
21
55.674600
0
LINE
8
Layer 1
10
90.621500
20
55.674600
11
90.651652
21
55.976539
0
LINE
8
Layer 1
10
90.651652
20
55.976539
11
90.740020
21
56.266911
0
LINE
8
Layer 1
10
90.740020
20
56.266911
11
90.885236
21
56.532259
0
LINE
8
Layer 1
10
90.885236
20
56.532259
11
91.080154
21
56.763835
0
LINE
8
Layer 1
10
91.080154
20
56.763835
11
91.315471
21
56.955213
0
LINE
8
Layer 1
10
91.315471
20
56.955213
11
91.581890
21
57.099969
0
LINE
8
Layer 1
10
91.581890
20
57.099969
11
91.870108
21
57.191681
0
LINE
8
Layer 1
10
91.870108
20
57.191681
11
92.170825
21
57.223929
0
LINE
8
Layer 1
10
92.170825
20
57.223929
11
104.075000
21
57.223900
0
LINE
8
Layer 1
10
104.075000
20
57.223900
11
104.075000
21
57.223900
0
LINE
8
Layer 1
10
104.075000
20
57.223900
11
104.376942
21
57.193748
0
LINE
8
Layer 1
10
104.376942
20
57.193748
11
104.667311
21
57.105377
0
LINE
8
Layer 1
10
104.667311
20
57.105377
11
104.932659
21
56.960161
0
LINE
8
Layer 1
10
104.932659
20
56.960161
11
105.164235
21
56.765245
0
LINE
8
Layer 1
10
105.164235
20
56.765245
11
105.355613
21
56.529925
0
LINE
8
Layer 1
10
105.355613
20
56.529925
11
105.500372
21
56.263506
0
LINE
8
Layer 1
10
105.500372
20
56.263506
11
105.592084
21
55.975288
0
LINE
8
Layer 1
10
105.592084
20
55.975288
11
105.624329
21
55.674571
0
LINE
8
Layer 1
10
105.624329
20
55.674571
11
105.625000
21
43.770200
0
LINE
8
Layer 1
10
105.625000
20
43.770200
11
105.625000
21
43.770200
0
LINE
8
Layer 1
10
105.625000
20
43.770200
11
105.594848
21
43.468261
0
LINE
8
Layer 1
10
105.594848
20
43.468261
11
105.506477
21
43.177892
0
LINE
8
Layer 1
10
105.506477
20
43.177892
11
105.361263
21
42.912542
0
LINE
8
Layer 1
10
105.361263
20
42.912542
11
105.166345
21
42.680966
0
LINE
8
Layer 1
10
105.166345
20
42.680966
11
104.931025
21
42.489588
0
LINE
8
Layer 1
10
104.931025
20
42.489588
11
104.664608
21
42.344832
0
LINE
8
Layer 1
10
104.664608
20
42.344832
11
104.376390
21
42.253120
0
LINE
8
Layer 1
10
104.376390
20
42.253120
11
104.075670
21
42.220875
0
LINE
8
Layer 1
10
104.075670
20
42.220875
11
92.170800
21
42.220900
0
LINE
8
Layer 1
10
92.170800
20
42.220900
11
92.170800
21
42.220900
0
LINE
8
Layer 1
10
92.170800
20
42.220900
11
91.868861
21
42.251052
0
LINE
8
Layer 1
10
91.868861
20
42.251052
11
91.578492
21
42.339420
0
LINE
8
Layer 1
10
91.578492
20
42.339420
11
91.313142
21
42.484636
0
LINE
8
Layer 1
10
91.313142
20
42.484636
11
91.081568
21
42.679554
0
LINE
8
Layer 1
10
91.081568
20
42.679554
11
90.890190
21
42.914871
0
LINE
8
Layer 1
10
90.890190
20
42.914871
11
90.745431
21
43.181290
0
LINE
8
Layer 1
10
90.745431
20
43.181290
11
90.653719
21
43.469508
0
LINE
8
Layer 1
10
90.653719
20
43.469508
11
90.621474
21
43.770225
0
LINE
8
Layer 1
10
90.621474
20
43.770225
11
90.621500
21
55.674600
0
LINE
8
Layer 1
10
40.621500
20
55.674600
11
40.621500
21
55.674600
0
LINE
8
Layer 1
10
40.621500
20
55.674600
11
40.651652
21
55.976539
0
LINE
8
Layer 1
10
40.651652
20
55.976539
11
40.740023
21
56.266911
0
LINE
8
Layer 1
10
40.740023
20
56.266911
11
40.885237
21
56.532259
0
LINE
8
Layer 1
10
40.885237
20
56.532259
11
41.080155
21
56.763835
0
LINE
8
Layer 1
10
41.080155
20
56.763835
11
41.315475
21
56.955213
0
LINE
8
Layer 1
10
41.315475
20
56.955213
11
41.581892
21
57.099969
0
LINE
8
Layer 1
10
41.581892
20
57.099969
11
41.870110
21
57.191681
0
LINE
8
Layer 1
10
41.870110
20
57.191681
11
42.170830
21
57.223929
0
LINE
8
Layer 1
10
42.170830
20
57.223929
11
54.075300
21
57.223900
0
LINE
8
Layer 1
10
54.075300
20
57.223900
11
54.075300
21
57.223900
0
LINE
8
Layer 1
10
54.075300
20
57.223900
11
54.377239
21
57.193748
0
LINE
8
Layer 1
10
54.377239
20
57.193748
11
54.667608
21
57.105377
0
LINE
8
Layer 1
10
54.667608
20
57.105377
11
54.932958
21
56.960161
0
LINE
8
Layer 1
10
54.932958
20
56.960161
11
55.164532
21
56.765245
0
LINE
8
Layer 1
10
55.164532
20
56.765245
11
55.355910
21
56.529925
0
LINE
8
Layer 1
10
55.355910
20
56.529925
11
55.500669
21
56.263506
0
LINE
8
Layer 1
10
55.500669
20
56.263506
11
55.592381
21
55.975288
0
LINE
8
Layer 1
10
55.592381
20
55.975288
11
55.624626
21
55.674571
0
LINE
8
Layer 1
10
55.624626
20
55.674571
11
55.624600
21
43.770200
0
LINE
8
Layer 1
10
55.624600
20
43.770200
11
55.624600
21
43.770200
0
LINE
8
Layer 1
10
55.624600
20
43.770200
11
55.594448
21
43.468261
0
LINE
8
Layer 1
10
55.594448
20
43.468261
11
55.506080
21
43.177892
0
LINE
8
Layer 1
10
55.506080
20
43.177892
11
55.360864
21
42.912542
0
LINE
8
Layer 1
10
55.360864
20
42.912542
11
55.165946
21
42.680966
0
LINE
8
Layer 1
10
55.165946
20
42.680966
11
54.930629
21
42.489588
0
LINE
8
Layer 1
10
54.930629
20
42.489588
11
54.664210
21
42.344832
0
LINE
8
Layer 1
10
54.664210
20
42.344832
11
54.375992
21
42.253120
0
LINE
8
Layer 1
10
54.375992
20
42.253120
11
54.075275
21
42.220875
0
LINE
8
Layer 1
10
54.075275
20
42.220875
11
42.170900
21
42.220900
0
LINE
8
Layer 1
10
42.170900
20
42.220900
11
42.170900
21
42.220900
0
LINE
8
Layer 1
10
42.170900
20
42.220900
11
41.868958
21
42.251052
0
LINE
8
Layer 1
10
41.868958
20
42.251052
11
41.578589
21
42.339420
0
LINE
8
Layer 1
10
41.578589
20
42.339420
11
41.313241
21
42.484636
0
LINE
8
Layer 1
10
41.313241
20
42.484636
11
41.081665
21
42.679554
0
LINE
8
Layer 1
10
41.081665
20
42.679554
11
40.890287
21
42.914871
0
LINE
8
Layer 1
10
40.890287
20
42.914871
11
40.745528
21
43.181290
0
LINE
8
Layer 1
10
40.745528
20
43.181290
11
40.653816
21
43.469508
0
LINE
8
Layer 1
10
40.653816
20
43.469508
11
40.621571
21
43.770225
0
LINE
8
Layer 1
10
40.621571
20
43.770225
11
40.621500
21
55.674600
0
LINE
8
Layer 1
10
15.621600
20
80.674600
11
15.621600
21
80.674600
0
LINE
8
Layer 1
10
15.621600
20
80.674600
11
15.651752
21
80.976539
0
LINE
8
Layer 1
10
15.651752
20
80.976539
11
15.740123
21
81.266908
0
LINE
8
Layer 1
10
15.740123
20
81.266908
11
15.885339
21
81.532258
0
LINE
8
Layer 1
10
15.885339
20
81.532258
11
16.080255
21
81.763834
0
LINE
8
Layer 1
10
16.080255
20
81.763834
11
16.315575
21
81.955212
0
LINE
8
Layer 1
10
16.315575
20
81.955212
11
16.581992
21
82.099968
0
LINE
8
Layer 1
10
16.581992
20
82.099968
11
16.870213
21
82.191680
0
LINE
8
Layer 1
10
16.870213
20
82.191680
11
17.170930
21
82.223928
0
LINE
8
Layer 1
10
17.170930
20
82.223928
11
29.075300
21
82.223900
0
LINE
8
Layer 1
10
29.075300
20
82.223900
11
29.075300
21
82.223900
0
LINE
8
Layer 1
10
29.075300
20
82.223900
11
29.377239
21
82.193748
0
LINE
8
Layer 1
10
29.377239
20
82.193748
11
29.667608
21
82.105377
0
LINE
8
Layer 1
10
29.667608
20
82.105377
11
29.932958
21
81.960161
0
LINE
8
Layer 1
10
29.932958
20
81.960161
11
30.164532
21
81.765243
0
LINE
8
Layer 1
10
30.164532
20
81.765243
11
30.355910
21
81.529926
0
LINE
8
Layer 1
10
30.355910
20
81.529926
11
30.500669
21
81.263507
0
LINE
8
Layer 1
10
30.500669
20
81.263507
11
30.592381
21
80.975289
0
LINE
8
Layer 1
10
30.592381
20
80.975289
11
30.624626
21
80.674572
0
LINE
8
Layer 1
10
30.624626
20
80.674572
11
30.624600
21
68.770200
0
LINE
8
Layer 1
10
30.624600
20
68.770200
11
30.624600
21
68.770200
0
LINE
8
Layer 1
10
30.624600
20
68.770200
11
30.594448
21
68.468261
0
LINE
8
Layer 1
10
30.594448
20
68.468261
11
30.506080
21
68.177892
0
LINE
8
Layer 1
10
30.506080
20
68.177892
11
30.360864
21
67.912542
0
LINE
8
Layer 1
10
30.360864
20
67.912542
11
30.165946
21
67.680966
0
LINE
8
Layer 1
10
30.165946
20
67.680966
11
29.930629
21
67.489588
0
LINE
8
Layer 1
10
29.930629
20
67.489588
11
29.664210
21
67.344832
0
LINE
8
Layer 1
10
29.664210
20
67.344832
11
29.375992
21
67.253120
0
LINE
8
Layer 1
10
29.375992
20
67.253120
11
29.075275
21
67.220872
0
LINE
8
Layer 1
10
29.075275
20
67.220872
11
17.170900
21
67.220800
0
LINE
8
Layer 1
10
17.170900
20
67.220800
11
17.170900
21
67.220800
0
LINE
8
Layer 1
10
17.170900
20
67.220800
11
16.868958
21
67.250952
0
LINE
8
Layer 1
10
16.868958
20
67.250952
11
16.578589
21
67.339323
0
LINE
8
Layer 1
10
16.578589
20
67.339323
11
16.313241
21
67.484539
0
LINE
8
Layer 1
10
16.313241
20
67.484539
11
16.081665
21
67.679457
0
LINE
8
Layer 1
10
16.081665
20
67.679457
11
15.890287
21
67.914774
0
LINE
8
Layer 1
10
15.890287
20
67.914774
11
15.745531
21
68.181193
0
LINE
8
Layer 1
10
15.745531
20
68.181193
11
15.653816
21
68.469411
0
LINE
8
Layer 1
10
15.653816
20
68.469411
11
15.621571
21
68.770128
0
LINE
8
Layer 1
10
15.621571
20
68.770128
11
15.621600
21
80.674600
0
LINE
8
Layer 1
10
40.621500
20
130.674000
11
40.621500
21
130.674000
0
LINE
8
Layer 1
10
40.621500
20
130.674000
11
40.651652
21
130.975939
0
LINE
8
Layer 1
10
40.651652
20
130.975939
11
40.740023
21
131.266308
0
LINE
8
Layer 1
10
40.740023
20
131.266308
11
40.885237
21
131.531658
0
LINE
8
Layer 1
10
40.885237
20
131.531658
11
41.080155
21
131.763234
0
LINE
8
Layer 1
10
41.080155
20
131.763234
11
41.315475
21
131.954612
0
LINE
8
Layer 1
10
41.315475
20
131.954612
11
41.581892
21
132.099368
0
LINE
8
Layer 1
10
41.581892
20
132.099368
11
41.870110
21
132.191080
0
LINE
8
Layer 1
10
41.870110
20
132.191080
11
42.170830
21
132.223325
0
LINE
8
Layer 1
10
42.170830
20
132.223325
11
54.075300
21
132.224000
0
LINE
8
Layer 1
10
54.075300
20
132.224000
11
54.075300
21
132.224000
0
LINE
8
Layer 1
10
54.075300
20
132.224000
11
54.377239
21
132.193848
0
LINE
8
Layer 1
10
54.377239
20
132.193848
11
54.667608
21
132.105480
0
LINE
8
Layer 1
10
54.667608
20
132.105480
11
54.932958
21
131.960264
0
LINE
8
Layer 1
10
54.932958
20
131.960264
11
55.164532
21
131.765346
0
LINE
8
Layer 1
10
55.164532
20
131.765346
11
55.355910
21
131.530029
0
LINE
8
Layer 1
10
55.355910
20
131.530029
11
55.500669
21
131.263610
0
LINE
8
Layer 1
10
55.500669
20
131.263610
11
55.592381
21
130.975392
0
LINE
8
Layer 1
10
55.592381
20
130.975392
11
55.624626
21
130.674675
0
LINE
8
Layer 1
10
55.624626
20
130.674675
11
55.624600
21
118.770000
0
LINE
8
Layer 1
10
55.624600
20
118.770000
11
55.624600
21
118.770000
0
LINE
8
Layer 1
10
55.624600
20
118.770000
11
55.594448
21
118.468061
0
LINE
8
Layer 1
10
55.594448
20
118.468061
11
55.506080
21
118.177689
0
LINE
8
Layer 1
10
55.506080
20
118.177689
11
55.360864
21
117.912341
0
LINE
8
Layer 1
10
55.360864
20
117.912341
11
55.165946
21
117.680765
0
LINE
8
Layer 1
10
55.165946
20
117.680765
11
54.930629
21
117.489387
0
LINE
8
Layer 1
10
54.930629
20
117.489387
11
54.664210
21
117.344631
0
LINE
8
Layer 1
10
54.664210
20
117.344631
11
54.375992
21
117.252916
0
LINE
8
Layer 1
10
54.375992
20
117.252916
11
54.075275
21
117.220671
0
LINE
8
Layer 1
10
54.075275
20
117.220671
11
42.170900
21
117.221000
0
LINE
8
Layer 1
10
42.170900
20
117.221000
11
42.170900
21
117.221000
0
LINE
8
Layer 1
10
42.170900
20
117.221000
11
41.868958
21
117.251152
0
LINE
8
Layer 1
10
41.868958
20
117.251152
11
41.578589
21
117.339523
0
LINE
8
Layer 1
10
41.578589
20
117.339523
11
41.313241
21
117.484739
0
LINE
8
Layer 1
10
41.313241
20
117.484739
11
41.081665
21
117.679655
0
LINE
8
Layer 1
10
41.081665
20
117.679655
11
40.890287
21
117.914975
0
LINE
8
Layer 1
10
40.890287
20
117.914975
11
40.745528
21
118.181394
0
LINE
8
Layer 1
10
40.745528
20
118.181394
11
40.653816
21
118.469612
0
LINE
8
Layer 1
10
40.653816
20
118.469612
11
40.621571
21
118.770329
0
LINE
8
Layer 1
10
40.621571
20
118.770329
11
40.621500
21
130.674000
0
LINE
8
Layer 1
10
30.173100
20
188.922000
11
75.173000
21
188.922000
0
LINE
8
Layer 1
10
75.173000
20
188.922000
11
75.173000
21
185.122000
0
LINE
8
Layer 1
10
75.173000
20
185.122000
11
30.173100
21
185.122000
0
LINE
8
Layer 1
10
30.173100
20
185.122000
11
30.173100
21
188.922000
0
LINE
8
Layer 1
10
167.171000
20
67.220800
11
167.171000
21
67.220800
0
LINE
8
Layer 1
10
167.171000
20
67.220800
11
166.869061
21
67.250952
0
LINE
8
Layer 1
10
166.869061
20
67.250952
11
166.578692
21
67.339323
0
LINE
8
Layer 1
10
166.578692
20
67.339323
11
166.313342
21
67.484539
0
LINE
8
Layer 1
10
166.313342
20
67.484539
11
166.081766
21
67.679455
0
LINE
8
Layer 1
10
166.081766
20
67.679455
11
165.890388
21
67.914775
0
LINE
8
Layer 1
10
165.890388
20
67.914775
11
165.745632
21
68.181192
0
LINE
8
Layer 1
10
165.745632
20
68.181192
11
165.653920
21
68.469413
0
LINE
8
Layer 1
10
165.653920
20
68.469413
11
165.621675
21
68.770130
0
LINE
8
Layer 1
10
165.621675
20
68.770130
11
165.621000
21
80.674500
0
LINE
8
Layer 1
10
165.621000
20
80.674500
11
165.621000
21
80.674500
0
LINE
8
Layer 1
10
165.621000
20
80.674500
11
165.651152
21
80.976439
0
LINE
8
Layer 1
10
165.651152
20
80.976439
11
165.739520
21
81.266808
0
LINE
8
Layer 1
10
165.739520
20
81.266808
11
165.884736
21
81.532158
0
LINE
8
Layer 1
10
165.884736
20
81.532158
11
166.079654
21
81.763732
0
LINE
8
Layer 1
10
166.079654
20
81.763732
11
166.314971
21
81.955110
0
LINE
8
Layer 1
10
166.314971
20
81.955110
11
166.581390
21
82.099869
0
LINE
8
Layer 1
10
166.581390
20
82.099869
11
166.869608
21
82.191581
0
LINE
8
Layer 1
10
166.869608
20
82.191581
11
167.170325
21
82.223826
0
LINE
8
Layer 1
10
167.170325
20
82.223826
11
179.075000
21
82.223900
0
LINE
8
Layer 1
10
179.075000
20
82.223900
11
179.075000
21
82.223900
0
LINE
8
Layer 1
10
179.075000
20
82.223900
11
179.376939
21
82.193748
0
LINE
8
Layer 1
10
179.376939
20
82.193748
11
179.667311
21
82.105380
0
LINE
8
Layer 1
10
179.667311
20
82.105380
11
179.932659
21
81.960164
0
LINE
8
Layer 1
10
179.932659
20
81.960164
11
180.164235
21
81.765246
0
LINE
8
Layer 1
10
180.164235
20
81.765246
11
180.355613
21
81.529929
0
LINE
8
Layer 1
10
180.355613
20
81.529929
11
180.500369
21
81.263510
0
LINE
8
Layer 1
10
180.500369
20
81.263510
11
180.592081
21
80.975292
0
LINE
8
Layer 1
10
180.592081
20
80.975292
11
180.624329
21
80.674575
0
LINE
8
Layer 1
10
180.624329
20
80.674575
11
180.624000
21
68.770100
0
LINE
8
Layer 1
10
180.624000
20
68.770100
11
180.624000
21
68.770100
0
LINE
8
Layer 1
10
180.624000
20
68.770100
11
180.593848
21
68.468158
0
LINE
8
Layer 1
10
180.593848
20
68.468158
11
180.505477
21
68.177789
0
LINE
8
Layer 1
10
180.505477
20
68.177789
11
180.360261
21
67.912441
0
LINE
8
Layer 1
10
180.360261
20
67.912441
11
180.165345
21
67.680865
0
LINE
8
Layer 1
10
180.165345
20
67.680865
11
179.930025
21
67.489487
0
LINE
8
Layer 1
10
179.930025
20
67.489487
11
179.663606
21
67.344731
0
LINE
8
Layer 1
10
179.663606
20
67.344731
11
179.375388
21
67.253016
0
LINE
8
Layer 1
10
179.375388
20
67.253016
11
179.074671
21
67.220771
0
LINE
8
Layer 1
10
179.074671
20
67.220771
11
167.171000
21
67.220800
0
LINE
8
Layer 1
10
142.171000
20
117.221000
11
142.171000
21
117.221000
0
LINE
8
Layer 1
10
142.171000
20
117.221000
11
141.869061
21
117.251152
0
LINE
8
Layer 1
10
141.869061
20
117.251152
11
141.578692
21
117.339520
0
LINE
8
Layer 1
10
141.578692
20
117.339520
11
141.313342
21
117.484736
0
LINE
8
Layer 1
10
141.313342
20
117.484736
11
141.081766
21
117.679654
0
LINE
8
Layer 1
10
141.081766
20
117.679654
11
140.890388
21
117.914971
0
LINE
8
Layer 1
10
140.890388
20
117.914971
11
140.745632
21
118.181390
0
LINE
8
Layer 1
10
140.745632
20
118.181390
11
140.653920
21
118.469608
0
LINE
8
Layer 1
10
140.653920
20
118.469608
11
140.621675
21
118.770328
0
LINE
8
Layer 1
10
140.621675
20
118.770328
11
140.621000
21
130.674000
0
LINE
8
Layer 1
10
140.621000
20
130.674000
11
140.621000
21
130.674000
0
LINE
8
Layer 1
10
140.621000
20
130.674000
11
140.651152
21
130.975942
0
LINE
8
Layer 1
10
140.651152
20
130.975942
11
140.739520
21
131.266311
0
LINE
8
Layer 1
10
140.739520
20
131.266311
11
140.884736
21
131.531661
0
LINE
8
Layer 1
10
140.884736
20
131.531661
11
141.079654
21
131.763235
0
LINE
8
Layer 1
10
141.079654
20
131.763235
11
141.314971
21
131.954613
0
LINE
8
Layer 1
10
141.314971
20
131.954613
11
141.581390
21
132.099372
0
LINE
8
Layer 1
10
141.581390
20
132.099372
11
141.869608
21
132.191084
0
LINE
8
Layer 1
10
141.869608
20
132.191084
11
142.170325
21
132.223329
0
LINE
8
Layer 1
10
142.170325
20
132.223329
11
154.075000
21
132.224000
0
LINE
8
Layer 1
10
154.075000
20
132.224000
11
154.075000
21
132.224000
0
LINE
8
Layer 1
10
154.075000
20
132.224000
11
154.376939
21
132.193848
0
LINE
8
Layer 1
10
154.376939
20
132.193848
11
154.667311
21
132.105480
0
LINE
8
Layer 1
10
154.667311
20
132.105480
11
154.932659
21
131.960264
0
LINE
8
Layer 1
10
154.932659
20
131.960264
11
155.164235
21
131.765346
0
LINE
8
Layer 1
10
155.164235
20
131.765346
11
155.355613
21
131.530029
0
LINE
8
Layer 1
10
155.355613
20
131.530029
11
155.500369
21
131.263610
0
LINE
8
Layer 1
10
155.500369
20
131.263610
11
155.592084
21
130.975392
0
LINE
8
Layer 1
10
155.592084
20
130.975392
11
155.624329
21
130.674672
0
LINE
8
Layer 1
10
155.624329
20
130.674672
11
155.624000
21
118.770000
0
LINE
8
Layer 1
10
155.624000
20
118.770000
11
155.624000
21
118.770000
0
LINE
8
Layer 1
10
155.624000
20
118.770000
11
155.593848
21
118.468058
0
LINE
8
Layer 1
10
155.593848
20
118.468058
11
155.505477
21
118.177689
0
LINE
8
Layer 1
10
155.505477
20
118.177689
11
155.360261
21
117.912339
0
LINE
8
Layer 1
10
155.360261
20
117.912339
11
155.165345
21
117.680765
0
LINE
8
Layer 1
10
155.165345
20
117.680765
11
154.930025
21
117.489387
0
LINE
8
Layer 1
10
154.930025
20
117.489387
11
154.663606
21
117.344628
0
LINE
8
Layer 1
10
154.663606
20
117.344628
11
154.375388
21
117.252916
0
LINE
8
Layer 1
10
154.375388
20
117.252916
11
154.074671
21
117.220671
0
LINE
8
Layer 1
10
154.074671
20
117.220671
11
142.171000
21
117.221000
0
LINE
8
Layer 1
10
164.423000
20
155.122000
11
38.423100
21
155.122000
0
LINE
8
Layer 1
10
38.423100
20
155.122000
11
38.033856
21
155.200585
0
LINE
8
Layer 1
10
38.033856
20
155.200585
11
37.715995
21
155.414894
0
LINE
8
Layer 1
10
37.715995
20
155.414894
11
37.501688
21
155.732755
0
LINE
8
Layer 1
10
37.501688
20
155.732755
11
37.423103
21
156.121999
0
LINE
8
Layer 1
10
37.423103
20
156.121999
11
37.423100
21
170.122000
0
LINE
8
Layer 1
10
37.423100
20
170.122000
11
37.501685
21
170.511244
0
LINE
8
Layer 1
10
37.501685
20
170.511244
11
37.715992
21
170.829105
0
LINE
8
Layer 1
10
37.715992
20
170.829105
11
38.033853
21
171.043414
0
LINE
8
Layer 1
10
38.033853
20
171.043414
11
38.423097
21
171.121999
0
LINE
8
Layer 1
10
38.423097
20
171.121999
11
164.423000
21
171.122000
0
LINE
8
Layer 1
10
164.423000
20
171.122000
11
164.812244
21
171.043415
0
LINE
8
Layer 1
10
164.812244
20
171.043415
11
165.130105
21
170.829106
0
LINE
8
Layer 1
10
165.130105
20
170.829106
11
165.344412
21
170.511245
0
LINE
8
Layer 1
10
165.344412
20
170.511245
11
165.422997
21
170.122001
0
LINE
8
Layer 1
10
165.422997
20
170.122001
11
165.423000
21
156.122000
0
LINE
8
Layer 1
10
165.423000
20
156.122000
11
165.344415
21
155.732756
0
LINE
8
Layer 1
10
165.344415
20
155.732756
11
165.130108
21
155.414895
0
LINE
8
Layer 1
10
165.130108
20
155.414895
11
164.812247
21
155.200586
0
LINE
8
Layer 1
10
164.812247
20
155.200586
11
164.423003
21
155.122001
0
LINE
8
Layer 1
10
123.923000
20
188.922000
11
123.923000
21
185.122000
0
LINE
8
Layer 1
10
123.923000
20
185.122000
11
78.923000
21
185.122000
0
LINE
8
Layer 1
10
78.923000
20
185.122000
11
78.923000
21
188.922000
0
LINE
8
Layer 1
10
78.923000
20
188.922000
11
123.923000
21
188.922000
0
LINE
8
Layer 1
10
65.621500
20
105.675000
11
65.621500
21
105.675000
0
LINE
8
Layer 1
10
65.621500
20
105.675000
11
65.651652
21
105.976939
0
LINE
8
Layer 1
10
65.651652
20
105.976939
11
65.740020
21
106.267308
0
LINE
8
Layer 1
10
65.740020
20
106.267308
11
65.885236
21
106.532658
0
LINE
8
Layer 1
10
65.885236
20
106.532658
11
66.080154
21
106.764234
0
LINE
8
Layer 1
10
66.080154
20
106.764234
11
66.315471
21
106.955612
0
LINE
8
Layer 1
10
66.315471
20
106.955612
11
66.581890
21
107.100368
0
LINE
8
Layer 1
10
66.581890
20
107.100368
11
66.870108
21
107.192080
0
LINE
8
Layer 1
10
66.870108
20
107.192080
11
67.170828
21
107.224325
0
LINE
8
Layer 1
10
67.170828
20
107.224325
11
79.075200
21
107.224000
0
LINE
8
Layer 1
10
79.075200
20
107.224000
11
79.075200
21
107.224000
0
LINE
8
Layer 1
10
79.075200
20
107.224000
11
79.377142
21
107.193848
0
LINE
8
Layer 1
10
79.377142
20
107.193848
11
79.667511
21
107.105480
0
LINE
8
Layer 1
10
79.667511
20
107.105480
11
79.932861
21
106.960264
0
LINE
8
Layer 1
10
79.932861
20
106.960264
11
80.164435
21
106.765346
0
LINE
8
Layer 1
10
80.164435
20
106.765346
11
80.355813
21
106.530029
0
LINE
8
Layer 1
10
80.355813
20
106.530029
11
80.500572
21
106.263610
0
LINE
8
Layer 1
10
80.500572
20
106.263610
11
80.592284
21
105.975392
0
LINE
8
Layer 1
10
80.592284
20
105.975392
11
80.624529
21
105.674675
0
LINE
8
Layer 1
10
80.624529
20
105.674675
11
80.624600
21
93.770100
0
LINE
8
Layer 1
10
80.624600
20
93.770100
11
80.624600
21
93.770100
0
LINE
8
Layer 1
10
80.624600
20
93.770100
11
80.594448
21
93.468161
0
LINE
8
Layer 1
10
80.594448
20
93.468161
11
80.506080
21
93.177792
0
LINE
8
Layer 1
10
80.506080
20
93.177792
11
80.360864
21
92.912442
0
LINE
8
Layer 1
10
80.360864
20
92.912442
11
80.165946
21
92.680866
0
LINE
8
Layer 1
10
80.165946
20
92.680866
11
79.930629
21
92.489488
0
LINE
8
Layer 1
10
79.930629
20
92.489488
11
79.664210
21
92.344732
0
LINE
8
Layer 1
10
79.664210
20
92.344732
11
79.375992
21
92.253020
0
LINE
8
Layer 1
10
79.375992
20
92.253020
11
79.075272
21
92.220772
0
LINE
8
Layer 1
10
79.075272
20
92.220772
11
67.170800
21
92.220800
0
LINE
8
Layer 1
10
67.170800
20
92.220800
11
67.170800
21
92.220800
0
LINE
8
Layer 1
10
67.170800
20
92.220800
11
66.868858
21
92.250952
0
LINE
8
Layer 1
10
66.868858
20
92.250952
11
66.578489
21
92.339323
0
LINE
8
Layer 1
10
66.578489
20
92.339323
11
66.313139
21
92.484539
0
LINE
8
Layer 1
10
66.313139
20
92.484539
11
66.081565
21
92.679455
0
LINE
8
Layer 1
10
66.081565
20
92.679455
11
65.890187
21
92.914775
0
LINE
8
Layer 1
10
65.890187
20
92.914775
11
65.745428
21
93.181194
0
LINE
8
Layer 1
10
65.745428
20
93.181194
11
65.653716
21
93.469412
0
LINE
8
Layer 1
10
65.653716
20
93.469412
11
65.621471
21
93.770129
0
LINE
8
Layer 1
10
65.621471
20
93.770129
11
65.621500
21
105.675000
0
LINE
8
Layer 1
10
123.923000
20
7.722410
11
123.923000
21
3.922420
0
LINE
8
Layer 1
10
123.923000
20
3.922420
11
78.923000
21
3.922420
0
LINE
8
Layer 1
10
78.923000
20
3.922420
11
78.923000
21
7.722410
0
LINE
8
Layer 1
10
78.923000
20
7.722410
11
123.923000
21
7.722410
0
LINE
8
Layer 1
10
90.621500
20
80.674600
11
90.621500
21
80.674600
0
LINE
8
Layer 1
10
90.621500
20
80.674600
11
90.651652
21
80.976539
0
LINE
8
Layer 1
10
90.651652
20
80.976539
11
90.740020
21
81.266908
0
LINE
8
Layer 1
10
90.740020
20
81.266908
11
90.885236
21
81.532258
0
LINE
8
Layer 1
10
90.885236
20
81.532258
11
91.080154
21
81.763834
0
LINE
8
Layer 1
10
91.080154
20
81.763834
11
91.315471
21
81.955212
0
LINE
8
Layer 1
10
91.315471
20
81.955212
11
91.581890
21
82.099968
0
LINE
8
Layer 1
10
91.581890
20
82.099968
11
91.870108
21
82.191680
0
LINE
8
Layer 1
10
91.870108
20
82.191680
11
92.170825
21
82.223928
0
LINE
8
Layer 1
10
92.170825
20
82.223928
11
104.075000
21
82.223900
0
LINE
8
Layer 1
10
104.075000
20
82.223900
11
104.075000
21
82.223900
0
LINE
8
Layer 1
10
104.075000
20
82.223900
11
104.376942
21
82.193748
0
LINE
8
Layer 1
10
104.376942
20
82.193748
11
104.667311
21
82.105377
0
LINE
8
Layer 1
10
104.667311
20
82.105377
11
104.932659
21
81.960161
0
LINE
8
Layer 1
10
104.932659
20
81.960161
11
105.164235
21
81.765243
0
LINE
8
Layer 1
10
105.164235
20
81.765243
11
105.355613
21
81.529926
0
LINE
8
Layer 1
10
105.355613
20
81.529926
11
105.500372
21
81.263507
0
LINE
8
Layer 1
10
105.500372
20
81.263507
11
105.592084
21
80.975289
0
LINE
8
Layer 1
10
105.592084
20
80.975289
11
105.624329
21
80.674572
0
LINE
8
Layer 1
10
105.624329
20
80.674572
11
105.625000
21
68.770200
0
LINE
8
Layer 1
10
105.625000
20
68.770200
11
105.625000
21
68.770200
0
LINE
8
Layer 1
10
105.625000
20
68.770200
11
105.594848
21
68.468261
0
LINE
8
Layer 1
10
105.594848
20
68.468261
11
105.506477
21
68.177892
0
LINE
8
Layer 1
10
105.506477
20
68.177892
11
105.361263
21
67.912542
0
LINE
8
Layer 1
10
105.361263
20
67.912542
11
105.166345
21
67.680966
0
LINE
8
Layer 1
10
105.166345
20
67.680966
11
104.931025
21
67.489588
0
LINE
8
Layer 1
10
104.931025
20
67.489588
11
104.664608
21
67.344832
0
LINE
8
Layer 1
10
104.664608
20
67.344832
11
104.376390
21
67.253120
0
LINE
8
Layer 1
10
104.376390
20
67.253120
11
104.075670
21
67.220872
0
LINE
8
Layer 1
10
104.075670
20
67.220872
11
92.170800
21
67.220800
0
LINE
8
Layer 1
10
92.170800
20
67.220800
11
92.170800
21
67.220800
0
LINE
8
Layer 1
10
92.170800
20
67.220800
11
91.868861
21
67.250952
0
LINE
8
Layer 1
10
91.868861
20
67.250952
11
91.578492
21
67.339323
0
LINE
8
Layer 1
10
91.578492
20
67.339323
11
91.313142
21
67.484539
0
LINE
8
Layer 1
10
91.313142
20
67.484539
11
91.081568
21
67.679457
0
LINE
8
Layer 1
10
91.081568
20
67.679457
11
90.890190
21
67.914774
0
LINE
8
Layer 1
10
90.890190
20
67.914774
11
90.745431
21
68.181193
0
LINE
8
Layer 1
10
90.745431
20
68.181193
11
90.653719
21
68.469411
0
LINE
8
Layer 1
10
90.653719
20
68.469411
11
90.621474
21
68.770128
0
LINE
8
Layer 1
10
90.621474
20
68.770128
11
90.621500
21
80.674600
0
LINE
8
Layer 1
10
15.621600
20
238.239000
11
15.621600
21
250.143000
0
LINE
8
Layer 1
10
15.621600
20
250.143000
11
15.621600
21
250.143000
0
LINE
8
Layer 1
10
15.621600
20
250.143000
11
15.651752
21
250.444939
0
LINE
8
Layer 1
10
15.651752
20
250.444939
11
15.740123
21
250.735311
0
LINE
8
Layer 1
10
15.740123
20
250.735311
11
15.885339
21
251.000659
0
LINE
8
Layer 1
10
15.885339
20
251.000659
11
16.080255
21
251.232235
0
LINE
8
Layer 1
10
16.080255
20
251.232235
11
16.315575
21
251.423613
0
LINE
8
Layer 1
10
16.315575
20
251.423613
11
16.581992
21
251.568369
0
LINE
8
Layer 1
10
16.581992
20
251.568369
11
16.870213
21
251.660081
0
LINE
8
Layer 1
10
16.870213
20
251.660081
11
17.170930
21
251.692329
0
LINE
8
Layer 1
10
17.170930
20
251.692329
11
29.075300
21
251.693000
0
LINE
8
Layer 1
10
29.075300
20
251.693000
11
29.075300
21
251.693000
0
LINE
8
Layer 1
10
29.075300
20
251.693000
11
29.377239
21
251.662848
0
LINE
8
Layer 1
10
29.377239
20
251.662848
11
29.667608
21
251.574477
0
LINE
8
Layer 1
10
29.667608
20
251.574477
11
29.932958
21
251.429261
0
LINE
8
Layer 1
10
29.932958
20
251.429261
11
30.164532
21
251.234345
0
LINE
8
Layer 1
10
30.164532
20
251.234345
11
30.355910
21
250.999025
0
LINE
8
Layer 1
10
30.355910
20
250.999025
11
30.500669
21
250.732606
0
LINE
8
Layer 1
10
30.500669
20
250.732606
11
30.592381
21
250.444388
0
LINE
8
Layer 1
10
30.592381
20
250.444388
11
30.624626
21
250.143671
0
LINE
8
Layer 1
10
30.624626
20
250.143671
11
30.624600
21
238.239000
0
LINE
8
Layer 1
10
30.624600
20
238.239000
11
30.624600
21
238.239000
0
LINE
8
Layer 1
10
30.624600
20
238.239000
11
30.594448
21
237.937061
0
LINE
8
Layer 1
10
30.594448
20
237.937061
11
30.506080
21
237.646692
0
LINE
8
Layer 1
10
30.506080
20
237.646692
11
30.360864
21
237.381342
0
LINE
8
Layer 1
10
30.360864
20
237.381342
11
30.165946
21
237.149766
0
LINE
8
Layer 1
10
30.165946
20
237.149766
11
29.930629
21
236.958388
0
LINE
8
Layer 1
10
29.930629
20
236.958388
11
29.664210
21
236.813632
0
LINE
8
Layer 1
10
29.664210
20
236.813632
11
29.375992
21
236.721920
0
LINE
8
Layer 1
10
29.375992
20
236.721920
11
29.075275
21
236.689675
0
LINE
8
Layer 1
10
29.075275
20
236.689675
11
17.170900
21
236.690000
0
LINE
8
Layer 1
10
17.170900
20
236.690000
11
17.170900
21
236.690000
0
LINE
8
Layer 1
10
17.170900
20
236.690000
11
16.868958
21
236.720152
0
LINE
8
Layer 1
10
16.868958
20
236.720152
11
16.578589
21
236.808520
0
LINE
8
Layer 1
10
16.578589
20
236.808520
11
16.313241
21
236.953736
0
LINE
8
Layer 1
10
16.313241
20
236.953736
11
16.081665
21
237.148654
0
LINE
8
Layer 1
10
16.081665
20
237.148654
11
15.890287
21
237.383971
0
LINE
8
Layer 1
10
15.890287
20
237.383971
11
15.745531
21
237.650390
0
LINE
8
Layer 1
10
15.745531
20
237.650390
11
15.653816
21
237.938608
0
LINE
8
Layer 1
10
15.653816
20
237.938608
11
15.621600
21
238.239000
0
LINE
8
Layer 1
10
15.621600
20
263.238000
11
15.621600
21
275.142000
0
LINE
8
Layer 1
10
15.621600
20
275.142000
11
15.621600
21
275.142000
0
LINE
8
Layer 1
10
15.621600
20
275.142000
11
15.651752
21
275.443939
0
LINE
8
Layer 1
10
15.651752
20
275.443939
11
15.740123
21
275.734308
0
LINE
8
Layer 1
10
15.740123
20
275.734308
11
15.885339
21
275.999658
0
LINE
8
Layer 1
10
15.885339
20
275.999658
11
16.080255
21
276.231234
0
LINE
8
Layer 1
10
16.080255
20
276.231234
11
16.315575
21
276.422612
0
LINE
8
Layer 1
10
16.315575
20
276.422612
11
16.581992
21
276.567368
0
LINE
8
Layer 1
10
16.581992
20
276.567368
11
16.870213
21
276.659080
0
LINE
8
Layer 1
10
16.870213
20
276.659080
11
17.170930
21
276.691328
0
LINE
8
Layer 1
10
17.170930
20
276.691328
11
29.075300
21
276.692000
0
LINE
8
Layer 1
10
29.075300
20
276.692000
11
29.075300
21
276.692000
0
LINE
8
Layer 1
10
29.075300
20
276.692000
11
29.377239
21
276.661848
0
LINE
8
Layer 1
10
29.377239
20
276.661848
11
29.667608
21
276.573477
0
LINE
8
Layer 1
10
29.667608
20
276.573477
11
29.932958
21
276.428261
0
LINE
8
Layer 1
10
29.932958
20
276.428261
11
30.164532
21
276.233343
0
LINE
8
Layer 1
10
30.164532
20
276.233343
11
30.355910
21
275.998026
0
LINE
8
Layer 1
10
30.355910
20
275.998026
11
30.500669
21
275.731607
0
LINE
8
Layer 1
10
30.500669
20
275.731607
11
30.592381
21
275.443389
0
LINE
8
Layer 1
10
30.592381
20
275.443389
11
30.624626
21
275.142672
0
LINE
8
Layer 1
10
30.624626
20
275.142672
11
30.624600
21
263.238000
0
LINE
8
Layer 1
10
30.624600
20
263.238000
11
30.624600
21
263.238000
0
LINE
8
Layer 1
10
30.624600
20
263.238000
11
30.594448
21
262.936061
0
LINE
8
Layer 1
10
30.594448
20
262.936061
11
30.506080
21
262.645692
0
LINE
8
Layer 1
10
30.506080
20
262.645692
11
30.360864
21
262.380342
0
LINE
8
Layer 1
10
30.360864
20
262.380342
11
30.165946
21
262.148766
0
LINE
8
Layer 1
10
30.165946
20
262.148766
11
29.930629
21
261.957388
0
LINE
8
Layer 1
10
29.930629
20
261.957388
11
29.664210
21
261.812632
0
LINE
8
Layer 1
10
29.664210
20
261.812632
11
29.375992
21
261.720920
0
LINE
8
Layer 1
10
29.375992
20
261.720920
11
29.075275
21
261.688672
0
LINE
8
Layer 1
10
29.075275
20
261.688672
11
17.170900
21
261.689000
0
LINE
8
Layer 1
10
17.170900
20
261.689000
11
17.170900
21
261.689000
0
LINE
8
Layer 1
10
17.170900
20
261.689000
11
16.868958
21
261.719152
0
LINE
8
Layer 1
10
16.868958
20
261.719152
11
16.578589
21
261.807523
0
LINE
8
Layer 1
10
16.578589
20
261.807523
11
16.313241
21
261.952739
0
LINE
8
Layer 1
10
16.313241
20
261.952739
11
16.081665
21
262.147657
0
LINE
8
Layer 1
10
16.081665
20
262.147657
11
15.890287
21
262.382974
0
LINE
8
Layer 1
10
15.890287
20
262.382974
11
15.745531
21
262.649393
0
LINE
8
Layer 1
10
15.745531
20
262.649393
11
15.653816
21
262.937611
0
LINE
8
Layer 1
10
15.653816
20
262.937611
11
15.621600
21
263.238000
0
LINE
8
Layer 1
10
15.621600
20
288.238000
11
15.621600
21
300.142000
0
LINE
8
Layer 1
10
15.621600
20
300.142000
11
15.621600
21
300.142000
0
LINE
8
Layer 1
10
15.621600
20
300.142000
11
15.651752
21
300.443939
0
LINE
8
Layer 1
10
15.651752
20
300.443939
11
15.740123
21
300.734308
0
LINE
8
Layer 1
10
15.740123
20
300.734308
11
15.885339
21
300.999658
0
LINE
8
Layer 1
10
15.885339
20
300.999658
11
16.080255
21
301.231234
0
LINE
8
Layer 1
10
16.080255
20
301.231234
11
16.315575
21
301.422612
0
LINE
8
Layer 1
10
16.315575
20
301.422612
11
16.581992
21
301.567368
0
LINE
8
Layer 1
10
16.581992
20
301.567368
11
16.870213
21
301.659080
0
LINE
8
Layer 1
10
16.870213
20
301.659080
11
17.170930
21
301.691325
0
LINE
8
Layer 1
10
17.170930
20
301.691325
11
29.075300
21
301.692000
0
LINE
8
Layer 1
10
29.075300
20
301.692000
11
29.075300
21
301.692000
0
LINE
8
Layer 1
10
29.075300
20
301.692000
11
29.377239
21
301.661848
0
LINE
8
Layer 1
10
29.377239
20
301.661848
11
29.667608
21
301.573480
0
LINE
8
Layer 1
10
29.667608
20
301.573480
11
29.932958
21
301.428264
0
LINE
8
Layer 1
10
29.932958
20
301.428264
11
30.164532
21
301.233346
0
LINE
8
Layer 1
10
30.164532
20
301.233346
11
30.355910
21
300.998029
0
LINE
8
Layer 1
10
30.355910
20
300.998029
11
30.500669
21
300.731610
0
LINE
8
Layer 1
10
30.500669
20
300.731610
11
30.592381
21
300.443392
0
LINE
8
Layer 1
10
30.592381
20
300.443392
11
30.624626
21
300.142675
0
LINE
8
Layer 1
10
30.624626
20
300.142675
11
30.624600
21
288.238000
0
LINE
8
Layer 1
10
30.624600
20
288.238000
11
30.624600
21
288.238000
0
LINE
8
Layer 1
10
30.624600
20
288.238000
11
30.594448
21
287.936061
0
LINE
8
Layer 1
10
30.594448
20
287.936061
11
30.506080
21
287.645692
0
LINE
8
Layer 1
10
30.506080
20
287.645692
11
30.360864
21
287.380342
0
LINE
8
Layer 1
10
30.360864
20
287.380342
11
30.165946
21
287.148766
0
LINE
8
Layer 1
10
30.165946
20
287.148766
11
29.930629
21
286.957388
0
LINE
8
Layer 1
10
29.930629
20
286.957388
11
29.664210
21
286.812632
0
LINE
8
Layer 1
10
29.664210
20
286.812632
11
29.375992
21
286.720920
0
LINE
8
Layer 1
10
29.375992
20
286.720920
11
29.075275
21
286.688672
0
LINE
8
Layer 1
10
29.075275
20
286.688672
11
17.170900
21
286.689000
0
LINE
8
Layer 1
10
17.170900
20
286.689000
11
17.170900
21
286.689000
0
LINE
8
Layer 1
10
17.170900
20
286.689000
11
16.868958
21
286.719152
0
LINE
8
Layer 1
10
16.868958
20
286.719152
11
16.578589
21
286.807523
0
LINE
8
Layer 1
10
16.578589
20
286.807523
11
16.313241
21
286.952739
0
LINE
8
Layer 1
10
16.313241
20
286.952739
11
16.081665
21
287.147655
0
LINE
8
Layer 1
10
16.081665
20
287.147655
11
15.890287
21
287.382975
0
LINE
8
Layer 1
10
15.890287
20
287.382975
11
15.745531
21
287.649394
0
LINE
8
Layer 1
10
15.745531
20
287.649394
11
15.653816
21
287.937612
0
LINE
8
Layer 1
10
15.653816
20
287.937612
11
15.621600
21
288.238000
0
LINE
8
Layer 1
10
15.621600
20
313.238000
11
15.621600
21
325.142000
0
LINE
8
Layer 1
10
15.621600
20
325.142000
11
15.621600
21
325.142000
0
LINE
8
Layer 1
10
15.621600
20
325.142000
11
15.651752
21
325.443939
0
LINE
8
Layer 1
10
15.651752
20
325.443939
11
15.740123
21
325.734308
0
LINE
8
Layer 1
10
15.740123
20
325.734308
11
15.885339
21
325.999658
0
LINE
8
Layer 1
10
15.885339
20
325.999658
11
16.080255
21
326.231234
0
LINE
8
Layer 1
10
16.080255
20
326.231234
11
16.315575
21
326.422612
0
LINE
8
Layer 1
10
16.315575
20
326.422612
11
16.581992
21
326.567368
0
LINE
8
Layer 1
10
16.581992
20
326.567368
11
16.870213
21
326.659080
0
LINE
8
Layer 1
10
16.870213
20
326.659080
11
17.170930
21
326.691325
0
LINE
8
Layer 1
10
17.170930
20
326.691325
11
29.075300
21
326.692000
0
LINE
8
Layer 1
10
29.075300
20
326.692000
11
29.075300
21
326.692000
0
LINE
8
Layer 1
10
29.075300
20
326.692000
11
29.377239
21
326.661848
0
LINE
8
Layer 1
10
29.377239
20
326.661848
11
29.667608
21
326.573480
0
LINE
8
Layer 1
10
29.667608
20
326.573480
11
29.932958
21
326.428264
0
LINE
8
Layer 1
10
29.932958
20
326.428264
11
30.164532
21
326.233346
0
LINE
8
Layer 1
10
30.164532
20
326.233346
11
30.355910
21
325.998029
0
LINE
8
Layer 1
10
30.355910
20
325.998029
11
30.500669
21
325.731610
0
LINE
8
Layer 1
10
30.500669
20
325.731610
11
30.592381
21
325.443392
0
LINE
8
Layer 1
10
30.592381
20
325.443392
11
30.624626
21
325.142675
0
LINE
8
Layer 1
10
30.624626
20
325.142675
11
30.624600
21
313.238000
0
LINE
8
Layer 1
10
30.624600
20
313.238000
11
30.624600
21
313.238000
0
LINE
8
Layer 1
10
30.624600
20
313.238000
11
30.594448
21
312.936061
0
LINE
8
Layer 1
10
30.594448
20
312.936061
11
30.506080
21
312.645689
0
LINE
8
Layer 1
10
30.506080
20
312.645689
11
30.360864
21
312.380341
0
LINE
8
Layer 1
10
30.360864
20
312.380341
11
30.165946
21
312.148765
0
LINE
8
Layer 1
10
30.165946
20
312.148765
11
29.930629
21
311.957387
0
LINE
8
Layer 1
10
29.930629
20
311.957387
11
29.664210
21
311.812631
0
LINE
8
Layer 1
10
29.664210
20
311.812631
11
29.375992
21
311.720916
0
LINE
8
Layer 1
10
29.375992
20
311.720916
11
29.075275
21
311.688671
0
LINE
8
Layer 1
10
29.075275
20
311.688671
11
17.170900
21
311.688000
0
LINE
8
Layer 1
10
17.170900
20
311.688000
11
17.170900
21
311.688000
0
LINE
8
Layer 1
10
17.170900
20
311.688000
11
16.868958
21
311.718152
0
LINE
8
Layer 1
10
16.868958
20
311.718152
11
16.578589
21
311.806523
0
LINE
8
Layer 1
10
16.578589
20
311.806523
11
16.313241
21
311.951739
0
LINE
8
Layer 1
10
16.313241
20
311.951739
11
16.081665
21
312.146655
0
LINE
8
Layer 1
10
16.081665
20
312.146655
11
15.890287
21
312.381975
0
LINE
8
Layer 1
10
15.890287
20
312.381975
11
15.745531
21
312.648394
0
LINE
8
Layer 1
10
15.745531
20
312.648394
11
15.653816
21
312.936612
0
LINE
8
Layer 1
10
15.653816
20
312.936612
11
15.621600
21
313.238000
0
LINE
8
Layer 1
10
40.621500
20
238.238000
11
40.621500
21
250.142000
0
LINE
8
Layer 1
10
40.621500
20
250.142000
11
40.621500
21
250.142000
0
LINE
8
Layer 1
10
40.621500
20
250.142000
11
40.651652
21
250.443939
0
LINE
8
Layer 1
10
40.651652
20
250.443939
11
40.740023
21
250.734311
0
LINE
8
Layer 1
10
40.740023
20
250.734311
11
40.885237
21
250.999659
0
LINE
8
Layer 1
10
40.885237
20
250.999659
11
41.080155
21
251.231235
0
LINE
8
Layer 1
10
41.080155
20
251.231235
11
41.315475
21
251.422613
0
LINE
8
Layer 1
10
41.315475
20
251.422613
11
41.581892
21
251.567369
0
LINE
8
Layer 1
10
41.581892
20
251.567369
11
41.870110
21
251.659081
0
LINE
8
Layer 1
10
41.870110
20
251.659081
11
42.170830
21
251.691329
0
LINE
8
Layer 1
10
42.170830
20
251.691329
11
54.075300
21
251.692000
0
LINE
8
Layer 1
10
54.075300
20
251.692000
11
54.075300
21
251.692000
0
LINE
8
Layer 1
10
54.075300
20
251.692000
11
54.377239
21
251.661848
0
LINE
8
Layer 1
10
54.377239
20
251.661848
11
54.667608
21
251.573477
0
LINE
8
Layer 1
10
54.667608
20
251.573477
11
54.932958
21
251.428261
0
LINE
8
Layer 1
10
54.932958
20
251.428261
11
55.164532
21
251.233345
0
LINE
8
Layer 1
10
55.164532
20
251.233345
11
55.355910
21
250.998025
0
LINE
8
Layer 1
10
55.355910
20
250.998025
11
55.500669
21
250.731606
0
LINE
8
Layer 1
10
55.500669
20
250.731606
11
55.592381
21
250.443388
0
LINE
8
Layer 1
10
55.592381
20
250.443388
11
55.624626
21
250.142671
0
LINE
8
Layer 1
10
55.624626
20
250.142671
11
55.624600
21
238.238000
0
LINE
8
Layer 1
10
55.624600
20
238.238000
11
55.624600
21
238.238000
0
LINE
8
Layer 1
10
55.624600
20
238.238000
11
55.594448
21
237.936061
0
LINE
8
Layer 1
10
55.594448
20
237.936061
11
55.506080
21
237.645692
0
LINE
8
Layer 1
10
55.506080
20
237.645692
11
55.360864
21
237.380342
0
LINE
8
Layer 1
10
55.360864
20
237.380342
11
55.165946
21
237.148766
0
LINE
8
Layer 1
10
55.165946
20
237.148766
11
54.930629
21
236.957388
0
LINE
8
Layer 1
10
54.930629
20
236.957388
11
54.664210
21
236.812632
0
LINE
8
Layer 1
10
54.664210
20
236.812632
11
54.375992
21
236.720920
0
LINE
8
Layer 1
10
54.375992
20
236.720920
11
54.075275
21
236.688675
0
LINE
8
Layer 1
10
54.075275
20
236.688675
11
42.170900
21
236.689000
0
LINE
8
Layer 1
10
42.170900
20
236.689000
11
42.170900
21
236.689000
0
LINE
8
Layer 1
10
42.170900
20
236.689000
11
41.868958
21
236.719152
0
LINE
8
Layer 1
10
41.868958
20
236.719152
11
41.578589
21
236.807520
0
LINE
8
Layer 1
10
41.578589
20
236.807520
11
41.313241
21
236.952736
0
LINE
8
Layer 1
10
41.313241
20
236.952736
11
41.081665
21
237.147654
0
LINE
8
Layer 1
10
41.081665
20
237.147654
11
40.890287
21
237.382971
0
LINE
8
Layer 1
10
40.890287
20
237.382971
11
40.745528
21
237.649390
0
LINE
8
Layer 1
10
40.745528
20
237.649390
11
40.653816
21
237.937608
0
LINE
8
Layer 1
10
40.653816
20
237.937608
11
40.621500
21
238.238000
0
LINE
8
Layer 1
10
40.621500
20
263.238000
11
40.621500
21
275.142000
0
LINE
8
Layer 1
10
40.621500
20
275.142000
11
40.621500
21
275.142000
0
LINE
8
Layer 1
10
40.621500
20
275.142000
11
40.651652
21
275.443939
0
LINE
8
Layer 1
10
40.651652
20
275.443939
11
40.740023
21
275.734308
0
LINE
8
Layer 1
10
40.740023
20
275.734308
11
40.885237
21
275.999658
0
LINE
8
Layer 1
10
40.885237
20
275.999658
11
41.080155
21
276.231234
0
LINE
8
Layer 1
10
41.080155
20
276.231234
11
41.315475
21
276.422612
0
LINE
8
Layer 1
10
41.315475
20
276.422612
11
41.581892
21
276.567368
0
LINE
8
Layer 1
10
41.581892
20
276.567368
11
41.870110
21
276.659080
0
LINE
8
Layer 1
10
41.870110
20
276.659080
11
42.170830
21
276.691328
0
LINE
8
Layer 1
10
42.170830
20
276.691328
11
54.075300
21
276.692000
0
LINE
8
Layer 1
10
54.075300
20
276.692000
11
54.075300
21
276.692000
0
LINE
8
Layer 1
10
54.075300
20
276.692000
11
54.377239
21
276.661848
0
LINE
8
Layer 1
10
54.377239
20
276.661848
11
54.667608
21
276.573477
0
LINE
8
Layer 1
10
54.667608
20
276.573477
11
54.932958
21
276.428261
0
LINE
8
Layer 1
10
54.932958
20
276.428261
11
55.164532
21
276.233343
0
LINE
8
Layer 1
10
55.164532
20
276.233343
11
55.355910
21
275.998026
0
LINE
8
Layer 1
10
55.355910
20
275.998026
11
55.500669
21
275.731607
0
LINE
8
Layer 1
10
55.500669
20
275.731607
11
55.592381
21
275.443389
0
LINE
8
Layer 1
10
55.592381
20
275.443389
11
55.624626
21
275.142672
0
LINE
8
Layer 1
10
55.624626
20
275.142672
11
55.624600
21
263.238000
0
LINE
8
Layer 1
10
55.624600
20
263.238000
11
55.624600
21
263.238000
0
LINE
8
Layer 1
10
55.624600
20
263.238000
11
55.594448
21
262.936061
0
LINE
8
Layer 1
10
55.594448
20
262.936061
11
55.506080
21
262.645692
0
LINE
8
Layer 1
10
55.506080
20
262.645692
11
55.360864
21
262.380342
0
LINE
8
Layer 1
10
55.360864
20
262.380342
11
55.165946
21
262.148766
0
LINE
8
Layer 1
10
55.165946
20
262.148766
11
54.930629
21
261.957388
0
LINE
8
Layer 1
10
54.930629
20
261.957388
11
54.664210
21
261.812632
0
LINE
8
Layer 1
10
54.664210
20
261.812632
11
54.375992
21
261.720920
0
LINE
8
Layer 1
10
54.375992
20
261.720920
11
54.075275
21
261.688672
0
LINE
8
Layer 1
10
54.075275
20
261.688672
11
42.170900
21
261.689000
0
LINE
8
Layer 1
10
42.170900
20
261.689000
11
42.170900
21
261.689000
0
LINE
8
Layer 1
10
42.170900
20
261.689000
11
41.868958
21
261.719152
0
LINE
8
Layer 1
10
41.868958
20
261.719152
11
41.578589
21
261.807523
0
LINE
8
Layer 1
10
41.578589
20
261.807523
11
41.313241
21
261.952739
0
LINE
8
Layer 1
10
41.313241
20
261.952739
11
41.081665
21
262.147657
0
LINE
8
Layer 1
10
41.081665
20
262.147657
11
40.890287
21
262.382974
0
LINE
8
Layer 1
10
40.890287
20
262.382974
11
40.745528
21
262.649393
0
LINE
8
Layer 1
10
40.745528
20
262.649393
11
40.653816
21
262.937611
0
LINE
8
Layer 1
10
40.653816
20
262.937611
11
40.621500
21
263.238000
0
LINE
8
Layer 1
10
40.621500
20
288.238000
11
40.621500
21
300.142000
0
LINE
8
Layer 1
10
40.621500
20
300.142000
11
40.621500
21
300.142000
0
LINE
8
Layer 1
10
40.621500
20
300.142000
11
40.651652
21
300.443939
0
LINE
8
Layer 1
10
40.651652
20
300.443939
11
40.740023
21
300.734308
0
LINE
8
Layer 1
10
40.740023
20
300.734308
11
40.885237
21
300.999658
0
LINE
8
Layer 1
10
40.885237
20
300.999658
11
41.080155
21
301.231234
0
LINE
8
Layer 1
10
41.080155
20
301.231234
11
41.315475
21
301.422612
0
LINE
8
Layer 1
10
41.315475
20
301.422612
11
41.581892
21
301.567368
0
LINE
8
Layer 1
10
41.581892
20
301.567368
11
41.870110
21
301.659080
0
LINE
8
Layer 1
10
41.870110
20
301.659080
11
42.170830
21
301.691325
0
LINE
8
Layer 1
10
42.170830
20
301.691325
11
54.075300
21
301.692000
0
LINE
8
Layer 1
10
54.075300
20
301.692000
11
54.075300
21
301.692000
0
LINE
8
Layer 1
10
54.075300
20
301.692000
11
54.377239
21
301.661848
0
LINE
8
Layer 1
10
54.377239
20
301.661848
11
54.667608
21
301.573480
0
LINE
8
Layer 1
10
54.667608
20
301.573480
11
54.932958
21
301.428264
0
LINE
8
Layer 1
10
54.932958
20
301.428264
11
55.164532
21
301.233346
0
LINE
8
Layer 1
10
55.164532
20
301.233346
11
55.355910
21
300.998029
0
LINE
8
Layer 1
10
55.355910
20
300.998029
11
55.500669
21
300.731610
0
LINE
8
Layer 1
10
55.500669
20
300.731610
11
55.592381
21
300.443392
0
LINE
8
Layer 1
10
55.592381
20
300.443392
11
55.624626
21
300.142675
0
LINE
8
Layer 1
10
55.624626
20
300.142675
11
55.624600
21
288.238000
0
LINE
8
Layer 1
10
55.624600
20
288.238000
11
55.624600
21
288.238000
0
LINE
8
Layer 1
10
55.624600
20
288.238000
11
55.594448
21
287.936061
0
LINE
8
Layer 1
10
55.594448
20
287.936061
11
55.506080
21
287.645692
0
LINE
8
Layer 1
10
55.506080
20
287.645692
11
55.360864
21
287.380342
0
LINE
8
Layer 1
10
55.360864
20
287.380342
11
55.165946
21
287.148766
0
LINE
8
Layer 1
10
55.165946
20
287.148766
11
54.930629
21
286.957388
0
LINE
8
Layer 1
10
54.930629
20
286.957388
11
54.664210
21
286.812632
0
LINE
8
Layer 1
10
54.664210
20
286.812632
11
54.375992
21
286.720920
0
LINE
8
Layer 1
10
54.375992
20
286.720920
11
54.075275
21
286.688672
0
LINE
8
Layer 1
10
54.075275
20
286.688672
11
42.170900
21
286.689000
0
LINE
8
Layer 1
10
42.170900
20
286.689000
11
42.170900
21
286.689000
0
LINE
8
Layer 1
10
42.170900
20
286.689000
11
41.868958
21
286.719152
0
LINE
8
Layer 1
10
41.868958
20
286.719152
11
41.578589
21
286.807523
0
LINE
8
Layer 1
10
41.578589
20
286.807523
11
41.313241
21
286.952739
0
LINE
8
Layer 1
10
41.313241
20
286.952739
11
41.081665
21
287.147655
0
LINE
8
Layer 1
10
41.081665
20
287.147655
11
40.890287
21
287.382975
0
LINE
8
Layer 1
10
40.890287
20
287.382975
11
40.745528
21
287.649394
0
LINE
8
Layer 1
10
40.745528
20
287.649394
11
40.653816
21
287.937612
0
LINE
8
Layer 1
10
40.653816
20
287.937612
11
40.621500
21
288.238000
0
LINE
8
Layer 1
10
40.621500
20
313.238000
11
40.621500
21
325.142000
0
LINE
8
Layer 1
10
40.621500
20
325.142000
11
40.621500
21
325.142000
0
LINE
8
Layer 1
10
40.621500
20
325.142000
11
40.651652
21
325.443939
0
LINE
8
Layer 1
10
40.651652
20
325.443939
11
40.740023
21
325.734308
0
LINE
8
Layer 1
10
40.740023
20
325.734308
11
40.885237
21
325.999658
0
LINE
8
Layer 1
10
40.885237
20
325.999658
11
41.080155
21
326.231234
0
LINE
8
Layer 1
10
41.080155
20
326.231234
11
41.315475
21
326.422612
0
LINE
8
Layer 1
10
41.315475
20
326.422612
11
41.581892
21
326.567368
0
LINE
8
Layer 1
10
41.581892
20
326.567368
11
41.870110
21
326.659080
0
LINE
8
Layer 1
10
41.870110
20
326.659080
11
42.170830
21
326.691325
0
LINE
8
Layer 1
10
42.170830
20
326.691325
11
54.075300
21
326.692000
0
LINE
8
Layer 1
10
54.075300
20
326.692000
11
54.075300
21
326.692000
0
LINE
8
Layer 1
10
54.075300
20
326.692000
11
54.377239
21
326.661848
0
LINE
8
Layer 1
10
54.377239
20
326.661848
11
54.667608
21
326.573480
0
LINE
8
Layer 1
10
54.667608
20
326.573480
11
54.932958
21
326.428264
0
LINE
8
Layer 1
10
54.932958
20
326.428264
11
55.164532
21
326.233346
0
LINE
8
Layer 1
10
55.164532
20
326.233346
11
55.355910
21
325.998029
0
LINE
8
Layer 1
10
55.355910
20
325.998029
11
55.500669
21
325.731610
0
LINE
8
Layer 1
10
55.500669
20
325.731610
11
55.592381
21
325.443392
0
LINE
8
Layer 1
10
55.592381
20
325.443392
11
55.624626
21
325.142675
0
LINE
8
Layer 1
10
55.624626
20
325.142675
11
55.624600
21
313.238000
0
LINE
8
Layer 1
10
55.624600
20
313.238000
11
55.624600
21
313.238000
0
LINE
8
Layer 1
10
55.624600
20
313.238000
11
55.594448
21
312.936061
0
LINE
8
Layer 1
10
55.594448
20
312.936061
11
55.506080
21
312.645689
0
LINE
8
Layer 1
10
55.506080
20
312.645689
11
55.360864
21
312.380341
0
LINE
8
Layer 1
10
55.360864
20
312.380341
11
55.165946
21
312.148765
0
LINE
8
Layer 1
10
55.165946
20
312.148765
11
54.930629
21
311.957387
0
LINE
8
Layer 1
10
54.930629
20
311.957387
11
54.664210
21
311.812631
0
LINE
8
Layer 1
10
54.664210
20
311.812631
11
54.375992
21
311.720916
0
LINE
8
Layer 1
10
54.375992
20
311.720916
11
54.075275
21
311.688671
0
LINE
8
Layer 1
10
54.075275
20
311.688671
11
42.170900
21
311.688000
0
LINE
8
Layer 1
10
42.170900
20
311.688000
11
42.170900
21
311.688000
0
LINE
8
Layer 1
10
42.170900
20
311.688000
11
41.868958
21
311.718152
0
LINE
8
Layer 1
10
41.868958
20
311.718152
11
41.578589
21
311.806523
0
LINE
8
Layer 1
10
41.578589
20
311.806523
11
41.313241
21
311.951739
0
LINE
8
Layer 1
10
41.313241
20
311.951739
11
41.081665
21
312.146655
0
LINE
8
Layer 1
10
41.081665
20
312.146655
11
40.890287
21
312.381975
0
LINE
8
Layer 1
10
40.890287
20
312.381975
11
40.745528
21
312.648394
0
LINE
8
Layer 1
10
40.745528
20
312.648394
11
40.653816
21
312.936612
0
LINE
8
Layer 1
10
40.653816
20
312.936612
11
40.621500
21
313.238000
0
LINE
8
Layer 1
10
65.621500
20
238.238000
11
65.621500
21
250.142000
0
LINE
8
Layer 1
10
65.621500
20
250.142000
11
65.621500
21
250.142000
0
LINE
8
Layer 1
10
65.621500
20
250.142000
11
65.651652
21
250.443939
0
LINE
8
Layer 1
10
65.651652
20
250.443939
11
65.740020
21
250.734311
0
LINE
8
Layer 1
10
65.740020
20
250.734311
11
65.885236
21
250.999659
0
LINE
8
Layer 1
10
65.885236
20
250.999659
11
66.080154
21
251.231235
0
LINE
8
Layer 1
10
66.080154
20
251.231235
11
66.315471
21
251.422613
0
LINE
8
Layer 1
10
66.315471
20
251.422613
11
66.581890
21
251.567369
0
LINE
8
Layer 1
10
66.581890
20
251.567369
11
66.870108
21
251.659081
0
LINE
8
Layer 1
10
66.870108
20
251.659081
11
67.170828
21
251.691329
0
LINE
8
Layer 1
10
67.170828
20
251.691329
11
79.075200
21
251.692000
0
LINE
8
Layer 1
10
79.075200
20
251.692000
11
79.075200
21
251.692000
0
LINE
8
Layer 1
10
79.075200
20
251.692000
11
79.377142
21
251.661848
0
LINE
8
Layer 1
10
79.377142
20
251.661848
11
79.667511
21
251.573477
0
LINE
8
Layer 1
10
79.667511
20
251.573477
11
79.932861
21
251.428261
0
LINE
8
Layer 1
10
79.932861
20
251.428261
11
80.164435
21
251.233345
0
LINE
8
Layer 1
10
80.164435
20
251.233345
11
80.355813
21
250.998025
0
LINE
8
Layer 1
10
80.355813
20
250.998025
11
80.500572
21
250.731606
0
LINE
8
Layer 1
10
80.500572
20
250.731606
11
80.592284
21
250.443388
0
LINE
8
Layer 1
10
80.592284
20
250.443388
11
80.624529
21
250.142671
0
LINE
8
Layer 1
10
80.624529
20
250.142671
11
80.624600
21
238.238000
0
LINE
8
Layer 1
10
80.624600
20
238.238000
11
80.624600
21
238.238000
0
LINE
8
Layer 1
10
80.624600
20
238.238000
11
80.594448
21
237.936061
0
LINE
8
Layer 1
10
80.594448
20
237.936061
11
80.506080
21
237.645692
0
LINE
8
Layer 1
10
80.506080
20
237.645692
11
80.360864
21
237.380342
0
LINE
8
Layer 1
10
80.360864
20
237.380342
11
80.165946
21
237.148766
0
LINE
8
Layer 1
10
80.165946
20
237.148766
11
79.930629
21
236.957388
0
LINE
8
Layer 1
10
79.930629
20
236.957388
11
79.664210
21
236.812632
0
LINE
8
Layer 1
10
79.664210
20
236.812632
11
79.375992
21
236.720920
0
LINE
8
Layer 1
10
79.375992
20
236.720920
11
79.075272
21
236.688675
0
LINE
8
Layer 1
10
79.075272
20
236.688675
11
67.170800
21
236.689000
0
LINE
8
Layer 1
10
67.170800
20
236.689000
11
67.170800
21
236.689000
0
LINE
8
Layer 1
10
67.170800
20
236.689000
11
66.868858
21
236.719152
0
LINE
8
Layer 1
10
66.868858
20
236.719152
11
66.578489
21
236.807520
0
LINE
8
Layer 1
10
66.578489
20
236.807520
11
66.313139
21
236.952736
0
LINE
8
Layer 1
10
66.313139
20
236.952736
11
66.081565
21
237.147654
0
LINE
8
Layer 1
10
66.081565
20
237.147654
11
65.890187
21
237.382971
0
LINE
8
Layer 1
10
65.890187
20
237.382971
11
65.745428
21
237.649390
0
LINE
8
Layer 1
10
65.745428
20
237.649390
11
65.653716
21
237.937608
0
LINE
8
Layer 1
10
65.653716
20
237.937608
11
65.621500
21
238.238000
0
LINE
8
Layer 1
10
65.621500
20
263.238000
11
65.621500
21
275.142000
0
LINE
8
Layer 1
10
65.621500
20
275.142000
11
65.621500
21
275.142000
0
LINE
8
Layer 1
10
65.621500
20
275.142000
11
65.651652
21
275.443939
0
LINE
8
Layer 1
10
65.651652
20
275.443939
11
65.740020
21
275.734308
0
LINE
8
Layer 1
10
65.740020
20
275.734308
11
65.885236
21
275.999658
0
LINE
8
Layer 1
10
65.885236
20
275.999658
11
66.080154
21
276.231234
0
LINE
8
Layer 1
10
66.080154
20
276.231234
11
66.315471
21
276.422612
0
LINE
8
Layer 1
10
66.315471
20
276.422612
11
66.581890
21
276.567368
0
LINE
8
Layer 1
10
66.581890
20
276.567368
11
66.870108
21
276.659080
0
LINE
8
Layer 1
10
66.870108
20
276.659080
11
67.170828
21
276.691328
0
LINE
8
Layer 1
10
67.170828
20
276.691328
11
79.075200
21
276.692000
0
LINE
8
Layer 1
10
79.075200
20
276.692000
11
79.075200
21
276.692000
0
LINE
8
Layer 1
10
79.075200
20
276.692000
11
79.377142
21
276.661848
0
LINE
8
Layer 1
10
79.377142
20
276.661848
11
79.667511
21
276.573477
0
LINE
8
Layer 1
10
79.667511
20
276.573477
11
79.932861
21
276.428261
0
LINE
8
Layer 1
10
79.932861
20
276.428261
11
80.164435
21
276.233343
0
LINE
8
Layer 1
10
80.164435
20
276.233343
11
80.355813
21
275.998026
0
LINE
8
Layer 1
10
80.355813
20
275.998026
11
80.500572
21
275.731607
0
LINE
8
Layer 1
10
80.500572
20
275.731607
11
80.592284
21
275.443389
0
LINE
8
Layer 1
10
80.592284
20
275.443389
11
80.624529
21
275.142672
0
LINE
8
Layer 1
10
80.624529
20
275.142672
11
80.624600
21
263.238000
0
LINE
8
Layer 1
10
80.624600
20
263.238000
11
80.624600
21
263.238000
0
LINE
8
Layer 1
10
80.624600
20
263.238000
11
80.594448
21
262.936061
0
LINE
8
Layer 1
10
80.594448
20
262.936061
11
80.506080
21
262.645692
0
LINE
8
Layer 1
10
80.506080
20
262.645692
11
80.360864
21
262.380342
0
LINE
8
Layer 1
10
80.360864
20
262.380342
11
80.165946
21
262.148766
0
LINE
8
Layer 1
10
80.165946
20
262.148766
11
79.930629
21
261.957388
0
LINE
8
Layer 1
10
79.930629
20
261.957388
11
79.664210
21
261.812632
0
LINE
8
Layer 1
10
79.664210
20
261.812632
11
79.375992
21
261.720920
0
LINE
8
Layer 1
10
79.375992
20
261.720920
11
79.075272
21
261.688672
0
LINE
8
Layer 1
10
79.075272
20
261.688672
11
67.170800
21
261.689000
0
LINE
8
Layer 1
10
67.170800
20
261.689000
11
67.170800
21
261.689000
0
LINE
8
Layer 1
10
67.170800
20
261.689000
11
66.868858
21
261.719152
0
LINE
8
Layer 1
10
66.868858
20
261.719152
11
66.578489
21
261.807523
0
LINE
8
Layer 1
10
66.578489
20
261.807523
11
66.313139
21
261.952739
0
LINE
8
Layer 1
10
66.313139
20
261.952739
11
66.081565
21
262.147657
0
LINE
8
Layer 1
10
66.081565
20
262.147657
11
65.890187
21
262.382974
0
LINE
8
Layer 1
10
65.890187
20
262.382974
11
65.745428
21
262.649393
0
LINE
8
Layer 1
10
65.745428
20
262.649393
11
65.653716
21
262.937611
0
LINE
8
Layer 1
10
65.653716
20
262.937611
11
65.621500
21
263.238000
0
LINE
8
Layer 1
10
65.621500
20
288.238000
11
65.621500
21
300.142000
0
LINE
8
Layer 1
10
65.621500
20
300.142000
11
65.621500
21
300.142000
0
LINE
8
Layer 1
10
65.621500
20
300.142000
11
65.651652
21
300.443939
0
LINE
8
Layer 1
10
65.651652
20
300.443939
11
65.740020
21
300.734308
0
LINE
8
Layer 1
10
65.740020
20
300.734308
11
65.885236
21
300.999658
0
LINE
8
Layer 1
10
65.885236
20
300.999658
11
66.080154
21
301.231234
0
LINE
8
Layer 1
10
66.080154
20
301.231234
11
66.315471
21
301.422612
0
LINE
8
Layer 1
10
66.315471
20
301.422612
11
66.581890
21
301.567368
0
LINE
8
Layer 1
10
66.581890
20
301.567368
11
66.870108
21
301.659080
0
LINE
8
Layer 1
10
66.870108
20
301.659080
11
67.170828
21
301.691325
0
LINE
8
Layer 1
10
67.170828
20
301.691325
11
79.075200
21
301.692000
0
LINE
8
Layer 1
10
79.075200
20
301.692000
11
79.075200
21
301.692000
0
LINE
8
Layer 1
10
79.075200
20
301.692000
11
79.377142
21
301.661848
0
LINE
8
Layer 1
10
79.377142
20
301.661848
11
79.667511
21
301.573480
0
LINE
8
Layer 1
10
79.667511
20
301.573480
11
79.932861
21
301.428264
0
LINE
8
Layer 1
10
79.932861
20
301.428264
11
80.164435
21
301.233346
0
LINE
8
Layer 1
10
80.164435
20
301.233346
11
80.355813
21
300.998029
0
LINE
8
Layer 1
10
80.355813
20
300.998029
11
80.500572
21
300.731610
0
LINE
8
Layer 1
10
80.500572
20
300.731610
11
80.592284
21
300.443392
0
LINE
8
Layer 1
10
80.592284
20
300.443392
11
80.624529
21
300.142675
0
LINE
8
Layer 1
10
80.624529
20
300.142675
11
80.624600
21
288.238000
0
LINE
8
Layer 1
10
80.624600
20
288.238000
11
80.624600
21
288.238000
0
LINE
8
Layer 1
10
80.624600
20
288.238000
11
80.594448
21
287.936061
0
LINE
8
Layer 1
10
80.594448
20
287.936061
11
80.506080
21
287.645692
0
LINE
8
Layer 1
10
80.506080
20
287.645692
11
80.360864
21
287.380342
0
LINE
8
Layer 1
10
80.360864
20
287.380342
11
80.165946
21
287.148766
0
LINE
8
Layer 1
10
80.165946
20
287.148766
11
79.930629
21
286.957388
0
LINE
8
Layer 1
10
79.930629
20
286.957388
11
79.664210
21
286.812632
0
LINE
8
Layer 1
10
79.664210
20
286.812632
11
79.375992
21
286.720920
0
LINE
8
Layer 1
10
79.375992
20
286.720920
11
79.075272
21
286.688672
0
LINE
8
Layer 1
10
79.075272
20
286.688672
11
67.170800
21
286.689000
0
LINE
8
Layer 1
10
67.170800
20
286.689000
11
67.170800
21
286.689000
0
LINE
8
Layer 1
10
67.170800
20
286.689000
11
66.868858
21
286.719152
0
LINE
8
Layer 1
10
66.868858
20
286.719152
11
66.578489
21
286.807523
0
LINE
8
Layer 1
10
66.578489
20
286.807523
11
66.313139
21
286.952739
0
LINE
8
Layer 1
10
66.313139
20
286.952739
11
66.081565
21
287.147655
0
LINE
8
Layer 1
10
66.081565
20
287.147655
11
65.890187
21
287.382975
0
LINE
8
Layer 1
10
65.890187
20
287.382975
11
65.745428
21
287.649394
0
LINE
8
Layer 1
10
65.745428
20
287.649394
11
65.653716
21
287.937612
0
LINE
8
Layer 1
10
65.653716
20
287.937612
11
65.621500
21
288.238000
0
LINE
8
Layer 1
10
65.621500
20
313.238000
11
65.621500
21
325.142000
0
LINE
8
Layer 1
10
65.621500
20
325.142000
11
65.621500
21
325.142000
0
LINE
8
Layer 1
10
65.621500
20
325.142000
11
65.651652
21
325.443939
0
LINE
8
Layer 1
10
65.651652
20
325.443939
11
65.740020
21
325.734308
0
LINE
8
Layer 1
10
65.740020
20
325.734308
11
65.885236
21
325.999658
0
LINE
8
Layer 1
10
65.885236
20
325.999658
11
66.080154
21
326.231234
0
LINE
8
Layer 1
10
66.080154
20
326.231234
11
66.315471
21
326.422612
0
LINE
8
Layer 1
10
66.315471
20
326.422612
11
66.581890
21
326.567368
0
LINE
8
Layer 1
10
66.581890
20
326.567368
11
66.870108
21
326.659080
0
LINE
8
Layer 1
10
66.870108
20
326.659080
11
67.170828
21
326.691325
0
LINE
8
Layer 1
10
67.170828
20
326.691325
11
79.075200
21
326.692000
0
LINE
8
Layer 1
10
79.075200
20
326.692000
11
79.075200
21
326.692000
0
LINE
8
Layer 1
10
79.075200
20
326.692000
11
79.377142
21
326.661848
0
LINE
8
Layer 1
10
79.377142
20
326.661848
11
79.667511
21
326.573480
0
LINE
8
Layer 1
10
79.667511
20
326.573480
11
79.932861
21
326.428264
0
LINE
8
Layer 1
10
79.932861
20
326.428264
11
80.164435
21
326.233346
0
LINE
8
Layer 1
10
80.164435
20
326.233346
11
80.355813
21
325.998029
0
LINE
8
Layer 1
10
80.355813
20
325.998029
11
80.500572
21
325.731610
0
LINE
8
Layer 1
10
80.500572
20
325.731610
11
80.592284
21
325.443392
0
LINE
8
Layer 1
10
80.592284
20
325.443392
11
80.624529
21
325.142675
0
LINE
8
Layer 1
10
80.624529
20
325.142675
11
80.624600
21
313.238000
0
LINE
8
Layer 1
10
80.624600
20
313.238000
11
80.624600
21
313.238000
0
LINE
8
Layer 1
10
80.624600
20
313.238000
11
80.594448
21
312.936061
0
LINE
8
Layer 1
10
80.594448
20
312.936061
11
80.506080
21
312.645689
0
LINE
8
Layer 1
10
80.506080
20
312.645689
11
80.360864
21
312.380341
0
LINE
8
Layer 1
10
80.360864
20
312.380341
11
80.165946
21
312.148765
0
LINE
8
Layer 1
10
80.165946
20
312.148765
11
79.930629
21
311.957387
0
LINE
8
Layer 1
10
79.930629
20
311.957387
11
79.664210
21
311.812631
0
LINE
8
Layer 1
10
79.664210
20
311.812631
11
79.375992
21
311.720916
0
LINE
8
Layer 1
10
79.375992
20
311.720916
11
79.075272
21
311.688671
0
LINE
8
Layer 1
10
79.075272
20
311.688671
11
67.170800
21
311.688000
0
LINE
8
Layer 1
10
67.170800
20
311.688000
11
67.170800
21
311.688000
0
LINE
8
Layer 1
10
67.170800
20
311.688000
11
66.868858
21
311.718152
0
LINE
8
Layer 1
10
66.868858
20
311.718152
11
66.578489
21
311.806523
0
LINE
8
Layer 1
10
66.578489
20
311.806523
11
66.313139
21
311.951739
0
LINE
8
Layer 1
10
66.313139
20
311.951739
11
66.081565
21
312.146655
0
LINE
8
Layer 1
10
66.081565
20
312.146655
11
65.890187
21
312.381975
0
LINE
8
Layer 1
10
65.890187
20
312.381975
11
65.745428
21
312.648394
0
LINE
8
Layer 1
10
65.745428
20
312.648394
11
65.653716
21
312.936612
0
LINE
8
Layer 1
10
65.653716
20
312.936612
11
65.621500
21
313.238000
0
LINE
8
Layer 1
10
90.621500
20
238.238000
11
90.621500
21
250.142000
0
LINE
8
Layer 1
10
90.621500
20
250.142000
11
90.621500
21
250.142000
0
LINE
8
Layer 1
10
90.621500
20
250.142000
11
90.651652
21
250.443939
0
LINE
8
Layer 1
10
90.651652
20
250.443939
11
90.740020
21
250.734311
0
LINE
8
Layer 1
10
90.740020
20
250.734311
11
90.885236
21
250.999659
0
LINE
8
Layer 1
10
90.885236
20
250.999659
11
91.080154
21
251.231235
0
LINE
8
Layer 1
10
91.080154
20
251.231235
11
91.315471
21
251.422613
0
LINE
8
Layer 1
10
91.315471
20
251.422613
11
91.581890
21
251.567369
0
LINE
8
Layer 1
10
91.581890
20
251.567369
11
91.870108
21
251.659081
0
LINE
8
Layer 1
10
91.870108
20
251.659081
11
92.170825
21
251.691329
0
LINE
8
Layer 1
10
92.170825
20
251.691329
11
104.075000
21
251.692000
0
LINE
8
Layer 1
10
104.075000
20
251.692000
11
104.075000
21
251.692000
0
LINE
8
Layer 1
10
104.075000
20
251.692000
11
104.376942
21
251.661848
0
LINE
8
Layer 1
10
104.376942
20
251.661848
11
104.667311
21
251.573477
0
LINE
8
Layer 1
10
104.667311
20
251.573477
11
104.932659
21
251.428261
0
LINE
8
Layer 1
10
104.932659
20
251.428261
11
105.164235
21
251.233345
0
LINE
8
Layer 1
10
105.164235
20
251.233345
11
105.355613
21
250.998025
0
LINE
8
Layer 1
10
105.355613
20
250.998025
11
105.500372
21
250.731606
0
LINE
8
Layer 1
10
105.500372
20
250.731606
11
105.592084
21
250.443388
0
LINE
8
Layer 1
10
105.592084
20
250.443388
11
105.624329
21
250.142671
0
LINE
8
Layer 1
10
105.624329
20
250.142671
11
105.625000
21
238.238000
0
LINE
8
Layer 1
10
105.625000
20
238.238000
11
105.625000
21
238.238000
0
LINE
8
Layer 1
10
105.625000
20
238.238000
11
105.594848
21
237.936061
0
LINE
8
Layer 1
10
105.594848
20
237.936061
11
105.506477
21
237.645692
0
LINE
8
Layer 1
10
105.506477
20
237.645692
11
105.361263
21
237.380342
0
LINE
8
Layer 1
10
105.361263
20
237.380342
11
105.166345
21
237.148766
0
LINE
8
Layer 1
10
105.166345
20
237.148766
11
104.931025
21
236.957388
0
LINE
8
Layer 1
10
104.931025
20
236.957388
11
104.664608
21
236.812632
0
LINE
8
Layer 1
10
104.664608
20
236.812632
11
104.376390
21
236.720920
0
LINE
8
Layer 1
10
104.376390
20
236.720920
11
104.075670
21
236.688675
0
LINE
8
Layer 1
10
104.075670
20
236.688675
11
92.170800
21
236.689000
0
LINE
8
Layer 1
10
92.170800
20
236.689000
11
92.170800
21
236.689000
0
LINE
8
Layer 1
10
92.170800
20
236.689000
11
91.868861
21
236.719152
0
LINE
8
Layer 1
10
91.868861
20
236.719152
11
91.578492
21
236.807520
0
LINE
8
Layer 1
10
91.578492
20
236.807520
11
91.313142
21
236.952736
0
LINE
8
Layer 1
10
91.313142
20
236.952736
11
91.081568
21
237.147654
0
LINE
8
Layer 1
10
91.081568
20
237.147654
11
90.890190
21
237.382971
0
LINE
8
Layer 1
10
90.890190
20
237.382971
11
90.745431
21
237.649390
0
LINE
8
Layer 1
10
90.745431
20
237.649390
11
90.653719
21
237.937608
0
LINE
8
Layer 1
10
90.653719
20
237.937608
11
90.621500
21
238.238000
0
LINE
8
Layer 1
10
90.621500
20
263.238000
11
90.621500
21
275.142000
0
LINE
8
Layer 1
10
90.621500
20
275.142000
11
90.621500
21
275.142000
0
LINE
8
Layer 1
10
90.621500
20
275.142000
11
90.651652
21
275.443939
0
LINE
8
Layer 1
10
90.651652
20
275.443939
11
90.740020
21
275.734308
0
LINE
8
Layer 1
10
90.740020
20
275.734308
11
90.885236
21
275.999658
0
LINE
8
Layer 1
10
90.885236
20
275.999658
11
91.080154
21
276.231234
0
LINE
8
Layer 1
10
91.080154
20
276.231234
11
91.315471
21
276.422612
0
LINE
8
Layer 1
10
91.315471
20
276.422612
11
91.581890
21
276.567368
0
LINE
8
Layer 1
10
91.581890
20
276.567368
11
91.870108
21
276.659080
0
LINE
8
Layer 1
10
91.870108
20
276.659080
11
92.170825
21
276.691328
0
LINE
8
Layer 1
10
92.170825
20
276.691328
11
104.075000
21
276.692000
0
LINE
8
Layer 1
10
104.075000
20
276.692000
11
104.075000
21
276.692000
0
LINE
8
Layer 1
10
104.075000
20
276.692000
11
104.376942
21
276.661848
0
LINE
8
Layer 1
10
104.376942
20
276.661848
11
104.667311
21
276.573477
0
LINE
8
Layer 1
10
104.667311
20
276.573477
11
104.932659
21
276.428261
0
LINE
8
Layer 1
10
104.932659
20
276.428261
11
105.164235
21
276.233343
0
LINE
8
Layer 1
10
105.164235
20
276.233343
11
105.355613
21
275.998026
0
LINE
8
Layer 1
10
105.355613
20
275.998026
11
105.500372
21
275.731607
0
LINE
8
Layer 1
10
105.500372
20
275.731607
11
105.592084
21
275.443389
0
LINE
8
Layer 1
10
105.592084
20
275.443389
11
105.624329
21
275.142672
0
LINE
8
Layer 1
10
105.624329
20
275.142672
11
105.625000
21
263.238000
0
LINE
8
Layer 1
10
105.625000
20
263.238000
11
105.625000
21
263.238000
0
LINE
8
Layer 1
10
105.625000
20
263.238000
11
105.594848
21
262.936061
0
LINE
8
Layer 1
10
105.594848
20
262.936061
11
105.506477
21
262.645692
0
LINE
8
Layer 1
10
105.506477
20
262.645692
11
105.361263
21
262.380342
0
LINE
8
Layer 1
10
105.361263
20
262.380342
11
105.166345
21
262.148766
0
LINE
8
Layer 1
10
105.166345
20
262.148766
11
104.931025
21
261.957388
0
LINE
8
Layer 1
10
104.931025
20
261.957388
11
104.664608
21
261.812632
0
LINE
8
Layer 1
10
104.664608
20
261.812632
11
104.376390
21
261.720920
0
LINE
8
Layer 1
10
104.376390
20
261.720920
11
104.075670
21
261.688672
0
LINE
8
Layer 1
10
104.075670
20
261.688672
11
92.170800
21
261.689000
0
LINE
8
Layer 1
10
92.170800
20
261.689000
11
92.170800
21
261.689000
0
LINE
8
Layer 1
10
92.170800
20
261.689000
11
91.868861
21
261.719152
0
LINE
8
Layer 1
10
91.868861
20
261.719152
11
91.578492
21
261.807523
0
LINE
8
Layer 1
10
91.578492
20
261.807523
11
91.313142
21
261.952739
0
LINE
8
Layer 1
10
91.313142
20
261.952739
11
91.081568
21
262.147657
0
LINE
8
Layer 1
10
91.081568
20
262.147657
11
90.890190
21
262.382974
0
LINE
8
Layer 1
10
90.890190
20
262.382974
11
90.745431
21
262.649393
0
LINE
8
Layer 1
10
90.745431
20
262.649393
11
90.653719
21
262.937611
0
LINE
8
Layer 1
10
90.653719
20
262.937611
11
90.621500
21
263.238000
0
LINE
8
Layer 1
10
90.621500
20
288.238000
11
90.621500
21
300.142000
0
LINE
8
Layer 1
10
90.621500
20
300.142000
11
90.621500
21
300.142000
0
LINE
8
Layer 1
10
90.621500
20
300.142000
11
90.651652
21
300.443939
0
LINE
8
Layer 1
10
90.651652
20
300.443939
11
90.740020
21
300.734308
0
LINE
8
Layer 1
10
90.740020
20
300.734308
11
90.885236
21
300.999658
0
LINE
8
Layer 1
10
90.885236
20
300.999658
11
91.080154
21
301.231234
0
LINE
8
Layer 1
10
91.080154
20
301.231234
11
91.315471
21
301.422612
0
LINE
8
Layer 1
10
91.315471
20
301.422612
11
91.581890
21
301.567368
0
LINE
8
Layer 1
10
91.581890
20
301.567368
11
91.870108
21
301.659080
0
LINE
8
Layer 1
10
91.870108
20
301.659080
11
92.170825
21
301.691325
0
LINE
8
Layer 1
10
92.170825
20
301.691325
11
104.075000
21
301.692000
0
LINE
8
Layer 1
10
104.075000
20
301.692000
11
104.075000
21
301.692000
0
LINE
8
Layer 1
10
104.075000
20
301.692000
11
104.376942
21
301.661848
0
LINE
8
Layer 1
10
104.376942
20
301.661848
11
104.667311
21
301.573480
0
LINE
8
Layer 1
10
104.667311
20
301.573480
11
104.932659
21
301.428264
0
LINE
8
Layer 1
10
104.932659
20
301.428264
11
105.164235
21
301.233346
0
LINE
8
Layer 1
10
105.164235
20
301.233346
11
105.355613
21
300.998029
0
LINE
8
Layer 1
10
105.355613
20
300.998029
11
105.500372
21
300.731610
0
LINE
8
Layer 1
10
105.500372
20
300.731610
11
105.592084
21
300.443392
0
LINE
8
Layer 1
10
105.592084
20
300.443392
11
105.624329
21
300.142675
0
LINE
8
Layer 1
10
105.624329
20
300.142675
11
105.625000
21
288.238000
0
LINE
8
Layer 1
10
105.625000
20
288.238000
11
105.625000
21
288.238000
0
LINE
8
Layer 1
10
105.625000
20
288.238000
11
105.594848
21
287.936061
0
LINE
8
Layer 1
10
105.594848
20
287.936061
11
105.506477
21
287.645692
0
LINE
8
Layer 1
10
105.506477
20
287.645692
11
105.361263
21
287.380342
0
LINE
8
Layer 1
10
105.361263
20
287.380342
11
105.166345
21
287.148766
0
LINE
8
Layer 1
10
105.166345
20
287.148766
11
104.931025
21
286.957388
0
LINE
8
Layer 1
10
104.931025
20
286.957388
11
104.664608
21
286.812632
0
LINE
8
Layer 1
10
104.664608
20
286.812632
11
104.376390
21
286.720920
0
LINE
8
Layer 1
10
104.376390
20
286.720920
11
104.075670
21
286.688672
0
LINE
8
Layer 1
10
104.075670
20
286.688672
11
92.170800
21
286.689000
0
LINE
8
Layer 1
10
92.170800
20
286.689000
11
92.170800
21
286.689000
0
LINE
8
Layer 1
10
92.170800
20
286.689000
11
91.868861
21
286.719152
0
LINE
8
Layer 1
10
91.868861
20
286.719152
11
91.578492
21
286.807523
0
LINE
8
Layer 1
10
91.578492
20
286.807523
11
91.313142
21
286.952739
0
LINE
8
Layer 1
10
91.313142
20
286.952739
11
91.081568
21
287.147655
0
LINE
8
Layer 1
10
91.081568
20
287.147655
11
90.890190
21
287.382975
0
LINE
8
Layer 1
10
90.890190
20
287.382975
11
90.745431
21
287.649394
0
LINE
8
Layer 1
10
90.745431
20
287.649394
11
90.653719
21
287.937612
0
LINE
8
Layer 1
10
90.653719
20
287.937612
11
90.621500
21
288.238000
0
LINE
8
Layer 1
10
154.075000
20
236.689000
11
142.171000
21
236.689000
0
LINE
8
Layer 1
10
142.171000
20
236.689000
11
142.171000
21
236.689000
0
LINE
8
Layer 1
10
142.171000
20
236.689000
11
141.869061
21
236.719152
0
LINE
8
Layer 1
10
141.869061
20
236.719152
11
141.578692
21
236.807523
0
LINE
8
Layer 1
10
141.578692
20
236.807523
11
141.313342
21
236.952739
0
LINE
8
Layer 1
10
141.313342
20
236.952739
11
141.081766
21
237.147655
0
LINE
8
Layer 1
10
141.081766
20
237.147655
11
140.890388
21
237.382975
0
LINE
8
Layer 1
10
140.890388
20
237.382975
11
140.745632
21
237.649394
0
LINE
8
Layer 1
10
140.745632
20
237.649394
11
140.653920
21
237.937612
0
LINE
8
Layer 1
10
140.653920
20
237.937612
11
140.621675
21
238.238329
0
LINE
8
Layer 1
10
140.621675
20
238.238329
11
140.621000
21
250.142000
0
LINE
8
Layer 1
10
140.621000
20
250.142000
11
140.621000
21
250.142000
0
LINE
8
Layer 1
10
140.621000
20
250.142000
11
140.651152
21
250.443939
0
LINE
8
Layer 1
10
140.651152
20
250.443939
11
140.739520
21
250.734308
0
LINE
8
Layer 1
10
140.739520
20
250.734308
11
140.884736
21
250.999658
0
LINE
8
Layer 1
10
140.884736
20
250.999658
11
141.079654
21
251.231234
0
LINE
8
Layer 1
10
141.079654
20
251.231234
11
141.314971
21
251.422612
0
LINE
8
Layer 1
10
141.314971
20
251.422612
11
141.581390
21
251.567368
0
LINE
8
Layer 1
10
141.581390
20
251.567368
11
141.869608
21
251.659080
0
LINE
8
Layer 1
10
141.869608
20
251.659080
11
142.170325
21
251.691325
0
LINE
8
Layer 1
10
142.170325
20
251.691325
11
154.075000
21
251.692000
0
LINE
8
Layer 1
10
154.075000
20
251.692000
11
154.075000
21
251.692000
0
LINE
8
Layer 1
10
154.075000
20
251.692000
11
154.376939
21
251.661848
0
LINE
8
Layer 1
10
154.376939
20
251.661848
11
154.667311
21
251.573480
0
LINE
8
Layer 1
10
154.667311
20
251.573480
11
154.932659
21
251.428264
0
LINE
8
Layer 1
10
154.932659
20
251.428264
11
155.164235
21
251.233346
0
LINE
8
Layer 1
10
155.164235
20
251.233346
11
155.355613
21
250.998029
0
LINE
8
Layer 1
10
155.355613
20
250.998029
11
155.500369
21
250.731610
0
LINE
8
Layer 1
10
155.500369
20
250.731610
11
155.592084
21
250.443392
0
LINE
8
Layer 1
10
155.592084
20
250.443392
11
155.624329
21
250.142675
0
LINE
8
Layer 1
10
155.624329
20
250.142675
11
155.624000
21
238.238000
0
LINE
8
Layer 1
10
155.624000
20
238.238000
11
155.624000
21
238.238000
0
LINE
8
Layer 1
10
155.624000
20
238.238000
11
155.593848
21
237.936061
0
LINE
8
Layer 1
10
155.593848
20
237.936061
11
155.505477
21
237.645689
0
LINE
8
Layer 1
10
155.505477
20
237.645689
11
155.360261
21
237.380341
0
LINE
8
Layer 1
10
155.360261
20
237.380341
11
155.165345
21
237.148765
0
LINE
8
Layer 1
10
155.165345
20
237.148765
11
154.930025
21
236.957387
0
LINE
8
Layer 1
10
154.930025
20
236.957387
11
154.663606
21
236.812631
0
LINE
8
Layer 1
10
154.663606
20
236.812631
11
154.375388
21
236.720916
0
LINE
8
Layer 1
10
154.375388
20
236.720916
11
154.075000
21
236.689000
0
LINE
8
Layer 1
10
154.075000
20
261.689000
11
142.171000
21
261.689000
0
LINE
8
Layer 1
10
142.171000
20
261.689000
11
142.171000
21
261.689000
0
LINE
8
Layer 1
10
142.171000
20
261.689000
11
141.869061
21
261.719152
0
LINE
8
Layer 1
10
141.869061
20
261.719152
11
141.578692
21
261.807523
0
LINE
8
Layer 1
10
141.578692
20
261.807523
11
141.313342
21
261.952737
0
LINE
8
Layer 1
10
141.313342
20
261.952737
11
141.081766
21
262.147655
0
LINE
8
Layer 1
10
141.081766
20
262.147655
11
140.890388
21
262.382975
0
LINE
8
Layer 1
10
140.890388
20
262.382975
11
140.745632
21
262.649392
0
LINE
8
Layer 1
10
140.745632
20
262.649392
11
140.653920
21
262.937613
0
LINE
8
Layer 1
10
140.653920
20
262.937613
11
140.621675
21
263.238330
0
LINE
8
Layer 1
10
140.621675
20
263.238330
11
140.621000
21
275.142000
0
LINE
8
Layer 1
10
140.621000
20
275.142000
11
140.621000
21
275.142000
0
LINE
8
Layer 1
10
140.621000
20
275.142000
11
140.651152
21
275.443939
0
LINE
8
Layer 1
10
140.651152
20
275.443939
11
140.739520
21
275.734308
0
LINE
8
Layer 1
10
140.739520
20
275.734308
11
140.884736
21
275.999658
0
LINE
8
Layer 1
10
140.884736
20
275.999658
11
141.079654
21
276.231232
0
LINE
8
Layer 1
10
141.079654
20
276.231232
11
141.314971
21
276.422610
0
LINE
8
Layer 1
10
141.314971
20
276.422610
11
141.581390
21
276.567369
0
LINE
8
Layer 1
10
141.581390
20
276.567369
11
141.869608
21
276.659081
0
LINE
8
Layer 1
10
141.869608
20
276.659081
11
142.170325
21
276.691326
0
LINE
8
Layer 1
10
142.170325
20
276.691326
11
154.075000
21
276.692000
0
LINE
8
Layer 1
10
154.075000
20
276.692000
11
154.075000
21
276.692000
0
LINE
8
Layer 1
10
154.075000
20
276.692000
11
154.376939
21
276.661848
0
LINE
8
Layer 1
10
154.376939
20
276.661848
11
154.667311
21
276.573480
0
LINE
8
Layer 1
10
154.667311
20
276.573480
11
154.932659
21
276.428264
0
LINE
8
Layer 1
10
154.932659
20
276.428264
11
155.164235
21
276.233346
0
LINE
8
Layer 1
10
155.164235
20
276.233346
11
155.355613
21
275.998029
0
LINE
8
Layer 1
10
155.355613
20
275.998029
11
155.500369
21
275.731610
0
LINE
8
Layer 1
10
155.500369
20
275.731610
11
155.592084
21
275.443392
0
LINE
8
Layer 1
10
155.592084
20
275.443392
11
155.624329
21
275.142675
0
LINE
8
Layer 1
10
155.624329
20
275.142675
11
155.624000
21
263.238000
0
LINE
8
Layer 1
10
155.624000
20
263.238000
11
155.624000
21
263.238000
0
LINE
8
Layer 1
10
155.624000
20
263.238000
11
155.593848
21
262.936058
0
LINE
8
Layer 1
10
155.593848
20
262.936058
11
155.505477
21
262.645689
0
LINE
8
Layer 1
10
155.505477
20
262.645689
11
155.360261
21
262.380341
0
LINE
8
Layer 1
10
155.360261
20
262.380341
11
155.165345
21
262.148765
0
LINE
8
Layer 1
10
155.165345
20
262.148765
11
154.930025
21
261.957387
0
LINE
8
Layer 1
10
154.930025
20
261.957387
11
154.663606
21
261.812631
0
LINE
8
Layer 1
10
154.663606
20
261.812631
11
154.375388
21
261.720916
0
LINE
8
Layer 1
10
154.375388
20
261.720916
11
154.075000
21
261.689000
0
LINE
8
Layer 1
10
154.075000
20
286.688000
11
142.171000
21
286.688000
0
LINE
8
Layer 1
10
142.171000
20
286.688000
11
142.171000
21
286.688000
0
LINE
8
Layer 1
10
142.171000
20
286.688000
11
141.869061
21
286.718152
0
LINE
8
Layer 1
10
141.869061
20
286.718152
11
141.578692
21
286.806523
0
LINE
8
Layer 1
10
141.578692
20
286.806523
11
141.313342
21
286.951737
0
LINE
8
Layer 1
10
141.313342
20
286.951737
11
141.081766
21
287.146655
0
LINE
8
Layer 1
10
141.081766
20
287.146655
11
140.890388
21
287.381975
0
LINE
8
Layer 1
10
140.890388
20
287.381975
11
140.745632
21
287.648392
0
LINE
8
Layer 1
10
140.745632
20
287.648392
11
140.653920
21
287.936610
0
LINE
8
Layer 1
10
140.653920
20
287.936610
11
140.621675
21
288.237330
0
LINE
8
Layer 1
10
140.621675
20
288.237330
11
140.621000
21
300.142000
0
LINE
8
Layer 1
10
140.621000
20
300.142000
11
140.621000
21
300.142000
0
LINE
8
Layer 1
10
140.621000
20
300.142000
11
140.651152
21
300.443939
0
LINE
8
Layer 1
10
140.651152
20
300.443939
11
140.739520
21
300.734308
0
LINE
8
Layer 1
10
140.739520
20
300.734308
11
140.884736
21
300.999658
0
LINE
8
Layer 1
10
140.884736
20
300.999658
11
141.079654
21
301.231232
0
LINE
8
Layer 1
10
141.079654
20
301.231232
11
141.314971
21
301.422610
0
LINE
8
Layer 1
10
141.314971
20
301.422610
11
141.581390
21
301.567369
0
LINE
8
Layer 1
10
141.581390
20
301.567369
11
141.869608
21
301.659081
0
LINE
8
Layer 1
10
141.869608
20
301.659081
11
142.170325
21
301.691326
0
LINE
8
Layer 1
10
142.170325
20
301.691326
11
154.075000
21
301.692000
0
LINE
8
Layer 1
10
154.075000
20
301.692000
11
154.075000
21
301.692000
0
LINE
8
Layer 1
10
154.075000
20
301.692000
11
154.376939
21
301.661848
0
LINE
8
Layer 1
10
154.376939
20
301.661848
11
154.667311
21
301.573480
0
LINE
8
Layer 1
10
154.667311
20
301.573480
11
154.932659
21
301.428264
0
LINE
8
Layer 1
10
154.932659
20
301.428264
11
155.164235
21
301.233346
0
LINE
8
Layer 1
10
155.164235
20
301.233346
11
155.355613
21
300.998029
0
LINE
8
Layer 1
10
155.355613
20
300.998029
11
155.500369
21
300.731610
0
LINE
8
Layer 1
10
155.500369
20
300.731610
11
155.592084
21
300.443392
0
LINE
8
Layer 1
10
155.592084
20
300.443392
11
155.624329
21
300.142675
0
LINE
8
Layer 1
10
155.624329
20
300.142675
11
155.624000
21
288.238000
0
LINE
8
Layer 1
10
155.624000
20
288.238000
11
155.624000
21
288.238000
0
LINE
8
Layer 1
10
155.624000
20
288.238000
11
155.593848
21
287.936058
0
LINE
8
Layer 1
10
155.593848
20
287.936058
11
155.505477
21
287.645689
0
LINE
8
Layer 1
10
155.505477
20
287.645689
11
155.360261
21
287.380341
0
LINE
8
Layer 1
10
155.360261
20
287.380341
11
155.165345
21
287.148765
0
LINE
8
Layer 1
10
155.165345
20
287.148765
11
154.930025
21
286.957387
0
LINE
8
Layer 1
10
154.930025
20
286.957387
11
154.663606
21
286.812628
0
LINE
8
Layer 1
10
154.663606
20
286.812628
11
154.375388
21
286.720916
0
LINE
8
Layer 1
10
154.375388
20
286.720916
11
154.075000
21
286.688000
0
LINE
8
Layer 1
10
154.075000
20
311.688000
11
142.171000
21
311.688000
0
LINE
8
Layer 1
10
142.171000
20
311.688000
11
142.171000
21
311.688000
0
LINE
8
Layer 1
10
142.171000
20
311.688000
11
141.869061
21
311.718152
0
LINE
8
Layer 1
10
141.869061
20
311.718152
11
141.578692
21
311.806520
0
LINE
8
Layer 1
10
141.578692
20
311.806520
11
141.313342
21
311.951736
0
LINE
8
Layer 1
10
141.313342
20
311.951736
11
141.081766
21
312.146654
0
LINE
8
Layer 1
10
141.081766
20
312.146654
11
140.890388
21
312.381971
0
LINE
8
Layer 1
10
140.890388
20
312.381971
11
140.745632
21
312.648390
0
LINE
8
Layer 1
10
140.745632
20
312.648390
11
140.653920
21
312.936608
0
LINE
8
Layer 1
10
140.653920
20
312.936608
11
140.621675
21
313.237328
0
LINE
8
Layer 1
10
140.621675
20
313.237328
11
140.621000
21
325.142000
0
LINE
8
Layer 1
10
140.621000
20
325.142000
11
140.621000
21
325.142000
0
LINE
8
Layer 1
10
140.621000
20
325.142000
11
140.651152
21
325.443942
0
LINE
8
Layer 1
10
140.651152
20
325.443942
11
140.739520
21
325.734311
0
LINE
8
Layer 1
10
140.739520
20
325.734311
11
140.884736
21
325.999661
0
LINE
8
Layer 1
10
140.884736
20
325.999661
11
141.079654
21
326.231235
0
LINE
8
Layer 1
10
141.079654
20
326.231235
11
141.314971
21
326.422613
0
LINE
8
Layer 1
10
141.314971
20
326.422613
11
141.581390
21
326.567372
0
LINE
8
Layer 1
10
141.581390
20
326.567372
11
141.869608
21
326.659084
0
LINE
8
Layer 1
10
141.869608
20
326.659084
11
142.170325
21
326.691329
0
LINE
8
Layer 1
10
142.170325
20
326.691329
11
154.075000
21
326.691000
0
LINE
8
Layer 1
10
154.075000
20
326.691000
11
154.075000
21
326.691000
0
LINE
8
Layer 1
10
154.075000
20
326.691000
11
154.376939
21
326.660848
0
LINE
8
Layer 1
10
154.376939
20
326.660848
11
154.667311
21
326.572480
0
LINE
8
Layer 1
10
154.667311
20
326.572480
11
154.932659
21
326.427264
0
LINE
8
Layer 1
10
154.932659
20
326.427264
11
155.164235
21
326.232346
0
LINE
8
Layer 1
10
155.164235
20
326.232346
11
155.355613
21
325.997029
0
LINE
8
Layer 1
10
155.355613
20
325.997029
11
155.500369
21
325.730610
0
LINE
8
Layer 1
10
155.500369
20
325.730610
11
155.592084
21
325.442392
0
LINE
8
Layer 1
10
155.592084
20
325.442392
11
155.624329
21
325.141672
0
LINE
8
Layer 1
10
155.624329
20
325.141672
11
155.624000
21
313.238000
0
LINE
8
Layer 1
10
155.624000
20
313.238000
11
155.624000
21
313.238000
0
LINE
8
Layer 1
10
155.624000
20
313.238000
11
155.593848
21
312.936058
0
LINE
8
Layer 1
10
155.593848
20
312.936058
11
155.505477
21
312.645689
0
LINE
8
Layer 1
10
155.505477
20
312.645689
11
155.360261
21
312.380339
0
LINE
8
Layer 1
10
155.360261
20
312.380339
11
155.165345
21
312.148765
0
LINE
8
Layer 1
10
155.165345
20
312.148765
11
154.930025
21
311.957387
0
LINE
8
Layer 1
10
154.930025
20
311.957387
11
154.663606
21
311.812628
0
LINE
8
Layer 1
10
154.663606
20
311.812628
11
154.375388
21
311.720916
0
LINE
8
Layer 1
10
154.375388
20
311.720916
11
154.075000
21
311.688000
0
LINE
8
Layer 1
10
179.075000
20
236.689000
11
167.171000
21
236.689000
0
LINE
8
Layer 1
10
167.171000
20
236.689000
11
167.171000
21
236.689000
0
LINE
8
Layer 1
10
167.171000
20
236.689000
11
166.869061
21
236.719152
0
LINE
8
Layer 1
10
166.869061
20
236.719152
11
166.578692
21
236.807523
0
LINE
8
Layer 1
10
166.578692
20
236.807523
11
166.313342
21
236.952739
0
LINE
8
Layer 1
10
166.313342
20
236.952739
11
166.081766
21
237.147655
0
LINE
8
Layer 1
10
166.081766
20
237.147655
11
165.890388
21
237.382975
0
LINE
8
Layer 1
10
165.890388
20
237.382975
11
165.745632
21
237.649394
0
LINE
8
Layer 1
10
165.745632
20
237.649394
11
165.653920
21
237.937612
0
LINE
8
Layer 1
10
165.653920
20
237.937612
11
165.621675
21
238.238329
0
LINE
8
Layer 1
10
165.621675
20
238.238329
11
165.621000
21
250.142000
0
LINE
8
Layer 1
10
165.621000
20
250.142000
11
165.621000
21
250.142000
0
LINE
8
Layer 1
10
165.621000
20
250.142000
11
165.651152
21
250.443939
0
LINE
8
Layer 1
10
165.651152
20
250.443939
11
165.739520
21
250.734308
0
LINE
8
Layer 1
10
165.739520
20
250.734308
11
165.884736
21
250.999658
0
LINE
8
Layer 1
10
165.884736
20
250.999658
11
166.079654
21
251.231234
0
LINE
8
Layer 1
10
166.079654
20
251.231234
11
166.314971
21
251.422612
0
LINE
8
Layer 1
10
166.314971
20
251.422612
11
166.581390
21
251.567368
0
LINE
8
Layer 1
10
166.581390
20
251.567368
11
166.869608
21
251.659080
0
LINE
8
Layer 1
10
166.869608
20
251.659080
11
167.170325
21
251.691325
0
LINE
8
Layer 1
10
167.170325
20
251.691325
11
179.075000
21
251.692000
0
LINE
8
Layer 1
10
179.075000
20
251.692000
11
179.075000
21
251.692000
0
LINE
8
Layer 1
10
179.075000
20
251.692000
11
179.376939
21
251.661848
0
LINE
8
Layer 1
10
179.376939
20
251.661848
11
179.667311
21
251.573480
0
LINE
8
Layer 1
10
179.667311
20
251.573480
11
179.932659
21
251.428264
0
LINE
8
Layer 1
10
179.932659
20
251.428264
11
180.164235
21
251.233346
0
LINE
8
Layer 1
10
180.164235
20
251.233346
11
180.355613
21
250.998029
0
LINE
8
Layer 1
10
180.355613
20
250.998029
11
180.500369
21
250.731610
0
LINE
8
Layer 1
10
180.500369
20
250.731610
11
180.592081
21
250.443392
0
LINE
8
Layer 1
10
180.592081
20
250.443392
11
180.624329
21
250.142675
0
LINE
8
Layer 1
10
180.624329
20
250.142675
11
180.624000
21
238.238000
0
LINE
8
Layer 1
10
180.624000
20
238.238000
11
180.624000
21
238.238000
0
LINE
8
Layer 1
10
180.624000
20
238.238000
11
180.593848
21
237.936061
0
LINE
8
Layer 1
10
180.593848
20
237.936061
11
180.505477
21
237.645689
0
LINE
8
Layer 1
10
180.505477
20
237.645689
11
180.360261
21
237.380341
0
LINE
8
Layer 1
10
180.360261
20
237.380341
11
180.165345
21
237.148765
0
LINE
8
Layer 1
10
180.165345
20
237.148765
11
179.930025
21
236.957387
0
LINE
8
Layer 1
10
179.930025
20
236.957387
11
179.663606
21
236.812631
0
LINE
8
Layer 1
10
179.663606
20
236.812631
11
179.375388
21
236.720916
0
LINE
8
Layer 1
10
179.375388
20
236.720916
11
179.075000
21
236.689000
0
LINE
8
Layer 1
10
179.075000
20
261.689000
11
167.171000
21
261.689000
0
LINE
8
Layer 1
10
167.171000
20
261.689000
11
167.171000
21
261.689000
0
LINE
8
Layer 1
10
167.171000
20
261.689000
11
166.869061
21
261.719152
0
LINE
8
Layer 1
10
166.869061
20
261.719152
11
166.578692
21
261.807523
0
LINE
8
Layer 1
10
166.578692
20
261.807523
11
166.313342
21
261.952739
0
LINE
8
Layer 1
10
166.313342
20
261.952739
11
166.081766
21
262.147655
0
LINE
8
Layer 1
10
166.081766
20
262.147655
11
165.890388
21
262.382975
0
LINE
8
Layer 1
10
165.890388
20
262.382975
11
165.745632
21
262.649392
0
LINE
8
Layer 1
10
165.745632
20
262.649392
11
165.653920
21
262.937613
0
LINE
8
Layer 1
10
165.653920
20
262.937613
11
165.621675
21
263.238330
0
LINE
8
Layer 1
10
165.621675
20
263.238330
11
165.621000
21
275.142000
0
LINE
8
Layer 1
10
165.621000
20
275.142000
11
165.621000
21
275.142000
0
LINE
8
Layer 1
10
165.621000
20
275.142000
11
165.651152
21
275.443939
0
LINE
8
Layer 1
10
165.651152
20
275.443939
11
165.739520
21
275.734308
0
LINE
8
Layer 1
10
165.739520
20
275.734308
11
165.884736
21
275.999658
0
LINE
8
Layer 1
10
165.884736
20
275.999658
11
166.079654
21
276.231232
0
LINE
8
Layer 1
10
166.079654
20
276.231232
11
166.314971
21
276.422610
0
LINE
8
Layer 1
10
166.314971
20
276.422610
11
166.581390
21
276.567369
0
LINE
8
Layer 1
10
166.581390
20
276.567369
11
166.869608
21
276.659081
0
LINE
8
Layer 1
10
166.869608
20
276.659081
11
167.170325
21
276.691326
0
LINE
8
Layer 1
10
167.170325
20
276.691326
11
179.075000
21
276.692000
0
LINE
8
Layer 1
10
179.075000
20
276.692000
11
179.075000
21
276.692000
0
LINE
8
Layer 1
10
179.075000
20
276.692000
11
179.376939
21
276.661848
0
LINE
8
Layer 1
10
179.376939
20
276.661848
11
179.667311
21
276.573480
0
LINE
8
Layer 1
10
179.667311
20
276.573480
11
179.932659
21
276.428264
0
LINE
8
Layer 1
10
179.932659
20
276.428264
11
180.164235
21
276.233346
0
LINE
8
Layer 1
10
180.164235
20
276.233346
11
180.355613
21
275.998029
0
LINE
8
Layer 1
10
180.355613
20
275.998029
11
180.500369
21
275.731610
0
LINE
8
Layer 1
10
180.500369
20
275.731610
11
180.592081
21
275.443392
0
LINE
8
Layer 1
10
180.592081
20
275.443392
11
180.624329
21
275.142675
0
LINE
8
Layer 1
10
180.624329
20
275.142675
11
180.624000
21
263.238000
0
LINE
8
Layer 1
10
180.624000
20
263.238000
11
180.624000
21
263.238000
0
LINE
8
Layer 1
10
180.624000
20
263.238000
11
180.593848
21
262.936058
0
LINE
8
Layer 1
10
180.593848
20
262.936058
11
180.505477
21
262.645689
0
LINE
8
Layer 1
10
180.505477
20
262.645689
11
180.360261
21
262.380341
0
LINE
8
Layer 1
10
180.360261
20
262.380341
11
180.165345
21
262.148765
0
LINE
8
Layer 1
10
180.165345
20
262.148765
11
179.930025
21
261.957387
0
LINE
8
Layer 1
10
179.930025
20
261.957387
11
179.663606
21
261.812631
0
LINE
8
Layer 1
10
179.663606
20
261.812631
11
179.375388
21
261.720916
0
LINE
8
Layer 1
10
179.375388
20
261.720916
11
179.075000
21
261.689000
0
LINE
8
Layer 1
10
179.075000
20
286.688000
11
167.171000
21
286.688000
0
LINE
8
Layer 1
10
167.171000
20
286.688000
11
167.171000
21
286.688000
0
LINE
8
Layer 1
10
167.171000
20
286.688000
11
166.869061
21
286.718152
0
LINE
8
Layer 1
10
166.869061
20
286.718152
11
166.578692
21
286.806523
0
LINE
8
Layer 1
10
166.578692
20
286.806523
11
166.313342
21
286.951737
0
LINE
8
Layer 1
10
166.313342
20
286.951737
11
166.081766
21
287.146655
0
LINE
8
Layer 1
10
166.081766
20
287.146655
11
165.890388
21
287.381975
0
LINE
8
Layer 1
10
165.890388
20
287.381975
11
165.745632
21
287.648392
0
LINE
8
Layer 1
10
165.745632
20
287.648392
11
165.653920
21
287.936610
0
LINE
8
Layer 1
10
165.653920
20
287.936610
11
165.621675
21
288.237330
0
LINE
8
Layer 1
10
165.621675
20
288.237330
11
165.621000
21
300.142000
0
LINE
8
Layer 1
10
165.621000
20
300.142000
11
165.621000
21
300.142000
0
LINE
8
Layer 1
10
165.621000
20
300.142000
11
165.651152
21
300.443939
0
LINE
8
Layer 1
10
165.651152
20
300.443939
11
165.739520
21
300.734308
0
LINE
8
Layer 1
10
165.739520
20
300.734308
11
165.884736
21
300.999658
0
LINE
8
Layer 1
10
165.884736
20
300.999658
11
166.079654
21
301.231232
0
LINE
8
Layer 1
10
166.079654
20
301.231232
11
166.314971
21
301.422610
0
LINE
8
Layer 1
10
166.314971
20
301.422610
11
166.581390
21
301.567369
0
LINE
8
Layer 1
10
166.581390
20
301.567369
11
166.869608
21
301.659081
0
LINE
8
Layer 1
10
166.869608
20
301.659081
11
167.170325
21
301.691326
0
LINE
8
Layer 1
10
167.170325
20
301.691326
11
179.075000
21
301.692000
0
LINE
8
Layer 1
10
179.075000
20
301.692000
11
179.075000
21
301.692000
0
LINE
8
Layer 1
10
179.075000
20
301.692000
11
179.376939
21
301.661848
0
LINE
8
Layer 1
10
179.376939
20
301.661848
11
179.667311
21
301.573480
0
LINE
8
Layer 1
10
179.667311
20
301.573480
11
179.932659
21
301.428264
0
LINE
8
Layer 1
10
179.932659
20
301.428264
11
180.164235
21
301.233346
0
LINE
8
Layer 1
10
180.164235
20
301.233346
11
180.355613
21
300.998029
0
LINE
8
Layer 1
10
180.355613
20
300.998029
11
180.500369
21
300.731610
0
LINE
8
Layer 1
10
180.500369
20
300.731610
11
180.592081
21
300.443392
0
LINE
8
Layer 1
10
180.592081
20
300.443392
11
180.624329
21
300.142675
0
LINE
8
Layer 1
10
180.624329
20
300.142675
11
180.624000
21
288.238000
0
LINE
8
Layer 1
10
180.624000
20
288.238000
11
180.624000
21
288.238000
0
LINE
8
Layer 1
10
180.624000
20
288.238000
11
180.593848
21
287.936058
0
LINE
8
Layer 1
10
180.593848
20
287.936058
11
180.505477
21
287.645689
0
LINE
8
Layer 1
10
180.505477
20
287.645689
11
180.360261
21
287.380341
0
LINE
8
Layer 1
10
180.360261
20
287.380341
11
180.165345
21
287.148765
0
LINE
8
Layer 1
10
180.165345
20
287.148765
11
179.930025
21
286.957387
0
LINE
8
Layer 1
10
179.930025
20
286.957387
11
179.663606
21
286.812628
0
LINE
8
Layer 1
10
179.663606
20
286.812628
11
179.375388
21
286.720916
0
LINE
8
Layer 1
10
179.375388
20
286.720916
11
179.075000
21
286.688000
0
LINE
8
Layer 1
10
179.075000
20
311.688000
11
167.171000
21
311.688000
0
LINE
8
Layer 1
10
167.171000
20
311.688000
11
167.171000
21
311.688000
0
LINE
8
Layer 1
10
167.171000
20
311.688000
11
166.869061
21
311.718152
0
LINE
8
Layer 1
10
166.869061
20
311.718152
11
166.578692
21
311.806520
0
LINE
8
Layer 1
10
166.578692
20
311.806520
11
166.313342
21
311.951736
0
LINE
8
Layer 1
10
166.313342
20
311.951736
11
166.081766
21
312.146654
0
LINE
8
Layer 1
10
166.081766
20
312.146654
11
165.890388
21
312.381971
0
LINE
8
Layer 1
10
165.890388
20
312.381971
11
165.745632
21
312.648390
0
LINE
8
Layer 1
10
165.745632
20
312.648390
11
165.653920
21
312.936608
0
LINE
8
Layer 1
10
165.653920
20
312.936608
11
165.621675
21
313.237328
0
LINE
8
Layer 1
10
165.621675
20
313.237328
11
165.621000
21
325.142000
0
LINE
8
Layer 1
10
165.621000
20
325.142000
11
165.621000
21
325.142000
0
LINE
8
Layer 1
10
165.621000
20
325.142000
11
165.651152
21
325.443942
0
LINE
8
Layer 1
10
165.651152
20
325.443942
11
165.739520
21
325.734311
0
LINE
8
Layer 1
10
165.739520
20
325.734311
11
165.884736
21
325.999661
0
LINE
8
Layer 1
10
165.884736
20
325.999661
11
166.079654
21
326.231235
0
LINE
8
Layer 1
10
166.079654
20
326.231235
11
166.314971
21
326.422613
0
LINE
8
Layer 1
10
166.314971
20
326.422613
11
166.581390
21
326.567372
0
LINE
8
Layer 1
10
166.581390
20
326.567372
11
166.869608
21
326.659084
0
LINE
8
Layer 1
10
166.869608
20
326.659084
11
167.170325
21
326.691329
0
LINE
8
Layer 1
10
167.170325
20
326.691329
11
179.075000
21
326.691000
0
LINE
8
Layer 1
10
179.075000
20
326.691000
11
179.075000
21
326.691000
0
LINE
8
Layer 1
10
179.075000
20
326.691000
11
179.376939
21
326.660848
0
LINE
8
Layer 1
10
179.376939
20
326.660848
11
179.667311
21
326.572480
0
LINE
8
Layer 1
10
179.667311
20
326.572480
11
179.932659
21
326.427264
0
LINE
8
Layer 1
10
179.932659
20
326.427264
11
180.164235
21
326.232346
0
LINE
8
Layer 1
10
180.164235
20
326.232346
11
180.355613
21
325.997029
0
LINE
8
Layer 1
10
180.355613
20
325.997029
11
180.500369
21
325.730610
0
LINE
8
Layer 1
10
180.500369
20
325.730610
11
180.592081
21
325.442392
0
LINE
8
Layer 1
10
180.592081
20
325.442392
11
180.624329
21
325.141672
0
LINE
8
Layer 1
10
180.624329
20
325.141672
11
180.624000
21
313.238000
0
LINE
8
Layer 1
10
180.624000
20
313.238000
11
180.624000
21
313.238000
0
LINE
8
Layer 1
10
180.624000
20
313.238000
11
180.593848
21
312.936058
0
LINE
8
Layer 1
10
180.593848
20
312.936058
11
180.505477
21
312.645689
0
LINE
8
Layer 1
10
180.505477
20
312.645689
11
180.360261
21
312.380339
0
LINE
8
Layer 1
10
180.360261
20
312.380339
11
180.165345
21
312.148765
0
LINE
8
Layer 1
10
180.165345
20
312.148765
11
179.930025
21
311.957387
0
LINE
8
Layer 1
10
179.930025
20
311.957387
11
179.663606
21
311.812628
0
LINE
8
Layer 1
10
179.663606
20
311.812628
11
179.375388
21
311.720916
0
LINE
8
Layer 1
10
179.375388
20
311.720916
11
179.075000
21
311.688000
0
LINE
8
Layer 1
10
90.621500
20
313.238000
11
90.621500
21
325.142000
0
LINE
8
Layer 1
10
90.621500
20
325.142000
11
90.621500
21
325.142000
0
LINE
8
Layer 1
10
90.621500
20
325.142000
11
90.651652
21
325.443939
0
LINE
8
Layer 1
10
90.651652
20
325.443939
11
90.740020
21
325.734308
0
LINE
8
Layer 1
10
90.740020
20
325.734308
11
90.885236
21
325.999658
0
LINE
8
Layer 1
10
90.885236
20
325.999658
11
91.080154
21
326.231234
0
LINE
8
Layer 1
10
91.080154
20
326.231234
11
91.315471
21
326.422612
0
LINE
8
Layer 1
10
91.315471
20
326.422612
11
91.581890
21
326.567368
0
LINE
8
Layer 1
10
91.581890
20
326.567368
11
91.870108
21
326.659080
0
LINE
8
Layer 1
10
91.870108
20
326.659080
11
92.170825
21
326.691325
0
LINE
8
Layer 1
10
92.170825
20
326.691325
11
104.075000
21
326.692000
0
LINE
8
Layer 1
10
104.075000
20
326.692000
11
104.075000
21
326.692000
0
LINE
8
Layer 1
10
104.075000
20
326.692000
11
104.376942
21
326.661848
0
LINE
8
Layer 1
10
104.376942
20
326.661848
11
104.667311
21
326.573480
0
LINE
8
Layer 1
10
104.667311
20
326.573480
11
104.932659
21
326.428264
0
LINE
8
Layer 1
10
104.932659
20
326.428264
11
105.164235
21
326.233346
0
LINE
8
Layer 1
10
105.164235
20
326.233346
11
105.355613
21
325.998029
0
LINE
8
Layer 1
10
105.355613
20
325.998029
11
105.500372
21
325.731610
0
LINE
8
Layer 1
10
105.500372
20
325.731610
11
105.592084
21
325.443392
0
LINE
8
Layer 1
10
105.592084
20
325.443392
11
105.624329
21
325.142675
0
LINE
8
Layer 1
10
105.624329
20
325.142675
11
105.625000
21
313.238000
0
LINE
8
Layer 1
10
105.625000
20
313.238000
11
105.625000
21
313.238000
0
LINE
8
Layer 1
10
105.625000
20
313.238000
11
105.594848
21
312.936061
0
LINE
8
Layer 1
10
105.594848
20
312.936061
11
105.506477
21
312.645689
0
LINE
8
Layer 1
10
105.506477
20
312.645689
11
105.361263
21
312.380341
0
LINE
8
Layer 1
10
105.361263
20
312.380341
11
105.166345
21
312.148765
0
LINE
8
Layer 1
10
105.166345
20
312.148765
11
104.931025
21
311.957387
0
LINE
8
Layer 1
10
104.931025
20
311.957387
11
104.664608
21
311.812631
0
LINE
8
Layer 1
10
104.664608
20
311.812631
11
104.376390
21
311.720916
0
LINE
8
Layer 1
10
104.376390
20
311.720916
11
104.075670
21
311.688671
0
LINE
8
Layer 1
10
104.075670
20
311.688671
11
92.170800
21
311.688000
0
LINE
8
Layer 1
10
92.170800
20
311.688000
11
92.170800
21
311.688000
0
LINE
8
Layer 1
10
92.170800
20
311.688000
11
91.868861
21
311.718152
0
LINE
8
Layer 1
10
91.868861
20
311.718152
11
91.578492
21
311.806523
0
LINE
8
Layer 1
10
91.578492
20
311.806523
11
91.313142
21
311.951739
0
LINE
8
Layer 1
10
91.313142
20
311.951739
11
91.081568
21
312.146655
0
LINE
8
Layer 1
10
91.081568
20
312.146655
11
90.890190
21
312.381975
0
LINE
8
Layer 1
10
90.890190
20
312.381975
11
90.745431
21
312.648394
0
LINE
8
Layer 1
10
90.745431
20
312.648394
11
90.653719
21
312.936612
0
LINE
8
Layer 1
10
90.653719
20
312.936612
11
90.621500
21
313.238000
0
LINE
8
Layer 1
10
129.543000
20
274.540000
11
116.643000
21
274.540000
0
LINE
8
Layer 1
10
116.643000
20
274.540000
11
116.260317
21
274.616120
0
LINE
8
Layer 1
10
116.260317
20
274.616120
11
115.935894
21
274.832893
0
LINE
8
Layer 1
10
115.935894
20
274.832893
11
115.719121
21
275.157316
0
LINE
8
Layer 1
10
115.719121
20
275.157316
11
115.643001
21
275.539999
0
LINE
8
Layer 1
10
115.643001
20
275.539999
11
115.643000
21
287.740000
0
LINE
8
Layer 1
10
115.643000
20
287.740000
11
115.719120
21
288.122683
0
LINE
8
Layer 1
10
115.719120
20
288.122683
11
115.935893
21
288.447106
0
LINE
8
Layer 1
10
115.935893
20
288.447106
11
116.260316
21
288.663879
0
LINE
8
Layer 1
10
116.260316
20
288.663879
11
116.642999
21
288.739999
0
LINE
8
Layer 1
10
116.642999
20
288.739999
11
129.543000
21
288.740000
0
LINE
8
Layer 1
10
129.543000
20
288.740000
11
129.925683
21
288.663880
0
LINE
8
Layer 1
10
129.925683
20
288.663880
11
130.250106
21
288.447107
0
LINE
8
Layer 1
10
130.250106
20
288.447107
11
130.466879
21
288.122684
0
LINE
8
Layer 1
10
130.466879
20
288.122684
11
130.542999
21
287.740001
0
LINE
8
Layer 1
10
130.542999
20
287.740001
11
130.543000
21
275.540000
0
LINE
8
Layer 1
10
130.543000
20
275.540000
11
130.466880
21
275.157317
0
LINE
8
Layer 1
10
130.466880
20
275.157317
11
130.250107
21
274.832894
0
LINE
8
Layer 1
10
130.250107
20
274.832894
11
129.925684
21
274.616121
0
LINE
8
Layer 1
10
129.925684
20
274.616121
11
129.543001
21
274.540001
0
LINE
8
Layer 1
10
156.423000
20
355.590000
11
46.423100
21
355.590000
0
LINE
8
Layer 1
10
46.423100
20
355.590000
11
46.033856
21
355.668585
0
LINE
8
Layer 1
10
46.033856
20
355.668585
11
45.715995
21
355.882894
0
LINE
8
Layer 1
10
45.715995
20
355.882894
11
45.501688
21
356.200755
0
LINE
8
Layer 1
10
45.501688
20
356.200755
11
45.423103
21
356.589999
0
LINE
8
Layer 1
10
45.423103
20
356.589999
11
45.423100
21
358.590000
0
LINE
8
Layer 1
10
45.423100
20
358.590000
11
45.501685
21
358.979244
0
LINE
8
Layer 1
10
45.501685
20
358.979244
11
45.715993
21
359.297104
0
LINE
8
Layer 1
10
45.715993
20
359.297104
11
46.033853
21
359.511412
0
LINE
8
Layer 1
10
46.033853
20
359.511412
11
46.423097
21
359.589997
0
LINE
8
Layer 1
10
46.423097
20
359.589997
11
156.423000
21
359.590000
0
LINE
8
Layer 1
10
156.423000
20
359.590000
11
156.812244
21
359.511415
0
LINE
8
Layer 1
10
156.812244
20
359.511415
11
157.130104
21
359.297107
0
LINE
8
Layer 1
10
157.130104
20
359.297107
11
157.344412
21
358.979247
0
LINE
8
Layer 1
10
157.344412
20
358.979247
11
157.422997
21
358.590003
0
LINE
8
Layer 1
10
157.422997
20
358.590003
11
157.423000
21
356.590000
0
LINE
8
Layer 1
10
157.423000
20
356.590000
11
157.344415
21
356.200756
0
LINE
8
Layer 1
10
157.344415
20
356.200756
11
157.130108
21
355.882895
0
LINE
8
Layer 1
10
157.130108
20
355.882895
11
156.812247
21
355.668586
0
LINE
8
Layer 1
10
156.812247
20
355.668586
11
156.423003
21
355.590001
0
LINE
8
Layer 1
10
0.133127
20
197.600000
11
0.361488
21
196.451950
0
LINE
8
Layer 1
10
0.361488
20
196.451950
11
1.011807
21
195.478680
0
LINE
8
Layer 1
10
1.011807
20
195.478680
11
1.985077
21
194.828361
0
LINE
8
Layer 1
10
1.985077
20
194.828361
11
3.133127
21
194.600000
0
LINE
8
Layer 1
10
3.133127
20
194.600000
11
199.713000
21
194.600000
0
LINE
8
Layer 1
10
199.713000
20
194.600000
11
200.861050
21
194.828361
0
LINE
8
Layer 1
10
200.861050
20
194.828361
11
201.834320
21
195.478680
0
LINE
8
Layer 1
10
201.834320
20
195.478680
11
202.484639
21
196.451950
0
LINE
8
Layer 1
10
202.484639
20
196.451950
11
202.713000
21
197.600000
0
LINE
8
Layer 1
10
202.713000
20
197.600000
11
202.713000
21
384.180000
0
LINE
8
Layer 1
10
202.713000
20
384.180000
11
202.484639
21
385.328050
0
LINE
8
Layer 1
10
202.484639
20
385.328050
11
201.834320
21
386.301320
0
LINE
8
Layer 1
10
201.834320
20
386.301320
11
200.861050
21
386.951639
0
LINE
8
Layer 1
10
200.861050
20
386.951639
11
199.713000
21
387.180000
0
LINE
8
Layer 1
10
199.713000
20
387.180000
11
3.133120
21
387.180000
0
LINE
8
Layer 1
10
3.133120
20
387.180000
11
1.965385
21
386.944245
0
LINE
8
Layer 1
10
1.965385
20
386.944245
11
1.011800
21
386.301320
0
LINE
8
Layer 1
10
1.011800
20
386.301320
11
0.368875
21
385.347735
0
LINE
8
Layer 1
10
0.368875
20
385.347735
11
0.133120
21
384.180000
0
LINE
8
Layer 1
10
0.133120
20
384.180000
11
0.133127
21
197.600000
0
LINE
8
Layer 1
10
30.173100
20
379.590000
11
30.173100
21
383.390000
0
LINE
8
Layer 1
10
30.173100
20
383.390000
11
75.173000
21
383.390000
0
LINE
8
Layer 1
10
75.173000
20
383.390000
11
75.173000
21
379.590000
0
LINE
8
Layer 1
10
75.173000
20
379.590000
11
30.173100
21
379.590000
0
LINE
8
Layer 1
10
78.923000
20
383.390000
11
123.923000
21
383.390000
0
LINE
8
Layer 1
10
123.923000
20
383.390000
11
123.923000
21
379.590000
0
LINE
8
Layer 1
10
123.923000
20
379.590000
11
78.923000
21
379.590000
0
LINE
8
Layer 1
10
78.923000
20
379.590000
11
78.923000
21
383.390000
0
LINE
8
Layer 1
10
78.923000
20
202.190000
11
123.923000
21
202.190000
0
LINE
8
Layer 1
10
123.923000
20
202.190000
11
123.923000
21
198.390000
0
LINE
8
Layer 1
10
123.923000
20
198.390000
11
78.923000
21
198.390000
0
LINE
8
Layer 1
10
78.923000
20
198.390000
11
78.923000
21
202.190000
0
LINE
8
Layer 1
10
198.923000
20
344.848000
11
198.923000
21
298.598000
0
LINE
8
Layer 1
10
198.923000
20
298.598000
11
195.123000
21
298.598000
0
LINE
8
Layer 1
10
195.123000
20
298.598000
11
195.123000
21
344.848000
0
LINE
8
Layer 1
10
195.123000
20
344.848000
11
198.923000
21
344.848000
0
LINE
8
Layer 1
10
3.923120
20
298.598000
11
3.923120
21
344.848000
0
LINE
8
Layer 1
10
3.923120
20
344.848000
11
7.723120
21
344.848000
0
LINE
8
Layer 1
10
7.723120
20
344.848000
11
7.723120
21
298.598000
0
LINE
8
Layer 1
10
7.723120
20
298.598000
11
3.923120
21
298.598000
0
LINE
8
Layer 1
10
30.173100
20
202.190000
11
75.173000
21
202.190000
0
LINE
8
Layer 1
10
75.173000
20
202.190000
11
75.173000
21
198.390000
0
LINE
8
Layer 1
10
75.173000
20
198.390000
11
30.173100
21
198.390000
0
LINE
8
Layer 1
10
30.173100
20
198.390000
11
30.173100
21
202.190000
0
LINE
8
Layer 1
10
7.723120
20
283.182000
11
7.723120
21
236.932000
0
LINE
8
Layer 1
10
7.723120
20
236.932000
11
3.923120
21
236.932000
0
LINE
8
Layer 1
10
3.923120
20
236.932000
11
3.923120
21
283.182000
0
LINE
8
Layer 1
10
3.923120
20
283.182000
11
7.723120
21
283.182000
0
LINE
8
Layer 1
10
172.673000
20
383.390000
11
172.673000
21
379.590000
0
LINE
8
Layer 1
10
172.673000
20
379.590000
11
127.673000
21
379.590000
0
LINE
8
Layer 1
10
127.673000
20
379.590000
11
127.673000
21
383.390000
0
LINE
8
Layer 1
10
127.673000
20
383.390000
11
172.673000
21
383.390000
0
LINE
8
Layer 1
10
127.673000
20
202.190000
11
172.673000
21
202.190000
0
LINE
8
Layer 1
10
172.673000
20
202.190000
11
172.673000
21
198.390000
0
LINE
8
Layer 1
10
172.673000
20
198.390000
11
127.673000
21
198.390000
0
LINE
8
Layer 1
10
127.673000
20
198.390000
11
127.673000
21
202.190000
0
LINE
8
Layer 1
10
198.923000
20
236.932000
11
195.123000
21
236.932000
0
LINE
8
Layer 1
10
195.123000
20
236.932000
11
195.123000
21
283.182000
0
LINE
8
Layer 1
10
195.123000
20
283.182000
11
198.923000
21
283.182000
0
LINE
8
Layer 1
10
198.923000
20
283.182000
11
198.923000
21
236.932000
0
LINE
8
Layer 1
10
317.156000
20
100.822000
11
317.730025
21
100.936181
0
LINE
8
Layer 1
10
317.730025
20
100.936181
11
318.216660
21
101.261340
0
LINE
8
Layer 1
10
318.216660
20
101.261340
11
318.541819
21
101.747975
0
LINE
8
Layer 1
10
318.541819
20
101.747975
11
318.656000
21
102.322000
0
LINE
8
Layer 1
10
318.656000
20
102.322000
11
318.656000
21
105.322000
0
LINE
8
Layer 1
10
318.656000
20
105.322000
11
322.406000
21
105.322000
0
LINE
8
Layer 1
10
322.406000
20
105.322000
11
322.406000
21
102.322000
0
LINE
8
Layer 1
10
322.406000
20
102.322000
11
322.520181
21
101.747975
0
LINE
8
Layer 1
10
322.520181
20
101.747975
11
322.845340
21
101.261340
0
LINE
8
Layer 1
10
322.845340
20
101.261340
11
323.331975
21
100.936181
0
LINE
8
Layer 1
10
323.331975
20
100.936181
11
323.906000
21
100.822000
0
LINE
8
Layer 1
10
323.906000
20
100.822000
11
365.906000
21
100.822000
0
LINE
8
Layer 1
10
365.906000
20
100.822000
11
366.480025
21
100.936181
0
LINE
8
Layer 1
10
366.480025
20
100.936181
11
366.966660
21
101.261340
0
LINE
8
Layer 1
10
366.966660
20
101.261340
11
367.291819
21
101.747975
0
LINE
8
Layer 1
10
367.291819
20
101.747975
11
367.406000
21
102.322000
0
LINE
8
Layer 1
10
367.406000
20
102.322000
11
367.406000
21
105.322000
0
LINE
8
Layer 1
10
367.406000
20
105.322000
11
383.656000
21
105.322000
0
LINE
8
Layer 1
10
383.656000
20
105.322000
11
383.656000
21
105.322000
0
LINE
8
Layer 1
10
383.656000
20
105.322000
11
382.983800
21
107.197000
0
LINE
8
Layer 1
10
382.983800
20
107.197000
11
382.390080
21
109.072000
0
LINE
8
Layer 1
10
382.390080
20
109.072000
11
382.123250
21
110.009500
0
LINE
8
Layer 1
10
382.123250
20
110.009500
11
381.876940
21
110.947000
0
LINE
8
Layer 1
10
381.876940
20
110.947000
11
381.651600
21
111.884500
0
LINE
8
Layer 1
10
381.651600
20
111.884500
11
381.447720
21
112.822000
0
LINE
8
Layer 1
10
381.447720
20
112.822000
11
381.265870
21
113.759500
0
LINE
8
Layer 1
10
381.265870
20
113.759500
11
381.106610
21
114.697000
0
LINE
8
Layer 1
10
381.106610
20
114.697000
11
380.970530
21
115.634500
0
LINE
8
Layer 1
10
380.970530
20
115.634500
11
380.858200
21
116.572000
0
LINE
8
Layer 1
10
380.858200
20
116.572000
11
380.770200
21
117.509500
0
LINE
8
Layer 1
10
380.770200
20
117.509500
11
380.706900
21
118.447000
0
LINE
8
Layer 1
10
380.706900
20
118.447000
11
380.668800
21
119.384500
0
LINE
8
Layer 1
10
380.668800
20
119.384500
11
380.656000
21
120.322000
0
LINE
8
Layer 1
10
380.656000
20
120.322000
11
380.668800
21
121.259500
0
LINE
8
Layer 1
10
380.668800
20
121.259500
11
380.706900
21
122.197000
0
LINE
8
Layer 1
10
380.706900
20
122.197000
11
380.770200
21
123.134500
0
LINE
8
Layer 1
10
380.770200
20
123.134500
11
380.858200
21
124.072000
0
LINE
8
Layer 1
10
380.858200
20
124.072000
11
380.970530
21
125.009500
0
LINE
8
Layer 1
10
380.970530
20
125.009500
11
381.106610
21
125.947000
0
LINE
8
Layer 1
10
381.106610
20
125.947000
11
381.265870
21
126.884500
0
LINE
8
Layer 1
10
381.265870
20
126.884500
11
381.447720
21
127.822000
0
LINE
8
Layer 1
10
381.447720
20
127.822000
11
381.651600
21
128.759500
0
LINE
8
Layer 1
10
381.651600
20
128.759500
11
381.876940
21
129.697000
0
LINE
8
Layer 1
10
381.876940
20
129.697000
11
382.123250
21
130.634500
0
LINE
8
Layer 1
10
382.123250
20
130.634500
11
382.390080
21
131.572000
0
LINE
8
Layer 1
10
382.390080
20
131.572000
11
382.983800
21
133.447000
0
LINE
8
Layer 1
10
382.983800
20
133.447000
11
383.656000
21
135.322000
0
LINE
8
Layer 1
10
383.656000
20
135.322000
11
367.406000
21
135.322000
0
LINE
8
Layer 1
10
367.406000
20
135.322000
11
367.406000
21
141.322000
0
LINE
8
Layer 1
10
367.406000
20
141.322000
11
367.291819
21
141.896025
0
LINE
8
Layer 1
10
367.291819
20
141.896025
11
366.966660
21
142.382660
0
LINE
8
Layer 1
10
366.966660
20
142.382660
11
366.480025
21
142.707819
0
LINE
8
Layer 1
10
366.480025
20
142.707819
11
365.906000
21
142.822000
0
LINE
8
Layer 1
10
365.906000
20
142.822000
11
323.906000
21
142.822000
0
LINE
8
Layer 1
10
323.906000
20
142.822000
11
323.331975
21
142.707819
0
LINE
8
Layer 1
10
323.331975
20
142.707819
11
322.845340
21
142.382660
0
LINE
8
Layer 1
10
322.845340
20
142.382660
11
322.520181
21
141.896025
0
LINE
8
Layer 1
10
322.520181
20
141.896025
11
322.406000
21
141.322000
0
LINE
8
Layer 1
10
322.406000
20
141.322000
11
322.406000
21
135.322000
0
LINE
8
Layer 1
10
322.406000
20
135.322000
11
318.656000
21
135.322000
0
LINE
8
Layer 1
10
318.656000
20
135.322000
11
318.656000
21
141.322000
0
LINE
8
Layer 1
10
318.656000
20
141.322000
11
318.541819
21
141.896025
0
LINE
8
Layer 1
10
318.541819
20
141.896025
11
318.216660
21
142.382660
0
LINE
8
Layer 1
10
318.216660
20
142.382660
11
317.730025
21
142.707819
0
LINE
8
Layer 1
10
317.730025
20
142.707819
11
317.156000
21
142.822000
0
LINE
8
Layer 1
10
317.156000
20
142.822000
11
275.156000
21
142.822000
0
LINE
8
Layer 1
10
275.156000
20
142.822000
11
274.581975
21
142.707819
0
LINE
8
Layer 1
10
274.581975
20
142.707819
11
274.095340
21
142.382660
0
LINE
8
Layer 1
10
274.095340
20
142.382660
11
273.770181
21
141.896025
0
LINE
8
Layer 1
10
273.770181
20
141.896025
11
273.656000
21
141.322000
0
LINE
8
Layer 1
10
273.656000
20
141.322000
11
273.656000
21
135.322000
0
LINE
8
Layer 1
10
273.656000
20
135.322000
11
269.906000
21
135.322000
0
LINE
8
Layer 1
10
269.906000
20
135.322000
11
269.906000
21
141.322000
0
LINE
8
Layer 1
10
269.906000
20
141.322000
11
269.791819
21
141.896025
0
LINE
8
Layer 1
10
269.791819
20
141.896025
11
269.466660
21
142.382660
0
LINE
8
Layer 1
10
269.466660
20
142.382660
11
268.980025
21
142.707819
0
LINE
8
Layer 1
10
268.980025
20
142.707819
11
268.406000
21
142.822000
0
LINE
8
Layer 1
10
268.406000
20
142.822000
11
226.406000
21
142.822000
0
LINE
8
Layer 1
10
226.406000
20
142.822000
11
225.831975
21
142.707819
0
LINE
8
Layer 1
10
225.831975
20
142.707819
11
225.345340
21
142.382660
0
LINE
8
Layer 1
10
225.345340
20
142.382660
11
225.020181
21
141.896025
0
LINE
8
Layer 1
10
225.020181
20
141.896025
11
224.906000
21
141.322000
0
LINE
8
Layer 1
10
224.906000
20
141.322000
11
224.906000
21
135.322000
0
LINE
8
Layer 1
10
224.906000
20
135.322000
11
208.656000
21
135.322000
0
LINE
8
Layer 1
10
208.656000
20
135.322000
11
208.656000
21
135.322000
0
LINE
8
Layer 1
10
208.656000
20
135.322000
11
209.328200
21
133.447000
0
LINE
8
Layer 1
10
209.328200
20
133.447000
11
209.921920
21
131.572000
0
LINE
8
Layer 1
10
209.921920
20
131.572000
11
210.188740
21
130.634500
0
LINE
8
Layer 1
10
210.188740
20
130.634500
11
210.435060
21
129.697000
0
LINE
8
Layer 1
10
210.435060
20
129.697000
11
210.660400
21
128.759500
0
LINE
8
Layer 1
10
210.660400
20
128.759500
11
210.864280
21
127.822000
0
LINE
8
Layer 1
10
210.864280
20
127.822000
11
211.046130
21
126.884500
0
LINE
8
Layer 1
10
211.046130
20
126.884500
11
211.205390
21
125.947000
0
LINE
8
Layer 1
10
211.205390
20
125.947000
11
211.341470
21
125.009500
0
LINE
8
Layer 1
10
211.341470
20
125.009500
11
211.453800
21
124.072000
0
LINE
8
Layer 1
10
211.453800
20
124.072000
11
211.541800
21
123.134500
0
LINE
8
Layer 1
10
211.541800
20
123.134500
11
211.605100
21
122.197000
0
LINE
8
Layer 1
10
211.605100
20
122.197000
11
211.643200
21
121.259500
0
LINE
8
Layer 1
10
211.643200
20
121.259500
11
211.656000
21
120.322000
0
LINE
8
Layer 1
10
211.656000
20
120.322000
11
211.643200
21
119.384500
0
LINE
8
Layer 1
10
211.643200
20
119.384500
11
211.605100
21
118.447000
0
LINE
8
Layer 1
10
211.605100
20
118.447000
11
211.541800
21
117.509500
0
LINE
8
Layer 1
10
211.541800
20
117.509500
11
211.453800
21
116.572000
0
LINE
8
Layer 1
10
211.453800
20
116.572000
11
211.341470
21
115.634500
0
LINE
8
Layer 1
10
211.341470
20
115.634500
11
211.205390
21
114.697000
0
LINE
8
Layer 1
10
211.205390
20
114.697000
11
211.046130
21
113.759500
0
LINE
8
Layer 1
10
211.046130
20
113.759500
11
210.864280
21
112.822000
0
LINE
8
Layer 1
10
210.864280
20
112.822000
11
210.660400
21
111.884500
0
LINE
8
Layer 1
10
210.660400
20
111.884500
11
210.435060
21
110.947000
0
LINE
8
Layer 1
10
210.435060
20
110.947000
11
210.188740
21
110.009500
0
LINE
8
Layer 1
10
210.188740
20
110.009500
11
209.921920
21
109.072000
0
LINE
8
Layer 1
10
209.921920
20
109.072000
11
209.328200
21
107.197000
0
LINE
8
Layer 1
10
209.328200
20
107.197000
11
208.656000
21
105.322000
0
LINE
8
Layer 1
10
208.656000
20
105.322000
11
224.906000
21
105.322000
0
LINE
8
Layer 1
10
224.906000
20
105.322000
11
224.906000
21
102.322000
0
LINE
8
Layer 1
10
224.906000
20
102.322000
11
225.020181
21
101.747975
0
LINE
8
Layer 1
10
225.020181
20
101.747975
11
225.345340
21
101.261340
0
LINE
8
Layer 1
10
225.345340
20
101.261340
11
225.831975
21
100.936181
0
LINE
8
Layer 1
10
225.831975
20
100.936181
11
226.406000
21
100.822000
0
LINE
8
Layer 1
10
226.406000
20
100.822000
11
268.406000
21
100.822000
0
LINE
8
Layer 1
10
268.406000
20
100.822000
11
268.980025
21
100.936181
0
LINE
8
Layer 1
10
268.980025
20
100.936181
11
269.466660
21
101.261340
0
LINE
8
Layer 1
10
269.466660
20
101.261340
11
269.791819
21
101.747975
0
LINE
8
Layer 1
10
269.791819
20
101.747975
11
269.906000
21
102.322000
0
LINE
8
Layer 1
10
269.906000
20
102.322000
11
269.906000
21
105.322000
0
LINE
8
Layer 1
10
269.906000
20
105.322000
11
273.656000
21
105.322000
0
LINE
8
Layer 1
10
273.656000
20
105.322000
11
273.656000
21
102.322000
0
LINE
8
Layer 1
10
273.656000
20
102.322000
11
273.770181
21
101.747975
0
LINE
8
Layer 1
10
273.770181
20
101.747975
11
274.095340
21
101.261340
0
LINE
8
Layer 1
10
274.095340
20
101.261340
11
274.581975
21
100.936181
0
LINE
8
Layer 1
10
274.581975
20
100.936181
11
275.156000
21
100.822000
0
LINE
8
Layer 1
10
275.156000
20
100.822000
11
317.156000
21
100.822000
0
LINE
8
Layer 1
10
242.198000
20
6.013330
11
242.312181
21
5.439305
0
LINE
8
Layer 1
10
242.312181
20
5.439305
11
242.637340
21
4.952670
0
LINE
8
Layer 1
10
242.637340
20
4.952670
11
243.123975
21
4.627511
0
LINE
8
Layer 1
10
243.123975
20
4.627511
11
243.698000
21
4.513330
0
LINE
8
Layer 1
10
243.698000
20
4.513330
11
286.948000
21
4.513330
0
LINE
8
Layer 1
10
286.948000
20
4.513330
11
287.522025
21
4.627511
0
LINE
8
Layer 1
10
287.522025
20
4.627511
11
288.008660
21
4.952670
0
LINE
8
Layer 1
10
288.008660
20
4.952670
11
288.333819
21
5.439305
0
LINE
8
Layer 1
10
288.333819
20
5.439305
11
288.448000
21
6.013330
0
LINE
8
Layer 1
10
288.448000
20
6.013330
11
288.448000
21
9.013330
0
LINE
8
Layer 1
10
288.448000
20
9.013330
11
303.864000
21
9.013330
0
LINE
8
Layer 1
10
303.864000
20
9.013330
11
303.864000
21
6.013330
0
LINE
8
Layer 1
10
303.864000
20
6.013330
11
303.978181
21
5.439305
0
LINE
8
Layer 1
10
303.978181
20
5.439305
11
304.303340
21
4.952670
0
LINE
8
Layer 1
10
304.303340
20
4.952670
11
304.789975
21
4.627511
0
LINE
8
Layer 1
10
304.789975
20
4.627511
11
305.364000
21
4.513330
0
LINE
8
Layer 1
10
305.364000
20
4.513330
11
348.614000
21
4.513330
0
LINE
8
Layer 1
10
348.614000
20
4.513330
11
349.188025
21
4.627511
0
LINE
8
Layer 1
10
349.188025
20
4.627511
11
349.674660
21
4.952670
0
LINE
8
Layer 1
10
349.674660
20
4.952670
11
349.999819
21
5.439305
0
LINE
8
Layer 1
10
349.999819
20
5.439305
11
350.114000
21
6.013330
0
LINE
8
Layer 1
10
350.114000
20
6.013330
11
350.114000
21
9.013330
0
LINE
8
Layer 1
10
350.114000
20
9.013330
11
378.656000
21
9.013330
0
LINE
8
Layer 1
10
378.656000
20
9.013330
11
378.656000
21
9.013330
0
LINE
8
Layer 1
10
378.656000
20
9.013330
11
377.983800
21
10.888330
0
LINE
8
Layer 1
10
377.983800
20
10.888330
11
377.390080
21
12.763330
0
LINE
8
Layer 1
10
377.390080
20
12.763330
11
377.123250
21
13.700830
0
LINE
8
Layer 1
10
377.123250
20
13.700830
11
376.876940
21
14.638330
0
LINE
8
Layer 1
10
376.876940
20
14.638330
11
376.651600
21
15.575830
0
LINE
8
Layer 1
10
376.651600
20
15.575830
11
376.447720
21
16.513330
0
LINE
8
Layer 1
10
376.447720
20
16.513330
11
376.265870
21
17.450830
0
LINE
8
Layer 1
10
376.265870
20
17.450830
11
376.106610
21
18.388330
0
LINE
8
Layer 1
10
376.106610
20
18.388330
11
375.970530
21
19.325830
0
LINE
8
Layer 1
10
375.970530
20
19.325830
11
375.858200
21
20.263330
0
LINE
8
Layer 1
10
375.858200
20
20.263330
11
375.770200
21
21.200830
0
LINE
8
Layer 1
10
375.770200
20
21.200830
11
375.706900
21
22.138330
0
LINE
8
Layer 1
10
375.706900
20
22.138330
11
375.668800
21
23.075830
0
LINE
8
Layer 1
10
375.668800
20
23.075830
11
375.656100
21
24.013330
0
LINE
8
Layer 1
10
375.656100
20
24.013330
11
375.668800
21
24.950830
0
LINE
8
Layer 1
10
375.668800
20
24.950830
11
375.706900
21
25.888330
0
LINE
8
Layer 1
10
375.706900
20
25.888330
11
375.770200
21
26.825830
0
LINE
8
Layer 1
10
375.770200
20
26.825830
11
375.858200
21
27.763330
0
LINE
8
Layer 1
10
375.858200
20
27.763330
11
375.970530
21
28.700830
0
LINE
8
Layer 1
10
375.970530
20
28.700830
11
376.106610
21
29.638330
0
LINE
8
Layer 1
10
376.106610
20
29.638330
11
376.265870
21
30.575830
0
LINE
8
Layer 1
10
376.265870
20
30.575830
11
376.447720
21
31.513330
0
LINE
8
Layer 1
10
376.447720
20
31.513330
11
376.651600
21
32.450830
0
LINE
8
Layer 1
10
376.651600
20
32.450830
11
376.876940
21
33.388330
0
LINE
8
Layer 1
10
376.876940
20
33.388330
11
377.123250
21
34.325830
0
LINE
8
Layer 1
10
377.123250
20
34.325830
11
377.390080
21
35.263330
0
LINE
8
Layer 1
10
377.390080
20
35.263330
11
377.983800
21
37.138330
0
LINE
8
Layer 1
10
377.983800
20
37.138330
11
378.656000
21
39.013330
0
LINE
8
Layer 1
10
378.656000
20
39.013330
11
350.114000
21
39.013300
0
LINE
8
Layer 1
10
350.114000
20
39.013300
11
350.114000
21
45.013300
0
LINE
8
Layer 1
10
350.114000
20
45.013300
11
349.999819
21
45.587325
0
LINE
8
Layer 1
10
349.999819
20
45.587325
11
349.674660
21
46.073960
0
LINE
8
Layer 1
10
349.674660
20
46.073960
11
349.188025
21
46.399119
0
LINE
8
Layer 1
10
349.188025
20
46.399119
11
348.614000
21
46.513300
0
LINE
8
Layer 1
10
348.614000
20
46.513300
11
305.364000
21
46.513300
0
LINE
8
Layer 1
10
305.364000
20
46.513300
11
304.789975
21
46.399119
0
LINE
8
Layer 1
10
304.789975
20
46.399119
11
304.303340
21
46.073960
0
LINE
8
Layer 1
10
304.303340
20
46.073960
11
303.978181
21
45.587325
0
LINE
8
Layer 1
10
303.978181
20
45.587325
11
303.864000
21
45.013300
0
LINE
8
Layer 1
10
303.864000
20
45.013300
11
303.864000
21
39.013300
0
LINE
8
Layer 1
10
303.864000
20
39.013300
11
288.448000
21
39.013300
0
LINE
8
Layer 1
10
288.448000
20
39.013300
11
288.448000
21
45.013300
0
LINE
8
Layer 1
10
288.448000
20
45.013300
11
288.333819
21
45.587325
0
LINE
8
Layer 1
10
288.333819
20
45.587325
11
288.008660
21
46.073960
0
LINE
8
Layer 1
10
288.008660
20
46.073960
11
287.522025
21
46.399119
0
LINE
8
Layer 1
10
287.522025
20
46.399119
11
286.948000
21
46.513300
0
LINE
8
Layer 1
10
286.948000
20
46.513300
11
243.698000
21
46.513300
0
LINE
8
Layer 1
10
243.698000
20
46.513300
11
243.123975
21
46.399119
0
LINE
8
Layer 1
10
243.123975
20
46.399119
11
242.637340
21
46.073960
0
LINE
8
Layer 1
10
242.637340
20
46.073960
11
242.312181
21
45.587325
0
LINE
8
Layer 1
10
242.312181
20
45.587325
11
242.198000
21
45.013300
0
LINE
8
Layer 1
10
242.198000
20
45.013300
11
242.198000
21
39.013300
0
LINE
8
Layer 1
10
242.198000
20
39.013300
11
213.656000
21
39.013300
0
LINE
8
Layer 1
10
213.656000
20
39.013300
11
213.656000
21
39.013300
0
LINE
8
Layer 1
10
213.656000
20
39.013300
11
214.328200
21
37.138300
0
LINE
8
Layer 1
10
214.328200
20
37.138300
11
214.921920
21
35.263300
0
LINE
8
Layer 1
10
214.921920
20
35.263300
11
215.188750
21
34.325800
0
LINE
8
Layer 1
10
215.188750
20
34.325800
11
215.435060
21
33.388300
0
LINE
8
Layer 1
10
215.435060
20
33.388300
11
215.660400
21
32.450800
0
LINE
8
Layer 1
10
215.660400
20
32.450800
11
215.864280
21
31.513300
0
LINE
8
Layer 1
10
215.864280
20
31.513300
11
216.046130
21
30.575800
0
LINE
8
Layer 1
10
216.046130
20
30.575800
11
216.205390
21
29.638300
0
LINE
8
Layer 1
10
216.205390
20
29.638300
11
216.341470
21
28.700800
0
LINE
8
Layer 1
10
216.341470
20
28.700800
11
216.453800
21
27.763300
0
LINE
8
Layer 1
10
216.453800
20
27.763300
11
216.541800
21
26.825800
0
LINE
8
Layer 1
10
216.541800
20
26.825800
11
216.605100
21
25.888300
0
LINE
8
Layer 1
10
216.605100
20
25.888300
11
216.643200
21
24.950800
0
LINE
8
Layer 1
10
216.643200
20
24.950800
11
216.656000
21
24.013300
0
LINE
8
Layer 1
10
216.656000
20
24.013300
11
216.643200
21
23.075800
0
LINE
8
Layer 1
10
216.643200
20
23.075800
11
216.605100
21
22.138300
0
LINE
8
Layer 1
10
216.605100
20
22.138300
11
216.541800
21
21.200800
0
LINE
8
Layer 1
10
216.541800
20
21.200800
11
216.453800
21
20.263300
0
LINE
8
Layer 1
10
216.453800
20
20.263300
11
216.341470
21
19.325800
0
LINE
8
Layer 1
10
216.341470
20
19.325800
11
216.205390
21
18.388300
0
LINE
8
Layer 1
10
216.205390
20
18.388300
11
216.046130
21
17.450800
0
LINE
8
Layer 1
10
216.046130
20
17.450800
11
215.864280
21
16.513300
0
LINE
8
Layer 1
10
215.864280
20
16.513300
11
215.660400
21
15.575800
0
LINE
8
Layer 1
10
215.660400
20
15.575800
11
215.435060
21
14.638300
0
LINE
8
Layer 1
10
215.435060
20
14.638300
11
215.188750
21
13.700800
0
LINE
8
Layer 1
10
215.188750
20
13.700800
11
214.921920
21
12.763300
0
LINE
8
Layer 1
10
214.921920
20
12.763300
11
214.328200
21
10.888300
0
LINE
8
Layer 1
10
214.328200
20
10.888300
11
213.656000
21
9.013300
0
LINE
8
Layer 1
10
213.656000
20
9.013300
11
242.198000
21
9.013330
0
LINE
8
Layer 1
10
242.198000
20
9.013330
11
242.198000
21
6.013330
0
LINE
8
Layer 1
10
51.421700
20
173.997000
11
51.421700
21
175.997000
0
LINE
8
Layer 1
10
53.274000
20
173.997000
11
53.274000
21
175.997000
0
LINE
8
Layer 1
10
55.126100
20
173.997000
11
55.126100
21
175.997000
0
LINE
8
Layer 1
10
56.978100
20
173.997000
11
56.978100
21
175.997000
0
LINE
8
Layer 1
10
58.830200
20
173.997000
11
58.830200
21
175.997000
0
LINE
8
Layer 1
10
60.682300
20
173.997000
11
60.682300
21
175.997000
0
LINE
8
Layer 1
10
62.534400
20
173.997000
11
62.534400
21
176.442000
0
LINE
8
Layer 1
10
64.386500
20
173.997000
11
64.386500
21
175.997000
0
LINE
8
Layer 1
10
66.238600
20
173.997000
11
66.238600
21
175.997000
0
LINE
8
Layer 1
10
68.090700
20
173.997000
11
68.090700
21
175.997000
0
LINE
8
Layer 1
10
69.942700
20
173.997000
11
69.942700
21
175.997000
0
LINE
8
Layer 1
10
71.791400
20
173.997000
11
71.791400
21
175.997000
0
LINE
8
Layer 1
10
73.643400
20
173.997000
11
73.643400
21
176.886000
0
LINE
8
Layer 1
10
75.495500
20
173.997000
11
75.495500
21
175.997000
0
LINE
8
Layer 1
10
77.347600
20
173.997000
11
77.347600
21
175.997000
0
LINE
8
Layer 1
10
79.199700
20
173.997000
11
79.199700
21
175.997000
0
LINE
8
Layer 1
10
81.051800
20
173.997000
11
81.051800
21
175.997000
0
LINE
8
Layer 1
10
82.903900
20
173.997000
11
82.903900
21
175.997000
0
LINE
8
Layer 1
10
84.756000
20
173.997000
11
84.756000
21
177.331000
0
LINE
8
Layer 1
10
86.608000
20
173.997000
11
86.608000
21
175.997000
0
LINE
8
Layer 1
10
88.460100
20
173.997000
11
88.460100
21
175.997000
0
LINE
8
Layer 1
10
90.312200
20
173.997000
11
90.312200
21
175.997000
0
LINE
8
Layer 1
10
92.164300
20
173.997000
11
92.164300
21
175.997000
0
LINE
8
Layer 1
10
94.016400
20
173.997000
11
94.016400
21
175.997000
0
LINE
8
Layer 1
10
95.865000
20
173.997000
11
95.865000
21
177.775000
0
LINE
8
Layer 1
10
97.720500
20
173.997000
11
97.720500
21
175.997000
0
LINE
8
Layer 1
10
99.569200
20
173.997000
11
99.569200
21
175.997000
0
LINE
8
Layer 1
10
101.421000
20
173.997000
11
101.421000
21
175.997000
0
LINE
8
Layer 1
10
103.273000
20
173.997000
11
103.273000
21
175.997000
0
LINE
8
Layer 1
10
105.125000
20
173.997000
11
105.125000
21
175.997000
0
LINE
8
Layer 1
10
106.978000
20
173.997000
11
106.978000
21
178.220000
0
LINE
8
Layer 1
10
108.830000
20
173.997000
11
108.830000
21
175.997000
0
LINE
8
Layer 1
10
110.682000
20
173.997000
11
110.682000
21
175.997000
0
LINE
8
Layer 1
10
112.534000
20
173.997000
11
112.534000
21
175.997000
0
LINE
8
Layer 1
10
114.386000
20
173.997000
11
114.386000
21
175.997000
0
LINE
8
Layer 1
10
116.238000
20
173.997000
11
116.238000
21
175.997000
0
LINE
8
Layer 1
10
118.090000
20
173.997000
11
118.090000
21
178.664000
0
LINE
8
Layer 1
10
119.942000
20
173.997000
11
119.942000
21
175.997000
0
LINE
8
Layer 1
10
121.794000
20
173.997000
11
121.794000
21
175.997000
0
LINE
8
Layer 1
10
123.646000
20
173.997000
11
123.646000
21
175.997000
0
LINE
8
Layer 1
10
125.498000
20
173.997000
11
125.498000
21
175.997000
0
LINE
8
Layer 1
10
127.347000
20
173.997000
11
127.347000
21
175.997000
0
LINE
8
Layer 1
10
129.199000
20
173.997000
11
129.199000
21
179.109000
0
LINE
8
Layer 1
10
131.051000
20
173.997000
11
131.051000
21
175.997000
0
LINE
8
Layer 1
10
132.903000
20
173.997000
11
132.903000
21
175.997000
0
LINE
8
Layer 1
10
134.755000
20
173.997000
11
134.755000
21
175.997000
0
LINE
8
Layer 1
10
136.607000
20
173.997000
11
136.607000
21
175.997000
0
LINE
8
Layer 1
10
138.459000
20
173.997000
11
138.459000
21
175.997000
0
LINE
8
Layer 1
10
140.311000
20
173.997000
11
140.311000
21
179.553000
0
LINE
8
Layer 1
10
142.164000
20
173.997000
11
142.164000
21
175.997000
0
LINE
8
Layer 1
10
144.016000
20
173.997000
11
144.016000
21
175.997000
0
LINE
8
Layer 1
10
145.868000
20
173.997000
11
145.868000
21
175.997000
0
LINE
8
Layer 1
10
147.720000
20
173.997000
11
147.720000
21
175.997000
0
LINE
8
Layer 1
10
149.572000
20
173.997000
11
149.572000
21
175.997000
0
LINE
8
Layer 1
10
151.424000
20
173.997000
11
151.424000
21
179.998000
 0 
ENDSEC
 0 
EOF