%TF.GenerationSoftware,KiCad,Pcbnew,(6.0.9-0)*%
%TF.CreationDate,2023-10-23T19:11:04-03:00*%
%TF.ProjectId,Faduino-1,46616475-696e-46f2-9d31-2e6b69636164,3*%
%TF.SameCoordinates,Original*%
%TF.FileFunction,Other,User*%
%FSLAX46Y46*%
G04 Gerber Fmt 4.6, Leading zero omitted, Abs format (unit mm)*
G04 Created by KiCad (PCBNEW (6.0.9-0)) date 2023-10-23 19:11:04*
%MOMM*%
%LPD*%
G01*
G04 APERTURE LIST*
%ADD10C,0.050000*%
G04 APERTURE END LIST*
D10*
%TO.C,Extra_pins1*%
X178790000Y-65960000D02*
X178790000Y-82210000D01*
X178790000Y-82210000D02*
X182340000Y-82210000D01*
X182340000Y-82210000D02*
X182340000Y-65960000D01*
X182340000Y-65960000D02*
X178790000Y-65960000D01*
%TO.C,Power_jack1*%
X132500000Y-44000000D02*
X132250000Y-44000000D01*
X139000000Y-44000000D02*
X141750000Y-44000000D01*
X135000000Y-45000000D02*
X139000000Y-45000000D01*
X141750000Y-38000000D02*
X141750000Y-29000000D01*
X141750000Y-29000000D02*
X132250000Y-29000000D01*
X132250000Y-44000000D02*
X132250000Y-29000000D01*
X132500000Y-44000000D02*
X135000000Y-44000000D01*
X143750000Y-42000000D02*
X143750000Y-38000000D01*
X141750000Y-42000000D02*
X143750000Y-42000000D01*
X139000000Y-45000000D02*
X139000000Y-44000000D01*
X135000000Y-44000000D02*
X135000000Y-45000000D01*
X143750000Y-38000000D02*
X141750000Y-38000000D01*
X141750000Y-44000000D02*
X141750000Y-42000000D01*
%TO.C,IDC_Conn*%
X65300000Y-92200000D02*
X65300000Y-108490000D01*
X65300000Y-108490000D02*
X55400000Y-108490000D01*
X55400000Y-92200000D02*
X65300000Y-92200000D01*
X55400000Y-108490000D02*
X55400000Y-92200000D01*
%TD*%
M02*
