%TF.GenerationSoftware,KiCad,Pcbnew,(6.0.9-0)*%
%TF.CreationDate,2023-10-23T19:11:04-03:00*%
%TF.ProjectId,Faduino-1,46616475-696e-46f2-9d31-2e6b69636164,3*%
%TF.SameCoordinates,Original*%
%TF.FileFunction,Legend,Bot*%
%TF.FilePolarity,Positive*%
%FSLAX46Y46*%
G04 Gerber Fmt 4.6, Leading zero omitted, Abs format (unit mm)*
G04 Created by KiCad (PCBNEW (6.0.9-0)) date 2023-10-23 19:11:04*
%MOMM*%
%LPD*%
G01*
G04 APERTURE LIST*
%ADD10C,0.150000*%
%ADD11C,0.120000*%
G04 APERTURE END LIST*
D10*
X184180952Y-70566666D02*
X183704762Y-70566666D01*
X184276190Y-70852380D02*
X183942857Y-69852380D01*
X183609524Y-70852380D01*
X183371428Y-69852380D02*
X182752381Y-69852380D01*
X183085714Y-70233333D01*
X182942857Y-70233333D01*
X182847619Y-70280952D01*
X182800000Y-70328571D01*
X182752381Y-70423809D01*
X182752381Y-70661904D01*
X182800000Y-70757142D01*
X182847619Y-70804761D01*
X182942857Y-70852380D01*
X183228571Y-70852380D01*
X183323809Y-70804761D01*
X183371428Y-70757142D01*
X183847619Y-74985714D02*
X183466666Y-74985714D01*
X183704761Y-74652380D02*
X183704761Y-75509523D01*
X183657142Y-75604761D01*
X183561904Y-75652380D01*
X183466666Y-75652380D01*
X183228571Y-75652380D02*
X182704761Y-74985714D01*
X183228571Y-74985714D02*
X182704761Y-75652380D01*
X62043214Y-191223571D02*
X62376547Y-191223571D01*
X62376547Y-191747380D02*
X62376547Y-190747380D01*
X61900357Y-190747380D01*
X61090833Y-191747380D02*
X61090833Y-191223571D01*
X61138452Y-191128333D01*
X61233690Y-191080714D01*
X61424166Y-191080714D01*
X61519404Y-191128333D01*
X61090833Y-191699761D02*
X61186071Y-191747380D01*
X61424166Y-191747380D01*
X61519404Y-191699761D01*
X61567023Y-191604523D01*
X61567023Y-191509285D01*
X61519404Y-191414047D01*
X61424166Y-191366428D01*
X61186071Y-191366428D01*
X61090833Y-191318809D01*
X60186071Y-191747380D02*
X60186071Y-190747380D01*
X60186071Y-191699761D02*
X60281309Y-191747380D01*
X60471785Y-191747380D01*
X60567023Y-191699761D01*
X60614642Y-191652142D01*
X60662261Y-191556904D01*
X60662261Y-191271190D01*
X60614642Y-191175952D01*
X60567023Y-191128333D01*
X60471785Y-191080714D01*
X60281309Y-191080714D01*
X60186071Y-191128333D01*
X59281309Y-191080714D02*
X59281309Y-191747380D01*
X59709880Y-191080714D02*
X59709880Y-191604523D01*
X59662261Y-191699761D01*
X59567023Y-191747380D01*
X59424166Y-191747380D01*
X59328928Y-191699761D01*
X59281309Y-191652142D01*
X58805119Y-191747380D02*
X58805119Y-191080714D01*
X58805119Y-190747380D02*
X58852738Y-190795000D01*
X58805119Y-190842619D01*
X58757500Y-190795000D01*
X58805119Y-190747380D01*
X58805119Y-190842619D01*
X58328928Y-191080714D02*
X58328928Y-191747380D01*
X58328928Y-191175952D02*
X58281309Y-191128333D01*
X58186071Y-191080714D01*
X58043214Y-191080714D01*
X57947976Y-191128333D01*
X57900357Y-191223571D01*
X57900357Y-191747380D01*
X57281309Y-191747380D02*
X57376547Y-191699761D01*
X57424166Y-191652142D01*
X57471785Y-191556904D01*
X57471785Y-191271190D01*
X57424166Y-191175952D01*
X57376547Y-191128333D01*
X57281309Y-191080714D01*
X57138452Y-191080714D01*
X57043214Y-191128333D01*
X56995595Y-191175952D01*
X56947976Y-191271190D01*
X56947976Y-191556904D01*
X56995595Y-191652142D01*
X57043214Y-191699761D01*
X57138452Y-191747380D01*
X57281309Y-191747380D01*
X60757500Y-193357380D02*
X61090833Y-192881190D01*
X61328928Y-193357380D02*
X61328928Y-192357380D01*
X60947976Y-192357380D01*
X60852738Y-192405000D01*
X60805119Y-192452619D01*
X60757500Y-192547857D01*
X60757500Y-192690714D01*
X60805119Y-192785952D01*
X60852738Y-192833571D01*
X60947976Y-192881190D01*
X61328928Y-192881190D01*
X59947976Y-193309761D02*
X60043214Y-193357380D01*
X60233690Y-193357380D01*
X60328928Y-193309761D01*
X60376547Y-193214523D01*
X60376547Y-192833571D01*
X60328928Y-192738333D01*
X60233690Y-192690714D01*
X60043214Y-192690714D01*
X59947976Y-192738333D01*
X59900357Y-192833571D01*
X59900357Y-192928809D01*
X60376547Y-193024047D01*
X59567023Y-192690714D02*
X59328928Y-193357380D01*
X59090833Y-192690714D01*
X58709880Y-193262142D02*
X58662261Y-193309761D01*
X58709880Y-193357380D01*
X58757500Y-193309761D01*
X58709880Y-193262142D01*
X58709880Y-193357380D01*
X57567023Y-192357380D02*
X56947976Y-192357380D01*
X57281309Y-192738333D01*
X57138452Y-192738333D01*
X57043214Y-192785952D01*
X56995595Y-192833571D01*
X56947976Y-192928809D01*
X56947976Y-193166904D01*
X56995595Y-193262142D01*
X57043214Y-193309761D01*
X57138452Y-193357380D01*
X57424166Y-193357380D01*
X57519404Y-193309761D01*
X57567023Y-193262142D01*
X71138452Y-194967380D02*
X71138452Y-193967380D01*
X71138452Y-194348333D02*
X71043214Y-194300714D01*
X70852738Y-194300714D01*
X70757500Y-194348333D01*
X70709880Y-194395952D01*
X70662261Y-194491190D01*
X70662261Y-194776904D01*
X70709880Y-194872142D01*
X70757500Y-194919761D01*
X70852738Y-194967380D01*
X71043214Y-194967380D01*
X71138452Y-194919761D01*
X70328928Y-194300714D02*
X70090833Y-194967380D01*
X69852738Y-194300714D02*
X70090833Y-194967380D01*
X70186071Y-195205476D01*
X70233690Y-195253095D01*
X70328928Y-195300714D01*
X68186071Y-194015000D02*
X68281309Y-193967380D01*
X68424166Y-193967380D01*
X68567023Y-194015000D01*
X68662261Y-194110238D01*
X68709880Y-194205476D01*
X68757500Y-194395952D01*
X68757500Y-194538809D01*
X68709880Y-194729285D01*
X68662261Y-194824523D01*
X68567023Y-194919761D01*
X68424166Y-194967380D01*
X68328928Y-194967380D01*
X68186071Y-194919761D01*
X68138452Y-194872142D01*
X68138452Y-194538809D01*
X68328928Y-194538809D01*
X67281309Y-194300714D02*
X67281309Y-194967380D01*
X67709880Y-194300714D02*
X67709880Y-194824523D01*
X67662261Y-194919761D01*
X67567023Y-194967380D01*
X67424166Y-194967380D01*
X67328928Y-194919761D01*
X67281309Y-194872142D01*
X66852738Y-194919761D02*
X66757500Y-194967380D01*
X66567023Y-194967380D01*
X66471785Y-194919761D01*
X66424166Y-194824523D01*
X66424166Y-194776904D01*
X66471785Y-194681666D01*
X66567023Y-194634047D01*
X66709880Y-194634047D01*
X66805119Y-194586428D01*
X66852738Y-194491190D01*
X66852738Y-194443571D01*
X66805119Y-194348333D01*
X66709880Y-194300714D01*
X66567023Y-194300714D01*
X66471785Y-194348333D01*
X66138452Y-194300714D02*
X65757500Y-194300714D01*
X65995595Y-193967380D02*
X65995595Y-194824523D01*
X65947976Y-194919761D01*
X65852738Y-194967380D01*
X65757500Y-194967380D01*
X64995595Y-194967380D02*
X64995595Y-194443571D01*
X65043214Y-194348333D01*
X65138452Y-194300714D01*
X65328928Y-194300714D01*
X65424166Y-194348333D01*
X64995595Y-194919761D02*
X65090833Y-194967380D01*
X65328928Y-194967380D01*
X65424166Y-194919761D01*
X65471785Y-194824523D01*
X65471785Y-194729285D01*
X65424166Y-194634047D01*
X65328928Y-194586428D01*
X65090833Y-194586428D01*
X64995595Y-194538809D01*
X64614642Y-194300714D02*
X64376547Y-194967380D01*
X64138452Y-194300714D01*
X63614642Y-194967380D02*
X63709880Y-194919761D01*
X63757500Y-194872142D01*
X63805119Y-194776904D01*
X63805119Y-194491190D01*
X63757500Y-194395952D01*
X63709880Y-194348333D01*
X63614642Y-194300714D01*
X63471785Y-194300714D01*
X63376547Y-194348333D01*
X63328928Y-194395952D01*
X63281309Y-194491190D01*
X63281309Y-194776904D01*
X63328928Y-194872142D01*
X63376547Y-194919761D01*
X63471785Y-194967380D01*
X63614642Y-194967380D01*
X62138452Y-194919761D02*
X61995595Y-194967380D01*
X61757500Y-194967380D01*
X61662261Y-194919761D01*
X61614642Y-194872142D01*
X61567023Y-194776904D01*
X61567023Y-194681666D01*
X61614642Y-194586428D01*
X61662261Y-194538809D01*
X61757500Y-194491190D01*
X61947976Y-194443571D01*
X62043214Y-194395952D01*
X62090833Y-194348333D01*
X62138452Y-194253095D01*
X62138452Y-194157857D01*
X62090833Y-194062619D01*
X62043214Y-194015000D01*
X61947976Y-193967380D01*
X61709880Y-193967380D01*
X61567023Y-194015000D01*
X61138452Y-194967380D02*
X61138452Y-194300714D01*
X61138452Y-193967380D02*
X61186071Y-194015000D01*
X61138452Y-194062619D01*
X61090833Y-194015000D01*
X61138452Y-193967380D01*
X61138452Y-194062619D01*
X60519404Y-194967380D02*
X60614642Y-194919761D01*
X60662261Y-194824523D01*
X60662261Y-193967380D01*
X60233690Y-194300714D02*
X59995595Y-194967380D01*
X59757500Y-194300714D01*
X58995595Y-194919761D02*
X59090833Y-194967380D01*
X59281309Y-194967380D01*
X59376547Y-194919761D01*
X59424166Y-194824523D01*
X59424166Y-194443571D01*
X59376547Y-194348333D01*
X59281309Y-194300714D01*
X59090833Y-194300714D01*
X58995595Y-194348333D01*
X58947976Y-194443571D01*
X58947976Y-194538809D01*
X59424166Y-194634047D01*
X58519404Y-194967380D02*
X58519404Y-194300714D01*
X58519404Y-193967380D02*
X58567023Y-194015000D01*
X58519404Y-194062619D01*
X58471785Y-194015000D01*
X58519404Y-193967380D01*
X58519404Y-194062619D01*
X58043214Y-194967380D02*
X58043214Y-194300714D01*
X58043214Y-194491190D02*
X57995595Y-194395952D01*
X57947976Y-194348333D01*
X57852738Y-194300714D01*
X57757500Y-194300714D01*
X56995595Y-194967380D02*
X56995595Y-194443571D01*
X57043214Y-194348333D01*
X57138452Y-194300714D01*
X57328928Y-194300714D01*
X57424166Y-194348333D01*
X56995595Y-194919761D02*
X57090833Y-194967380D01*
X57328928Y-194967380D01*
X57424166Y-194919761D01*
X57471785Y-194824523D01*
X57471785Y-194729285D01*
X57424166Y-194634047D01*
X57328928Y-194586428D01*
X57090833Y-194586428D01*
X56995595Y-194538809D01*
X68662261Y-196577380D02*
X68662261Y-195910714D01*
X68662261Y-196005952D02*
X68614642Y-195958333D01*
X68519404Y-195910714D01*
X68376547Y-195910714D01*
X68281309Y-195958333D01*
X68233690Y-196053571D01*
X68233690Y-196577380D01*
X68233690Y-196053571D02*
X68186071Y-195958333D01*
X68090833Y-195910714D01*
X67947976Y-195910714D01*
X67852738Y-195958333D01*
X67805119Y-196053571D01*
X67805119Y-196577380D01*
X66900357Y-195910714D02*
X66900357Y-196577380D01*
X67328928Y-195910714D02*
X67328928Y-196434523D01*
X67281309Y-196529761D01*
X67186071Y-196577380D01*
X67043214Y-196577380D01*
X66947976Y-196529761D01*
X66900357Y-196482142D01*
X66471785Y-196529761D02*
X66376547Y-196577380D01*
X66186071Y-196577380D01*
X66090833Y-196529761D01*
X66043214Y-196434523D01*
X66043214Y-196386904D01*
X66090833Y-196291666D01*
X66186071Y-196244047D01*
X66328928Y-196244047D01*
X66424166Y-196196428D01*
X66471785Y-196101190D01*
X66471785Y-196053571D01*
X66424166Y-195958333D01*
X66328928Y-195910714D01*
X66186071Y-195910714D01*
X66090833Y-195958333D01*
X65614642Y-196577380D02*
X65614642Y-195910714D01*
X65614642Y-195577380D02*
X65662261Y-195625000D01*
X65614642Y-195672619D01*
X65567023Y-195625000D01*
X65614642Y-195577380D01*
X65614642Y-195672619D01*
X64709880Y-196529761D02*
X64805119Y-196577380D01*
X64995595Y-196577380D01*
X65090833Y-196529761D01*
X65138452Y-196482142D01*
X65186071Y-196386904D01*
X65186071Y-196101190D01*
X65138452Y-196005952D01*
X65090833Y-195958333D01*
X64995595Y-195910714D01*
X64805119Y-195910714D01*
X64709880Y-195958333D01*
X64138452Y-196577380D02*
X64233690Y-196529761D01*
X64281309Y-196482142D01*
X64328928Y-196386904D01*
X64328928Y-196101190D01*
X64281309Y-196005952D01*
X64233690Y-195958333D01*
X64138452Y-195910714D01*
X63995595Y-195910714D01*
X63900357Y-195958333D01*
X63852738Y-196005952D01*
X63805119Y-196101190D01*
X63805119Y-196386904D01*
X63852738Y-196482142D01*
X63900357Y-196529761D01*
X63995595Y-196577380D01*
X64138452Y-196577380D01*
X63376547Y-195910714D02*
X63376547Y-196577380D01*
X63376547Y-196005952D02*
X63328928Y-195958333D01*
X63233690Y-195910714D01*
X63090833Y-195910714D01*
X62995595Y-195958333D01*
X62947976Y-196053571D01*
X62947976Y-196577380D01*
X62090833Y-196529761D02*
X62186071Y-196577380D01*
X62376547Y-196577380D01*
X62471785Y-196529761D01*
X62519404Y-196434523D01*
X62519404Y-196053571D01*
X62471785Y-195958333D01*
X62376547Y-195910714D01*
X62186071Y-195910714D01*
X62090833Y-195958333D01*
X62043214Y-196053571D01*
X62043214Y-196148809D01*
X62519404Y-196244047D01*
X61614642Y-196577380D02*
X61614642Y-195910714D01*
X61614642Y-196101190D02*
X61567023Y-196005952D01*
X61519404Y-195958333D01*
X61424166Y-195910714D01*
X61328928Y-195910714D01*
X60567023Y-196577380D02*
X60567023Y-195577380D01*
X60567023Y-196529761D02*
X60662261Y-196577380D01*
X60852738Y-196577380D01*
X60947976Y-196529761D01*
X60995595Y-196482142D01*
X61043214Y-196386904D01*
X61043214Y-196101190D01*
X60995595Y-196005952D01*
X60947976Y-195958333D01*
X60852738Y-195910714D01*
X60662261Y-195910714D01*
X60567023Y-195958333D01*
X60090833Y-196482142D02*
X60043214Y-196529761D01*
X60090833Y-196577380D01*
X60138452Y-196529761D01*
X60090833Y-196482142D01*
X60090833Y-196577380D01*
X59186071Y-196529761D02*
X59281309Y-196577380D01*
X59471785Y-196577380D01*
X59567023Y-196529761D01*
X59614642Y-196482142D01*
X59662261Y-196386904D01*
X59662261Y-196101190D01*
X59614642Y-196005952D01*
X59567023Y-195958333D01*
X59471785Y-195910714D01*
X59281309Y-195910714D01*
X59186071Y-195958333D01*
X58614642Y-196577380D02*
X58709880Y-196529761D01*
X58757500Y-196482142D01*
X58805119Y-196386904D01*
X58805119Y-196101190D01*
X58757500Y-196005952D01*
X58709880Y-195958333D01*
X58614642Y-195910714D01*
X58471785Y-195910714D01*
X58376547Y-195958333D01*
X58328928Y-196005952D01*
X58281309Y-196101190D01*
X58281309Y-196386904D01*
X58328928Y-196482142D01*
X58376547Y-196529761D01*
X58471785Y-196577380D01*
X58614642Y-196577380D01*
X57852738Y-196577380D02*
X57852738Y-195910714D01*
X57852738Y-196005952D02*
X57805119Y-195958333D01*
X57709880Y-195910714D01*
X57567023Y-195910714D01*
X57471785Y-195958333D01*
X57424166Y-196053571D01*
X57424166Y-196577380D01*
X57424166Y-196053571D02*
X57376547Y-195958333D01*
X57281309Y-195910714D01*
X57138452Y-195910714D01*
X57043214Y-195958333D01*
X56995595Y-196053571D01*
X56995595Y-196577380D01*
X80709880Y-197520714D02*
X80709880Y-198330238D01*
X80757500Y-198425476D01*
X80805119Y-198473095D01*
X80900357Y-198520714D01*
X81043214Y-198520714D01*
X81138452Y-198473095D01*
X80709880Y-198139761D02*
X80805119Y-198187380D01*
X80995595Y-198187380D01*
X81090833Y-198139761D01*
X81138452Y-198092142D01*
X81186071Y-197996904D01*
X81186071Y-197711190D01*
X81138452Y-197615952D01*
X81090833Y-197568333D01*
X80995595Y-197520714D01*
X80805119Y-197520714D01*
X80709880Y-197568333D01*
X79805119Y-197520714D02*
X79805119Y-198187380D01*
X80233690Y-197520714D02*
X80233690Y-198044523D01*
X80186071Y-198139761D01*
X80090833Y-198187380D01*
X79947976Y-198187380D01*
X79852738Y-198139761D01*
X79805119Y-198092142D01*
X79376547Y-198139761D02*
X79281309Y-198187380D01*
X79090833Y-198187380D01*
X78995595Y-198139761D01*
X78947976Y-198044523D01*
X78947976Y-197996904D01*
X78995595Y-197901666D01*
X79090833Y-197854047D01*
X79233690Y-197854047D01*
X79328928Y-197806428D01*
X79376547Y-197711190D01*
X79376547Y-197663571D01*
X79328928Y-197568333D01*
X79233690Y-197520714D01*
X79090833Y-197520714D01*
X78995595Y-197568333D01*
X78662261Y-197520714D02*
X78281309Y-197520714D01*
X78519404Y-197187380D02*
X78519404Y-198044523D01*
X78471785Y-198139761D01*
X78376547Y-198187380D01*
X78281309Y-198187380D01*
X77519404Y-198187380D02*
X77519404Y-197663571D01*
X77567023Y-197568333D01*
X77662261Y-197520714D01*
X77852738Y-197520714D01*
X77947976Y-197568333D01*
X77519404Y-198139761D02*
X77614642Y-198187380D01*
X77852738Y-198187380D01*
X77947976Y-198139761D01*
X77995595Y-198044523D01*
X77995595Y-197949285D01*
X77947976Y-197854047D01*
X77852738Y-197806428D01*
X77614642Y-197806428D01*
X77519404Y-197758809D01*
X77138452Y-197520714D02*
X76900357Y-198187380D01*
X76662261Y-197520714D01*
X76138452Y-198187380D02*
X76233690Y-198139761D01*
X76281309Y-198092142D01*
X76328928Y-197996904D01*
X76328928Y-197711190D01*
X76281309Y-197615952D01*
X76233690Y-197568333D01*
X76138452Y-197520714D01*
X75995595Y-197520714D01*
X75900357Y-197568333D01*
X75852738Y-197615952D01*
X75805119Y-197711190D01*
X75805119Y-197996904D01*
X75852738Y-198092142D01*
X75900357Y-198139761D01*
X75995595Y-198187380D01*
X76138452Y-198187380D01*
X75424166Y-198139761D02*
X75328928Y-198187380D01*
X75138452Y-198187380D01*
X75043214Y-198139761D01*
X74995595Y-198044523D01*
X74995595Y-197996904D01*
X75043214Y-197901666D01*
X75138452Y-197854047D01*
X75281309Y-197854047D01*
X75376547Y-197806428D01*
X75424166Y-197711190D01*
X75424166Y-197663571D01*
X75376547Y-197568333D01*
X75281309Y-197520714D01*
X75138452Y-197520714D01*
X75043214Y-197568333D01*
X74567023Y-198187380D02*
X74567023Y-197520714D01*
X74567023Y-197187380D02*
X74614642Y-197235000D01*
X74567023Y-197282619D01*
X74519404Y-197235000D01*
X74567023Y-197187380D01*
X74567023Y-197282619D01*
X73947976Y-198187380D02*
X74043214Y-198139761D01*
X74090833Y-198044523D01*
X74090833Y-197187380D01*
X73662261Y-197520714D02*
X73424166Y-198187380D01*
X73186071Y-197520714D01*
X72424166Y-198139761D02*
X72519404Y-198187380D01*
X72709880Y-198187380D01*
X72805119Y-198139761D01*
X72852738Y-198044523D01*
X72852738Y-197663571D01*
X72805119Y-197568333D01*
X72709880Y-197520714D01*
X72519404Y-197520714D01*
X72424166Y-197568333D01*
X72376547Y-197663571D01*
X72376547Y-197758809D01*
X72852738Y-197854047D01*
X71947976Y-198187380D02*
X71947976Y-197520714D01*
X71947976Y-197187380D02*
X71995595Y-197235000D01*
X71947976Y-197282619D01*
X71900357Y-197235000D01*
X71947976Y-197187380D01*
X71947976Y-197282619D01*
X71471785Y-198187380D02*
X71471785Y-197520714D01*
X71471785Y-197711190D02*
X71424166Y-197615952D01*
X71376547Y-197568333D01*
X71281309Y-197520714D01*
X71186071Y-197520714D01*
X70424166Y-198187380D02*
X70424166Y-197663571D01*
X70471785Y-197568333D01*
X70567023Y-197520714D01*
X70757500Y-197520714D01*
X70852738Y-197568333D01*
X70424166Y-198139761D02*
X70519404Y-198187380D01*
X70757500Y-198187380D01*
X70852738Y-198139761D01*
X70900357Y-198044523D01*
X70900357Y-197949285D01*
X70852738Y-197854047D01*
X70757500Y-197806428D01*
X70519404Y-197806428D01*
X70424166Y-197758809D01*
X69328928Y-197711190D02*
X69376547Y-197663571D01*
X69471785Y-197615952D01*
X69567023Y-197615952D01*
X69662261Y-197663571D01*
X69709880Y-197711190D01*
X69757500Y-197806428D01*
X69757500Y-197901666D01*
X69709880Y-197996904D01*
X69662261Y-198044523D01*
X69567023Y-198092142D01*
X69471785Y-198092142D01*
X69376547Y-198044523D01*
X69328928Y-197996904D01*
X69328928Y-197615952D02*
X69328928Y-197996904D01*
X69281309Y-198044523D01*
X69233690Y-198044523D01*
X69138452Y-197996904D01*
X69090833Y-197901666D01*
X69090833Y-197663571D01*
X69186071Y-197520714D01*
X69328928Y-197425476D01*
X69519404Y-197377857D01*
X69709880Y-197425476D01*
X69852738Y-197520714D01*
X69947976Y-197663571D01*
X69995595Y-197854047D01*
X69947976Y-198044523D01*
X69852738Y-198187380D01*
X69709880Y-198282619D01*
X69519404Y-198330238D01*
X69328928Y-198282619D01*
X69186071Y-198187380D01*
X68662261Y-198187380D02*
X68662261Y-197520714D01*
X68662261Y-197615952D02*
X68614642Y-197568333D01*
X68519404Y-197520714D01*
X68376547Y-197520714D01*
X68281309Y-197568333D01*
X68233690Y-197663571D01*
X68233690Y-198187380D01*
X68233690Y-197663571D02*
X68186071Y-197568333D01*
X68090833Y-197520714D01*
X67947976Y-197520714D01*
X67852738Y-197568333D01*
X67805119Y-197663571D01*
X67805119Y-198187380D01*
X66900357Y-197520714D02*
X66900357Y-198187380D01*
X67328928Y-197520714D02*
X67328928Y-198044523D01*
X67281309Y-198139761D01*
X67186071Y-198187380D01*
X67043214Y-198187380D01*
X66947976Y-198139761D01*
X66900357Y-198092142D01*
X66471785Y-198139761D02*
X66376547Y-198187380D01*
X66186071Y-198187380D01*
X66090833Y-198139761D01*
X66043214Y-198044523D01*
X66043214Y-197996904D01*
X66090833Y-197901666D01*
X66186071Y-197854047D01*
X66328928Y-197854047D01*
X66424166Y-197806428D01*
X66471785Y-197711190D01*
X66471785Y-197663571D01*
X66424166Y-197568333D01*
X66328928Y-197520714D01*
X66186071Y-197520714D01*
X66090833Y-197568333D01*
X65614642Y-198187380D02*
X65614642Y-197520714D01*
X65614642Y-197187380D02*
X65662261Y-197235000D01*
X65614642Y-197282619D01*
X65567023Y-197235000D01*
X65614642Y-197187380D01*
X65614642Y-197282619D01*
X64709880Y-198139761D02*
X64805119Y-198187380D01*
X64995595Y-198187380D01*
X65090833Y-198139761D01*
X65138452Y-198092142D01*
X65186071Y-197996904D01*
X65186071Y-197711190D01*
X65138452Y-197615952D01*
X65090833Y-197568333D01*
X64995595Y-197520714D01*
X64805119Y-197520714D01*
X64709880Y-197568333D01*
X64138452Y-198187380D02*
X64233690Y-198139761D01*
X64281309Y-198092142D01*
X64328928Y-197996904D01*
X64328928Y-197711190D01*
X64281309Y-197615952D01*
X64233690Y-197568333D01*
X64138452Y-197520714D01*
X63995595Y-197520714D01*
X63900357Y-197568333D01*
X63852738Y-197615952D01*
X63805119Y-197711190D01*
X63805119Y-197996904D01*
X63852738Y-198092142D01*
X63900357Y-198139761D01*
X63995595Y-198187380D01*
X64138452Y-198187380D01*
X63376547Y-197520714D02*
X63376547Y-198187380D01*
X63376547Y-197615952D02*
X63328928Y-197568333D01*
X63233690Y-197520714D01*
X63090833Y-197520714D01*
X62995595Y-197568333D01*
X62947976Y-197663571D01*
X62947976Y-198187380D01*
X62090833Y-198139761D02*
X62186071Y-198187380D01*
X62376547Y-198187380D01*
X62471785Y-198139761D01*
X62519404Y-198044523D01*
X62519404Y-197663571D01*
X62471785Y-197568333D01*
X62376547Y-197520714D01*
X62186071Y-197520714D01*
X62090833Y-197568333D01*
X62043214Y-197663571D01*
X62043214Y-197758809D01*
X62519404Y-197854047D01*
X61614642Y-198187380D02*
X61614642Y-197520714D01*
X61614642Y-197711190D02*
X61567023Y-197615952D01*
X61519404Y-197568333D01*
X61424166Y-197520714D01*
X61328928Y-197520714D01*
X60567023Y-198187380D02*
X60567023Y-197187380D01*
X60567023Y-198139761D02*
X60662261Y-198187380D01*
X60852738Y-198187380D01*
X60947976Y-198139761D01*
X60995595Y-198092142D01*
X61043214Y-197996904D01*
X61043214Y-197711190D01*
X60995595Y-197615952D01*
X60947976Y-197568333D01*
X60852738Y-197520714D01*
X60662261Y-197520714D01*
X60567023Y-197568333D01*
X60090833Y-198092142D02*
X60043214Y-198139761D01*
X60090833Y-198187380D01*
X60138452Y-198139761D01*
X60090833Y-198092142D01*
X60090833Y-198187380D01*
X59186071Y-198139761D02*
X59281309Y-198187380D01*
X59471785Y-198187380D01*
X59567023Y-198139761D01*
X59614642Y-198092142D01*
X59662261Y-197996904D01*
X59662261Y-197711190D01*
X59614642Y-197615952D01*
X59567023Y-197568333D01*
X59471785Y-197520714D01*
X59281309Y-197520714D01*
X59186071Y-197568333D01*
X58614642Y-198187380D02*
X58709880Y-198139761D01*
X58757500Y-198092142D01*
X58805119Y-197996904D01*
X58805119Y-197711190D01*
X58757500Y-197615952D01*
X58709880Y-197568333D01*
X58614642Y-197520714D01*
X58471785Y-197520714D01*
X58376547Y-197568333D01*
X58328928Y-197615952D01*
X58281309Y-197711190D01*
X58281309Y-197996904D01*
X58328928Y-198092142D01*
X58376547Y-198139761D01*
X58471785Y-198187380D01*
X58614642Y-198187380D01*
X57852738Y-198187380D02*
X57852738Y-197520714D01*
X57852738Y-197615952D02*
X57805119Y-197568333D01*
X57709880Y-197520714D01*
X57567023Y-197520714D01*
X57471785Y-197568333D01*
X57424166Y-197663571D01*
X57424166Y-198187380D01*
X57424166Y-197663571D02*
X57376547Y-197568333D01*
X57281309Y-197520714D01*
X57138452Y-197520714D01*
X57043214Y-197568333D01*
X56995595Y-197663571D01*
X56995595Y-198187380D01*
X60376547Y-198892619D02*
X60328928Y-198845000D01*
X60233690Y-198797380D01*
X59995595Y-198797380D01*
X59900357Y-198845000D01*
X59852738Y-198892619D01*
X59805119Y-198987857D01*
X59805119Y-199083095D01*
X59852738Y-199225952D01*
X60424166Y-199797380D01*
X59805119Y-199797380D01*
X59186071Y-198797380D02*
X59090833Y-198797380D01*
X58995595Y-198845000D01*
X58947976Y-198892619D01*
X58900357Y-198987857D01*
X58852738Y-199178333D01*
X58852738Y-199416428D01*
X58900357Y-199606904D01*
X58947976Y-199702142D01*
X58995595Y-199749761D01*
X59090833Y-199797380D01*
X59186071Y-199797380D01*
X59281309Y-199749761D01*
X59328928Y-199702142D01*
X59376547Y-199606904D01*
X59424166Y-199416428D01*
X59424166Y-199178333D01*
X59376547Y-198987857D01*
X59328928Y-198892619D01*
X59281309Y-198845000D01*
X59186071Y-198797380D01*
X58471785Y-198892619D02*
X58424166Y-198845000D01*
X58328928Y-198797380D01*
X58090833Y-198797380D01*
X57995595Y-198845000D01*
X57947976Y-198892619D01*
X57900357Y-198987857D01*
X57900357Y-199083095D01*
X57947976Y-199225952D01*
X58519404Y-199797380D01*
X57900357Y-199797380D01*
X57567023Y-198797380D02*
X56947976Y-198797380D01*
X57281309Y-199178333D01*
X57138452Y-199178333D01*
X57043214Y-199225952D01*
X56995595Y-199273571D01*
X56947976Y-199368809D01*
X56947976Y-199606904D01*
X56995595Y-199702142D01*
X57043214Y-199749761D01*
X57138452Y-199797380D01*
X57424166Y-199797380D01*
X57519404Y-199749761D01*
X57567023Y-199702142D01*
X184895238Y-77585714D02*
X184657142Y-78252380D01*
X184419047Y-77585714D01*
X183609523Y-78204761D02*
X183704761Y-78252380D01*
X183895238Y-78252380D01*
X183990476Y-78204761D01*
X184038095Y-78157142D01*
X184085714Y-78061904D01*
X184085714Y-77776190D01*
X184038095Y-77680952D01*
X183990476Y-77633333D01*
X183895238Y-77585714D01*
X183704761Y-77585714D01*
X183609523Y-77633333D01*
X182752380Y-78204761D02*
X182847619Y-78252380D01*
X183038095Y-78252380D01*
X183133333Y-78204761D01*
X183180952Y-78157142D01*
X183228571Y-78061904D01*
X183228571Y-77776190D01*
X183180952Y-77680952D01*
X183133333Y-77633333D01*
X183038095Y-77585714D01*
X182847619Y-77585714D01*
X182752380Y-77633333D01*
X184609524Y-80285714D02*
X184609524Y-81095238D01*
X184657143Y-81190476D01*
X184704762Y-81238095D01*
X184800000Y-81285714D01*
X184942857Y-81285714D01*
X185038095Y-81238095D01*
X184609524Y-80904761D02*
X184704762Y-80952380D01*
X184895238Y-80952380D01*
X184990476Y-80904761D01*
X185038095Y-80857142D01*
X185085714Y-80761904D01*
X185085714Y-80476190D01*
X185038095Y-80380952D01*
X184990476Y-80333333D01*
X184895238Y-80285714D01*
X184704762Y-80285714D01*
X184609524Y-80333333D01*
X184133333Y-80285714D02*
X184133333Y-80952380D01*
X184133333Y-80380952D02*
X184085714Y-80333333D01*
X183990476Y-80285714D01*
X183847619Y-80285714D01*
X183752381Y-80333333D01*
X183704762Y-80428571D01*
X183704762Y-80952380D01*
X182800000Y-80952380D02*
X182800000Y-79952380D01*
X182800000Y-80904761D02*
X182895238Y-80952380D01*
X183085714Y-80952380D01*
X183180952Y-80904761D01*
X183228571Y-80857142D01*
X183276190Y-80761904D01*
X183276190Y-80476190D01*
X183228571Y-80380952D01*
X183180952Y-80333333D01*
X183085714Y-80285714D01*
X182895238Y-80285714D01*
X182800000Y-80333333D01*
X183752380Y-73252380D02*
X183752380Y-72585714D01*
X183752380Y-72776190D02*
X183704761Y-72680952D01*
X183657142Y-72633333D01*
X183561904Y-72585714D01*
X183466666Y-72585714D01*
X183228570Y-73252380D02*
X182704761Y-72585714D01*
X183228570Y-72585714D02*
X182704761Y-73252380D01*
X184323809Y-68052380D02*
X184323809Y-67385714D01*
X184323809Y-67576190D02*
X184276190Y-67480952D01*
X184228571Y-67433333D01*
X184133333Y-67385714D01*
X184038095Y-67385714D01*
X183752381Y-68004761D02*
X183657143Y-68052380D01*
X183466666Y-68052380D01*
X183371428Y-68004761D01*
X183323809Y-67909523D01*
X183323809Y-67861904D01*
X183371428Y-67766666D01*
X183466666Y-67719047D01*
X183609524Y-67719047D01*
X183704762Y-67671428D01*
X183752381Y-67576190D01*
X183752381Y-67528571D01*
X183704762Y-67433333D01*
X183609524Y-67385714D01*
X183466666Y-67385714D01*
X183371428Y-67433333D01*
X183038095Y-67385714D02*
X182657143Y-67385714D01*
X182895238Y-67052380D02*
X182895238Y-67909523D01*
X182847619Y-68004761D01*
X182752381Y-68052380D01*
X182657143Y-68052380D01*
%TO.C,Extra_pins1*%
X178028571Y-68428571D02*
X178028571Y-68761904D01*
X178552380Y-68904761D02*
X178552380Y-68428571D01*
X177552380Y-68428571D01*
X177552380Y-68904761D01*
X178552380Y-69238095D02*
X177885714Y-69761904D01*
X177885714Y-69238095D02*
X178552380Y-69761904D01*
X177885714Y-70000000D02*
X177885714Y-70380952D01*
X177552380Y-70142857D02*
X178409523Y-70142857D01*
X178504761Y-70190476D01*
X178552380Y-70285714D01*
X178552380Y-70380952D01*
X178552380Y-70714285D02*
X177885714Y-70714285D01*
X178076190Y-70714285D02*
X177980952Y-70761904D01*
X177933333Y-70809523D01*
X177885714Y-70904761D01*
X177885714Y-71000000D01*
X178552380Y-71761904D02*
X178028571Y-71761904D01*
X177933333Y-71714285D01*
X177885714Y-71619047D01*
X177885714Y-71428571D01*
X177933333Y-71333333D01*
X178504761Y-71761904D02*
X178552380Y-71666666D01*
X178552380Y-71428571D01*
X178504761Y-71333333D01*
X178409523Y-71285714D01*
X178314285Y-71285714D01*
X178219047Y-71333333D01*
X178171428Y-71428571D01*
X178171428Y-71666666D01*
X178123809Y-71761904D01*
X178647619Y-72000000D02*
X178647619Y-72761904D01*
X177885714Y-73000000D02*
X178885714Y-73000000D01*
X177933333Y-73000000D02*
X177885714Y-73095238D01*
X177885714Y-73285714D01*
X177933333Y-73380952D01*
X177980952Y-73428571D01*
X178076190Y-73476190D01*
X178361904Y-73476190D01*
X178457142Y-73428571D01*
X178504761Y-73380952D01*
X178552380Y-73285714D01*
X178552380Y-73095238D01*
X178504761Y-73000000D01*
X178552380Y-73904761D02*
X177885714Y-73904761D01*
X177552380Y-73904761D02*
X177600000Y-73857142D01*
X177647619Y-73904761D01*
X177600000Y-73952380D01*
X177552380Y-73904761D01*
X177647619Y-73904761D01*
X177885714Y-74380952D02*
X178552380Y-74380952D01*
X177980952Y-74380952D02*
X177933333Y-74428571D01*
X177885714Y-74523809D01*
X177885714Y-74666666D01*
X177933333Y-74761904D01*
X178028571Y-74809523D01*
X178552380Y-74809523D01*
X178504761Y-75238095D02*
X178552380Y-75333333D01*
X178552380Y-75523809D01*
X178504761Y-75619047D01*
X178409523Y-75666666D01*
X178361904Y-75666666D01*
X178266666Y-75619047D01*
X178219047Y-75523809D01*
X178219047Y-75380952D01*
X178171428Y-75285714D01*
X178076190Y-75238095D01*
X178028571Y-75238095D01*
X177933333Y-75285714D01*
X177885714Y-75380952D01*
X177885714Y-75523809D01*
X177933333Y-75619047D01*
X178552380Y-76619047D02*
X178552380Y-76047619D01*
X178552380Y-76333333D02*
X177552380Y-76333333D01*
X177695238Y-76238095D01*
X177790476Y-76142857D01*
X177838095Y-76047619D01*
%TO.C,Power_jack1*%
X143202380Y-30192857D02*
X142202380Y-30192857D01*
X142202380Y-30573809D01*
X142250000Y-30669047D01*
X142297619Y-30716666D01*
X142392857Y-30764285D01*
X142535714Y-30764285D01*
X142630952Y-30716666D01*
X142678571Y-30669047D01*
X142726190Y-30573809D01*
X142726190Y-30192857D01*
X143202380Y-31335714D02*
X143154761Y-31240476D01*
X143107142Y-31192857D01*
X143011904Y-31145238D01*
X142726190Y-31145238D01*
X142630952Y-31192857D01*
X142583333Y-31240476D01*
X142535714Y-31335714D01*
X142535714Y-31478571D01*
X142583333Y-31573809D01*
X142630952Y-31621428D01*
X142726190Y-31669047D01*
X143011904Y-31669047D01*
X143107142Y-31621428D01*
X143154761Y-31573809D01*
X143202380Y-31478571D01*
X143202380Y-31335714D01*
X142535714Y-32002380D02*
X143202380Y-32192857D01*
X142726190Y-32383333D01*
X143202380Y-32573809D01*
X142535714Y-32764285D01*
X143154761Y-33526190D02*
X143202380Y-33430952D01*
X143202380Y-33240476D01*
X143154761Y-33145238D01*
X143059523Y-33097619D01*
X142678571Y-33097619D01*
X142583333Y-33145238D01*
X142535714Y-33240476D01*
X142535714Y-33430952D01*
X142583333Y-33526190D01*
X142678571Y-33573809D01*
X142773809Y-33573809D01*
X142869047Y-33097619D01*
X143202380Y-34002380D02*
X142535714Y-34002380D01*
X142726190Y-34002380D02*
X142630952Y-34050000D01*
X142583333Y-34097619D01*
X142535714Y-34192857D01*
X142535714Y-34288095D01*
X143297619Y-34383333D02*
X143297619Y-35145238D01*
X142535714Y-35383333D02*
X143392857Y-35383333D01*
X143488095Y-35335714D01*
X143535714Y-35240476D01*
X143535714Y-35192857D01*
X142202380Y-35383333D02*
X142250000Y-35335714D01*
X142297619Y-35383333D01*
X142250000Y-35430952D01*
X142202380Y-35383333D01*
X142297619Y-35383333D01*
X143202380Y-36288095D02*
X142678571Y-36288095D01*
X142583333Y-36240476D01*
X142535714Y-36145238D01*
X142535714Y-35954761D01*
X142583333Y-35859523D01*
X143154761Y-36288095D02*
X143202380Y-36192857D01*
X143202380Y-35954761D01*
X143154761Y-35859523D01*
X143059523Y-35811904D01*
X142964285Y-35811904D01*
X142869047Y-35859523D01*
X142821428Y-35954761D01*
X142821428Y-36192857D01*
X142773809Y-36288095D01*
X143154761Y-37192857D02*
X143202380Y-37097619D01*
X143202380Y-36907142D01*
X143154761Y-36811904D01*
X143107142Y-36764285D01*
X143011904Y-36716666D01*
X142726190Y-36716666D01*
X142630952Y-36764285D01*
X142583333Y-36811904D01*
X142535714Y-36907142D01*
X142535714Y-37097619D01*
X142583333Y-37192857D01*
X143202380Y-37621428D02*
X142202380Y-37621428D01*
X142821428Y-37716666D02*
X143202380Y-38002380D01*
X142535714Y-38002380D02*
X142916666Y-37621428D01*
X143202380Y-38954761D02*
X143202380Y-38383333D01*
X143202380Y-38669047D02*
X142202380Y-38669047D01*
X142345238Y-38573809D01*
X142440476Y-38478571D01*
X142488095Y-38383333D01*
%TO.C,U1*%
X172702380Y-47608095D02*
X173511904Y-47608095D01*
X173607142Y-47655714D01*
X173654761Y-47703333D01*
X173702380Y-47798571D01*
X173702380Y-47989047D01*
X173654761Y-48084285D01*
X173607142Y-48131904D01*
X173511904Y-48179523D01*
X172702380Y-48179523D01*
X173702380Y-49179523D02*
X173702380Y-48608095D01*
X173702380Y-48893809D02*
X172702380Y-48893809D01*
X172845238Y-48798571D01*
X172940476Y-48703333D01*
X172988095Y-48608095D01*
%TO.C,IDC_Conn*%
X63588095Y-109442380D02*
X63588095Y-108442380D01*
X63111904Y-109442380D02*
X63111904Y-108442380D01*
X62873809Y-108442380D01*
X62730952Y-108490000D01*
X62635714Y-108585238D01*
X62588095Y-108680476D01*
X62540476Y-108870952D01*
X62540476Y-109013809D01*
X62588095Y-109204285D01*
X62635714Y-109299523D01*
X62730952Y-109394761D01*
X62873809Y-109442380D01*
X63111904Y-109442380D01*
X61540476Y-109347142D02*
X61588095Y-109394761D01*
X61730952Y-109442380D01*
X61826190Y-109442380D01*
X61969047Y-109394761D01*
X62064285Y-109299523D01*
X62111904Y-109204285D01*
X62159523Y-109013809D01*
X62159523Y-108870952D01*
X62111904Y-108680476D01*
X62064285Y-108585238D01*
X61969047Y-108490000D01*
X61826190Y-108442380D01*
X61730952Y-108442380D01*
X61588095Y-108490000D01*
X61540476Y-108537619D01*
X61350000Y-109537619D02*
X60588095Y-109537619D01*
X59778571Y-109347142D02*
X59826190Y-109394761D01*
X59969047Y-109442380D01*
X60064285Y-109442380D01*
X60207142Y-109394761D01*
X60302380Y-109299523D01*
X60350000Y-109204285D01*
X60397619Y-109013809D01*
X60397619Y-108870952D01*
X60350000Y-108680476D01*
X60302380Y-108585238D01*
X60207142Y-108490000D01*
X60064285Y-108442380D01*
X59969047Y-108442380D01*
X59826190Y-108490000D01*
X59778571Y-108537619D01*
X59207142Y-109442380D02*
X59302380Y-109394761D01*
X59350000Y-109347142D01*
X59397619Y-109251904D01*
X59397619Y-108966190D01*
X59350000Y-108870952D01*
X59302380Y-108823333D01*
X59207142Y-108775714D01*
X59064285Y-108775714D01*
X58969047Y-108823333D01*
X58921428Y-108870952D01*
X58873809Y-108966190D01*
X58873809Y-109251904D01*
X58921428Y-109347142D01*
X58969047Y-109394761D01*
X59064285Y-109442380D01*
X59207142Y-109442380D01*
X58445238Y-108775714D02*
X58445238Y-109442380D01*
X58445238Y-108870952D02*
X58397619Y-108823333D01*
X58302380Y-108775714D01*
X58159523Y-108775714D01*
X58064285Y-108823333D01*
X58016666Y-108918571D01*
X58016666Y-109442380D01*
X57540476Y-108775714D02*
X57540476Y-109442380D01*
X57540476Y-108870952D02*
X57492857Y-108823333D01*
X57397619Y-108775714D01*
X57254761Y-108775714D01*
X57159523Y-108823333D01*
X57111904Y-108918571D01*
X57111904Y-109442380D01*
D11*
%TO.C,Extra_pins1*%
X179260000Y-79140000D02*
X179260000Y-66380000D01*
X179260000Y-66380000D02*
X181920000Y-66380000D01*
X181920000Y-79140000D02*
X181920000Y-66380000D01*
X180590000Y-81740000D02*
X181920000Y-81740000D01*
X181920000Y-81740000D02*
X181920000Y-80410000D01*
X179260000Y-79140000D02*
X181920000Y-79140000D01*
%TO.C,Power_jack1*%
X132400000Y-29200000D02*
X132400000Y-43900000D01*
X132400000Y-43900000D02*
X135000000Y-43900000D01*
X132200000Y-43050000D02*
X132200000Y-44100000D01*
X141600000Y-29200000D02*
X132400000Y-29200000D01*
X141600000Y-38000000D02*
X141600000Y-29200000D01*
X138900000Y-43900000D02*
X141600000Y-43900000D01*
X133250000Y-44100000D02*
X132200000Y-44100000D01*
X141600000Y-43900000D02*
X141600000Y-42000000D01*
D10*
%TO.C,U1*%
X164110000Y-63240000D02*
X181890000Y-63240000D01*
X164110000Y-30200000D02*
X164110000Y-63240000D01*
X176810000Y-37780000D02*
X176810000Y-28890000D01*
X169190000Y-28890000D02*
X169190000Y-37780000D01*
X176810000Y-28890000D02*
X169190000Y-28890000D01*
X169190000Y-37780000D02*
X176810000Y-37780000D01*
X181890000Y-63240000D02*
X181890000Y-30200000D01*
X181890000Y-30200000D02*
X164110000Y-30200000D01*
D11*
%TO.C,IDC_Conn*%
X57100000Y-98300000D02*
X57100000Y-98300000D01*
X57100000Y-98300000D02*
X55790000Y-98300000D01*
X54400000Y-102390000D02*
X55400000Y-102890000D01*
X64910000Y-92600000D02*
X55790000Y-92600000D01*
X63600000Y-106800000D02*
X63600000Y-93900000D01*
X55400000Y-102890000D02*
X54400000Y-103390000D01*
X55790000Y-92600000D02*
X55790000Y-108100000D01*
X63600000Y-93900000D02*
X57100000Y-93900000D01*
X64910000Y-108100000D02*
X64910000Y-92600000D01*
X57100000Y-102400000D02*
X57100000Y-106800000D01*
X57100000Y-93900000D02*
X57100000Y-98300000D01*
X55790000Y-102400000D02*
X57100000Y-102400000D01*
X54400000Y-103390000D02*
X54400000Y-102390000D01*
X55790000Y-108100000D02*
X64910000Y-108100000D01*
X57100000Y-106800000D02*
X63600000Y-106800000D01*
%TD*%
M02*
