M48
; DRILL file {KiCad (6.0.9-0)} date 2023 October 23, Monday 19:11:10
; FORMAT={-:-/ absolute / metric / decimal}
; #@! TF.CreationDate,2023-10-23T19:11:10-03:00
; #@! TF.GenerationSoftware,Kicad,Pcbnew,(6.0.9-0)
; #@! TF.FileFunction,Plated,1,2,PTH
FMAT,2
METRIC
; #@! TA.AperFunction,Plated,PTH,ViaDrill
T1C0.400
; #@! TA.AperFunction,Plated,PTH,ComponentDrill
T2C0.508
; #@! TA.AperFunction,Plated,PTH,ComponentDrill
T3C1.000
; #@! TA.AperFunction,Plated,PTH,ComponentDrill
T4C1.100
; #@! TA.AperFunction,Plated,PTH,ComponentDrill
T5C2.600
; #@! TA.AperFunction,Plated,PTH,ComponentDrill
T6C3.200
%
G90
G05
T1
X65.79Y-74.93
X66.12Y-109.22
X66.47Y-73.75
X66.5Y-96.1
X66.56Y-151.97
X66.684Y-148.76
X67.25Y-128.7
X68.52Y-97.16
X71.24Y-57.98
X71.59Y-95.31
X71.756Y-51.9
X71.76Y-209.24
X71.91Y-76.65
X72.04Y-149.97
X72.29Y-74.89
X72.4Y-133.9
X72.43Y-151.92
X72.67Y-174.55
X72.68Y-125.27
X72.77Y-158.75
X72.82Y-183.73
X72.844Y-83.358
X73.19Y-50.09
X73.22Y-127.71
X73.44Y-58.68
X73.58Y-177.78
X74.18Y-121.83
X74.33Y-171.46
X74.49Y-146.39
X74.96Y-46.84
X75.28Y-165.47
X75.32Y-199.88
X75.52Y-196.63
X75.62Y-190.75
X75.63Y-202.93
X75.71Y-53.04
X75.8Y-71.96
X75.98Y-61.8
X77.13Y-51.11
X77.52Y-136.49
X77.74Y-125.02
X77.88Y-200.73
X77.89Y-123.27
X78.03Y-175.24
X78.16Y-150.03
X78.34Y-74.92
X81.25Y-56.81
X81.78Y-68.85
X83.478Y-63.085
X83.49Y-123.77
X85.39Y-65.435
X88.71Y-105.835
X88.99Y-107.7
X96.54Y-75.19
X96.72Y-50.91
X96.77Y-200.78
X96.83Y-125.08
X96.99Y-59.65
X97.03Y-149.95
X97.28Y-183.38
X97.34Y-175.27
X97.51Y-158.71
X97.56Y-210.05
X97.62Y-134.99
X98.07Y-84.29
X98.48Y-53.36
X98.57Y-152.95
X98.84Y-178.04
X98.93Y-127.98
X99.16Y-62.1
X99.25Y-46.95
X99.26Y-78.07
X99.44Y-111.09
X99.7Y-146.66
X100.03Y-71.58
X100.03Y-202.9
X100.04Y-171.63
X100.29Y-196.75
X100.34Y-121.82
X100.65Y-186.29
X100.67Y-63.01
X100.81Y-161.04
X100.9Y-106.08
X101.3Y-104.26
X102.05Y-136.32
X102.59Y-175.25
X102.67Y-150.07
X102.72Y-201.15
X103.1Y-50.26
X103.11Y-75.34
X103.14Y-124.79
X103.64Y-37.24
X109.71Y-89.79
X110.39Y-86.475
X111.13Y-62.52
X111.13Y-65.885
X118.54Y-36.18
X120.63Y-210.09
X121.31Y-175.52
X121.54Y-200.69
X121.73Y-150.27
X121.87Y-135.93
X122.08Y-133.95
X122.09Y-158.34
X122.16Y-210.29
X122.26Y-47.68
X122.28Y-75.21
X122.44Y-51.2
X122.48Y-183.38
X122.6Y-177.37
X122.68Y-124.85
X122.86Y-59.32
X123.3Y-84.42
X123.35Y-149.98
X123.51Y-53.01
X123.65Y-190.33
X123.88Y-78.19
X124.13Y-121.72
X124.13Y-202.91
X124.23Y-153.05
X124.25Y-128.39
X124.98Y-146.29
X124.99Y-196.59
X125.06Y-171.53
X125.56Y-112.65
X125.57Y-46.44
X126.13Y-71.71
X126.59Y-161.19
X126.87Y-177.58
X126.88Y-40.73
X127.02Y-115.97
X127.29Y-135.95
X127.32Y-61.38
X127.88Y-125.24
X127.9Y-75.21
X127.98Y-150.03
X128.07Y-110.74
X128.21Y-49.76
X128.33Y-210.01
X128.66Y-41.94
X128.94Y-113.175
X132.278Y-42.792
X133.07Y-35.68
X136.81Y-46.705
X139.61Y-111.0
X139.75Y-98.55
X142.39Y-206.87
X143.16Y-43.86
X145.37Y-116.31
X146.53Y-139.15
X146.97Y-150.11
X147.1Y-210.05
X147.25Y-50.19
X147.26Y-75.24
X147.29Y-126.38
X147.34Y-125.28
X147.35Y-183.87
X147.38Y-200.47
X147.55Y-47.73
X147.73Y-60.63
X147.76Y-133.95
X147.78Y-158.67
X147.96Y-83.88
X147.98Y-127.42
X148.25Y-66.41
X148.42Y-121.99
X148.54Y-203.0
X148.83Y-78.1
X148.9Y-177.88
X148.93Y-53.17
X149.38Y-71.52
X149.47Y-146.8
X149.54Y-196.74
X149.882Y-152.31
X149.93Y-171.6
X150.8Y-58.45
X151.0Y-53.19
X151.12Y-172.16
X151.13Y-78.03
X151.33Y-186.47
X151.34Y-196.82
X152.16Y-150.31
X152.21Y-160.59
X152.22Y-202.01
X152.57Y-197.85
X152.78Y-176.73
X153.0Y-126.14
X153.04Y-138.265
X153.1Y-209.93
X154.24Y-132.48
X156.325Y-65.26
X156.45Y-58.35
X157.29Y-62.185
X157.905Y-64.535
X158.19Y-197.52
X158.848Y-60.385
X159.033Y-61.367
X159.518Y-66.015
X159.52Y-114.67
X159.54Y-102.21
X159.605Y-113.26
X159.605Y-116.01
X159.64Y-135.37
X160.43Y-146.26
X160.75Y-106.75
X160.86Y-96.0
X161.382Y-165.622
X161.49Y-104.64
X161.75Y-189.905
X162.342Y-105.412
X162.7Y-100.6
X162.874Y-110.114
X162.936Y-165.094
X162.944Y-64.254
X163.14Y-182.77
X163.196Y-158.824
X163.305Y-111.898
X163.938Y-113.308
X163.97Y-171.57
X163.996Y-87.446
X164.008Y-160.272
X164.164Y-108.824
X164.176Y-166.334
X164.205Y-148.01
X164.21Y-119.47
X164.59Y-81.62
X164.603Y-167.787
X164.733Y-160.961
X165.15Y-102.405
X165.65Y-81.86
X165.8Y-89.71
X165.888Y-162.152
X166.93Y-106.61
X167.6Y-95.275
X168.72Y-65.57
X169.84Y-71.57
X169.87Y-62.93
X170.19Y-184.39
X170.38Y-41.27
X170.4Y-54.57
X170.4Y-56.61
X170.527Y-52.033
X170.82Y-186.32
X170.85Y-64.42
X171.0Y-97.84
X171.797Y-97.236
X172.19Y-169.8
X172.3Y-56.85
X172.42Y-55.49
X172.75Y-48.97
X173.07Y-193.07
X173.24Y-187.55
X173.52Y-96.29
X173.61Y-98.85
X173.75Y-81.74
X174.122Y-169.542
X174.2Y-47.13
X174.475Y-80.925
X174.475Y-92.31
X174.893Y-170.823
X175.1Y-53.97
X175.35Y-77.52
X175.55Y-64.3
X176.328Y-77.311
X176.498Y-175.418
X176.65Y-79.8
X176.79Y-177.41
X176.87Y-78.815
X176.91Y-46.405
X177.093Y-75.887
X177.15Y-66.72
X177.325Y-77.145
X177.59Y-33.35
X177.745Y-113.04
X177.854Y-78.634
X177.875Y-116.618
X178.26Y-38.85
X178.325Y-117.702
X178.579Y-79.79
X179.0Y-193.68
X179.76Y-91.93
X179.76Y-92.93
X180.26Y-189.04
X181.32Y-189.89
X181.75Y-192.14
X183.05Y-40.63
X183.224Y-189.59
X183.37Y-37.43
X184.26Y-30.55
X184.78Y-186.55
T2
X70.626Y-49.022
X70.626Y-74.022
X70.626Y-124.022
X70.626Y-149.022
X70.626Y-174.022
X70.626Y-199.022
X81.52Y-45.67
X81.52Y-70.67
X81.52Y-120.67
X81.52Y-145.67
X81.52Y-170.67
X81.52Y-195.67
X95.626Y-49.022
X95.626Y-74.022
X95.626Y-124.022
X95.626Y-149.022
X95.626Y-174.022
X95.626Y-199.022
X106.52Y-45.67
X106.52Y-70.67
X106.52Y-120.67
X106.52Y-145.67
X106.52Y-170.67
X106.52Y-195.67
X120.626Y-49.022
X120.626Y-74.022
X120.626Y-124.022
X120.626Y-149.022
X120.626Y-174.022
X120.626Y-199.022
X131.52Y-45.67
X131.52Y-70.67
X131.52Y-120.67
X131.52Y-145.67
X131.52Y-170.67
X131.52Y-195.67
X145.626Y-49.022
X145.626Y-74.022
X145.626Y-124.022
X145.626Y-149.022
X145.626Y-174.022
X145.626Y-199.022
X156.52Y-45.67
X156.52Y-70.67
X156.52Y-120.67
X156.52Y-145.67
X156.52Y-170.67
X156.52Y-195.67
T3
X59.08Y-97.81
X59.08Y-100.35
X59.08Y-102.89
X61.62Y-97.81
X61.62Y-100.35
X61.62Y-102.89
X110.05Y-93.03
X110.05Y-107.53
X112.55Y-107.53
X115.05Y-93.03
X115.05Y-107.53
X180.59Y-67.71
X180.59Y-70.25
X180.59Y-72.79
X180.59Y-75.33
X180.59Y-77.87
X180.59Y-80.41
T4
X165.38Y-34.03
X165.38Y-36.57
X165.38Y-39.11
X165.38Y-41.65
X165.38Y-44.19
X165.38Y-46.73
X165.38Y-49.27
X165.38Y-51.81
X165.38Y-54.35
X165.38Y-56.89
X165.38Y-59.43
X165.38Y-61.97
X180.62Y-34.03
X180.62Y-36.57
X180.62Y-39.11
X180.62Y-41.65
X180.62Y-44.19
X180.62Y-46.73
X180.62Y-49.27
X180.62Y-51.81
X180.62Y-54.35
X180.62Y-56.89
X180.62Y-59.43
X180.62Y-61.97
T5
X106.95Y-100.03
X118.15Y-100.03
T6
X58.0Y-33.5
X58.0Y-121.5
X58.0Y-209.5
X185.5Y-33.5
X185.5Y-121.5
X185.5Y-209.5
T3
G00X138.0Y-37.0
M15
G01X136.0Y-37.0
M16
G05
G00X138.0Y-43.0
M15
G01X136.0Y-43.0
M16
G05
G00X141.7Y-39.0
M15
G01X141.7Y-41.0
M16
G05
T0
M30
