%TF.GenerationSoftware,KiCad,Pcbnew,(6.0.9-0)*%
%TF.CreationDate,2023-10-23T19:11:04-03:00*%
%TF.ProjectId,Faduino-1,46616475-696e-46f2-9d31-2e6b69636164,3*%
%TF.SameCoordinates,Original*%
%TF.FileFunction,Paste,Top*%
%TF.FilePolarity,Positive*%
%FSLAX46Y46*%
G04 Gerber Fmt 4.6, Leading zero omitted, Abs format (unit mm)*
G04 Created by KiCad (PCBNEW (6.0.9-0)) date 2023-10-23 19:11:04*
%MOMM*%
%LPD*%
G01*
G04 APERTURE LIST*
G04 Aperture macros list*
%AMRoundRect*
0 Rectangle with rounded corners*
0 $1 Rounding radius*
0 $2 $3 $4 $5 $6 $7 $8 $9 X,Y pos of 4 corners*
0 Add a 4 corners polygon primitive as box body*
4,1,4,$2,$3,$4,$5,$6,$7,$8,$9,$2,$3,0*
0 Add four circle primitives for the rounded corners*
1,1,$1+$1,$2,$3*
1,1,$1+$1,$4,$5*
1,1,$1+$1,$6,$7*
1,1,$1+$1,$8,$9*
0 Add four rect primitives between the rounded corners*
20,1,$1+$1,$2,$3,$4,$5,0*
20,1,$1+$1,$4,$5,$6,$7,0*
20,1,$1+$1,$6,$7,$8,$9,0*
20,1,$1+$1,$8,$9,$2,$3,0*%
G04 Aperture macros list end*
%ADD10RoundRect,0.225000X-0.250000X0.225000X-0.250000X-0.225000X0.250000X-0.225000X0.250000X0.225000X0*%
%ADD11RoundRect,0.225000X0.225000X0.250000X-0.225000X0.250000X-0.225000X-0.250000X0.225000X-0.250000X0*%
%ADD12RoundRect,0.225000X-0.225000X-0.250000X0.225000X-0.250000X0.225000X0.250000X-0.225000X0.250000X0*%
%ADD13R,0.800000X0.950000*%
%ADD14R,3.500000X1.800000*%
%ADD15RoundRect,0.200000X-0.275000X0.200000X-0.275000X-0.200000X0.275000X-0.200000X0.275000X0.200000X0*%
%ADD16RoundRect,0.200000X0.275000X-0.200000X0.275000X0.200000X-0.275000X0.200000X-0.275000X-0.200000X0*%
%ADD17R,0.450000X1.750000*%
%ADD18RoundRect,0.150000X-0.800000X-0.150000X0.800000X-0.150000X0.800000X0.150000X-0.800000X0.150000X0*%
%ADD19R,4.550000X5.250000*%
%ADD20R,4.600000X1.100000*%
G04 APERTURE END LIST*
D10*
%TO.C,C_mux_1*%
X172000000Y-94225000D03*
X172000000Y-95775000D03*
%TD*%
D11*
%TO.C,C_pwr_2*%
X135605000Y-107110000D03*
X134055000Y-107110000D03*
%TD*%
D12*
%TO.C,C1*%
X74225000Y-60500000D03*
X75775000Y-60500000D03*
%TD*%
%TO.C,C13*%
X124505000Y-135200000D03*
X126055000Y-135200000D03*
%TD*%
%TO.C,C2*%
X99225000Y-60500000D03*
X100775000Y-60500000D03*
%TD*%
%TO.C,C14*%
X150005000Y-134700000D03*
X151555000Y-134700000D03*
%TD*%
%TO.C,C3*%
X124450000Y-60500000D03*
X126000000Y-60500000D03*
%TD*%
%TO.C,C15*%
X74095000Y-159840000D03*
X75645000Y-159840000D03*
%TD*%
D11*
%TO.C,C4*%
X151275000Y-60500000D03*
X149725000Y-60500000D03*
%TD*%
D12*
%TO.C,C16*%
X99095000Y-159840000D03*
X100645000Y-159840000D03*
%TD*%
%TO.C,C17*%
X124595000Y-159840000D03*
X126145000Y-159840000D03*
%TD*%
%TO.C,C6*%
X99835000Y-84640000D03*
X101385000Y-84640000D03*
%TD*%
%TO.C,C18*%
X149595000Y-159840000D03*
X151145000Y-159840000D03*
%TD*%
%TO.C,C7*%
X124835000Y-84640000D03*
X126385000Y-84640000D03*
%TD*%
%TO.C,C19*%
X74225000Y-184560000D03*
X75775000Y-184560000D03*
%TD*%
%TO.C,C8*%
X149835000Y-84640000D03*
X151385000Y-84640000D03*
%TD*%
%TO.C,C20*%
X99225000Y-185060000D03*
X100775000Y-185060000D03*
%TD*%
%TO.C,C21*%
X124225000Y-184560000D03*
X125775000Y-184560000D03*
%TD*%
%TO.C,C22*%
X74125000Y-210030000D03*
X75675000Y-210030000D03*
%TD*%
%TO.C,C11*%
X74505000Y-135200000D03*
X76055000Y-135200000D03*
%TD*%
%TO.C,C23*%
X99125000Y-210030000D03*
X100675000Y-210030000D03*
%TD*%
%TO.C,C12*%
X99505000Y-135200000D03*
X101055000Y-135200000D03*
%TD*%
%TO.C,C24*%
X124625000Y-210030000D03*
X126175000Y-210030000D03*
%TD*%
D10*
%TO.C,C_enc_2*%
X125500000Y-109525000D03*
X125500000Y-111075000D03*
%TD*%
D13*
%TO.C,D2*%
X99110000Y-51365000D03*
X100890000Y-51365000D03*
X100890000Y-48635000D03*
X99110000Y-48635000D03*
%TD*%
%TO.C,D3*%
X124110000Y-51365000D03*
X125890000Y-51365000D03*
X125890000Y-48635000D03*
X124110000Y-48635000D03*
%TD*%
%TO.C,D4*%
X149110000Y-51365000D03*
X150890000Y-51365000D03*
X150890000Y-48635000D03*
X149110000Y-48635000D03*
%TD*%
%TO.C,D5*%
X74110000Y-76365000D03*
X75890000Y-76365000D03*
X75890000Y-73635000D03*
X74110000Y-73635000D03*
%TD*%
%TO.C,D6*%
X99110000Y-76365000D03*
X100890000Y-76365000D03*
X100890000Y-73635000D03*
X99110000Y-73635000D03*
%TD*%
%TO.C,D7*%
X124110000Y-76365000D03*
X125890000Y-76365000D03*
X125890000Y-73635000D03*
X124110000Y-73635000D03*
%TD*%
%TO.C,D8*%
X149110000Y-76365000D03*
X150890000Y-76365000D03*
X150890000Y-73635000D03*
X149110000Y-73635000D03*
%TD*%
%TO.C,D11*%
X74110000Y-126365000D03*
X75890000Y-126365000D03*
X75890000Y-123635000D03*
X74110000Y-123635000D03*
%TD*%
%TO.C,D12*%
X99110000Y-126365000D03*
X100890000Y-126365000D03*
X100890000Y-123635000D03*
X99110000Y-123635000D03*
%TD*%
%TO.C,D13*%
X124110000Y-126365000D03*
X125890000Y-126365000D03*
X125890000Y-123635000D03*
X124110000Y-123635000D03*
%TD*%
%TO.C,D14*%
X149110000Y-126365000D03*
X150890000Y-126365000D03*
X150890000Y-123635000D03*
X149110000Y-123635000D03*
%TD*%
%TO.C,D15*%
X74110000Y-151365000D03*
X75890000Y-151365000D03*
X75890000Y-148635000D03*
X74110000Y-148635000D03*
%TD*%
%TO.C,D16*%
X99110000Y-151365000D03*
X100890000Y-151365000D03*
X100890000Y-148635000D03*
X99110000Y-148635000D03*
%TD*%
%TO.C,D17*%
X124110000Y-151365000D03*
X125890000Y-151365000D03*
X125890000Y-148635000D03*
X124110000Y-148635000D03*
%TD*%
%TO.C,D18*%
X149110000Y-151365000D03*
X150890000Y-151365000D03*
X150890000Y-148635000D03*
X149110000Y-148635000D03*
%TD*%
%TO.C,D19*%
X74110000Y-176365000D03*
X75890000Y-176365000D03*
X75890000Y-173635000D03*
X74110000Y-173635000D03*
%TD*%
%TO.C,D20*%
X99110000Y-176365000D03*
X100890000Y-176365000D03*
X100890000Y-173635000D03*
X99110000Y-173635000D03*
%TD*%
%TO.C,D21*%
X124110000Y-176365000D03*
X125890000Y-176365000D03*
X125890000Y-173635000D03*
X124110000Y-173635000D03*
%TD*%
%TO.C,D22*%
X74110000Y-201365000D03*
X75890000Y-201365000D03*
X75890000Y-198635000D03*
X74110000Y-198635000D03*
%TD*%
%TO.C,D23*%
X99110000Y-201365000D03*
X100890000Y-201365000D03*
X100890000Y-198635000D03*
X99110000Y-198635000D03*
%TD*%
%TO.C,D24*%
X124110000Y-201365000D03*
X125890000Y-201365000D03*
X125890000Y-198635000D03*
X124110000Y-198635000D03*
%TD*%
%TO.C,D_1*%
X74110000Y-51365000D03*
X75890000Y-51365000D03*
X75890000Y-48635000D03*
X74110000Y-48635000D03*
%TD*%
D14*
%TO.C,Diode1*%
X122500000Y-35000000D03*
X127500000Y-35000000D03*
%TD*%
D15*
%TO.C,R1*%
X167600000Y-59915000D03*
X167600000Y-61565000D03*
%TD*%
D16*
%TO.C,R3*%
X105690000Y-111485000D03*
X105690000Y-109835000D03*
%TD*%
D15*
%TO.C,R5*%
X123700000Y-109475000D03*
X123700000Y-111125000D03*
%TD*%
D16*
%TO.C,R4*%
X122000000Y-111125000D03*
X122000000Y-109475000D03*
%TD*%
%TO.C,R2*%
X103550000Y-111275000D03*
X103550000Y-109625000D03*
%TD*%
D10*
%TO.C,C_enc_1*%
X101300000Y-109625000D03*
X101300000Y-111175000D03*
%TD*%
D11*
%TO.C,C5*%
X75885000Y-84640000D03*
X74335000Y-84640000D03*
%TD*%
D10*
%TO.C,C_mux_2*%
X172000000Y-184225000D03*
X172000000Y-185775000D03*
%TD*%
D11*
%TO.C,C_pwr_1*%
X135405000Y-102020000D03*
X133855000Y-102020000D03*
%TD*%
D17*
%TO.C,Mux_2*%
X171575000Y-174400000D03*
X170925000Y-174400000D03*
X170275000Y-174400000D03*
X169625000Y-174400000D03*
X168975000Y-174400000D03*
X168325000Y-174400000D03*
X167675000Y-174400000D03*
X167025000Y-174400000D03*
X166375000Y-174400000D03*
X165725000Y-174400000D03*
X165075000Y-174400000D03*
X164425000Y-174400000D03*
X164425000Y-181600000D03*
X165075000Y-181600000D03*
X165725000Y-181600000D03*
X166375000Y-181600000D03*
X167025000Y-181600000D03*
X167675000Y-181600000D03*
X168325000Y-181600000D03*
X168975000Y-181600000D03*
X169625000Y-181600000D03*
X170275000Y-181600000D03*
X170925000Y-181600000D03*
X171575000Y-181600000D03*
%TD*%
%TO.C,Mux_1*%
X171575000Y-84400000D03*
X170925000Y-84400000D03*
X170275000Y-84400000D03*
X169625000Y-84400000D03*
X168975000Y-84400000D03*
X168325000Y-84400000D03*
X167675000Y-84400000D03*
X167025000Y-84400000D03*
X166375000Y-84400000D03*
X165725000Y-84400000D03*
X165075000Y-84400000D03*
X164425000Y-84400000D03*
X164425000Y-91600000D03*
X165075000Y-91600000D03*
X165725000Y-91600000D03*
X166375000Y-91600000D03*
X167025000Y-91600000D03*
X167675000Y-91600000D03*
X168325000Y-91600000D03*
X168975000Y-91600000D03*
X169625000Y-91600000D03*
X170275000Y-91600000D03*
X170925000Y-91600000D03*
X171575000Y-91600000D03*
%TD*%
D16*
%TO.C,R19*%
X81160000Y-60695000D03*
X81160000Y-59045000D03*
%TD*%
D13*
%TO.C,D9*%
X149110000Y-176365000D03*
X150890000Y-176365000D03*
X150890000Y-173635000D03*
X149110000Y-173635000D03*
%TD*%
D12*
%TO.C,C9*%
X149385000Y-184540000D03*
X150935000Y-184540000D03*
%TD*%
D13*
%TO.C,D10*%
X149110000Y-201365000D03*
X150890000Y-201365000D03*
X150890000Y-198635000D03*
X149110000Y-198635000D03*
%TD*%
D12*
%TO.C,C10*%
X149225000Y-210030000D03*
X150775000Y-210030000D03*
%TD*%
D18*
%TO.C,L293DD1*%
X176510000Y-189695000D03*
X176510000Y-190965000D03*
X176510000Y-192235000D03*
X176510000Y-193505000D03*
X176510000Y-194775000D03*
X176510000Y-196045000D03*
X176510000Y-197315000D03*
X176510000Y-198585000D03*
X176510000Y-199855000D03*
X176510000Y-201125000D03*
X185710000Y-201125000D03*
X185710000Y-199855000D03*
X185710000Y-198585000D03*
X185710000Y-197315000D03*
X185710000Y-196045000D03*
X185710000Y-194775000D03*
X185710000Y-193505000D03*
X185710000Y-192235000D03*
X185710000Y-190965000D03*
X185710000Y-189695000D03*
%TD*%
D19*
%TO.C,Tension_reg1*%
X146440000Y-101805000D03*
X146440000Y-107355000D03*
X151290000Y-101805000D03*
X151290000Y-107355000D03*
D20*
X139715000Y-102040000D03*
X139715000Y-107120000D03*
%TD*%
M02*
