%TF.GenerationSoftware,KiCad,Pcbnew,(6.0.9-0)*%
%TF.CreationDate,2023-10-23T19:11:04-03:00*%
%TF.ProjectId,Faduino-1,46616475-696e-46f2-9d31-2e6b69636164,3*%
%TF.SameCoordinates,Original*%
%TF.FileFunction,Soldermask,Top*%
%TF.FilePolarity,Negative*%
%FSLAX46Y46*%
G04 Gerber Fmt 4.6, Leading zero omitted, Abs format (unit mm)*
G04 Created by KiCad (PCBNEW (6.0.9-0)) date 2023-10-23 19:11:04*
%MOMM*%
%LPD*%
G01*
G04 APERTURE LIST*
G04 Aperture macros list*
%AMRoundRect*
0 Rectangle with rounded corners*
0 $1 Rounding radius*
0 $2 $3 $4 $5 $6 $7 $8 $9 X,Y pos of 4 corners*
0 Add a 4 corners polygon primitive as box body*
4,1,4,$2,$3,$4,$5,$6,$7,$8,$9,$2,$3,0*
0 Add four circle primitives for the rounded corners*
1,1,$1+$1,$2,$3*
1,1,$1+$1,$4,$5*
1,1,$1+$1,$6,$7*
1,1,$1+$1,$8,$9*
0 Add four rect primitives between the rounded corners*
20,1,$1+$1,$2,$3,$4,$5,0*
20,1,$1+$1,$4,$5,$6,$7,0*
20,1,$1+$1,$6,$7,$8,$9,0*
20,1,$1+$1,$8,$9,$2,$3,0*%
G04 Aperture macros list end*
%ADD10C,0.010000*%
%ADD11C,0.254000*%
%ADD12RoundRect,0.225000X-0.250000X0.225000X-0.250000X-0.225000X0.250000X-0.225000X0.250000X0.225000X0*%
%ADD13RoundRect,0.225000X0.225000X0.250000X-0.225000X0.250000X-0.225000X-0.250000X0.225000X-0.250000X0*%
%ADD14RoundRect,0.225000X-0.225000X-0.250000X0.225000X-0.250000X0.225000X0.250000X-0.225000X0.250000X0*%
%ADD15R,0.800000X0.950000*%
%ADD16R,3.500000X1.800000*%
%ADD17R,2.000000X2.000000*%
%ADD18C,2.000000*%
%ADD19C,3.200000*%
%ADD20RoundRect,0.200000X-0.275000X0.200000X-0.275000X-0.200000X0.275000X-0.200000X0.275000X0.200000X0*%
%ADD21RoundRect,0.200000X0.275000X-0.200000X0.275000X0.200000X-0.275000X0.200000X-0.275000X-0.200000X0*%
%ADD22R,0.450000X1.750000*%
%ADD23C,1.219200*%
%ADD24RoundRect,0.150000X-0.800000X-0.150000X0.800000X-0.150000X0.800000X0.150000X-0.800000X0.150000X0*%
%ADD25R,4.600000X1.100000*%
%ADD26R,9.400000X10.800000*%
%ADD27R,1.700000X1.700000*%
%ADD28O,1.700000X1.700000*%
%ADD29R,3.500000X3.500000*%
%ADD30RoundRect,0.750000X-1.000000X0.750000X-1.000000X-0.750000X1.000000X-0.750000X1.000000X0.750000X0*%
%ADD31RoundRect,0.875000X-0.875000X0.875000X-0.875000X-0.875000X0.875000X-0.875000X0.875000X0.875000X0*%
%ADD32R,1.600000X1.600000*%
%ADD33C,1.600000*%
%ADD34RoundRect,0.250000X-0.600000X-0.600000X0.600000X-0.600000X0.600000X0.600000X-0.600000X0.600000X0*%
%ADD35C,1.700000*%
G04 APERTURE END LIST*
%TO.C,G\u002A\u002A\u002A*%
G36*
X184007098Y-140540947D02*
G01*
X184374734Y-140594690D01*
X184653334Y-140702060D01*
X184882128Y-140877417D01*
X185072334Y-141097953D01*
X185233062Y-141325167D01*
X185321232Y-141518411D01*
X185358196Y-141747091D01*
X185365334Y-142050360D01*
X185352225Y-142399900D01*
X185302364Y-142647673D01*
X185199946Y-142859944D01*
X185156219Y-142927185D01*
X184947104Y-143235333D01*
X185774285Y-143235333D01*
X186216757Y-143244534D01*
X186515802Y-143277836D01*
X186696615Y-143343783D01*
X186784386Y-143450924D01*
X186804667Y-143584886D01*
X186747855Y-143761463D01*
X186671620Y-143864286D01*
X186612256Y-143904185D01*
X186510693Y-143935402D01*
X186347982Y-143958952D01*
X186105176Y-143975851D01*
X185763327Y-143987116D01*
X185303487Y-143993761D01*
X184706710Y-143996803D01*
X184190135Y-143997333D01*
X183445818Y-143996047D01*
X182853976Y-143990356D01*
X182397759Y-143977507D01*
X182060314Y-143954749D01*
X181824793Y-143919332D01*
X181674345Y-143868503D01*
X181592118Y-143799511D01*
X181561263Y-143709604D01*
X181564929Y-143596032D01*
X181568460Y-143569256D01*
X181658877Y-143377597D01*
X181775649Y-143284146D01*
X181953631Y-143205960D01*
X181754482Y-142912498D01*
X181637669Y-142700962D01*
X181576426Y-142464184D01*
X181555873Y-142137747D01*
X181555590Y-142091831D01*
X182232667Y-142091831D01*
X182253451Y-142325883D01*
X182335108Y-142527368D01*
X182506593Y-142759126D01*
X182578529Y-142842413D01*
X182774512Y-143056653D01*
X182926386Y-143174158D01*
X183099083Y-143223980D01*
X183357533Y-143235167D01*
X183456746Y-143235333D01*
X183753282Y-143229389D01*
X183946333Y-143192687D01*
X184101730Y-143096926D01*
X184285304Y-142913804D01*
X184338551Y-142856225D01*
X184542297Y-142616022D01*
X184647982Y-142422731D01*
X184685439Y-142212281D01*
X184688000Y-142105643D01*
X184623366Y-141709425D01*
X184512522Y-141511085D01*
X184425415Y-141410887D01*
X184329293Y-141346297D01*
X184187361Y-141309514D01*
X183962821Y-141292736D01*
X183618875Y-141288162D01*
X183460334Y-141288000D01*
X183064902Y-141290110D01*
X182801999Y-141301640D01*
X182634828Y-141330394D01*
X182526590Y-141384171D01*
X182440489Y-141470775D01*
X182408146Y-141511085D01*
X182260875Y-141830813D01*
X182232667Y-142091831D01*
X181555590Y-142091831D01*
X181555334Y-142050360D01*
X181563861Y-141727574D01*
X181603871Y-141504114D01*
X181697002Y-141310261D01*
X181852731Y-141092194D01*
X182058673Y-140858770D01*
X182282499Y-140697849D01*
X182560360Y-140597099D01*
X182928413Y-140544188D01*
X183422810Y-140526783D01*
X183460334Y-140526651D01*
X183511200Y-140526472D01*
X184007098Y-140540947D01*
G37*
D10*
X184007098Y-140540947D02*
X184374734Y-140594690D01*
X184653334Y-140702060D01*
X184882128Y-140877417D01*
X185072334Y-141097953D01*
X185233062Y-141325167D01*
X185321232Y-141518411D01*
X185358196Y-141747091D01*
X185365334Y-142050360D01*
X185352225Y-142399900D01*
X185302364Y-142647673D01*
X185199946Y-142859944D01*
X185156219Y-142927185D01*
X184947104Y-143235333D01*
X185774285Y-143235333D01*
X186216757Y-143244534D01*
X186515802Y-143277836D01*
X186696615Y-143343783D01*
X186784386Y-143450924D01*
X186804667Y-143584886D01*
X186747855Y-143761463D01*
X186671620Y-143864286D01*
X186612256Y-143904185D01*
X186510693Y-143935402D01*
X186347982Y-143958952D01*
X186105176Y-143975851D01*
X185763327Y-143987116D01*
X185303487Y-143993761D01*
X184706710Y-143996803D01*
X184190135Y-143997333D01*
X183445818Y-143996047D01*
X182853976Y-143990356D01*
X182397759Y-143977507D01*
X182060314Y-143954749D01*
X181824793Y-143919332D01*
X181674345Y-143868503D01*
X181592118Y-143799511D01*
X181561263Y-143709604D01*
X181564929Y-143596032D01*
X181568460Y-143569256D01*
X181658877Y-143377597D01*
X181775649Y-143284146D01*
X181953631Y-143205960D01*
X181754482Y-142912498D01*
X181637669Y-142700962D01*
X181576426Y-142464184D01*
X181555873Y-142137747D01*
X181555590Y-142091831D01*
X182232667Y-142091831D01*
X182253451Y-142325883D01*
X182335108Y-142527368D01*
X182506593Y-142759126D01*
X182578529Y-142842413D01*
X182774512Y-143056653D01*
X182926386Y-143174158D01*
X183099083Y-143223980D01*
X183357533Y-143235167D01*
X183456746Y-143235333D01*
X183753282Y-143229389D01*
X183946333Y-143192687D01*
X184101730Y-143096926D01*
X184285304Y-142913804D01*
X184338551Y-142856225D01*
X184542297Y-142616022D01*
X184647982Y-142422731D01*
X184685439Y-142212281D01*
X184688000Y-142105643D01*
X184623366Y-141709425D01*
X184512522Y-141511085D01*
X184425415Y-141410887D01*
X184329293Y-141346297D01*
X184187361Y-141309514D01*
X183962821Y-141292736D01*
X183618875Y-141288162D01*
X183460334Y-141288000D01*
X183064902Y-141290110D01*
X182801999Y-141301640D01*
X182634828Y-141330394D01*
X182526590Y-141384171D01*
X182440489Y-141470775D01*
X182408146Y-141511085D01*
X182260875Y-141830813D01*
X182232667Y-142091831D01*
X181555590Y-142091831D01*
X181555334Y-142050360D01*
X181563861Y-141727574D01*
X181603871Y-141504114D01*
X181697002Y-141310261D01*
X181852731Y-141092194D01*
X182058673Y-140858770D01*
X182282499Y-140697849D01*
X182560360Y-140597099D01*
X182928413Y-140544188D01*
X183422810Y-140526783D01*
X183460334Y-140526651D01*
X183511200Y-140526472D01*
X184007098Y-140540947D01*
G36*
X184687964Y-145577753D02*
G01*
X184957305Y-145587881D01*
X185131962Y-145608631D01*
X185236802Y-145642108D01*
X185296688Y-145690417D01*
X185312024Y-145711833D01*
X185361547Y-145893500D01*
X185313823Y-146008167D01*
X185255291Y-146065781D01*
X185144846Y-146111288D01*
X184957937Y-146148546D01*
X184670008Y-146181416D01*
X184256506Y-146213756D01*
X183832589Y-146241000D01*
X183359564Y-146273479D01*
X182942502Y-146308953D01*
X182612253Y-146344257D01*
X182399666Y-146376231D01*
X182338500Y-146394163D01*
X182244649Y-146549402D01*
X182239286Y-146810965D01*
X182317247Y-147144100D01*
X182473371Y-147514052D01*
X182516992Y-147595667D01*
X182799298Y-148103667D01*
X183976483Y-148146000D01*
X184412177Y-148166127D01*
X184790878Y-148191977D01*
X185078450Y-148220600D01*
X185240756Y-148249046D01*
X185259500Y-148256830D01*
X185353131Y-148403679D01*
X185350058Y-148603795D01*
X185258471Y-148777513D01*
X185201567Y-148820354D01*
X185059636Y-148850902D01*
X184772546Y-148876110D01*
X184364422Y-148894764D01*
X183859389Y-148905651D01*
X183460334Y-148908000D01*
X182901727Y-148903285D01*
X182423110Y-148889951D01*
X182048608Y-148869212D01*
X181802346Y-148842282D01*
X181719101Y-148820354D01*
X181575266Y-148666742D01*
X181560656Y-148470114D01*
X181668674Y-148288587D01*
X181788167Y-148211708D01*
X181961234Y-148136050D01*
X182046502Y-148096299D01*
X182019169Y-148023192D01*
X181922104Y-147849939D01*
X181813669Y-147673533D01*
X181648009Y-147370411D01*
X181572394Y-147090233D01*
X181557587Y-146795924D01*
X181589167Y-146434818D01*
X181670971Y-146153445D01*
X181697888Y-146103231D01*
X181818346Y-145932668D01*
X181955856Y-145804826D01*
X182135960Y-145713252D01*
X182384199Y-145651496D01*
X182726116Y-145613106D01*
X183187252Y-145591632D01*
X183765772Y-145580943D01*
X184299074Y-145576142D01*
X184687964Y-145577753D01*
G37*
X184687964Y-145577753D02*
X184957305Y-145587881D01*
X185131962Y-145608631D01*
X185236802Y-145642108D01*
X185296688Y-145690417D01*
X185312024Y-145711833D01*
X185361547Y-145893500D01*
X185313823Y-146008167D01*
X185255291Y-146065781D01*
X185144846Y-146111288D01*
X184957937Y-146148546D01*
X184670008Y-146181416D01*
X184256506Y-146213756D01*
X183832589Y-146241000D01*
X183359564Y-146273479D01*
X182942502Y-146308953D01*
X182612253Y-146344257D01*
X182399666Y-146376231D01*
X182338500Y-146394163D01*
X182244649Y-146549402D01*
X182239286Y-146810965D01*
X182317247Y-147144100D01*
X182473371Y-147514052D01*
X182516992Y-147595667D01*
X182799298Y-148103667D01*
X183976483Y-148146000D01*
X184412177Y-148166127D01*
X184790878Y-148191977D01*
X185078450Y-148220600D01*
X185240756Y-148249046D01*
X185259500Y-148256830D01*
X185353131Y-148403679D01*
X185350058Y-148603795D01*
X185258471Y-148777513D01*
X185201567Y-148820354D01*
X185059636Y-148850902D01*
X184772546Y-148876110D01*
X184364422Y-148894764D01*
X183859389Y-148905651D01*
X183460334Y-148908000D01*
X182901727Y-148903285D01*
X182423110Y-148889951D01*
X182048608Y-148869212D01*
X181802346Y-148842282D01*
X181719101Y-148820354D01*
X181575266Y-148666742D01*
X181560656Y-148470114D01*
X181668674Y-148288587D01*
X181788167Y-148211708D01*
X181961234Y-148136050D01*
X182046502Y-148096299D01*
X182019169Y-148023192D01*
X181922104Y-147849939D01*
X181813669Y-147673533D01*
X181648009Y-147370411D01*
X181572394Y-147090233D01*
X181557587Y-146795924D01*
X181589167Y-146434818D01*
X181670971Y-146153445D01*
X181697888Y-146103231D01*
X181818346Y-145932668D01*
X181955856Y-145804826D01*
X182135960Y-145713252D01*
X182384199Y-145651496D01*
X182726116Y-145613106D01*
X183187252Y-145591632D01*
X183765772Y-145580943D01*
X184299074Y-145576142D01*
X184687964Y-145577753D01*
G36*
X183446121Y-135916739D02*
G01*
X183644811Y-136079211D01*
X183926000Y-136360400D01*
X183926000Y-138324667D01*
X184205400Y-138324667D01*
X184412870Y-138307552D01*
X184551325Y-138237773D01*
X184634277Y-138087675D01*
X184675241Y-137829602D01*
X184687730Y-137435901D01*
X184688000Y-137337045D01*
X184691785Y-136962254D01*
X184707742Y-136721028D01*
X184742777Y-136577683D01*
X184803796Y-136496532D01*
X184857334Y-136462000D01*
X185073840Y-136417693D01*
X185196000Y-136462000D01*
X185271048Y-136517003D01*
X185320071Y-136607469D01*
X185348501Y-136765869D01*
X185361769Y-137024679D01*
X185365305Y-137416370D01*
X185365334Y-137474483D01*
X185362757Y-137885822D01*
X185350253Y-138166645D01*
X185320667Y-138355746D01*
X185266839Y-138491918D01*
X185181613Y-138613958D01*
X185147486Y-138655238D01*
X184917637Y-138852136D01*
X184646570Y-138987664D01*
X184618320Y-138995853D01*
X184423737Y-139026579D01*
X184112703Y-139052918D01*
X183720733Y-139074169D01*
X183283346Y-139089629D01*
X182836056Y-139098597D01*
X182414381Y-139100370D01*
X182053838Y-139094248D01*
X181789943Y-139079527D01*
X181658213Y-139055506D01*
X181656283Y-139054396D01*
X181568294Y-138914991D01*
X181568850Y-138717863D01*
X181650935Y-138545084D01*
X181703500Y-138502039D01*
X181795717Y-138434089D01*
X181800881Y-138346531D01*
X181718991Y-138180065D01*
X181703500Y-138152303D01*
X181622512Y-137950002D01*
X181575421Y-137673087D01*
X181556426Y-137281300D01*
X181555334Y-137124005D01*
X181556113Y-137010760D01*
X182233824Y-137010760D01*
X182247416Y-137349880D01*
X182300501Y-137697356D01*
X182390792Y-138001684D01*
X182398992Y-138021314D01*
X182521206Y-138264605D01*
X182638527Y-138381338D01*
X182773944Y-138409333D01*
X182984272Y-138376810D01*
X183124870Y-138263142D01*
X183207521Y-138044187D01*
X183244008Y-137695798D01*
X183248667Y-137436544D01*
X183242747Y-137092834D01*
X183227017Y-136804677D01*
X183204518Y-136621844D01*
X183197275Y-136595925D01*
X183085244Y-136510017D01*
X182874290Y-136465673D01*
X182630249Y-136465358D01*
X182418956Y-136511538D01*
X182334267Y-136563600D01*
X182262012Y-136731499D01*
X182233824Y-137010760D01*
X181556113Y-137010760D01*
X181557841Y-136759452D01*
X181573422Y-136519315D01*
X181614164Y-136358682D01*
X181692155Y-136232639D01*
X181819483Y-136096273D01*
X181836523Y-136079211D01*
X182202503Y-135823370D01*
X182619021Y-135711011D01*
X182630249Y-135711828D01*
X183046690Y-135742134D01*
X183446121Y-135916739D01*
G37*
X183446121Y-135916739D02*
X183644811Y-136079211D01*
X183926000Y-136360400D01*
X183926000Y-138324667D01*
X184205400Y-138324667D01*
X184412870Y-138307552D01*
X184551325Y-138237773D01*
X184634277Y-138087675D01*
X184675241Y-137829602D01*
X184687730Y-137435901D01*
X184688000Y-137337045D01*
X184691785Y-136962254D01*
X184707742Y-136721028D01*
X184742777Y-136577683D01*
X184803796Y-136496532D01*
X184857334Y-136462000D01*
X185073840Y-136417693D01*
X185196000Y-136462000D01*
X185271048Y-136517003D01*
X185320071Y-136607469D01*
X185348501Y-136765869D01*
X185361769Y-137024679D01*
X185365305Y-137416370D01*
X185365334Y-137474483D01*
X185362757Y-137885822D01*
X185350253Y-138166645D01*
X185320667Y-138355746D01*
X185266839Y-138491918D01*
X185181613Y-138613958D01*
X185147486Y-138655238D01*
X184917637Y-138852136D01*
X184646570Y-138987664D01*
X184618320Y-138995853D01*
X184423737Y-139026579D01*
X184112703Y-139052918D01*
X183720733Y-139074169D01*
X183283346Y-139089629D01*
X182836056Y-139098597D01*
X182414381Y-139100370D01*
X182053838Y-139094248D01*
X181789943Y-139079527D01*
X181658213Y-139055506D01*
X181656283Y-139054396D01*
X181568294Y-138914991D01*
X181568850Y-138717863D01*
X181650935Y-138545084D01*
X181703500Y-138502039D01*
X181795717Y-138434089D01*
X181800881Y-138346531D01*
X181718991Y-138180065D01*
X181703500Y-138152303D01*
X181622512Y-137950002D01*
X181575421Y-137673087D01*
X181556426Y-137281300D01*
X181555334Y-137124005D01*
X181556113Y-137010760D01*
X182233824Y-137010760D01*
X182247416Y-137349880D01*
X182300501Y-137697356D01*
X182390792Y-138001684D01*
X182398992Y-138021314D01*
X182521206Y-138264605D01*
X182638527Y-138381338D01*
X182773944Y-138409333D01*
X182984272Y-138376810D01*
X183124870Y-138263142D01*
X183207521Y-138044187D01*
X183244008Y-137695798D01*
X183248667Y-137436544D01*
X183242747Y-137092834D01*
X183227017Y-136804677D01*
X183204518Y-136621844D01*
X183197275Y-136595925D01*
X183085244Y-136510017D01*
X182874290Y-136465673D01*
X182630249Y-136465358D01*
X182418956Y-136511538D01*
X182334267Y-136563600D01*
X182262012Y-136731499D01*
X182233824Y-137010760D01*
X181556113Y-137010760D01*
X181557841Y-136759452D01*
X181573422Y-136519315D01*
X181614164Y-136358682D01*
X181692155Y-136232639D01*
X181819483Y-136096273D01*
X181836523Y-136079211D01*
X182202503Y-135823370D01*
X182619021Y-135711011D01*
X182630249Y-135711828D01*
X183046690Y-135742134D01*
X183446121Y-135916739D01*
G36*
X186804667Y-132348742D02*
G01*
X186801972Y-132853046D01*
X186794484Y-133304295D01*
X186783099Y-133672967D01*
X186768712Y-133929542D01*
X186753275Y-134042075D01*
X186636904Y-134144525D01*
X186447749Y-134174228D01*
X186265942Y-134131185D01*
X186178726Y-134042075D01*
X186159983Y-133911639D01*
X186144301Y-133647035D01*
X186133056Y-133283422D01*
X186127625Y-132855957D01*
X186127334Y-132729742D01*
X186127334Y-131551333D01*
X185111334Y-131551333D01*
X185111334Y-132479688D01*
X185108646Y-132891321D01*
X185097000Y-133166001D01*
X185071021Y-133336067D01*
X185025334Y-133433861D01*
X184954566Y-133491723D01*
X184942000Y-133498667D01*
X184725494Y-133542973D01*
X184603334Y-133498667D01*
X184528514Y-133443889D01*
X184479548Y-133353834D01*
X184451064Y-133196162D01*
X184437686Y-132938531D01*
X184434040Y-132548600D01*
X184434000Y-132479688D01*
X184434000Y-131551333D01*
X183096267Y-131551333D01*
X182509442Y-131545807D01*
X182081953Y-131528773D01*
X181804149Y-131499550D01*
X181666379Y-131457458D01*
X181656934Y-131449733D01*
X181564062Y-131259114D01*
X181583427Y-131044087D01*
X181706384Y-130884283D01*
X181719101Y-130876979D01*
X181856479Y-130849855D01*
X182151559Y-130827256D01*
X182592762Y-130809567D01*
X183168505Y-130797175D01*
X183867209Y-130790468D01*
X184343768Y-130789333D01*
X186804667Y-130789333D01*
X186804667Y-132348742D01*
G37*
X186804667Y-132348742D02*
X186801972Y-132853046D01*
X186794484Y-133304295D01*
X186783099Y-133672967D01*
X186768712Y-133929542D01*
X186753275Y-134042075D01*
X186636904Y-134144525D01*
X186447749Y-134174228D01*
X186265942Y-134131185D01*
X186178726Y-134042075D01*
X186159983Y-133911639D01*
X186144301Y-133647035D01*
X186133056Y-133283422D01*
X186127625Y-132855957D01*
X186127334Y-132729742D01*
X186127334Y-131551333D01*
X185111334Y-131551333D01*
X185111334Y-132479688D01*
X185108646Y-132891321D01*
X185097000Y-133166001D01*
X185071021Y-133336067D01*
X185025334Y-133433861D01*
X184954566Y-133491723D01*
X184942000Y-133498667D01*
X184725494Y-133542973D01*
X184603334Y-133498667D01*
X184528514Y-133443889D01*
X184479548Y-133353834D01*
X184451064Y-133196162D01*
X184437686Y-132938531D01*
X184434040Y-132548600D01*
X184434000Y-132479688D01*
X184434000Y-131551333D01*
X183096267Y-131551333D01*
X182509442Y-131545807D01*
X182081953Y-131528773D01*
X181804149Y-131499550D01*
X181666379Y-131457458D01*
X181656934Y-131449733D01*
X181564062Y-131259114D01*
X181583427Y-131044087D01*
X181706384Y-130884283D01*
X181719101Y-130876979D01*
X181856479Y-130849855D01*
X182151559Y-130827256D01*
X182592762Y-130809567D01*
X183168505Y-130797175D01*
X183867209Y-130790468D01*
X184343768Y-130789333D01*
X186804667Y-130789333D01*
X186804667Y-132348742D01*
G36*
X183656834Y-160182369D02*
G01*
X184055838Y-160202802D01*
X184329534Y-160232539D01*
X184521944Y-160281634D01*
X184677090Y-160360142D01*
X184791841Y-160441595D01*
X185069154Y-160708520D01*
X185247439Y-161028025D01*
X185341207Y-161437120D01*
X185365334Y-161904333D01*
X185334501Y-162422944D01*
X185232197Y-162819379D01*
X185043716Y-163130997D01*
X184788510Y-163369612D01*
X184653372Y-163466069D01*
X184523617Y-163530635D01*
X184362264Y-163569693D01*
X184132334Y-163589622D01*
X183796847Y-163596805D01*
X183466924Y-163597667D01*
X182954595Y-163589535D01*
X182577688Y-163556283D01*
X182302708Y-163484624D01*
X182096158Y-163361274D01*
X181924541Y-163172946D01*
X181763531Y-162922050D01*
X181652062Y-162701649D01*
X181588315Y-162476256D01*
X181560237Y-162186255D01*
X181555535Y-161904333D01*
X182232667Y-161904333D01*
X182249504Y-162251708D01*
X182308932Y-162489505D01*
X182408146Y-162654915D01*
X182495253Y-162755113D01*
X182591374Y-162819703D01*
X182733307Y-162856485D01*
X182957847Y-162873263D01*
X183301793Y-162877838D01*
X183460334Y-162878000D01*
X183855765Y-162875890D01*
X184118668Y-162864359D01*
X184285840Y-162835606D01*
X184394078Y-162781828D01*
X184480178Y-162695225D01*
X184512522Y-162654915D01*
X184641144Y-162379128D01*
X184695555Y-162017133D01*
X184675738Y-161634939D01*
X184581675Y-161298551D01*
X184512902Y-161176570D01*
X184428903Y-161066497D01*
X184341149Y-160995429D01*
X184213133Y-160954833D01*
X184008348Y-160936177D01*
X183690286Y-160930929D01*
X183460714Y-160930667D01*
X183065186Y-160932774D01*
X182802198Y-160944294D01*
X182634963Y-160973023D01*
X182526696Y-161026757D01*
X182440612Y-161113293D01*
X182408146Y-161153751D01*
X182299708Y-161342220D01*
X182245734Y-161589480D01*
X182232667Y-161904333D01*
X181555535Y-161904333D01*
X181555334Y-161892304D01*
X181562503Y-161531456D01*
X181593290Y-161279496D01*
X181661616Y-161076258D01*
X181781401Y-160861576D01*
X181801013Y-160830423D01*
X182019622Y-160549907D01*
X182280777Y-160355111D01*
X182614310Y-160235618D01*
X183050054Y-160181011D01*
X183460714Y-160180910D01*
X183617842Y-160180870D01*
X183656834Y-160182369D01*
G37*
X183656834Y-160182369D02*
X184055838Y-160202802D01*
X184329534Y-160232539D01*
X184521944Y-160281634D01*
X184677090Y-160360142D01*
X184791841Y-160441595D01*
X185069154Y-160708520D01*
X185247439Y-161028025D01*
X185341207Y-161437120D01*
X185365334Y-161904333D01*
X185334501Y-162422944D01*
X185232197Y-162819379D01*
X185043716Y-163130997D01*
X184788510Y-163369612D01*
X184653372Y-163466069D01*
X184523617Y-163530635D01*
X184362264Y-163569693D01*
X184132334Y-163589622D01*
X183796847Y-163596805D01*
X183466924Y-163597667D01*
X182954595Y-163589535D01*
X182577688Y-163556283D01*
X182302708Y-163484624D01*
X182096158Y-163361274D01*
X181924541Y-163172946D01*
X181763531Y-162922050D01*
X181652062Y-162701649D01*
X181588315Y-162476256D01*
X181560237Y-162186255D01*
X181555535Y-161904333D01*
X182232667Y-161904333D01*
X182249504Y-162251708D01*
X182308932Y-162489505D01*
X182408146Y-162654915D01*
X182495253Y-162755113D01*
X182591374Y-162819703D01*
X182733307Y-162856485D01*
X182957847Y-162873263D01*
X183301793Y-162877838D01*
X183460334Y-162878000D01*
X183855765Y-162875890D01*
X184118668Y-162864359D01*
X184285840Y-162835606D01*
X184394078Y-162781828D01*
X184480178Y-162695225D01*
X184512522Y-162654915D01*
X184641144Y-162379128D01*
X184695555Y-162017133D01*
X184675738Y-161634939D01*
X184581675Y-161298551D01*
X184512902Y-161176570D01*
X184428903Y-161066497D01*
X184341149Y-160995429D01*
X184213133Y-160954833D01*
X184008348Y-160936177D01*
X183690286Y-160930929D01*
X183460714Y-160930667D01*
X183065186Y-160932774D01*
X182802198Y-160944294D01*
X182634963Y-160973023D01*
X182526696Y-161026757D01*
X182440612Y-161113293D01*
X182408146Y-161153751D01*
X182299708Y-161342220D01*
X182245734Y-161589480D01*
X182232667Y-161904333D01*
X181555535Y-161904333D01*
X181555334Y-161892304D01*
X181562503Y-161531456D01*
X181593290Y-161279496D01*
X181661616Y-161076258D01*
X181781401Y-160861576D01*
X181801013Y-160830423D01*
X182019622Y-160549907D01*
X182280777Y-160355111D01*
X182614310Y-160235618D01*
X183050054Y-160181011D01*
X183460714Y-160180910D01*
X183617842Y-160180870D01*
X183656834Y-160182369D01*
G36*
X184461038Y-155272822D02*
G01*
X184829204Y-155294060D01*
X185084772Y-155334381D01*
X185246574Y-155397125D01*
X185333440Y-155485636D01*
X185364202Y-155603254D01*
X185365334Y-155638719D01*
X185305751Y-155835055D01*
X185132500Y-155954292D01*
X184959433Y-156029949D01*
X184874165Y-156069701D01*
X184901499Y-156142808D01*
X184998564Y-156316061D01*
X185106999Y-156492467D01*
X185261734Y-156768833D01*
X185339712Y-157021174D01*
X185364621Y-157335224D01*
X185365334Y-157427547D01*
X185356387Y-157733538D01*
X185314873Y-157935994D01*
X185218780Y-158100383D01*
X185090167Y-158246001D01*
X184914526Y-158410917D01*
X184738929Y-158507630D01*
X184500529Y-158562275D01*
X184264667Y-158589298D01*
X183876927Y-158619037D01*
X183437517Y-158641102D01*
X182981294Y-158655149D01*
X182543119Y-158660832D01*
X182157848Y-158657809D01*
X181860341Y-158645735D01*
X181685456Y-158624266D01*
X181660508Y-158615007D01*
X181569638Y-158474019D01*
X181568228Y-158276998D01*
X181649737Y-158107405D01*
X181703500Y-158066247D01*
X181836738Y-158036073D01*
X182105917Y-158003451D01*
X182477737Y-157971467D01*
X182918897Y-157943208D01*
X183161492Y-157931150D01*
X183621332Y-157905257D01*
X184025055Y-157872606D01*
X184340600Y-157836557D01*
X184535906Y-157800470D01*
X184579659Y-157782515D01*
X184676530Y-157598223D01*
X184675445Y-157311582D01*
X184581096Y-156954914D01*
X184403644Y-156570333D01*
X184121307Y-156062333D01*
X182944154Y-156020000D01*
X182508465Y-155999872D01*
X182129770Y-155974022D01*
X181842205Y-155945399D01*
X181679907Y-155916952D01*
X181661167Y-155909170D01*
X181567267Y-155759091D01*
X181582912Y-155545304D01*
X181638069Y-155427333D01*
X181694886Y-155381071D01*
X181813680Y-155345717D01*
X182016120Y-155319288D01*
X182323878Y-155299802D01*
X182758623Y-155285276D01*
X183311589Y-155274222D01*
X183961443Y-155267323D01*
X184461038Y-155272822D01*
G37*
X184461038Y-155272822D02*
X184829204Y-155294060D01*
X185084772Y-155334381D01*
X185246574Y-155397125D01*
X185333440Y-155485636D01*
X185364202Y-155603254D01*
X185365334Y-155638719D01*
X185305751Y-155835055D01*
X185132500Y-155954292D01*
X184959433Y-156029949D01*
X184874165Y-156069701D01*
X184901499Y-156142808D01*
X184998564Y-156316061D01*
X185106999Y-156492467D01*
X185261734Y-156768833D01*
X185339712Y-157021174D01*
X185364621Y-157335224D01*
X185365334Y-157427547D01*
X185356387Y-157733538D01*
X185314873Y-157935994D01*
X185218780Y-158100383D01*
X185090167Y-158246001D01*
X184914526Y-158410917D01*
X184738929Y-158507630D01*
X184500529Y-158562275D01*
X184264667Y-158589298D01*
X183876927Y-158619037D01*
X183437517Y-158641102D01*
X182981294Y-158655149D01*
X182543119Y-158660832D01*
X182157848Y-158657809D01*
X181860341Y-158645735D01*
X181685456Y-158624266D01*
X181660508Y-158615007D01*
X181569638Y-158474019D01*
X181568228Y-158276998D01*
X181649737Y-158107405D01*
X181703500Y-158066247D01*
X181836738Y-158036073D01*
X182105917Y-158003451D01*
X182477737Y-157971467D01*
X182918897Y-157943208D01*
X183161492Y-157931150D01*
X183621332Y-157905257D01*
X184025055Y-157872606D01*
X184340600Y-157836557D01*
X184535906Y-157800470D01*
X184579659Y-157782515D01*
X184676530Y-157598223D01*
X184675445Y-157311582D01*
X184581096Y-156954914D01*
X184403644Y-156570333D01*
X184121307Y-156062333D01*
X182944154Y-156020000D01*
X182508465Y-155999872D01*
X182129770Y-155974022D01*
X181842205Y-155945399D01*
X181679907Y-155916952D01*
X181661167Y-155909170D01*
X181567267Y-155759091D01*
X181582912Y-155545304D01*
X181638069Y-155427333D01*
X181694886Y-155381071D01*
X181813680Y-155345717D01*
X182016120Y-155319288D01*
X182323878Y-155299802D01*
X182758623Y-155285276D01*
X183311589Y-155274222D01*
X183961443Y-155267323D01*
X184461038Y-155272822D01*
G36*
X182063334Y-150432000D02*
G01*
X182154575Y-150505090D01*
X182206176Y-150629850D01*
X182228632Y-150848449D01*
X182232667Y-151112312D01*
X182232667Y-151702000D01*
X186127334Y-151702000D01*
X186127334Y-151112312D01*
X186149023Y-150729529D01*
X186221238Y-150496512D01*
X186354701Y-150398440D01*
X186560132Y-150420490D01*
X186614167Y-150439276D01*
X186682773Y-150470449D01*
X186732548Y-150520661D01*
X186766512Y-150614474D01*
X186787686Y-150776450D01*
X186799089Y-151031151D01*
X186803742Y-151403140D01*
X186804664Y-151916978D01*
X186804667Y-151988680D01*
X186801824Y-152479619D01*
X186793943Y-152917310D01*
X186781997Y-153271243D01*
X186766959Y-153510907D01*
X186753275Y-153600075D01*
X186633986Y-153703097D01*
X186466001Y-153734000D01*
X186303555Y-153710748D01*
X186202042Y-153620841D01*
X186148146Y-153434049D01*
X186128554Y-153120143D01*
X186127334Y-152965075D01*
X186127334Y-152464000D01*
X182240086Y-152464000D01*
X182215210Y-153077833D01*
X182190334Y-153691667D01*
X181597667Y-153691667D01*
X181574647Y-152108137D01*
X181567429Y-151553129D01*
X181565667Y-151143493D01*
X181571477Y-150855304D01*
X181586977Y-150664634D01*
X181614281Y-150547556D01*
X181655508Y-150480143D01*
X181712772Y-150438469D01*
X181722814Y-150432992D01*
X181939265Y-150387443D01*
X182063334Y-150432000D01*
G37*
X182063334Y-150432000D02*
X182154575Y-150505090D01*
X182206176Y-150629850D01*
X182228632Y-150848449D01*
X182232667Y-151112312D01*
X182232667Y-151702000D01*
X186127334Y-151702000D01*
X186127334Y-151112312D01*
X186149023Y-150729529D01*
X186221238Y-150496512D01*
X186354701Y-150398440D01*
X186560132Y-150420490D01*
X186614167Y-150439276D01*
X186682773Y-150470449D01*
X186732548Y-150520661D01*
X186766512Y-150614474D01*
X186787686Y-150776450D01*
X186799089Y-151031151D01*
X186803742Y-151403140D01*
X186804664Y-151916978D01*
X186804667Y-151988680D01*
X186801824Y-152479619D01*
X186793943Y-152917310D01*
X186781997Y-153271243D01*
X186766959Y-153510907D01*
X186753275Y-153600075D01*
X186633986Y-153703097D01*
X186466001Y-153734000D01*
X186303555Y-153710748D01*
X186202042Y-153620841D01*
X186148146Y-153434049D01*
X186128554Y-153120143D01*
X186127334Y-152965075D01*
X186127334Y-152464000D01*
X182240086Y-152464000D01*
X182215210Y-153077833D01*
X182190334Y-153691667D01*
X181597667Y-153691667D01*
X181574647Y-152108137D01*
X181567429Y-151553129D01*
X181565667Y-151143493D01*
X181571477Y-150855304D01*
X181586977Y-150664634D01*
X181614281Y-150547556D01*
X181655508Y-150480143D01*
X181712772Y-150438469D01*
X181722814Y-150432992D01*
X181939265Y-150387443D01*
X182063334Y-150432000D01*
D11*
%TO.C,SW1*%
X79228720Y-51571700D02*
X81359780Y-52620720D01*
X68878220Y-54281880D02*
X70828940Y-53131260D01*
X78629280Y-55981140D02*
X77379600Y-53842460D01*
X79467480Y-49140920D02*
X81809360Y-48820880D01*
X76498220Y-44980400D02*
X77338960Y-42961100D01*
X70958480Y-43761200D02*
X72408820Y-45640800D01*
X80049140Y-51122120D02*
X82167500Y-51800300D01*
X80168520Y-49730200D02*
X82459600Y-49760680D01*
X68207660Y-48262080D02*
X70577480Y-49021540D01*
X70559700Y-44761960D02*
X72119260Y-46481540D01*
X74999620Y-44632420D02*
X74999620Y-42511520D01*
X76998600Y-45902420D02*
X78339720Y-43992340D01*
X68159400Y-46971760D02*
X70219340Y-48000460D01*
X75558420Y-45490940D02*
X76099440Y-43210020D01*
X74417960Y-45521420D02*
X74009020Y-43050000D01*
X79889120Y-48180800D02*
X82129400Y-47761700D01*
X78189860Y-46730460D02*
X80008500Y-45300440D01*
X70107580Y-51470100D02*
X67829200Y-51980640D01*
X69228740Y-46341840D02*
X71088020Y-47571200D01*
X69477660Y-44990560D02*
X70999120Y-46501860D01*
X79028060Y-47820120D02*
X81199760Y-46852380D01*
X74288420Y-56842200D02*
X74638940Y-54510480D01*
X79439540Y-52780740D02*
X81189600Y-54081220D01*
X72149740Y-43720560D02*
X73259720Y-45701760D01*
X71949080Y-53342080D02*
X70079640Y-54921960D01*
X68238140Y-50751280D02*
X70539380Y-50601420D01*
X79139820Y-46951440D02*
X81169280Y-45861780D01*
X72238640Y-54370780D02*
X70897520Y-56222440D01*
X75289180Y-55211520D02*
X75218060Y-57441640D01*
X79508120Y-50431240D02*
X81867780Y-50591260D01*
X73678820Y-44820380D02*
X72817760Y-42851880D01*
X72258960Y-56311340D02*
X73249560Y-54251400D01*
X78367660Y-54060900D02*
X79569080Y-55841440D01*
X79528440Y-44081240D02*
X77968880Y-45861780D01*
X76848740Y-54881320D02*
X77628520Y-56931100D01*
X67529480Y-49491440D02*
X69818020Y-49631140D01*
X68989980Y-53022040D02*
X70988960Y-52082240D01*
X73709300Y-54952440D02*
X72949840Y-57131760D01*
X76439800Y-56760920D02*
X75977520Y-54411420D01*
X78459100Y-52900120D02*
X80008500Y-54520640D01*
X79508120Y-49991820D02*
G75*
G03*
X79508120Y-49991820I-4508500J0D01*
G01*
X82497700Y-50001980D02*
G75*
G03*
X82497700Y-50001980I-7498080J0D01*
G01*
%TO.C,SW2*%
X103367660Y-54060900D02*
X104569080Y-55841440D01*
X96949080Y-53342080D02*
X95079640Y-54921960D01*
X104528440Y-44081240D02*
X102968880Y-45861780D01*
X93238140Y-50751280D02*
X95539380Y-50601420D01*
X104228720Y-51571700D02*
X106359780Y-52620720D01*
X95958480Y-43761200D02*
X97408820Y-45640800D01*
X97149740Y-43720560D02*
X98259720Y-45701760D01*
X105168520Y-49730200D02*
X107459600Y-49760680D01*
X104028060Y-47820120D02*
X106199760Y-46852380D01*
X94228740Y-46341840D02*
X96088020Y-47571200D01*
X93878220Y-54281880D02*
X95828940Y-53131260D01*
X99417960Y-45521420D02*
X99009020Y-43050000D01*
X99999620Y-44632420D02*
X99999620Y-42511520D01*
X101439800Y-56760920D02*
X100977520Y-54411420D01*
X93207660Y-48262080D02*
X95577480Y-49021540D01*
X97238640Y-54370780D02*
X95897520Y-56222440D01*
X93159400Y-46971760D02*
X95219340Y-48000460D01*
X98678820Y-44820380D02*
X97817760Y-42851880D01*
X104508120Y-50431240D02*
X106867780Y-50591260D01*
X95559700Y-44761960D02*
X97119260Y-46481540D01*
X95107580Y-51470100D02*
X92829200Y-51980640D01*
X104467480Y-49140920D02*
X106809360Y-48820880D01*
X104139820Y-46951440D02*
X106169280Y-45861780D01*
X97258960Y-56311340D02*
X98249560Y-54251400D01*
X101848740Y-54881320D02*
X102628520Y-56931100D01*
X104439540Y-52780740D02*
X106189600Y-54081220D01*
X103459100Y-52900120D02*
X105008500Y-54520640D01*
X100558420Y-45490940D02*
X101099440Y-43210020D01*
X93989980Y-53022040D02*
X95988960Y-52082240D01*
X101998600Y-45902420D02*
X103339720Y-43992340D01*
X94477660Y-44990560D02*
X95999120Y-46501860D01*
X103629280Y-55981140D02*
X102379600Y-53842460D01*
X104889120Y-48180800D02*
X107129400Y-47761700D01*
X92529480Y-49491440D02*
X94818020Y-49631140D01*
X103189860Y-46730460D02*
X105008500Y-45300440D01*
X99288420Y-56842200D02*
X99638940Y-54510480D01*
X100289180Y-55211520D02*
X100218060Y-57441640D01*
X101498220Y-44980400D02*
X102338960Y-42961100D01*
X98709300Y-54952440D02*
X97949840Y-57131760D01*
X105049140Y-51122120D02*
X107167500Y-51800300D01*
X107497700Y-50001980D02*
G75*
G03*
X107497700Y-50001980I-7498080J0D01*
G01*
X104508120Y-49991820D02*
G75*
G03*
X104508120Y-49991820I-4508500J0D01*
G01*
%TO.C,SW3*%
X128367660Y-54060900D02*
X129569080Y-55841440D01*
X121949080Y-53342080D02*
X120079640Y-54921960D01*
X130049140Y-51122120D02*
X132167500Y-51800300D01*
X129508120Y-50431240D02*
X131867780Y-50591260D01*
X126498220Y-44980400D02*
X127338960Y-42961100D01*
X118159400Y-46971760D02*
X120219340Y-48000460D01*
X119477660Y-44990560D02*
X120999120Y-46501860D01*
X124417960Y-45521420D02*
X124009020Y-43050000D01*
X124288420Y-56842200D02*
X124638940Y-54510480D01*
X129028060Y-47820120D02*
X131199760Y-46852380D01*
X128629280Y-55981140D02*
X127379600Y-53842460D01*
X126848740Y-54881320D02*
X127628520Y-56931100D01*
X125558420Y-45490940D02*
X126099440Y-43210020D01*
X118989980Y-53022040D02*
X120988960Y-52082240D01*
X129528440Y-44081240D02*
X127968880Y-45861780D01*
X120559700Y-44761960D02*
X122119260Y-46481540D01*
X120107580Y-51470100D02*
X117829200Y-51980640D01*
X129889120Y-48180800D02*
X132129400Y-47761700D01*
X122149740Y-43720560D02*
X123259720Y-45701760D01*
X126998600Y-45902420D02*
X128339720Y-43992340D01*
X129467480Y-49140920D02*
X131809360Y-48820880D01*
X124999620Y-44632420D02*
X124999620Y-42511520D01*
X119228740Y-46341840D02*
X121088020Y-47571200D01*
X120958480Y-43761200D02*
X122408820Y-45640800D01*
X130168520Y-49730200D02*
X132459600Y-49760680D01*
X118878220Y-54281880D02*
X120828940Y-53131260D01*
X129439540Y-52780740D02*
X131189600Y-54081220D01*
X122258960Y-56311340D02*
X123249560Y-54251400D01*
X129228720Y-51571700D02*
X131359780Y-52620720D01*
X123709300Y-54952440D02*
X122949840Y-57131760D01*
X122238640Y-54370780D02*
X120897520Y-56222440D01*
X129139820Y-46951440D02*
X131169280Y-45861780D01*
X128459100Y-52900120D02*
X130008500Y-54520640D01*
X128189860Y-46730460D02*
X130008500Y-45300440D01*
X117529480Y-49491440D02*
X119818020Y-49631140D01*
X126439800Y-56760920D02*
X125977520Y-54411420D01*
X118207660Y-48262080D02*
X120577480Y-49021540D01*
X118238140Y-50751280D02*
X120539380Y-50601420D01*
X125289180Y-55211520D02*
X125218060Y-57441640D01*
X123678820Y-44820380D02*
X122817760Y-42851880D01*
X132497700Y-50001980D02*
G75*
G03*
X132497700Y-50001980I-7498080J0D01*
G01*
X129508120Y-49991820D02*
G75*
G03*
X129508120Y-49991820I-4508500J0D01*
G01*
%TO.C,SW4*%
X153367660Y-54060900D02*
X154569080Y-55841440D01*
X154228720Y-51571700D02*
X156359780Y-52620720D01*
X150289180Y-55211520D02*
X150218060Y-57441640D01*
X149288420Y-56842200D02*
X149638940Y-54510480D01*
X145107580Y-51470100D02*
X142829200Y-51980640D01*
X154439540Y-52780740D02*
X156189600Y-54081220D01*
X143878220Y-54281880D02*
X145828940Y-53131260D01*
X154028060Y-47820120D02*
X156199760Y-46852380D01*
X145559700Y-44761960D02*
X147119260Y-46481540D01*
X155168520Y-49730200D02*
X157459600Y-49760680D01*
X149999620Y-44632420D02*
X149999620Y-42511520D01*
X154508120Y-50431240D02*
X156867780Y-50591260D01*
X153629280Y-55981140D02*
X152379600Y-53842460D01*
X155049140Y-51122120D02*
X157167500Y-51800300D01*
X154139820Y-46951440D02*
X156169280Y-45861780D01*
X147149740Y-43720560D02*
X148259720Y-45701760D01*
X148709300Y-54952440D02*
X147949840Y-57131760D01*
X151439800Y-56760920D02*
X150977520Y-54411420D01*
X154528440Y-44081240D02*
X152968880Y-45861780D01*
X150558420Y-45490940D02*
X151099440Y-43210020D01*
X145958480Y-43761200D02*
X147408820Y-45640800D01*
X153459100Y-52900120D02*
X155008500Y-54520640D01*
X151498220Y-44980400D02*
X152338960Y-42961100D01*
X146949080Y-53342080D02*
X145079640Y-54921960D01*
X147238640Y-54370780D02*
X145897520Y-56222440D01*
X153189860Y-46730460D02*
X155008500Y-45300440D01*
X143238140Y-50751280D02*
X145539380Y-50601420D01*
X142529480Y-49491440D02*
X144818020Y-49631140D01*
X154889120Y-48180800D02*
X157129400Y-47761700D01*
X143989980Y-53022040D02*
X145988960Y-52082240D01*
X151848740Y-54881320D02*
X152628520Y-56931100D01*
X148678820Y-44820380D02*
X147817760Y-42851880D01*
X151998600Y-45902420D02*
X153339720Y-43992340D01*
X144228740Y-46341840D02*
X146088020Y-47571200D01*
X143159400Y-46971760D02*
X145219340Y-48000460D01*
X147258960Y-56311340D02*
X148249560Y-54251400D01*
X149417960Y-45521420D02*
X149009020Y-43050000D01*
X154467480Y-49140920D02*
X156809360Y-48820880D01*
X143207660Y-48262080D02*
X145577480Y-49021540D01*
X144477660Y-44990560D02*
X145999120Y-46501860D01*
X154508120Y-49991820D02*
G75*
G03*
X154508120Y-49991820I-4508500J0D01*
G01*
X157497700Y-50001980D02*
G75*
G03*
X157497700Y-50001980I-7498080J0D01*
G01*
%TO.C,SW5*%
X76498220Y-69980400D02*
X77338960Y-67961100D01*
X75558420Y-70490940D02*
X76099440Y-68210020D01*
X79467480Y-74140920D02*
X81809360Y-73820880D01*
X79528440Y-69081240D02*
X77968880Y-70861780D01*
X74999620Y-69632420D02*
X74999620Y-67511520D01*
X71949080Y-78342080D02*
X70079640Y-79921960D01*
X74288420Y-81842200D02*
X74638940Y-79510480D01*
X80049140Y-76122120D02*
X82167500Y-76800300D01*
X70107580Y-76470100D02*
X67829200Y-76980640D01*
X68878220Y-79281880D02*
X70828940Y-78131260D01*
X73709300Y-79952440D02*
X72949840Y-82131760D01*
X80168520Y-74730200D02*
X82459600Y-74760680D01*
X78367660Y-79060900D02*
X79569080Y-80841440D01*
X79439540Y-77780740D02*
X81189600Y-79081220D01*
X73678820Y-69820380D02*
X72817760Y-67851880D01*
X78189860Y-71730460D02*
X80008500Y-70300440D01*
X70958480Y-68761200D02*
X72408820Y-70640800D01*
X68159400Y-71971760D02*
X70219340Y-73000460D01*
X76848740Y-79881320D02*
X77628520Y-81931100D01*
X78459100Y-77900120D02*
X80008500Y-79520640D01*
X79508120Y-75431240D02*
X81867780Y-75591260D01*
X72149740Y-68720560D02*
X73259720Y-70701760D01*
X79139820Y-71951440D02*
X81169280Y-70861780D01*
X69477660Y-69990560D02*
X70999120Y-71501860D01*
X68989980Y-78022040D02*
X70988960Y-77082240D01*
X75289180Y-80211520D02*
X75218060Y-82441640D01*
X79028060Y-72820120D02*
X81199760Y-71852380D01*
X78629280Y-80981140D02*
X77379600Y-78842460D01*
X69228740Y-71341840D02*
X71088020Y-72571200D01*
X76998600Y-70902420D02*
X78339720Y-68992340D01*
X79228720Y-76571700D02*
X81359780Y-77620720D01*
X68207660Y-73262080D02*
X70577480Y-74021540D01*
X70559700Y-69761960D02*
X72119260Y-71481540D01*
X72258960Y-81311340D02*
X73249560Y-79251400D01*
X74417960Y-70521420D02*
X74009020Y-68050000D01*
X79889120Y-73180800D02*
X82129400Y-72761700D01*
X67529480Y-74491440D02*
X69818020Y-74631140D01*
X72238640Y-79370780D02*
X70897520Y-81222440D01*
X68238140Y-75751280D02*
X70539380Y-75601420D01*
X76439800Y-81760920D02*
X75977520Y-79411420D01*
X79508120Y-74991820D02*
G75*
G03*
X79508120Y-74991820I-4508500J0D01*
G01*
X82497700Y-75001980D02*
G75*
G03*
X82497700Y-75001980I-7498080J0D01*
G01*
%TO.C,SW6*%
X104508120Y-75431240D02*
X106867780Y-75591260D01*
X103459100Y-77900120D02*
X105008500Y-79520640D01*
X95107580Y-76470100D02*
X92829200Y-76980640D01*
X93238140Y-75751280D02*
X95539380Y-75601420D01*
X101848740Y-79881320D02*
X102628520Y-81931100D01*
X94477660Y-69990560D02*
X95999120Y-71501860D01*
X97238640Y-79370780D02*
X95897520Y-81222440D01*
X95559700Y-69761960D02*
X97119260Y-71481540D01*
X101998600Y-70902420D02*
X103339720Y-68992340D01*
X103629280Y-80981140D02*
X102379600Y-78842460D01*
X104139820Y-71951440D02*
X106169280Y-70861780D01*
X101439800Y-81760920D02*
X100977520Y-79411420D01*
X104439540Y-77780740D02*
X106189600Y-79081220D01*
X95958480Y-68761200D02*
X97408820Y-70640800D01*
X104228720Y-76571700D02*
X106359780Y-77620720D01*
X100558420Y-70490940D02*
X101099440Y-68210020D01*
X105049140Y-76122120D02*
X107167500Y-76800300D01*
X104528440Y-69081240D02*
X102968880Y-70861780D01*
X94228740Y-71341840D02*
X96088020Y-72571200D01*
X96949080Y-78342080D02*
X95079640Y-79921960D01*
X93207660Y-73262080D02*
X95577480Y-74021540D01*
X98678820Y-69820380D02*
X97817760Y-67851880D01*
X93878220Y-79281880D02*
X95828940Y-78131260D01*
X104467480Y-74140920D02*
X106809360Y-73820880D01*
X99999620Y-69632420D02*
X99999620Y-67511520D01*
X97258960Y-81311340D02*
X98249560Y-79251400D01*
X101498220Y-69980400D02*
X102338960Y-67961100D01*
X103367660Y-79060900D02*
X104569080Y-80841440D01*
X104889120Y-73180800D02*
X107129400Y-72761700D01*
X99417960Y-70521420D02*
X99009020Y-68050000D01*
X103189860Y-71730460D02*
X105008500Y-70300440D01*
X93989980Y-78022040D02*
X95988960Y-77082240D01*
X104028060Y-72820120D02*
X106199760Y-71852380D01*
X97149740Y-68720560D02*
X98259720Y-70701760D01*
X92529480Y-74491440D02*
X94818020Y-74631140D01*
X99288420Y-81842200D02*
X99638940Y-79510480D01*
X105168520Y-74730200D02*
X107459600Y-74760680D01*
X100289180Y-80211520D02*
X100218060Y-82441640D01*
X98709300Y-79952440D02*
X97949840Y-82131760D01*
X93159400Y-71971760D02*
X95219340Y-73000460D01*
X104508120Y-74991820D02*
G75*
G03*
X104508120Y-74991820I-4508500J0D01*
G01*
X107497700Y-75001980D02*
G75*
G03*
X107497700Y-75001980I-7498080J0D01*
G01*
%TO.C,SW7*%
X123678820Y-69820380D02*
X122817760Y-67851880D01*
X129139820Y-71951440D02*
X131169280Y-70861780D01*
X118207660Y-73262080D02*
X120577480Y-74021540D01*
X130049140Y-76122120D02*
X132167500Y-76800300D01*
X118159400Y-71971760D02*
X120219340Y-73000460D01*
X125289180Y-80211520D02*
X125218060Y-82441640D01*
X122149740Y-68720560D02*
X123259720Y-70701760D01*
X119228740Y-71341840D02*
X121088020Y-72571200D01*
X126998600Y-70902420D02*
X128339720Y-68992340D01*
X124288420Y-81842200D02*
X124638940Y-79510480D01*
X118878220Y-79281880D02*
X120828940Y-78131260D01*
X119477660Y-69990560D02*
X120999120Y-71501860D01*
X118238140Y-75751280D02*
X120539380Y-75601420D01*
X130168520Y-74730200D02*
X132459600Y-74760680D01*
X124999620Y-69632420D02*
X124999620Y-67511520D01*
X126498220Y-69980400D02*
X127338960Y-67961100D01*
X129228720Y-76571700D02*
X131359780Y-77620720D01*
X120958480Y-68761200D02*
X122408820Y-70640800D01*
X128629280Y-80981140D02*
X127379600Y-78842460D01*
X124417960Y-70521420D02*
X124009020Y-68050000D01*
X128459100Y-77900120D02*
X130008500Y-79520640D01*
X123709300Y-79952440D02*
X122949840Y-82131760D01*
X117529480Y-74491440D02*
X119818020Y-74631140D01*
X121949080Y-78342080D02*
X120079640Y-79921960D01*
X128367660Y-79060900D02*
X129569080Y-80841440D01*
X129528440Y-69081240D02*
X127968880Y-70861780D01*
X122258960Y-81311340D02*
X123249560Y-79251400D01*
X125558420Y-70490940D02*
X126099440Y-68210020D01*
X129467480Y-74140920D02*
X131809360Y-73820880D01*
X128189860Y-71730460D02*
X130008500Y-70300440D01*
X129028060Y-72820120D02*
X131199760Y-71852380D01*
X129889120Y-73180800D02*
X132129400Y-72761700D01*
X126848740Y-79881320D02*
X127628520Y-81931100D01*
X126439800Y-81760920D02*
X125977520Y-79411420D01*
X118989980Y-78022040D02*
X120988960Y-77082240D01*
X129439540Y-77780740D02*
X131189600Y-79081220D01*
X120559700Y-69761960D02*
X122119260Y-71481540D01*
X120107580Y-76470100D02*
X117829200Y-76980640D01*
X122238640Y-79370780D02*
X120897520Y-81222440D01*
X129508120Y-75431240D02*
X131867780Y-75591260D01*
X129508120Y-74991820D02*
G75*
G03*
X129508120Y-74991820I-4508500J0D01*
G01*
X132497700Y-75001980D02*
G75*
G03*
X132497700Y-75001980I-7498080J0D01*
G01*
%TO.C,SW8*%
X151498220Y-69980400D02*
X152338960Y-67961100D01*
X151439800Y-81760920D02*
X150977520Y-79411420D01*
X154439540Y-77780740D02*
X156189600Y-79081220D01*
X148678820Y-69820380D02*
X147817760Y-67851880D01*
X144477660Y-69990560D02*
X145999120Y-71501860D01*
X142529480Y-74491440D02*
X144818020Y-74631140D01*
X153189860Y-71730460D02*
X155008500Y-70300440D01*
X143207660Y-73262080D02*
X145577480Y-74021540D01*
X154139820Y-71951440D02*
X156169280Y-70861780D01*
X154528440Y-69081240D02*
X152968880Y-70861780D01*
X143878220Y-79281880D02*
X145828940Y-78131260D01*
X149417960Y-70521420D02*
X149009020Y-68050000D01*
X151998600Y-70902420D02*
X153339720Y-68992340D01*
X153459100Y-77900120D02*
X155008500Y-79520640D01*
X154028060Y-72820120D02*
X156199760Y-71852380D01*
X150289180Y-80211520D02*
X150218060Y-82441640D01*
X151848740Y-79881320D02*
X152628520Y-81931100D01*
X149999620Y-69632420D02*
X149999620Y-67511520D01*
X147238640Y-79370780D02*
X145897520Y-81222440D01*
X145559700Y-69761960D02*
X147119260Y-71481540D01*
X143238140Y-75751280D02*
X145539380Y-75601420D01*
X154467480Y-74140920D02*
X156809360Y-73820880D01*
X143159400Y-71971760D02*
X145219340Y-73000460D01*
X154228720Y-76571700D02*
X156359780Y-77620720D01*
X153629280Y-80981140D02*
X152379600Y-78842460D01*
X147149740Y-68720560D02*
X148259720Y-70701760D01*
X146949080Y-78342080D02*
X145079640Y-79921960D01*
X145107580Y-76470100D02*
X142829200Y-76980640D01*
X144228740Y-71341840D02*
X146088020Y-72571200D01*
X155049140Y-76122120D02*
X157167500Y-76800300D01*
X153367660Y-79060900D02*
X154569080Y-80841440D01*
X147258960Y-81311340D02*
X148249560Y-79251400D01*
X149288420Y-81842200D02*
X149638940Y-79510480D01*
X155168520Y-74730200D02*
X157459600Y-74760680D01*
X148709300Y-79952440D02*
X147949840Y-82131760D01*
X150558420Y-70490940D02*
X151099440Y-68210020D01*
X143989980Y-78022040D02*
X145988960Y-77082240D01*
X145958480Y-68761200D02*
X147408820Y-70640800D01*
X154508120Y-75431240D02*
X156867780Y-75591260D01*
X154889120Y-73180800D02*
X157129400Y-72761700D01*
X157497700Y-75001980D02*
G75*
G03*
X157497700Y-75001980I-7498080J0D01*
G01*
X154508120Y-74991820D02*
G75*
G03*
X154508120Y-74991820I-4508500J0D01*
G01*
%TO.C,SW9*%
X145958480Y-168761200D02*
X147408820Y-170640800D01*
X144228740Y-171341840D02*
X146088020Y-172571200D01*
X143878220Y-179281880D02*
X145828940Y-178131260D01*
X142529480Y-174491440D02*
X144818020Y-174631140D01*
X154467480Y-174140920D02*
X156809360Y-173820880D01*
X153459100Y-177900120D02*
X155008500Y-179520640D01*
X143989980Y-178022040D02*
X145988960Y-177082240D01*
X154528440Y-169081240D02*
X152968880Y-170861780D01*
X155049140Y-176122120D02*
X157167500Y-176800300D01*
X151998600Y-170902420D02*
X153339720Y-168992340D01*
X143238140Y-175751280D02*
X145539380Y-175601420D01*
X151848740Y-179881320D02*
X152628520Y-181931100D01*
X147258960Y-181311340D02*
X148249560Y-179251400D01*
X148678820Y-169820380D02*
X147817760Y-167851880D01*
X153189860Y-171730460D02*
X155008500Y-170300440D01*
X147238640Y-179370780D02*
X145897520Y-181222440D01*
X149288420Y-181842200D02*
X149638940Y-179510480D01*
X144477660Y-169990560D02*
X145999120Y-171501860D01*
X146949080Y-178342080D02*
X145079640Y-179921960D01*
X154439540Y-177780740D02*
X156189600Y-179081220D01*
X150558420Y-170490940D02*
X151099440Y-168210020D01*
X151439800Y-181760920D02*
X150977520Y-179411420D01*
X154508120Y-175431240D02*
X156867780Y-175591260D01*
X153367660Y-179060900D02*
X154569080Y-180841440D01*
X145107580Y-176470100D02*
X142829200Y-176980640D01*
X151498220Y-169980400D02*
X152338960Y-167961100D01*
X145559700Y-169761960D02*
X147119260Y-171481540D01*
X143159400Y-171971760D02*
X145219340Y-173000460D01*
X154889120Y-173180800D02*
X157129400Y-172761700D01*
X143207660Y-173262080D02*
X145577480Y-174021540D01*
X149999620Y-169632420D02*
X149999620Y-167511520D01*
X149417960Y-170521420D02*
X149009020Y-168050000D01*
X154139820Y-171951440D02*
X156169280Y-170861780D01*
X154228720Y-176571700D02*
X156359780Y-177620720D01*
X154028060Y-172820120D02*
X156199760Y-171852380D01*
X153629280Y-180981140D02*
X152379600Y-178842460D01*
X147149740Y-168720560D02*
X148259720Y-170701760D01*
X150289180Y-180211520D02*
X150218060Y-182441640D01*
X148709300Y-179952440D02*
X147949840Y-182131760D01*
X155168520Y-174730200D02*
X157459600Y-174760680D01*
X157497700Y-175001980D02*
G75*
G03*
X157497700Y-175001980I-7498080J0D01*
G01*
X154508120Y-174991820D02*
G75*
G03*
X154508120Y-174991820I-4508500J0D01*
G01*
%TO.C,SW10*%
X150558420Y-195490940D02*
X151099440Y-193210020D01*
X155168520Y-199730200D02*
X157459600Y-199760680D01*
X151998600Y-195902420D02*
X153339720Y-193992340D01*
X149999620Y-194632420D02*
X149999620Y-192511520D01*
X144228740Y-196341840D02*
X146088020Y-197571200D01*
X147238640Y-204370780D02*
X145897520Y-206222440D01*
X155049140Y-201122120D02*
X157167500Y-201800300D01*
X150289180Y-205211520D02*
X150218060Y-207441640D01*
X154228720Y-201571700D02*
X156359780Y-202620720D01*
X147258960Y-206311340D02*
X148249560Y-204251400D01*
X149288420Y-206842200D02*
X149638940Y-204510480D01*
X142529480Y-199491440D02*
X144818020Y-199631140D01*
X146949080Y-203342080D02*
X145079640Y-204921960D01*
X143238140Y-200751280D02*
X145539380Y-200601420D01*
X153367660Y-204060900D02*
X154569080Y-205841440D01*
X143878220Y-204281880D02*
X145828940Y-203131260D01*
X143159400Y-196971760D02*
X145219340Y-198000460D01*
X154467480Y-199140920D02*
X156809360Y-198820880D01*
X149417960Y-195521420D02*
X149009020Y-193050000D01*
X145559700Y-194761960D02*
X147119260Y-196481540D01*
X154439540Y-202780740D02*
X156189600Y-204081220D01*
X143207660Y-198262080D02*
X145577480Y-199021540D01*
X153189860Y-196730460D02*
X155008500Y-195300440D01*
X154139820Y-196951440D02*
X156169280Y-195861780D01*
X154028060Y-197820120D02*
X156199760Y-196852380D01*
X151439800Y-206760920D02*
X150977520Y-204411420D01*
X154889120Y-198180800D02*
X157129400Y-197761700D01*
X154508120Y-200431240D02*
X156867780Y-200591260D01*
X148678820Y-194820380D02*
X147817760Y-192851880D01*
X145107580Y-201470100D02*
X142829200Y-201980640D01*
X148709300Y-204952440D02*
X147949840Y-207131760D01*
X153459100Y-202900120D02*
X155008500Y-204520640D01*
X154528440Y-194081240D02*
X152968880Y-195861780D01*
X151498220Y-194980400D02*
X152338960Y-192961100D01*
X144477660Y-194990560D02*
X145999120Y-196501860D01*
X153629280Y-205981140D02*
X152379600Y-203842460D01*
X143989980Y-203022040D02*
X145988960Y-202082240D01*
X145958480Y-193761200D02*
X147408820Y-195640800D01*
X151848740Y-204881320D02*
X152628520Y-206931100D01*
X147149740Y-193720560D02*
X148259720Y-195701760D01*
X154508120Y-199991820D02*
G75*
G03*
X154508120Y-199991820I-4508500J0D01*
G01*
X157497700Y-200001980D02*
G75*
G03*
X157497700Y-200001980I-7498080J0D01*
G01*
%TO.C,SW11*%
X68207660Y-123262080D02*
X70577480Y-124021540D01*
X72149740Y-118720560D02*
X73259720Y-120701760D01*
X79467480Y-124140920D02*
X81809360Y-123820880D01*
X76498220Y-119980400D02*
X77338960Y-117961100D01*
X67529480Y-124491440D02*
X69818020Y-124631140D01*
X79439540Y-127780740D02*
X81189600Y-129081220D01*
X68238140Y-125751280D02*
X70539380Y-125601420D01*
X79508120Y-125431240D02*
X81867780Y-125591260D01*
X75558420Y-120490940D02*
X76099440Y-118210020D01*
X75289180Y-130211520D02*
X75218060Y-132441640D01*
X79139820Y-121951440D02*
X81169280Y-120861780D01*
X72238640Y-129370780D02*
X70897520Y-131222440D01*
X79028060Y-122820120D02*
X81199760Y-121852380D01*
X70559700Y-119761960D02*
X72119260Y-121481540D01*
X72258960Y-131311340D02*
X73249560Y-129251400D01*
X69477660Y-119990560D02*
X70999120Y-121501860D01*
X74288420Y-131842200D02*
X74638940Y-129510480D01*
X70958480Y-118761200D02*
X72408820Y-120640800D01*
X68989980Y-128022040D02*
X70988960Y-127082240D01*
X78629280Y-130981140D02*
X77379600Y-128842460D01*
X79889120Y-123180800D02*
X82129400Y-122761700D01*
X68878220Y-129281880D02*
X70828940Y-128131260D01*
X78367660Y-129060900D02*
X79569080Y-130841440D01*
X79228720Y-126571700D02*
X81359780Y-127620720D01*
X74417960Y-120521420D02*
X74009020Y-118050000D01*
X80049140Y-126122120D02*
X82167500Y-126800300D01*
X73678820Y-119820380D02*
X72817760Y-117851880D01*
X68159400Y-121971760D02*
X70219340Y-123000460D01*
X78189860Y-121730460D02*
X80008500Y-120300440D01*
X73709300Y-129952440D02*
X72949840Y-132131760D01*
X76848740Y-129881320D02*
X77628520Y-131931100D01*
X78459100Y-127900120D02*
X80008500Y-129520640D01*
X71949080Y-128342080D02*
X70079640Y-129921960D01*
X80168520Y-124730200D02*
X82459600Y-124760680D01*
X70107580Y-126470100D02*
X67829200Y-126980640D01*
X79528440Y-119081240D02*
X77968880Y-120861780D01*
X76998600Y-120902420D02*
X78339720Y-118992340D01*
X74999620Y-119632420D02*
X74999620Y-117511520D01*
X76439800Y-131760920D02*
X75977520Y-129411420D01*
X69228740Y-121341840D02*
X71088020Y-122571200D01*
X82497700Y-125001980D02*
G75*
G03*
X82497700Y-125001980I-7498080J0D01*
G01*
X79508120Y-124991820D02*
G75*
G03*
X79508120Y-124991820I-4508500J0D01*
G01*
%TO.C,SW12*%
X101439800Y-131760920D02*
X100977520Y-129411420D01*
X101998600Y-120902420D02*
X103339720Y-118992340D01*
X95958480Y-118761200D02*
X97408820Y-120640800D01*
X95107580Y-126470100D02*
X92829200Y-126980640D01*
X93159400Y-121971760D02*
X95219340Y-123000460D01*
X105049140Y-126122120D02*
X107167500Y-126800300D01*
X93207660Y-123262080D02*
X95577480Y-124021540D01*
X104528440Y-119081240D02*
X102968880Y-120861780D01*
X99417960Y-120521420D02*
X99009020Y-118050000D01*
X101848740Y-129881320D02*
X102628520Y-131931100D01*
X104028060Y-122820120D02*
X106199760Y-121852380D01*
X104508120Y-125431240D02*
X106867780Y-125591260D01*
X97238640Y-129370780D02*
X95897520Y-131222440D01*
X104889120Y-123180800D02*
X107129400Y-122761700D01*
X104139820Y-121951440D02*
X106169280Y-120861780D01*
X103629280Y-130981140D02*
X102379600Y-128842460D01*
X103367660Y-129060900D02*
X104569080Y-130841440D01*
X103189860Y-121730460D02*
X105008500Y-120300440D01*
X101498220Y-119980400D02*
X102338960Y-117961100D01*
X98709300Y-129952440D02*
X97949840Y-132131760D01*
X93878220Y-129281880D02*
X95828940Y-128131260D01*
X105168520Y-124730200D02*
X107459600Y-124760680D01*
X92529480Y-124491440D02*
X94818020Y-124631140D01*
X97258960Y-131311340D02*
X98249560Y-129251400D01*
X97149740Y-118720560D02*
X98259720Y-120701760D01*
X93989980Y-128022040D02*
X95988960Y-127082240D01*
X95559700Y-119761960D02*
X97119260Y-121481540D01*
X93238140Y-125751280D02*
X95539380Y-125601420D01*
X99999620Y-119632420D02*
X99999620Y-117511520D01*
X96949080Y-128342080D02*
X95079640Y-129921960D01*
X100558420Y-120490940D02*
X101099440Y-118210020D01*
X104228720Y-126571700D02*
X106359780Y-127620720D01*
X99288420Y-131842200D02*
X99638940Y-129510480D01*
X104467480Y-124140920D02*
X106809360Y-123820880D01*
X98678820Y-119820380D02*
X97817760Y-117851880D01*
X103459100Y-127900120D02*
X105008500Y-129520640D01*
X94228740Y-121341840D02*
X96088020Y-122571200D01*
X100289180Y-130211520D02*
X100218060Y-132441640D01*
X94477660Y-119990560D02*
X95999120Y-121501860D01*
X104439540Y-127780740D02*
X106189600Y-129081220D01*
X104508120Y-124991820D02*
G75*
G03*
X104508120Y-124991820I-4508500J0D01*
G01*
X107497700Y-125001980D02*
G75*
G03*
X107497700Y-125001980I-7498080J0D01*
G01*
%TO.C,SW13*%
X123678820Y-119820380D02*
X122817760Y-117851880D01*
X120559700Y-119761960D02*
X122119260Y-121481540D01*
X128189860Y-121730460D02*
X130008500Y-120300440D01*
X126998600Y-120902420D02*
X128339720Y-118992340D01*
X126848740Y-129881320D02*
X127628520Y-131931100D01*
X130049140Y-126122120D02*
X132167500Y-126800300D01*
X128459100Y-127900120D02*
X130008500Y-129520640D01*
X124288420Y-131842200D02*
X124638940Y-129510480D01*
X129439540Y-127780740D02*
X131189600Y-129081220D01*
X118238140Y-125751280D02*
X120539380Y-125601420D01*
X129889120Y-123180800D02*
X132129400Y-122761700D01*
X119477660Y-119990560D02*
X120999120Y-121501860D01*
X128629280Y-130981140D02*
X127379600Y-128842460D01*
X128367660Y-129060900D02*
X129569080Y-130841440D01*
X130168520Y-124730200D02*
X132459600Y-124760680D01*
X124417960Y-120521420D02*
X124009020Y-118050000D01*
X129139820Y-121951440D02*
X131169280Y-120861780D01*
X118989980Y-128022040D02*
X120988960Y-127082240D01*
X118159400Y-121971760D02*
X120219340Y-123000460D01*
X129028060Y-122820120D02*
X131199760Y-121852380D01*
X118878220Y-129281880D02*
X120828940Y-128131260D01*
X122149740Y-118720560D02*
X123259720Y-120701760D01*
X125289180Y-130211520D02*
X125218060Y-132441640D01*
X118207660Y-123262080D02*
X120577480Y-124021540D01*
X126498220Y-119980400D02*
X127338960Y-117961100D01*
X121949080Y-128342080D02*
X120079640Y-129921960D01*
X123709300Y-129952440D02*
X122949840Y-132131760D01*
X129508120Y-125431240D02*
X131867780Y-125591260D01*
X117529480Y-124491440D02*
X119818020Y-124631140D01*
X120958480Y-118761200D02*
X122408820Y-120640800D01*
X122238640Y-129370780D02*
X120897520Y-131222440D01*
X120107580Y-126470100D02*
X117829200Y-126980640D01*
X125558420Y-120490940D02*
X126099440Y-118210020D01*
X129228720Y-126571700D02*
X131359780Y-127620720D01*
X119228740Y-121341840D02*
X121088020Y-122571200D01*
X122258960Y-131311340D02*
X123249560Y-129251400D01*
X129467480Y-124140920D02*
X131809360Y-123820880D01*
X126439800Y-131760920D02*
X125977520Y-129411420D01*
X129528440Y-119081240D02*
X127968880Y-120861780D01*
X124999620Y-119632420D02*
X124999620Y-117511520D01*
X129508120Y-124991820D02*
G75*
G03*
X129508120Y-124991820I-4508500J0D01*
G01*
X132497700Y-125001980D02*
G75*
G03*
X132497700Y-125001980I-7498080J0D01*
G01*
%TO.C,SW14*%
X154467480Y-124140920D02*
X156809360Y-123820880D01*
X151848740Y-129881320D02*
X152628520Y-131931100D01*
X143159400Y-121971760D02*
X145219340Y-123000460D01*
X154228720Y-126571700D02*
X156359780Y-127620720D01*
X153629280Y-130981140D02*
X152379600Y-128842460D01*
X144477660Y-119990560D02*
X145999120Y-121501860D01*
X143878220Y-129281880D02*
X145828940Y-128131260D01*
X143989980Y-128022040D02*
X145988960Y-127082240D01*
X147149740Y-118720560D02*
X148259720Y-120701760D01*
X150289180Y-130211520D02*
X150218060Y-132441640D01*
X154139820Y-121951440D02*
X156169280Y-120861780D01*
X149288420Y-131842200D02*
X149638940Y-129510480D01*
X154889120Y-123180800D02*
X157129400Y-122761700D01*
X155049140Y-126122120D02*
X157167500Y-126800300D01*
X145559700Y-119761960D02*
X147119260Y-121481540D01*
X154028060Y-122820120D02*
X156199760Y-121852380D01*
X153189860Y-121730460D02*
X155008500Y-120300440D01*
X142529480Y-124491440D02*
X144818020Y-124631140D01*
X147258960Y-131311340D02*
X148249560Y-129251400D01*
X149999620Y-119632420D02*
X149999620Y-117511520D01*
X143207660Y-123262080D02*
X145577480Y-124021540D01*
X145958480Y-118761200D02*
X147408820Y-120640800D01*
X146949080Y-128342080D02*
X145079640Y-129921960D01*
X148709300Y-129952440D02*
X147949840Y-132131760D01*
X154439540Y-127780740D02*
X156189600Y-129081220D01*
X148678820Y-119820380D02*
X147817760Y-117851880D01*
X153459100Y-127900120D02*
X155008500Y-129520640D01*
X154528440Y-119081240D02*
X152968880Y-120861780D01*
X151998600Y-120902420D02*
X153339720Y-118992340D01*
X143238140Y-125751280D02*
X145539380Y-125601420D01*
X144228740Y-121341840D02*
X146088020Y-122571200D01*
X145107580Y-126470100D02*
X142829200Y-126980640D01*
X147238640Y-129370780D02*
X145897520Y-131222440D01*
X150558420Y-120490940D02*
X151099440Y-118210020D01*
X155168520Y-124730200D02*
X157459600Y-124760680D01*
X149417960Y-120521420D02*
X149009020Y-118050000D01*
X153367660Y-129060900D02*
X154569080Y-130841440D01*
X151439800Y-131760920D02*
X150977520Y-129411420D01*
X154508120Y-125431240D02*
X156867780Y-125591260D01*
X151498220Y-119980400D02*
X152338960Y-117961100D01*
X154508120Y-124991820D02*
G75*
G03*
X154508120Y-124991820I-4508500J0D01*
G01*
X157497700Y-125001980D02*
G75*
G03*
X157497700Y-125001980I-7498080J0D01*
G01*
%TO.C,SW15*%
X79508120Y-150431240D02*
X81867780Y-150591260D01*
X75289180Y-155211520D02*
X75218060Y-157441640D01*
X72238640Y-154370780D02*
X70897520Y-156222440D01*
X76848740Y-154881320D02*
X77628520Y-156931100D01*
X74417960Y-145521420D02*
X74009020Y-143050000D01*
X68207660Y-148262080D02*
X70577480Y-149021540D01*
X74288420Y-156842200D02*
X74638940Y-154510480D01*
X78189860Y-146730460D02*
X80008500Y-145300440D01*
X73678820Y-144820380D02*
X72817760Y-142851880D01*
X79889120Y-148180800D02*
X82129400Y-147761700D01*
X75558420Y-145490940D02*
X76099440Y-143210020D01*
X80049140Y-151122120D02*
X82167500Y-151800300D01*
X69228740Y-146341840D02*
X71088020Y-147571200D01*
X79528440Y-144081240D02*
X77968880Y-145861780D01*
X79028060Y-147820120D02*
X81199760Y-146852380D01*
X70107580Y-151470100D02*
X67829200Y-151980640D01*
X68878220Y-154281880D02*
X70828940Y-153131260D01*
X79439540Y-152780740D02*
X81189600Y-154081220D01*
X78367660Y-154060900D02*
X79569080Y-155841440D01*
X68159400Y-146971760D02*
X70219340Y-148000460D01*
X79139820Y-146951440D02*
X81169280Y-145861780D01*
X67529480Y-149491440D02*
X69818020Y-149631140D01*
X71949080Y-153342080D02*
X70079640Y-154921960D01*
X79228720Y-151571700D02*
X81359780Y-152620720D01*
X76439800Y-156760920D02*
X75977520Y-154411420D01*
X68238140Y-150751280D02*
X70539380Y-150601420D01*
X68989980Y-153022040D02*
X70988960Y-152082240D01*
X70559700Y-144761960D02*
X72119260Y-146481540D01*
X76998600Y-145902420D02*
X78339720Y-143992340D01*
X72149740Y-143720560D02*
X73259720Y-145701760D01*
X79467480Y-149140920D02*
X81809360Y-148820880D01*
X78459100Y-152900120D02*
X80008500Y-154520640D01*
X74999620Y-144632420D02*
X74999620Y-142511520D01*
X76498220Y-144980400D02*
X77338960Y-142961100D01*
X72258960Y-156311340D02*
X73249560Y-154251400D01*
X73709300Y-154952440D02*
X72949840Y-157131760D01*
X70958480Y-143761200D02*
X72408820Y-145640800D01*
X80168520Y-149730200D02*
X82459600Y-149760680D01*
X69477660Y-144990560D02*
X70999120Y-146501860D01*
X78629280Y-155981140D02*
X77379600Y-153842460D01*
X82497700Y-150001980D02*
G75*
G03*
X82497700Y-150001980I-7498080J0D01*
G01*
X79508120Y-149991820D02*
G75*
G03*
X79508120Y-149991820I-4508500J0D01*
G01*
%TO.C,SW16*%
X101439800Y-156760920D02*
X100977520Y-154411420D01*
X104439540Y-152780740D02*
X106189600Y-154081220D01*
X104508120Y-150431240D02*
X106867780Y-150591260D01*
X94228740Y-146341840D02*
X96088020Y-147571200D01*
X95559700Y-144761960D02*
X97119260Y-146481540D01*
X105168520Y-149730200D02*
X107459600Y-149760680D01*
X99288420Y-156842200D02*
X99638940Y-154510480D01*
X104228720Y-151571700D02*
X106359780Y-152620720D01*
X100289180Y-155211520D02*
X100218060Y-157441640D01*
X105049140Y-151122120D02*
X107167500Y-151800300D01*
X97149740Y-143720560D02*
X98259720Y-145701760D01*
X101498220Y-144980400D02*
X102338960Y-142961100D01*
X92529480Y-149491440D02*
X94818020Y-149631140D01*
X103189860Y-146730460D02*
X105008500Y-145300440D01*
X93238140Y-150751280D02*
X95539380Y-150601420D01*
X97238640Y-154370780D02*
X95897520Y-156222440D01*
X103459100Y-152900120D02*
X105008500Y-154520640D01*
X93207660Y-148262080D02*
X95577480Y-149021540D01*
X103629280Y-155981140D02*
X102379600Y-153842460D01*
X101848740Y-154881320D02*
X102628520Y-156931100D01*
X104028060Y-147820120D02*
X106199760Y-146852380D01*
X95958480Y-143761200D02*
X97408820Y-145640800D01*
X97258960Y-156311340D02*
X98249560Y-154251400D01*
X99417960Y-145521420D02*
X99009020Y-143050000D01*
X98678820Y-144820380D02*
X97817760Y-142851880D01*
X93159400Y-146971760D02*
X95219340Y-148000460D01*
X99999620Y-144632420D02*
X99999620Y-142511520D01*
X100558420Y-145490940D02*
X101099440Y-143210020D01*
X104889120Y-148180800D02*
X107129400Y-147761700D01*
X101998600Y-145902420D02*
X103339720Y-143992340D01*
X104528440Y-144081240D02*
X102968880Y-145861780D01*
X104467480Y-149140920D02*
X106809360Y-148820880D01*
X93878220Y-154281880D02*
X95828940Y-153131260D01*
X93989980Y-153022040D02*
X95988960Y-152082240D01*
X98709300Y-154952440D02*
X97949840Y-157131760D01*
X104139820Y-146951440D02*
X106169280Y-145861780D01*
X96949080Y-153342080D02*
X95079640Y-154921960D01*
X103367660Y-154060900D02*
X104569080Y-155841440D01*
X94477660Y-144990560D02*
X95999120Y-146501860D01*
X95107580Y-151470100D02*
X92829200Y-151980640D01*
X104508120Y-149991820D02*
G75*
G03*
X104508120Y-149991820I-4508500J0D01*
G01*
X107497700Y-150001980D02*
G75*
G03*
X107497700Y-150001980I-7498080J0D01*
G01*
%TO.C,SW17*%
X124999620Y-144632420D02*
X124999620Y-142511520D01*
X122258960Y-156311340D02*
X123249560Y-154251400D01*
X118159400Y-146971760D02*
X120219340Y-148000460D01*
X128629280Y-155981140D02*
X127379600Y-153842460D01*
X118238140Y-150751280D02*
X120539380Y-150601420D01*
X120107580Y-151470100D02*
X117829200Y-151980640D01*
X129028060Y-147820120D02*
X131199760Y-146852380D01*
X124288420Y-156842200D02*
X124638940Y-154510480D01*
X124417960Y-145521420D02*
X124009020Y-143050000D01*
X130049140Y-151122120D02*
X132167500Y-151800300D01*
X125289180Y-155211520D02*
X125218060Y-157441640D01*
X120559700Y-144761960D02*
X122119260Y-146481540D01*
X128459100Y-152900120D02*
X130008500Y-154520640D01*
X121949080Y-153342080D02*
X120079640Y-154921960D01*
X129439540Y-152780740D02*
X131189600Y-154081220D01*
X126498220Y-144980400D02*
X127338960Y-142961100D01*
X119477660Y-144990560D02*
X120999120Y-146501860D01*
X128189860Y-146730460D02*
X130008500Y-145300440D01*
X118989980Y-153022040D02*
X120988960Y-152082240D01*
X129889120Y-148180800D02*
X132129400Y-147761700D01*
X117529480Y-149491440D02*
X119818020Y-149631140D01*
X122238640Y-154370780D02*
X120897520Y-156222440D01*
X126439800Y-156760920D02*
X125977520Y-154411420D01*
X123709300Y-154952440D02*
X122949840Y-157131760D01*
X129467480Y-149140920D02*
X131809360Y-148820880D01*
X130168520Y-149730200D02*
X132459600Y-149760680D01*
X118207660Y-148262080D02*
X120577480Y-149021540D01*
X123678820Y-144820380D02*
X122817760Y-142851880D01*
X119228740Y-146341840D02*
X121088020Y-147571200D01*
X129228720Y-151571700D02*
X131359780Y-152620720D01*
X129508120Y-150431240D02*
X131867780Y-150591260D01*
X129139820Y-146951440D02*
X131169280Y-145861780D01*
X128367660Y-154060900D02*
X129569080Y-155841440D01*
X122149740Y-143720560D02*
X123259720Y-145701760D01*
X126998600Y-145902420D02*
X128339720Y-143992340D01*
X125558420Y-145490940D02*
X126099440Y-143210020D01*
X129528440Y-144081240D02*
X127968880Y-145861780D01*
X120958480Y-143761200D02*
X122408820Y-145640800D01*
X118878220Y-154281880D02*
X120828940Y-153131260D01*
X126848740Y-154881320D02*
X127628520Y-156931100D01*
X129508120Y-149991820D02*
G75*
G03*
X129508120Y-149991820I-4508500J0D01*
G01*
X132497700Y-150001980D02*
G75*
G03*
X132497700Y-150001980I-7498080J0D01*
G01*
%TO.C,SW18*%
X154889120Y-148180800D02*
X157129400Y-147761700D01*
X147238640Y-154370780D02*
X145897520Y-156222440D01*
X147258960Y-156311340D02*
X148249560Y-154251400D01*
X143878220Y-154281880D02*
X145828940Y-153131260D01*
X143207660Y-148262080D02*
X145577480Y-149021540D01*
X154139820Y-146951440D02*
X156169280Y-145861780D01*
X154228720Y-151571700D02*
X156359780Y-152620720D01*
X151439800Y-156760920D02*
X150977520Y-154411420D01*
X154528440Y-144081240D02*
X152968880Y-145861780D01*
X149288420Y-156842200D02*
X149638940Y-154510480D01*
X155049140Y-151122120D02*
X157167500Y-151800300D01*
X151998600Y-145902420D02*
X153339720Y-143992340D01*
X143159400Y-146971760D02*
X145219340Y-148000460D01*
X144228740Y-146341840D02*
X146088020Y-147571200D01*
X142529480Y-149491440D02*
X144818020Y-149631140D01*
X154508120Y-150431240D02*
X156867780Y-150591260D01*
X149417960Y-145521420D02*
X149009020Y-143050000D01*
X149999620Y-144632420D02*
X149999620Y-142511520D01*
X153367660Y-154060900D02*
X154569080Y-155841440D01*
X144477660Y-144990560D02*
X145999120Y-146501860D01*
X143989980Y-153022040D02*
X145988960Y-152082240D01*
X154028060Y-147820120D02*
X156199760Y-146852380D01*
X150558420Y-145490940D02*
X151099440Y-143210020D01*
X153629280Y-155981140D02*
X152379600Y-153842460D01*
X151498220Y-144980400D02*
X152338960Y-142961100D01*
X153459100Y-152900120D02*
X155008500Y-154520640D01*
X148678820Y-144820380D02*
X147817760Y-142851880D01*
X145107580Y-151470100D02*
X142829200Y-151980640D01*
X153189860Y-146730460D02*
X155008500Y-145300440D01*
X143238140Y-150751280D02*
X145539380Y-150601420D01*
X146949080Y-153342080D02*
X145079640Y-154921960D01*
X154439540Y-152780740D02*
X156189600Y-154081220D01*
X155168520Y-149730200D02*
X157459600Y-149760680D01*
X154467480Y-149140920D02*
X156809360Y-148820880D01*
X147149740Y-143720560D02*
X148259720Y-145701760D01*
X148709300Y-154952440D02*
X147949840Y-157131760D01*
X145559700Y-144761960D02*
X147119260Y-146481540D01*
X151848740Y-154881320D02*
X152628520Y-156931100D01*
X150289180Y-155211520D02*
X150218060Y-157441640D01*
X145958480Y-143761200D02*
X147408820Y-145640800D01*
X154508120Y-149991820D02*
G75*
G03*
X154508120Y-149991820I-4508500J0D01*
G01*
X157497700Y-150001980D02*
G75*
G03*
X157497700Y-150001980I-7498080J0D01*
G01*
%TO.C,SW19*%
X78367660Y-179060900D02*
X79569080Y-180841440D01*
X68989980Y-178022040D02*
X70988960Y-177082240D01*
X75558420Y-170490940D02*
X76099440Y-168210020D01*
X72149740Y-168720560D02*
X73259720Y-170701760D01*
X79889120Y-173180800D02*
X82129400Y-172761700D01*
X74417960Y-170521420D02*
X74009020Y-168050000D01*
X67529480Y-174491440D02*
X69818020Y-174631140D01*
X79439540Y-177780740D02*
X81189600Y-179081220D01*
X68878220Y-179281880D02*
X70828940Y-178131260D01*
X69228740Y-171341840D02*
X71088020Y-172571200D01*
X75289180Y-180211520D02*
X75218060Y-182441640D01*
X71949080Y-178342080D02*
X70079640Y-179921960D01*
X68207660Y-173262080D02*
X70577480Y-174021540D01*
X74288420Y-181842200D02*
X74638940Y-179510480D01*
X79139820Y-171951440D02*
X81169280Y-170861780D01*
X73678820Y-169820380D02*
X72817760Y-167851880D01*
X70107580Y-176470100D02*
X67829200Y-176980640D01*
X79508120Y-175431240D02*
X81867780Y-175591260D01*
X76439800Y-181760920D02*
X75977520Y-179411420D01*
X76848740Y-179881320D02*
X77628520Y-181931100D01*
X76998600Y-170902420D02*
X78339720Y-168992340D01*
X73709300Y-179952440D02*
X72949840Y-182131760D01*
X70559700Y-169761960D02*
X72119260Y-171481540D01*
X79467480Y-174140920D02*
X81809360Y-173820880D01*
X78629280Y-180981140D02*
X77379600Y-178842460D01*
X68159400Y-171971760D02*
X70219340Y-173000460D01*
X80168520Y-174730200D02*
X82459600Y-174760680D01*
X78189860Y-171730460D02*
X80008500Y-170300440D01*
X68238140Y-175751280D02*
X70539380Y-175601420D01*
X80049140Y-176122120D02*
X82167500Y-176800300D01*
X78459100Y-177900120D02*
X80008500Y-179520640D01*
X74999620Y-169632420D02*
X74999620Y-167511520D01*
X70958480Y-168761200D02*
X72408820Y-170640800D01*
X76498220Y-169980400D02*
X77338960Y-167961100D01*
X79028060Y-172820120D02*
X81199760Y-171852380D01*
X69477660Y-169990560D02*
X70999120Y-171501860D01*
X79228720Y-176571700D02*
X81359780Y-177620720D01*
X79528440Y-169081240D02*
X77968880Y-170861780D01*
X72238640Y-179370780D02*
X70897520Y-181222440D01*
X72258960Y-181311340D02*
X73249560Y-179251400D01*
X82497700Y-175001980D02*
G75*
G03*
X82497700Y-175001980I-7498080J0D01*
G01*
X79508120Y-174991820D02*
G75*
G03*
X79508120Y-174991820I-4508500J0D01*
G01*
%TO.C,SW20*%
X104228720Y-176571700D02*
X106359780Y-177620720D01*
X103367660Y-179060900D02*
X104569080Y-180841440D01*
X95559700Y-169761960D02*
X97119260Y-171481540D01*
X104889120Y-173180800D02*
X107129400Y-172761700D01*
X92529480Y-174491440D02*
X94818020Y-174631140D01*
X99999620Y-169632420D02*
X99999620Y-167511520D01*
X104439540Y-177780740D02*
X106189600Y-179081220D01*
X105049140Y-176122120D02*
X107167500Y-176800300D01*
X103629280Y-180981140D02*
X102379600Y-178842460D01*
X97258960Y-181311340D02*
X98249560Y-179251400D01*
X104028060Y-172820120D02*
X106199760Y-171852380D01*
X93238140Y-175751280D02*
X95539380Y-175601420D01*
X93989980Y-178022040D02*
X95988960Y-177082240D01*
X98709300Y-179952440D02*
X97949840Y-182131760D01*
X105168520Y-174730200D02*
X107459600Y-174760680D01*
X104467480Y-174140920D02*
X106809360Y-173820880D01*
X101998600Y-170902420D02*
X103339720Y-168992340D01*
X94228740Y-171341840D02*
X96088020Y-172571200D01*
X98678820Y-169820380D02*
X97817760Y-167851880D01*
X97238640Y-179370780D02*
X95897520Y-181222440D01*
X101439800Y-181760920D02*
X100977520Y-179411420D01*
X99288420Y-181842200D02*
X99638940Y-179510480D01*
X101848740Y-179881320D02*
X102628520Y-181931100D01*
X104139820Y-171951440D02*
X106169280Y-170861780D01*
X100558420Y-170490940D02*
X101099440Y-168210020D01*
X94477660Y-169990560D02*
X95999120Y-171501860D01*
X97149740Y-168720560D02*
X98259720Y-170701760D01*
X103189860Y-171730460D02*
X105008500Y-170300440D01*
X93159400Y-171971760D02*
X95219340Y-173000460D01*
X103459100Y-177900120D02*
X105008500Y-179520640D01*
X93878220Y-179281880D02*
X95828940Y-178131260D01*
X99417960Y-170521420D02*
X99009020Y-168050000D01*
X96949080Y-178342080D02*
X95079640Y-179921960D01*
X104528440Y-169081240D02*
X102968880Y-170861780D01*
X101498220Y-169980400D02*
X102338960Y-167961100D01*
X100289180Y-180211520D02*
X100218060Y-182441640D01*
X104508120Y-175431240D02*
X106867780Y-175591260D01*
X95107580Y-176470100D02*
X92829200Y-176980640D01*
X95958480Y-168761200D02*
X97408820Y-170640800D01*
X93207660Y-173262080D02*
X95577480Y-174021540D01*
X104508120Y-174991820D02*
G75*
G03*
X104508120Y-174991820I-4508500J0D01*
G01*
X107497700Y-175001980D02*
G75*
G03*
X107497700Y-175001980I-7498080J0D01*
G01*
%TO.C,SW21*%
X122238640Y-179370780D02*
X120897520Y-181222440D01*
X125558420Y-170490940D02*
X126099440Y-168210020D01*
X117529480Y-174491440D02*
X119818020Y-174631140D01*
X118159400Y-171971760D02*
X120219340Y-173000460D01*
X121949080Y-178342080D02*
X120079640Y-179921960D01*
X120559700Y-169761960D02*
X122119260Y-171481540D01*
X124999620Y-169632420D02*
X124999620Y-167511520D01*
X122149740Y-168720560D02*
X123259720Y-170701760D01*
X118238140Y-175751280D02*
X120539380Y-175601420D01*
X126439800Y-181760920D02*
X125977520Y-179411420D01*
X118878220Y-179281880D02*
X120828940Y-178131260D01*
X128459100Y-177900120D02*
X130008500Y-179520640D01*
X129139820Y-171951440D02*
X131169280Y-170861780D01*
X129528440Y-169081240D02*
X127968880Y-170861780D01*
X123709300Y-179952440D02*
X122949840Y-182131760D01*
X125289180Y-180211520D02*
X125218060Y-182441640D01*
X130049140Y-176122120D02*
X132167500Y-176800300D01*
X129439540Y-177780740D02*
X131189600Y-179081220D01*
X126498220Y-169980400D02*
X127338960Y-167961100D01*
X118207660Y-173262080D02*
X120577480Y-174021540D01*
X129228720Y-176571700D02*
X131359780Y-177620720D01*
X129467480Y-174140920D02*
X131809360Y-173820880D01*
X129028060Y-172820120D02*
X131199760Y-171852380D01*
X120107580Y-176470100D02*
X117829200Y-176980640D01*
X129889120Y-173180800D02*
X132129400Y-172761700D01*
X130168520Y-174730200D02*
X132459600Y-174760680D01*
X128629280Y-180981140D02*
X127379600Y-178842460D01*
X123678820Y-169820380D02*
X122817760Y-167851880D01*
X124288420Y-181842200D02*
X124638940Y-179510480D01*
X126848740Y-179881320D02*
X127628520Y-181931100D01*
X120958480Y-168761200D02*
X122408820Y-170640800D01*
X129508120Y-175431240D02*
X131867780Y-175591260D01*
X118989980Y-178022040D02*
X120988960Y-177082240D01*
X128189860Y-171730460D02*
X130008500Y-170300440D01*
X126998600Y-170902420D02*
X128339720Y-168992340D01*
X119228740Y-171341840D02*
X121088020Y-172571200D01*
X128367660Y-179060900D02*
X129569080Y-180841440D01*
X122258960Y-181311340D02*
X123249560Y-179251400D01*
X124417960Y-170521420D02*
X124009020Y-168050000D01*
X119477660Y-169990560D02*
X120999120Y-171501860D01*
X132497700Y-175001980D02*
G75*
G03*
X132497700Y-175001980I-7498080J0D01*
G01*
X129508120Y-174991820D02*
G75*
G03*
X129508120Y-174991820I-4508500J0D01*
G01*
%TO.C,SW22*%
X75289180Y-205211520D02*
X75218060Y-207441640D01*
X73709300Y-204952440D02*
X72949840Y-207131760D01*
X75558420Y-195490940D02*
X76099440Y-193210020D01*
X79028060Y-197820120D02*
X81199760Y-196852380D01*
X78629280Y-205981140D02*
X77379600Y-203842460D01*
X68207660Y-198262080D02*
X70577480Y-199021540D01*
X78367660Y-204060900D02*
X79569080Y-205841440D01*
X74417960Y-195521420D02*
X74009020Y-193050000D01*
X79467480Y-199140920D02*
X81809360Y-198820880D01*
X79889120Y-198180800D02*
X82129400Y-197761700D01*
X80049140Y-201122120D02*
X82167500Y-201800300D01*
X76848740Y-204881320D02*
X77628520Y-206931100D01*
X72238640Y-204370780D02*
X70897520Y-206222440D01*
X78459100Y-202900120D02*
X80008500Y-204520640D01*
X70107580Y-201470100D02*
X67829200Y-201980640D01*
X79228720Y-201571700D02*
X81359780Y-202620720D01*
X68159400Y-196971760D02*
X70219340Y-198000460D01*
X73678820Y-194820380D02*
X72817760Y-192851880D01*
X72258960Y-206311340D02*
X73249560Y-204251400D01*
X76439800Y-206760920D02*
X75977520Y-204411420D01*
X68989980Y-203022040D02*
X70988960Y-202082240D01*
X74288420Y-206842200D02*
X74638940Y-204510480D01*
X79508120Y-200431240D02*
X81867780Y-200591260D01*
X68238140Y-200751280D02*
X70539380Y-200601420D01*
X74999620Y-194632420D02*
X74999620Y-192511520D01*
X70958480Y-193761200D02*
X72408820Y-195640800D01*
X70559700Y-194761960D02*
X72119260Y-196481540D01*
X67529480Y-199491440D02*
X69818020Y-199631140D01*
X80168520Y-199730200D02*
X82459600Y-199760680D01*
X79439540Y-202780740D02*
X81189600Y-204081220D01*
X79528440Y-194081240D02*
X77968880Y-195861780D01*
X76498220Y-194980400D02*
X77338960Y-192961100D01*
X71949080Y-203342080D02*
X70079640Y-204921960D01*
X76998600Y-195902420D02*
X78339720Y-193992340D01*
X69477660Y-194990560D02*
X70999120Y-196501860D01*
X79139820Y-196951440D02*
X81169280Y-195861780D01*
X68878220Y-204281880D02*
X70828940Y-203131260D01*
X69228740Y-196341840D02*
X71088020Y-197571200D01*
X78189860Y-196730460D02*
X80008500Y-195300440D01*
X72149740Y-193720560D02*
X73259720Y-195701760D01*
X79508120Y-199991820D02*
G75*
G03*
X79508120Y-199991820I-4508500J0D01*
G01*
X82497700Y-200001980D02*
G75*
G03*
X82497700Y-200001980I-7498080J0D01*
G01*
%TO.C,SW23*%
X97258960Y-206311340D02*
X98249560Y-204251400D01*
X95559700Y-194761960D02*
X97119260Y-196481540D01*
X101848740Y-204881320D02*
X102628520Y-206931100D01*
X104228720Y-201571700D02*
X106359780Y-202620720D01*
X93159400Y-196971760D02*
X95219340Y-198000460D01*
X103367660Y-204060900D02*
X104569080Y-205841440D01*
X104889120Y-198180800D02*
X107129400Y-197761700D01*
X105049140Y-201122120D02*
X107167500Y-201800300D01*
X101498220Y-194980400D02*
X102338960Y-192961100D01*
X93238140Y-200751280D02*
X95539380Y-200601420D01*
X99999620Y-194632420D02*
X99999620Y-192511520D01*
X92529480Y-199491440D02*
X94818020Y-199631140D01*
X105168520Y-199730200D02*
X107459600Y-199760680D01*
X94477660Y-194990560D02*
X95999120Y-196501860D01*
X103189860Y-196730460D02*
X105008500Y-195300440D01*
X94228740Y-196341840D02*
X96088020Y-197571200D01*
X97238640Y-204370780D02*
X95897520Y-206222440D01*
X101998600Y-195902420D02*
X103339720Y-193992340D01*
X104028060Y-197820120D02*
X106199760Y-196852380D01*
X93207660Y-198262080D02*
X95577480Y-199021540D01*
X101439800Y-206760920D02*
X100977520Y-204411420D01*
X104508120Y-200431240D02*
X106867780Y-200591260D01*
X100289180Y-205211520D02*
X100218060Y-207441640D01*
X93878220Y-204281880D02*
X95828940Y-203131260D01*
X97149740Y-193720560D02*
X98259720Y-195701760D01*
X104139820Y-196951440D02*
X106169280Y-195861780D01*
X99288420Y-206842200D02*
X99638940Y-204510480D01*
X103629280Y-205981140D02*
X102379600Y-203842460D01*
X99417960Y-195521420D02*
X99009020Y-193050000D01*
X95107580Y-201470100D02*
X92829200Y-201980640D01*
X95958480Y-193761200D02*
X97408820Y-195640800D01*
X96949080Y-203342080D02*
X95079640Y-204921960D01*
X104439540Y-202780740D02*
X106189600Y-204081220D01*
X98709300Y-204952440D02*
X97949840Y-207131760D01*
X104467480Y-199140920D02*
X106809360Y-198820880D01*
X103459100Y-202900120D02*
X105008500Y-204520640D01*
X93989980Y-203022040D02*
X95988960Y-202082240D01*
X98678820Y-194820380D02*
X97817760Y-192851880D01*
X104528440Y-194081240D02*
X102968880Y-195861780D01*
X100558420Y-195490940D02*
X101099440Y-193210020D01*
X104508120Y-199991820D02*
G75*
G03*
X104508120Y-199991820I-4508500J0D01*
G01*
X107497700Y-200001980D02*
G75*
G03*
X107497700Y-200001980I-7498080J0D01*
G01*
%TO.C,SW24*%
X128367660Y-204060900D02*
X129569080Y-205841440D01*
X117529480Y-199491440D02*
X119818020Y-199631140D01*
X129528440Y-194081240D02*
X127968880Y-195861780D01*
X129228720Y-201571700D02*
X131359780Y-202620720D01*
X129889120Y-198180800D02*
X132129400Y-197761700D01*
X120107580Y-201470100D02*
X117829200Y-201980640D01*
X129467480Y-199140920D02*
X131809360Y-198820880D01*
X126498220Y-194980400D02*
X127338960Y-192961100D01*
X122258960Y-206311340D02*
X123249560Y-204251400D01*
X118159400Y-196971760D02*
X120219340Y-198000460D01*
X130049140Y-201122120D02*
X132167500Y-201800300D01*
X118878220Y-204281880D02*
X120828940Y-203131260D01*
X122149740Y-193720560D02*
X123259720Y-195701760D01*
X126998600Y-195902420D02*
X128339720Y-193992340D01*
X129028060Y-197820120D02*
X131199760Y-196852380D01*
X118238140Y-200751280D02*
X120539380Y-200601420D01*
X126848740Y-204881320D02*
X127628520Y-206931100D01*
X130168520Y-199730200D02*
X132459600Y-199760680D01*
X124288420Y-206842200D02*
X124638940Y-204510480D01*
X118989980Y-203022040D02*
X120988960Y-202082240D01*
X128629280Y-205981140D02*
X127379600Y-203842460D01*
X129439540Y-202780740D02*
X131189600Y-204081220D01*
X122238640Y-204370780D02*
X120897520Y-206222440D01*
X128459100Y-202900120D02*
X130008500Y-204520640D01*
X129508120Y-200431240D02*
X131867780Y-200591260D01*
X119228740Y-196341840D02*
X121088020Y-197571200D01*
X124417960Y-195521420D02*
X124009020Y-193050000D01*
X125558420Y-195490940D02*
X126099440Y-193210020D01*
X126439800Y-206760920D02*
X125977520Y-204411420D01*
X124999620Y-194632420D02*
X124999620Y-192511520D01*
X118207660Y-198262080D02*
X120577480Y-199021540D01*
X121949080Y-203342080D02*
X120079640Y-204921960D01*
X120559700Y-194761960D02*
X122119260Y-196481540D01*
X123709300Y-204952440D02*
X122949840Y-207131760D01*
X119477660Y-194990560D02*
X120999120Y-196501860D01*
X123678820Y-194820380D02*
X122817760Y-192851880D01*
X129139820Y-196951440D02*
X131169280Y-195861780D01*
X128189860Y-196730460D02*
X130008500Y-195300440D01*
X125289180Y-205211520D02*
X125218060Y-207441640D01*
X120958480Y-193761200D02*
X122408820Y-195640800D01*
X129508120Y-199991820D02*
G75*
G03*
X129508120Y-199991820I-4508500J0D01*
G01*
X132497700Y-200001980D02*
G75*
G03*
X132497700Y-200001980I-7498080J0D01*
G01*
%TD*%
D12*
%TO.C,C_mux_1*%
X172000000Y-94225000D03*
X172000000Y-95775000D03*
%TD*%
D13*
%TO.C,C_pwr_2*%
X135605000Y-107110000D03*
X134055000Y-107110000D03*
%TD*%
D14*
%TO.C,C1*%
X74225000Y-60500000D03*
X75775000Y-60500000D03*
%TD*%
%TO.C,C13*%
X124505000Y-135200000D03*
X126055000Y-135200000D03*
%TD*%
%TO.C,C2*%
X99225000Y-60500000D03*
X100775000Y-60500000D03*
%TD*%
%TO.C,C14*%
X150005000Y-134700000D03*
X151555000Y-134700000D03*
%TD*%
%TO.C,C3*%
X124450000Y-60500000D03*
X126000000Y-60500000D03*
%TD*%
%TO.C,C15*%
X74095000Y-159840000D03*
X75645000Y-159840000D03*
%TD*%
D13*
%TO.C,C4*%
X151275000Y-60500000D03*
X149725000Y-60500000D03*
%TD*%
D14*
%TO.C,C16*%
X99095000Y-159840000D03*
X100645000Y-159840000D03*
%TD*%
%TO.C,C17*%
X124595000Y-159840000D03*
X126145000Y-159840000D03*
%TD*%
%TO.C,C6*%
X99835000Y-84640000D03*
X101385000Y-84640000D03*
%TD*%
%TO.C,C18*%
X149595000Y-159840000D03*
X151145000Y-159840000D03*
%TD*%
%TO.C,C7*%
X124835000Y-84640000D03*
X126385000Y-84640000D03*
%TD*%
%TO.C,C19*%
X74225000Y-184560000D03*
X75775000Y-184560000D03*
%TD*%
%TO.C,C8*%
X149835000Y-84640000D03*
X151385000Y-84640000D03*
%TD*%
%TO.C,C20*%
X99225000Y-185060000D03*
X100775000Y-185060000D03*
%TD*%
%TO.C,C21*%
X124225000Y-184560000D03*
X125775000Y-184560000D03*
%TD*%
%TO.C,C22*%
X74125000Y-210030000D03*
X75675000Y-210030000D03*
%TD*%
%TO.C,C11*%
X74505000Y-135200000D03*
X76055000Y-135200000D03*
%TD*%
%TO.C,C23*%
X99125000Y-210030000D03*
X100675000Y-210030000D03*
%TD*%
%TO.C,C12*%
X99505000Y-135200000D03*
X101055000Y-135200000D03*
%TD*%
%TO.C,C24*%
X124625000Y-210030000D03*
X126175000Y-210030000D03*
%TD*%
D12*
%TO.C,C_enc_2*%
X125500000Y-109525000D03*
X125500000Y-111075000D03*
%TD*%
D15*
%TO.C,D2*%
X99110000Y-51365000D03*
X100890000Y-51365000D03*
X100890000Y-48635000D03*
X99110000Y-48635000D03*
%TD*%
%TO.C,D3*%
X124110000Y-51365000D03*
X125890000Y-51365000D03*
X125890000Y-48635000D03*
X124110000Y-48635000D03*
%TD*%
%TO.C,D4*%
X149110000Y-51365000D03*
X150890000Y-51365000D03*
X150890000Y-48635000D03*
X149110000Y-48635000D03*
%TD*%
%TO.C,D5*%
X74110000Y-76365000D03*
X75890000Y-76365000D03*
X75890000Y-73635000D03*
X74110000Y-73635000D03*
%TD*%
%TO.C,D6*%
X99110000Y-76365000D03*
X100890000Y-76365000D03*
X100890000Y-73635000D03*
X99110000Y-73635000D03*
%TD*%
%TO.C,D7*%
X124110000Y-76365000D03*
X125890000Y-76365000D03*
X125890000Y-73635000D03*
X124110000Y-73635000D03*
%TD*%
%TO.C,D8*%
X149110000Y-76365000D03*
X150890000Y-76365000D03*
X150890000Y-73635000D03*
X149110000Y-73635000D03*
%TD*%
%TO.C,D11*%
X74110000Y-126365000D03*
X75890000Y-126365000D03*
X75890000Y-123635000D03*
X74110000Y-123635000D03*
%TD*%
%TO.C,D12*%
X99110000Y-126365000D03*
X100890000Y-126365000D03*
X100890000Y-123635000D03*
X99110000Y-123635000D03*
%TD*%
%TO.C,D13*%
X124110000Y-126365000D03*
X125890000Y-126365000D03*
X125890000Y-123635000D03*
X124110000Y-123635000D03*
%TD*%
%TO.C,D14*%
X149110000Y-126365000D03*
X150890000Y-126365000D03*
X150890000Y-123635000D03*
X149110000Y-123635000D03*
%TD*%
%TO.C,D15*%
X74110000Y-151365000D03*
X75890000Y-151365000D03*
X75890000Y-148635000D03*
X74110000Y-148635000D03*
%TD*%
%TO.C,D16*%
X99110000Y-151365000D03*
X100890000Y-151365000D03*
X100890000Y-148635000D03*
X99110000Y-148635000D03*
%TD*%
%TO.C,D17*%
X124110000Y-151365000D03*
X125890000Y-151365000D03*
X125890000Y-148635000D03*
X124110000Y-148635000D03*
%TD*%
%TO.C,D18*%
X149110000Y-151365000D03*
X150890000Y-151365000D03*
X150890000Y-148635000D03*
X149110000Y-148635000D03*
%TD*%
%TO.C,D19*%
X74110000Y-176365000D03*
X75890000Y-176365000D03*
X75890000Y-173635000D03*
X74110000Y-173635000D03*
%TD*%
%TO.C,D20*%
X99110000Y-176365000D03*
X100890000Y-176365000D03*
X100890000Y-173635000D03*
X99110000Y-173635000D03*
%TD*%
%TO.C,D21*%
X124110000Y-176365000D03*
X125890000Y-176365000D03*
X125890000Y-173635000D03*
X124110000Y-173635000D03*
%TD*%
%TO.C,D22*%
X74110000Y-201365000D03*
X75890000Y-201365000D03*
X75890000Y-198635000D03*
X74110000Y-198635000D03*
%TD*%
%TO.C,D23*%
X99110000Y-201365000D03*
X100890000Y-201365000D03*
X100890000Y-198635000D03*
X99110000Y-198635000D03*
%TD*%
%TO.C,D24*%
X124110000Y-201365000D03*
X125890000Y-201365000D03*
X125890000Y-198635000D03*
X124110000Y-198635000D03*
%TD*%
%TO.C,D_1*%
X74110000Y-51365000D03*
X75890000Y-51365000D03*
X75890000Y-48635000D03*
X74110000Y-48635000D03*
%TD*%
D16*
%TO.C,Diode1*%
X122500000Y-35000000D03*
X127500000Y-35000000D03*
%TD*%
D17*
%TO.C,Encoder1*%
X110050000Y-107530000D03*
D18*
X115050000Y-107530000D03*
X112550000Y-107530000D03*
D19*
X118150000Y-100030000D03*
X106950000Y-100030000D03*
D18*
X115050000Y-93030000D03*
X110050000Y-93030000D03*
%TD*%
D20*
%TO.C,R1*%
X167600000Y-59915000D03*
X167600000Y-61565000D03*
%TD*%
D21*
%TO.C,R3*%
X105690000Y-111485000D03*
X105690000Y-109835000D03*
%TD*%
D20*
%TO.C,R5*%
X123700000Y-109475000D03*
X123700000Y-111125000D03*
%TD*%
D21*
%TO.C,R4*%
X122000000Y-111125000D03*
X122000000Y-109475000D03*
%TD*%
%TO.C,R2*%
X103550000Y-111275000D03*
X103550000Y-109625000D03*
%TD*%
D12*
%TO.C,C_enc_1*%
X101300000Y-109625000D03*
X101300000Y-111175000D03*
%TD*%
D13*
%TO.C,C5*%
X75885000Y-84640000D03*
X74335000Y-84640000D03*
%TD*%
D12*
%TO.C,C_mux_2*%
X172000000Y-184225000D03*
X172000000Y-185775000D03*
%TD*%
D13*
%TO.C,C_pwr_1*%
X135405000Y-102020000D03*
X133855000Y-102020000D03*
%TD*%
D22*
%TO.C,Mux_2*%
X171575000Y-174400000D03*
X170925000Y-174400000D03*
X170275000Y-174400000D03*
X169625000Y-174400000D03*
X168975000Y-174400000D03*
X168325000Y-174400000D03*
X167675000Y-174400000D03*
X167025000Y-174400000D03*
X166375000Y-174400000D03*
X165725000Y-174400000D03*
X165075000Y-174400000D03*
X164425000Y-174400000D03*
X164425000Y-181600000D03*
X165075000Y-181600000D03*
X165725000Y-181600000D03*
X166375000Y-181600000D03*
X167025000Y-181600000D03*
X167675000Y-181600000D03*
X168325000Y-181600000D03*
X168975000Y-181600000D03*
X169625000Y-181600000D03*
X170275000Y-181600000D03*
X170925000Y-181600000D03*
X171575000Y-181600000D03*
%TD*%
%TO.C,Mux_1*%
X171575000Y-84400000D03*
X170925000Y-84400000D03*
X170275000Y-84400000D03*
X169625000Y-84400000D03*
X168975000Y-84400000D03*
X168325000Y-84400000D03*
X167675000Y-84400000D03*
X167025000Y-84400000D03*
X166375000Y-84400000D03*
X165725000Y-84400000D03*
X165075000Y-84400000D03*
X164425000Y-84400000D03*
X164425000Y-91600000D03*
X165075000Y-91600000D03*
X165725000Y-91600000D03*
X166375000Y-91600000D03*
X167025000Y-91600000D03*
X167675000Y-91600000D03*
X168325000Y-91600000D03*
X168975000Y-91600000D03*
X169625000Y-91600000D03*
X170275000Y-91600000D03*
X170925000Y-91600000D03*
X171575000Y-91600000D03*
%TD*%
D21*
%TO.C,R19*%
X81160000Y-60695000D03*
X81160000Y-59045000D03*
%TD*%
D15*
%TO.C,D9*%
X149110000Y-176365000D03*
X150890000Y-176365000D03*
X150890000Y-173635000D03*
X149110000Y-173635000D03*
%TD*%
D14*
%TO.C,C9*%
X149385000Y-184540000D03*
X150935000Y-184540000D03*
%TD*%
D15*
%TO.C,D10*%
X149110000Y-201365000D03*
X150890000Y-201365000D03*
X150890000Y-198635000D03*
X149110000Y-198635000D03*
%TD*%
D14*
%TO.C,C10*%
X149225000Y-210030000D03*
X150775000Y-210030000D03*
%TD*%
D23*
%TO.C,SW1*%
X70625740Y-49021540D03*
X81520000Y-45670000D03*
%TD*%
%TO.C,SW2*%
X95625740Y-49021540D03*
X106520000Y-45670000D03*
%TD*%
%TO.C,SW3*%
X120625740Y-49021540D03*
X131520000Y-45670000D03*
%TD*%
%TO.C,SW4*%
X145625740Y-49021540D03*
X156520000Y-45670000D03*
%TD*%
%TO.C,SW5*%
X70625740Y-74021540D03*
X81520000Y-70670000D03*
%TD*%
%TO.C,SW6*%
X95625740Y-74021540D03*
X106520000Y-70670000D03*
%TD*%
%TO.C,SW7*%
X120625740Y-74021540D03*
X131520000Y-70670000D03*
%TD*%
%TO.C,SW8*%
X145625740Y-74021540D03*
X156520000Y-70670000D03*
%TD*%
%TO.C,SW9*%
X145625740Y-174021540D03*
X156520000Y-170670000D03*
%TD*%
%TO.C,SW10*%
X145625740Y-199021540D03*
X156520000Y-195670000D03*
%TD*%
%TO.C,SW11*%
X70625740Y-124021540D03*
X81520000Y-120670000D03*
%TD*%
%TO.C,SW12*%
X95625740Y-124021540D03*
X106520000Y-120670000D03*
%TD*%
%TO.C,SW13*%
X120625740Y-124021540D03*
X131520000Y-120670000D03*
%TD*%
%TO.C,SW14*%
X145625740Y-124021540D03*
X156520000Y-120670000D03*
%TD*%
%TO.C,SW15*%
X70625740Y-149021540D03*
X81520000Y-145670000D03*
%TD*%
%TO.C,SW16*%
X95625740Y-149021540D03*
X106520000Y-145670000D03*
%TD*%
%TO.C,SW17*%
X120625740Y-149021540D03*
X131520000Y-145670000D03*
%TD*%
%TO.C,SW18*%
X145625740Y-149021540D03*
X156520000Y-145670000D03*
%TD*%
%TO.C,SW19*%
X70625740Y-174021540D03*
X81520000Y-170670000D03*
%TD*%
%TO.C,SW20*%
X95625740Y-174021540D03*
X106520000Y-170670000D03*
%TD*%
%TO.C,SW21*%
X120625740Y-174021540D03*
X131520000Y-170670000D03*
%TD*%
%TO.C,SW22*%
X70625740Y-199021540D03*
X81520000Y-195670000D03*
%TD*%
%TO.C,SW23*%
X95625740Y-199021540D03*
X106520000Y-195670000D03*
%TD*%
%TO.C,SW24*%
X120625740Y-199021540D03*
X131520000Y-195670000D03*
%TD*%
D24*
%TO.C,L293DD1*%
X176510000Y-189695000D03*
X176510000Y-190965000D03*
X176510000Y-192235000D03*
X176510000Y-193505000D03*
X176510000Y-194775000D03*
X176510000Y-196045000D03*
X176510000Y-197315000D03*
X176510000Y-198585000D03*
X176510000Y-199855000D03*
X176510000Y-201125000D03*
X185710000Y-201125000D03*
X185710000Y-199855000D03*
X185710000Y-198585000D03*
X185710000Y-197315000D03*
X185710000Y-196045000D03*
X185710000Y-194775000D03*
X185710000Y-193505000D03*
X185710000Y-192235000D03*
X185710000Y-190965000D03*
X185710000Y-189695000D03*
%TD*%
D25*
%TO.C,Tension_reg1*%
X139715000Y-102040000D03*
D26*
X148865000Y-104580000D03*
D25*
X139715000Y-107120000D03*
%TD*%
D27*
%TO.C,Extra_pins1*%
X180590000Y-80410000D03*
D28*
X180590000Y-77870000D03*
X180590000Y-75330000D03*
X180590000Y-72790000D03*
X180590000Y-70250000D03*
X180590000Y-67710000D03*
%TD*%
D29*
%TO.C,Power_jack1*%
X137000000Y-43000000D03*
D30*
X137000000Y-37000000D03*
D31*
X141700000Y-40000000D03*
%TD*%
D32*
%TO.C,U1*%
X180620000Y-34030000D03*
D33*
X180620000Y-36570000D03*
X180620000Y-39110000D03*
X180620000Y-41650000D03*
X180620000Y-44190000D03*
X180620000Y-46730000D03*
X180620000Y-49270000D03*
X180620000Y-51810000D03*
X180620000Y-54350000D03*
X180620000Y-56890000D03*
X180620000Y-59430000D03*
X180620000Y-61970000D03*
X165380000Y-61970000D03*
X165380000Y-59430000D03*
X165380000Y-56890000D03*
X165380000Y-54350000D03*
X165380000Y-51810000D03*
X165380000Y-49270000D03*
X165380000Y-46730000D03*
X165380000Y-44190000D03*
X165380000Y-41650000D03*
X165380000Y-39110000D03*
X165380000Y-36570000D03*
X165380000Y-34030000D03*
%TD*%
D34*
%TO.C,IDC_Conn*%
X59080000Y-102890000D03*
D35*
X61620000Y-102890000D03*
X59080000Y-100350000D03*
X61620000Y-100350000D03*
X59080000Y-97810000D03*
X61620000Y-97810000D03*
%TD*%
M02*
