%TF.GenerationSoftware,KiCad,Pcbnew,(6.0.9-0)*%
%TF.CreationDate,2023-10-23T19:11:04-03:00*%
%TF.ProjectId,Faduino-1,46616475-696e-46f2-9d31-2e6b69636164,3*%
%TF.SameCoordinates,Original*%
%TF.FileFunction,Soldermask,Bot*%
%TF.FilePolarity,Negative*%
%FSLAX46Y46*%
G04 Gerber Fmt 4.6, Leading zero omitted, Abs format (unit mm)*
G04 Created by KiCad (PCBNEW (6.0.9-0)) date 2023-10-23 19:11:04*
%MOMM*%
%LPD*%
G01*
G04 APERTURE LIST*
G04 Aperture macros list*
%AMRoundRect*
0 Rectangle with rounded corners*
0 $1 Rounding radius*
0 $2 $3 $4 $5 $6 $7 $8 $9 X,Y pos of 4 corners*
0 Add a 4 corners polygon primitive as box body*
4,1,4,$2,$3,$4,$5,$6,$7,$8,$9,$2,$3,0*
0 Add four circle primitives for the rounded corners*
1,1,$1+$1,$2,$3*
1,1,$1+$1,$4,$5*
1,1,$1+$1,$6,$7*
1,1,$1+$1,$8,$9*
0 Add four rect primitives between the rounded corners*
20,1,$1+$1,$2,$3,$4,$5,0*
20,1,$1+$1,$4,$5,$6,$7,0*
20,1,$1+$1,$6,$7,$8,$9,0*
20,1,$1+$1,$8,$9,$2,$3,0*%
G04 Aperture macros list end*
%ADD10R,2.000000X2.000000*%
%ADD11C,2.000000*%
%ADD12C,3.200000*%
%ADD13C,1.219200*%
%ADD14R,1.700000X1.700000*%
%ADD15O,1.700000X1.700000*%
%ADD16R,3.500000X3.500000*%
%ADD17RoundRect,0.750000X-1.000000X0.750000X-1.000000X-0.750000X1.000000X-0.750000X1.000000X0.750000X0*%
%ADD18RoundRect,0.875000X-0.875000X0.875000X-0.875000X-0.875000X0.875000X-0.875000X0.875000X0.875000X0*%
%ADD19R,1.600000X1.600000*%
%ADD20C,1.600000*%
%ADD21RoundRect,0.250000X-0.600000X-0.600000X0.600000X-0.600000X0.600000X0.600000X-0.600000X0.600000X0*%
%ADD22C,1.700000*%
G04 APERTURE END LIST*
D10*
%TO.C,Encoder1*%
X110050000Y-107530000D03*
D11*
X115050000Y-107530000D03*
X112550000Y-107530000D03*
D12*
X118150000Y-100030000D03*
X106950000Y-100030000D03*
D11*
X115050000Y-93030000D03*
X110050000Y-93030000D03*
%TD*%
D13*
%TO.C,SW1*%
X70625740Y-49021540D03*
X81520000Y-45670000D03*
%TD*%
%TO.C,SW2*%
X95625740Y-49021540D03*
X106520000Y-45670000D03*
%TD*%
%TO.C,SW3*%
X120625740Y-49021540D03*
X131520000Y-45670000D03*
%TD*%
%TO.C,SW4*%
X145625740Y-49021540D03*
X156520000Y-45670000D03*
%TD*%
%TO.C,SW5*%
X70625740Y-74021540D03*
X81520000Y-70670000D03*
%TD*%
%TO.C,SW6*%
X95625740Y-74021540D03*
X106520000Y-70670000D03*
%TD*%
%TO.C,SW7*%
X120625740Y-74021540D03*
X131520000Y-70670000D03*
%TD*%
%TO.C,SW8*%
X145625740Y-74021540D03*
X156520000Y-70670000D03*
%TD*%
%TO.C,SW9*%
X145625740Y-174021540D03*
X156520000Y-170670000D03*
%TD*%
%TO.C,SW10*%
X145625740Y-199021540D03*
X156520000Y-195670000D03*
%TD*%
%TO.C,SW11*%
X70625740Y-124021540D03*
X81520000Y-120670000D03*
%TD*%
%TO.C,SW12*%
X95625740Y-124021540D03*
X106520000Y-120670000D03*
%TD*%
%TO.C,SW13*%
X120625740Y-124021540D03*
X131520000Y-120670000D03*
%TD*%
%TO.C,SW14*%
X145625740Y-124021540D03*
X156520000Y-120670000D03*
%TD*%
%TO.C,SW15*%
X70625740Y-149021540D03*
X81520000Y-145670000D03*
%TD*%
%TO.C,SW16*%
X95625740Y-149021540D03*
X106520000Y-145670000D03*
%TD*%
%TO.C,SW17*%
X120625740Y-149021540D03*
X131520000Y-145670000D03*
%TD*%
%TO.C,SW18*%
X145625740Y-149021540D03*
X156520000Y-145670000D03*
%TD*%
%TO.C,SW19*%
X70625740Y-174021540D03*
X81520000Y-170670000D03*
%TD*%
%TO.C,SW20*%
X95625740Y-174021540D03*
X106520000Y-170670000D03*
%TD*%
%TO.C,SW21*%
X120625740Y-174021540D03*
X131520000Y-170670000D03*
%TD*%
%TO.C,SW22*%
X70625740Y-199021540D03*
X81520000Y-195670000D03*
%TD*%
%TO.C,SW23*%
X95625740Y-199021540D03*
X106520000Y-195670000D03*
%TD*%
%TO.C,SW24*%
X120625740Y-199021540D03*
X131520000Y-195670000D03*
%TD*%
D14*
%TO.C,Extra_pins1*%
X180590000Y-80410000D03*
D15*
X180590000Y-77870000D03*
X180590000Y-75330000D03*
X180590000Y-72790000D03*
X180590000Y-70250000D03*
X180590000Y-67710000D03*
%TD*%
D16*
%TO.C,Power_jack1*%
X137000000Y-43000000D03*
D17*
X137000000Y-37000000D03*
D18*
X141700000Y-40000000D03*
%TD*%
D19*
%TO.C,U1*%
X180620000Y-34030000D03*
D20*
X180620000Y-36570000D03*
X180620000Y-39110000D03*
X180620000Y-41650000D03*
X180620000Y-44190000D03*
X180620000Y-46730000D03*
X180620000Y-49270000D03*
X180620000Y-51810000D03*
X180620000Y-54350000D03*
X180620000Y-56890000D03*
X180620000Y-59430000D03*
X180620000Y-61970000D03*
X165380000Y-61970000D03*
X165380000Y-59430000D03*
X165380000Y-56890000D03*
X165380000Y-54350000D03*
X165380000Y-51810000D03*
X165380000Y-49270000D03*
X165380000Y-46730000D03*
X165380000Y-44190000D03*
X165380000Y-41650000D03*
X165380000Y-39110000D03*
X165380000Y-36570000D03*
X165380000Y-34030000D03*
%TD*%
D21*
%TO.C,IDC_Conn*%
X59080000Y-102890000D03*
D22*
X61620000Y-102890000D03*
X59080000Y-100350000D03*
X61620000Y-100350000D03*
X59080000Y-97810000D03*
X61620000Y-97810000D03*
%TD*%
M02*
