%TF.GenerationSoftware,KiCad,Pcbnew,(6.0.9-0)*%
%TF.CreationDate,2023-10-23T19:08:13-03:00*%
%TF.ProjectId,MotorizedFaderPCB_1,4d6f746f-7269-47a6-9564-466164657250,rev?*%
%TF.SameCoordinates,Original*%
%TF.FileFunction,Copper,L1,Top*%
%TF.FilePolarity,Positive*%
%FSLAX46Y46*%
G04 Gerber Fmt 4.6, Leading zero omitted, Abs format (unit mm)*
G04 Created by KiCad (PCBNEW (6.0.9-0)) date 2023-10-23 19:08:13*
%MOMM*%
%LPD*%
G01*
G04 APERTURE LIST*
G04 Aperture macros list*
%AMRoundRect*
0 Rectangle with rounded corners*
0 $1 Rounding radius*
0 $2 $3 $4 $5 $6 $7 $8 $9 X,Y pos of 4 corners*
0 Add a 4 corners polygon primitive as box body*
4,1,4,$2,$3,$4,$5,$6,$7,$8,$9,$2,$3,0*
0 Add four circle primitives for the rounded corners*
1,1,$1+$1,$2,$3*
1,1,$1+$1,$4,$5*
1,1,$1+$1,$6,$7*
1,1,$1+$1,$8,$9*
0 Add four rect primitives between the rounded corners*
20,1,$1+$1,$2,$3,$4,$5,0*
20,1,$1+$1,$4,$5,$6,$7,0*
20,1,$1+$1,$6,$7,$8,$9,0*
20,1,$1+$1,$8,$9,$2,$3,0*%
G04 Aperture macros list end*
%TA.AperFunction,ComponentPad*%
%ADD10RoundRect,0.250000X-0.600000X0.600000X-0.600000X-0.600000X0.600000X-0.600000X0.600000X0.600000X0*%
%TD*%
%TA.AperFunction,ComponentPad*%
%ADD11C,1.700000*%
%TD*%
%TA.AperFunction,ComponentPad*%
%ADD12C,2.500000*%
%TD*%
%TA.AperFunction,ViaPad*%
%ADD13C,0.800000*%
%TD*%
%TA.AperFunction,Conductor*%
%ADD14C,0.250000*%
%TD*%
G04 APERTURE END LIST*
D10*
%TO.P,IDC_Conn,1,Pin_1*%
%TO.N,Net-(J1-Pad1)*%
X188735000Y-82137500D03*
D11*
%TO.P,IDC_Conn,2,Pin_2*%
%TO.N,Net-(J1-Pad2)*%
X188735000Y-84677500D03*
%TO.P,IDC_Conn,3,Pin_3*%
%TO.N,Net-(J1-Pad3)*%
X186195000Y-82137500D03*
%TO.P,IDC_Conn,4,Pin_4*%
%TO.N,Net-(J1-Pad4)*%
X186195000Y-84677500D03*
%TO.P,IDC_Conn,5,Pin_5*%
%TO.N,Net-(J1-Pad5)*%
X183655000Y-82137500D03*
%TO.P,IDC_Conn,6,Pin_6*%
%TO.N,Net-(J1-Pad6)*%
X183655000Y-84677500D03*
%TD*%
D12*
%TO.P,U1,6,dc_2*%
%TO.N,Net-(J1-Pad6)*%
X232300000Y-79415000D03*
%TO.P,U1,5,dc_1*%
%TO.N,Net-(J1-Pad5)*%
X232300000Y-87415000D03*
%TO.P,U1,4,touch*%
%TO.N,Net-(J1-Pad2)*%
X139100000Y-81290000D03*
%TO.P,U1,3,vcc*%
%TO.N,Net-(J1-Pad3)*%
X139100000Y-85290000D03*
%TO.P,U1,2,wiper*%
%TO.N,Net-(J1-Pad4)*%
X139100000Y-89290000D03*
%TO.P,U1,1,gnd*%
%TO.N,Net-(J1-Pad1)*%
X139100000Y-77290000D03*
%TD*%
D13*
%TO.N,Net-(J1-Pad5)*%
X187480000Y-87150000D03*
%TO.N,Net-(J1-Pad6)*%
X183930000Y-79070000D03*
X188590000Y-77700000D03*
%TD*%
D14*
%TO.N,Net-(J1-Pad5)*%
X232300000Y-87415000D02*
X187745000Y-87415000D01*
X187745000Y-87415000D02*
X187480000Y-87150000D01*
%TO.N,Net-(J1-Pad6)*%
X179940000Y-83510000D02*
X181107500Y-84677500D01*
X181107500Y-84677500D02*
X183655000Y-84677500D01*
X183930000Y-79070000D02*
X183220000Y-79070000D01*
X183220000Y-79070000D02*
X179940000Y-82350000D01*
X179940000Y-82350000D02*
X179940000Y-83510000D01*
X190305000Y-79415000D02*
X188590000Y-77700000D01*
X232300000Y-79415000D02*
X190305000Y-79415000D01*
%TO.N,Net-(J1-Pad4)*%
X139100000Y-89290000D02*
X183610000Y-89290000D01*
X183610000Y-89290000D02*
X186195000Y-86705000D01*
X186195000Y-86705000D02*
X186195000Y-84677500D01*
%TO.N,Net-(J1-Pad3)*%
X139100000Y-85290000D02*
X166866396Y-85290000D01*
X166866396Y-85290000D02*
X173966396Y-78190000D01*
X173966396Y-78190000D02*
X184283604Y-78190000D01*
X186195000Y-80101396D02*
X186195000Y-82137500D01*
X184283604Y-78190000D02*
X186195000Y-80101396D01*
%TO.N,Net-(J1-Pad2)*%
X139100000Y-81290000D02*
X170230000Y-81290000D01*
X187390000Y-83200000D02*
X187390000Y-83332500D01*
X170230000Y-81290000D02*
X173780000Y-77740000D01*
X173780000Y-77740000D02*
X184470000Y-77740000D01*
X184470000Y-77740000D02*
X187440000Y-80710000D01*
X187440000Y-80710000D02*
X187440000Y-83150000D01*
X187440000Y-83150000D02*
X187390000Y-83200000D01*
X187390000Y-83332500D02*
X188735000Y-84677500D01*
%TO.N,Net-(J1-Pad1)*%
X139100000Y-77290000D02*
X186850000Y-77290000D01*
X186850000Y-77290000D02*
X188735000Y-79175000D01*
X188735000Y-79175000D02*
X188735000Y-82137500D01*
%TD*%
M02*
